<?xml version="1.0" encoding="UTF-8" standalone="no"?>
<!DOCTYPE svg PUBLIC "-//W3C//DTD SVG 1.1//EN"
"http://www.w3.org/Graphics/SVG/1.1/DTD/svg11.dtd">


<!-- Page 1 -->
<svg x="0" y="0" width="1286" height="909" viewBox="0 0 1286 909" version="1.1" xmlns="http://www.w3.org/2000/svg" xmlns:xlink="http://www.w3.org/1999/xlink"
style="display: block;margin-left: auto;margin-right: auto;">
<defs>
<clipPath id="c_1"><path d="M0,0H1286V909H0Z"/></clipPath>
<clipPath id="c0"><path d="M0,909.4V0H1286.2V909.4Z"/></clipPath>

<style type="text/css"><![CDATA[
text { white-space: pre; }
path, image { pointer-events: none; }

.s1{
font-size: 15.28px;
font-family: LiberationSerif_a;
fill: #000;
}
.s2{
font-size: 18.33px;
font-family: LiberationSerif-Bold_5;
fill: #000;
}
.s3{
font-size: 18.33px;
font-family: LiberationSerif_a;
fill: #000;
}
.s4{
font-size: 9.17px;
font-family: LiberationSerif_a;
fill: #000;
}
.s5{
font-size: 16.81px;
font-family: LiberationSerif_a;
fill: #000;
}

.g0{
fill: none;
stroke: #000000;
stroke-width: 2.291;
stroke-linecap: butt;
stroke-linejoin: round;
}
.g1{
fill: none;
stroke: #000000;
stroke-width: 0.381;
stroke-linecap: butt;
stroke-linejoin: round;
}

]]></style>

</defs>
<path d="M0,0
L0,909
L1286,909
L1286,0 Z " 
fill="#FFFFFF" stroke="none"/>
<g clip-path="url(#c_1)">
<text clip-path="url(#c0)" x="1028" y="86.2" dx="0,0,0,0,0,0,0,0,0,.1,.1,0,0,0,0,0,-.2,.1,0,.1,0,0,0,-.2,0" class="s1">Продовження форми № 025/о</text>
<path d="M76.2,90.7H1247.7M76.2,152.7H1247.7" class="g0"/>
<path d="M215.3,196.2H462.8m137.5,0h621.5M399.4,238.7h822.4M258.5,281.3h963.3M323.6,323.8h898.2M291,366.4h930.8m-1117.5,39H1221.8M104.3,444.5H1221.8M323.6,487h898.2M442.6,529.6h779.2M248,603.7h973.8" class="g1"/>
<path d="M76.2,784.4H1247.7M77.3,89.5V785.6M1246.5,89.5V785.6" class="g0"/>
<g clip-path="url(#c0)">
<text x="541.3" y="128.2" dx="0,0,0,0,0,0,-.1,0,0,-.1,-.1,0,.2,0,0,0,0,0,0,0,0" class="s2">І. СИГНАЛЬНІ ПОЗНАЧКИ</text>
<text x="112.8" y="192" dx="0,-.1,0,0,0,.1,0,0,0,0,0" class="s3">Група крові</text>
<text x="471.2" y="192" dx="0,0,0,-.1,0,0,0,0,0,0,-.1,0" class="s3">Резус-фактор</text>
<text x="112.8" y="234.5" dx="0,0,0,0,0,0,0,0,0,0,0,.1,0,0,0,0,0,.1,0,0,0,0,0,0,0,0,0,0,0,0,0,0,0" class="s3">Переливання крові (коли, скільки)</text>
<text x="112.8" y="277.1" class="s3">Цукровий діабет</text>
<text x="112.8" y="319.6" dx="0,0,0,0,0,0,0,0,0,.1,.1,0,-.1,0,0,0,0,0,0,0,0,0,0" class="s3">Інфекційні захворювання</text>
<text x="112.8" y="362.2" dx="0,0,0,0,0,0,0,0,0,0,.3,0,0,-.1,0,0,0,0,0,0" class="s3">Хірургічні втручання</text>
<text x="112.8" y="482.8" dx="0,0,0,0,0,0,0,0,0,0,0,0,0,0,.3,0,0,0,0,0,0,0" class="s3">Алергологічний анамнез</text>
<text x="112.8" y="525.4" dx="0,0,0,0,0,0,0,0,0,0,0,0,.1,0,-.1,.2,0,0,0,0,0,0,0,0,0,0,.3,0,0,0,0,0,0,0,0,-.1,0" class="s3">Непереносимість лікарських препаратів</text>
<text x="193" y="540.8" dx="0,0,0,-.1,.1,.1,0,0,0,0,0,0,0,0,-.1,0,0,0,0,0,.1,-.1,0,0,0,0,0,.1,-.2,.1,-.1,0,0,.1,0,-.1,.1,.1,-.2,.1,0,0" class="s4">(негативні побічні дії лікарських засобів)</text>
<text x="803.3" y="540.8" dx="0,0,0,0,.1,-.1,.1,0,0,.1,0,-.1,0,0,0" class="s4">(вказати, яких)</text>
<text x="112.8" y="599.5" dx="0,0,0,0,-.1,0,0,.1,0,0,0,-.1,0,0" class="s3">Фактори ризику</text>
<text x="510.1" y="690.9" dx="0,-.1,0,0,0" class="s3">Лікар</text>
<text x="570.3" y="689.3" class="s5">___________________________</text>
<text x="644.1" y="705.7" dx="0,0,0,0,-.1,0,0,0,0,.1,0,0,0,0,.1,0,0,.1" class="s4">(прізвище, підпис)</text>
</g>

</g>

<!-- Any embedded fonts defined here -->
<style type="text/css" ><![CDATA[

@font-face {
	font-family: LiberationSerif-Bold_5;
	src: url("fonts/LiberationSerif-Bold_5.woff") format("woff");
}

@font-face {
	font-family: LiberationSerif_a;
	src: url("fonts/LiberationSerif_a.woff") format("woff");
}

]]></style>

</svg>
