<svg xmlns="http://www.w3.org/2000/svg" xmlns:xlink="http://www.w3.org/1999/xlink" width="1122.56" height="793.76" viewBox="0 0 841.92 595.32"><g data-name="Artifact"><clipPath id="a"><path transform="matrix(1 0 0 -1 0 595.32)" d="M425.59 548.28h5.04v11.52h-5.04z" fill-rule="evenodd"/></clipPath><g clip-path="url(#a)"><clipPath id="b"><path transform="matrix(1 0 0 -1 0 595.32)" d="M425.59 548.28h5.04v11.52h-5.04z" fill-rule="evenodd"/></clipPath><g clip-path="url(#b)"><symbol id="c"><path d="M.11.344A.277.277 0 00.215.333.152.152 0 00.316.185C.316.1.26.036.186.036.158.036.138.043.101.067.072.085.055.092.038.092.015.092 0 .078 0 .057 0 .022.043 0 .113 0c.076 0 .155.026.203.067a.214.214 0 01.072.166.192.192 0 01-.044.129.224.224 0 01-.083.053c.068.047.093.084.093.138C.354.635.291.69.198.69a.191.191 0 01-.13-.049.24.24 0 01-.066-.113L.017.524C.057.598.102.63.165.63c.066 0 .11-.043.11-.107a.141.141 0 00-.04-.097.29.29 0 00-.126-.069L.11.344z"/></symbol><use xlink:href="#c" transform="matrix(9.96 0 0 -9.96 426.018 44.78)"/></g></g></g><g data-name="P"><clipPath id="d"><path transform="matrix(1 0 0 -1 0 595.32)" d="M0 0h841.92v595.32H0z" fill-rule="evenodd"/></clipPath><g clip-path="url(#d)"><symbol id="e"><path d="M.497.626H.189V.121C.19.077.195.049.206.038.217.026.244.019.286.018V0H0v.018c.041.001.067.008.079.02C.09.049.096.077.096.12v.42C.096.586.09.614.079.626.067.636.04.643 0 .644v.018h.686V.644C.645.643.619.636.607.624.596.614.59.586.59.543V.12C.59.077.596.049.607.038.62.026.645.019.686.018V0H.401v.018C.442.02.468.026.48.038c.012.01.018.039.018.083v.505z"/></symbol><symbol id="f"><path d="M.002.617L.14.672H.16V.568c.023.04.046.067.069.082a.13.13 0 00.074.024.142.142 0 00.112-.052A.25.25 0 00.47.454.28.28 0 00.403.262.176.176 0 00.265.2a.172.172 0 00-.062.01.146.146 0 00-.044.03V.104c0-.031.001-.05.005-.059a.043.043 0 01.02-.02.122.122 0 01.05-.007V0H0v.018h.012c.018 0 .033.003.046.01.006.004.011.01.014.018a.196.196 0 01.006.06V.53a.23.23 0 01-.004.055.033.033 0 01-.013.018.04.04 0 01-.023.006A.088.088 0 01.008.6L.002.617M.16.539V.372c0-.036.001-.06.004-.071A.092.092 0 01.196.25.104.104 0 01.264.229c.032 0 .059.013.079.039a.22.22 0 01.04.14c0 .068-.016.12-.046.157a.093.093 0 01-.12.027.272.272 0 01-.058-.053z"/></symbol><symbol id="g"><path d="M.216.474A.198.198 0 00.38.397.237.237 0 00.432.246c0-.04-.01-.081-.03-.122A.21.21 0 00.324.031.208.208 0 00.211 0a.19.19 0 00-.16.08A.25.25 0 000 .234c0 .04.01.082.03.122a.208.208 0 00.186.12M.201.441A.102.102 0 01.15.427.107.107 0 01.107.373a.26.26 0 01-.016-.1C.09.21.104.154.129.106.155.058.19.035.232.035.264.035.29.048.31.074.33.1.34.144.34.208.34.288.325.35.29.396A.106.106 0 01.2.442z"/></symbol><symbol id="h"><path d="M.08.571h.394V.553C.452.553.437.55.43.546A.05.05 0 01.413.53.17.17 0 01.406.466v-.22C.406.198.41.17.418.158.426.15.445.143.474.142V0H.456a.146.146 0 01-.02.07.096.096 0 01-.05.042.275.275 0 01-.094.012H.177a.299.299 0 01-.084-.01.097.097 0 01-.05-.04A.162.162 0 01.017 0H0v.142c.027.001.05.012.073.032.022.02.04.06.057.118a.639.639 0 01.025.174C.155.522.13.551.08.553V.57M.187.54V.513C.188.353.16.233.102.156h.166c.03 0 .047.002.051.007.005.005.007.024.007.056v.32H.187z"/></symbol><symbol id="i"><path d="M.292.236C.373.22.414.181.414.122A.1.1 0 00.363.03.279.279 0 00.22 0H0v.018c.029 0 .047.005.055.016.007.011.011.035.011.071v.237a.19.19 0 01-.005.062.046.046 0 01-.016.017C.038.426.023.429 0 .429v.018h.206c.04 0 .072-.003.096-.009a.114.114 0 00.06-.037.097.097 0 00.025-.066C.387.285.355.251.292.236M.147.248h.026C.218.247.25.255.27.271A.08.08 0 01.3.335C.3.363.29.384.27.396a.188.188 0 01-.097.02H.147V.248m0-.208A.192.192 0 01.206.032c.038 0 .067.008.086.025A.084.084 0 01.32.123C.32.153.308.175.284.19a.185.185 0 01-.102.024H.147V.04z"/></symbol><symbol id="j"><path d="M.224 0v.018c.03.003.05.011.058.024.008.013.012.04.012.081v.102C.272.225.258.222.25.217A.205.205 0 01.216.162L.132 0H0v.018c.023.002.04.008.052.02a.322.322 0 01.047.076c.03.061.053.098.067.11.014.014.029.02.045.022C.19.255.172.281.155.326a.213.213 0 01-.02.042.023.023 0 01-.02.01A.073.073 0 01.09.372.1.1 0 00.056.363a.038.038 0 00-.031.013.047.047 0 00-.011.032c0 .015.005.025.017.033a.07.07 0 00.04.012.086.086 0 00.064-.024A.226.226 0 00.18.344C.195.306.211.28.23.27A.115.115 0 01.294.25v.073C.294.366.29.394.28.406.272.418.253.426.224.429v.018h.22V.43C.416.425.397.418.389.405.379.393.375.365.375.325V.25c.026 0 .047.006.065.018.018.011.033.037.047.075.018.05.036.081.055.092a.11.11 0 00.055.017C.616.453.63.448.64.439A.04.04 0 00.655.41.047.047 0 00.644.375a.038.038 0 00-.03-.013.1.1 0 00-.035.01.071.071 0 01-.023.005.025.025 0 01-.022-.01.213.213 0 01-.02-.042C.497.281.478.255.458.246A.074.074 0 00.504.224.489.489 0 00.57.116.334.334 0 01.617.037.082.082 0 01.67.018V0H.537L.453.162a.194.194 0 01-.036.055C.411.222.397.225.375.225V.123C.375.076.38.048.389.038.4.028.417.022.445.018V0h-.22z"/></symbol><symbol id="k"><path d="M.07.292A.23.23 0 01.117.136.147.147 0 01.232.08c.03 0 .055.008.077.024a.18.18 0 01.054.083l.015-.01a.234.234 0 00-.06-.122A.16.16 0 00.196 0c-.053 0-.1.02-.138.063A.242.242 0 000 .23c0 .077.02.137.059.18.039.042.088.064.148.064.05 0 .09-.017.123-.05A.18.18 0 00.378.292H.07m0 .029h.207a.191.191 0 01-.01.06.096.096 0 01-.037.043.09.09 0 01-.05.016.101.101 0 01-.073-.032A.136.136 0 01.07.321z"/></symbol><symbol id="l"><path d="M.148.248h.194v.094a.27.27 0 01-.004.055.037.037 0 01-.017.022C.312.426.297.43.274.43v.018H.49V.43A.108.108 0 01.446.422a.036.036 0 01-.019-.02.216.216 0 01-.005-.06V.105c0-.028.002-.047.004-.056A.039.039 0 01.444.026.096.096 0 01.49.018V0H.274v.018C.3.018.319.023.328.033c.01.01.014.034.014.072v.11H.148v-.11C.148.077.15.058.152.049A.039.039 0 01.17.026.096.096 0 01.216.018V0H0v.018c.029 0 .048.005.056.016.008.01.012.034.012.071v.237a.252.252 0 01-.004.056.035.035 0 01-.018.022A.096.096 0 010 .43v.018h.216V.43A.108.108 0 01.172.422a.036.036 0 01-.019-.02.216.216 0 01-.005-.06V.248z"/></symbol><symbol id="m"><path d="M.438.447V.43A.094.094 0 01.393.42.04.04 0 01.375.4.224.224 0 01.37.341V.105C.37.077.371.058.374.049A.039.039 0 01.393.027.093.093 0 01.438.018V0H.222v.018c.027 0 .045.005.054.015.009.01.014.034.014.072v.097H.254L.11 0H0v.018c.016 0 .028.002.034.006a.225.225 0 01.035.044l.105.147C.099.241.062.281.062.335a.1.1 0 00.04.079c.027.022.072.033.137.033h.199M.29.41a.133.133 0 01-.037.006C.221.416.196.407.18.39A.08.08 0 01.155.333C.155.304.167.281.19.262a.134.134 0 01.1-.028V.41z"/></symbol><symbol id="o"><path d="M.166.853l.132.055h.021V.633c.03.028.06.041.09.041.043 0 .079-.023.109-.069A.3.3 0 00.563.437.299.299 0 00.517.27C.487.223.45.2.406.2a.113.113 0 00-.087.043V.105C.32.072.321.052.325.043a.034.034 0 01.02-.02.202.202 0 01.062-.005V0H.166v.018c.033 0 .054.005.063.014.01.01.015.034.015.073v.138A.11.11 0 00.158.2C.112.2.075.224.045.27A.312.312 0 000 .443c0 .06.014.115.043.162.029.047.066.07.112.07A.11.11 0 00.244.627V.75a.243.243 0 01-.008.08C.23.838.222.844.208.844A.089.089 0 01.173.837L.166.853M.244.584C.225.622.202.642.174.642.145.642.123.623.107.587A.435.435 0 01.085.425.35.35 0 01.108.282C.124.25.146.233.173.233c.026 0 .05.015.07.045v.306M.32.286A.079.079 0 01.35.247.074.074 0 01.39.233c.025 0 .046.016.062.048.016.031.024.08.024.148C.476.57.448.642.392.642.368.642.344.628.319.602V.286z"/></symbol><symbol id="p"><path d="M.298.117l.14.33h.15V.43C.566.429.551.426.544.422A.05.05 0 01.527.406.17.17 0 01.52.342V.105c0-.03.001-.051.004-.06a.036.036 0 01.019-.02.11.11 0 01.044-.007V0H.372v.018C.4.018.417.023.426.033c.009.01.013.034.013.072v.269L.281 0H.264L.103.374V.105c0-.03.002-.051.005-.06a.036.036 0 01.019-.02.106.106 0 01.044-.007V0H0v.018c.029 0 .048.005.056.016.008.01.012.034.012.071v.237a.187.187 0 01-.006.062.049.049 0 01-.016.017C.038.426.023.429 0 .429v.018h.157l.14-.33z"/></symbol><symbol id="q"><path d="M.148.138L.342.36c0 .025-.006.043-.014.053-.01.01-.024.014-.046.015v.018H.49V.43C.468.429.454.426.446.422A.05.05 0 01.43.406.17.17 0 01.422.342V.105C.422.07.424.05.428.043A.053.053 0 01.444.025C.452.021.467.018.49.018V0H.274v.018C.3.018.319.023.328.033c.01.01.014.034.014.072v.21L.148.091C.15.064.153.045.16.034.167.024.183.018.207.018V0H0v.018c.029 0 .048.005.056.016.008.01.012.034.012.071v.237a.187.187 0 01-.006.062.049.049 0 01-.016.017C.038.426.023.429 0 .429v.018h.216V.43C.194.429.18.426.172.422A.05.05 0 01.155.406.17.17 0 01.148.342V.138z"/></symbol><symbol id="r"><path d="M.242.677L.488.231v.213a.96.96 0 00.007.144.115.115 0 00.119.096.085.085 0 00.058-.018.055.055 0 00.02-.043.048.048 0 00-.014-.035.049.049 0 00-.036-.014.08.08 0 00-.043.013C.583.597.571.602.564.602.552.602.544.596.538.583A.31.31 0 01.531.496V0H.509L.207.54V.223A.536.536 0 00.193.076.101.101 0 00.148.018.138.138 0 00.08 0C.052 0 .032.006.02.019A.057.057 0 000 .06c0 .014.005.025.015.034.01.009.022.013.036.013A.094.094 0 00.095.094.103.103 0 01.133.079c.012 0 .02.008.024.025a.57.57 0 01.007.11v.34a.23.23 0 01-.007.071.046.046 0 01-.028.025.166.166 0 01-.06.01v.017h.173m.515-.2A.162.162 0 00.864.435C.896.409.912.37.912.319A.149.149 0 00.872.21.132.132 0 00.773.169a.148.148 0 00-.108.046.16.16 0 00-.046.116c0 .04.012.073.037.102a.126.126 0 00.1.043M.754.453C.715.453.696.424.696.367c0-.042.008-.082.026-.12C.739.21.76.191.787.191.823.191.84.218.84.272A.343.343 0 01.818.39C.803.432.78.453.754.453M.62.07h.292V.015H.62V.07z"/></symbol><symbol id="s"><path d="M0 .339c0 .075.011.14.034.195a.273.273 0 00.091.122c.03.02.06.031.09.031C.268.688.313.662.354.61A.41.41 0 00.428.35.514.514 0 00.395.152.26.26 0 00.31.036.173.173 0 00.21 0C.149 0 .096.037.054.112A.455.455 0 000 .339M.096.327c0-.091.01-.166.033-.223C.148.055.176.03.212.03.23.03.248.039.267.054a.152.152 0 01.043.08.965.965 0 01.023.237.648.648 0 01-.024.189.168.168 0 01-.045.08.077.077 0 01-.107-.014.249.249 0 01-.049-.128A1.185 1.185 0 01.096.327z"/></symbol><symbol id="t"><path d="M.45.244v-.07H.36V0H.28v.175H0v.062l.307.439h.054V.244H.45m-.17 0v.329L.048.244H.28z"/></symbol><symbol id="u"><path d="M.01.548A.268.268 0 00.082.65a.162.162 0 00.107.036.149.149 0 00.123-.051.127.127 0 00.032-.083c0-.048-.03-.098-.091-.15A.197.197 0 00.345.336.177.177 0 00.376.231.22.22 0 00.322.082C.274.027.205 0 .115 0 .071 0 .04.006.024.017.008.027 0 .04 0 .052c0 .01.004.018.011.025a.04.04 0 00.028.01.084.084 0 00.025-.003.285.285 0 00.038-.018.245.245 0 01.04-.018.135.135 0 01.039-.006c.033 0 .062.013.086.04a.127.127 0 01.037.09A.176.176 0 01.26.29a.199.199 0 01-.057.035.184.184 0 01-.075.016H.111v.015a.2.2 0 01.077.028.147.147 0 01.057.055.145.145 0 01.018.07.108.108 0 01-.11.113C.103.621.06.594.026.54L.01.548z"/></symbol><symbol id="v"><path d="M.279.708L.039 0H0l.24.708h.039z"/></symbol><use xlink:href="#e" transform="matrix(9.96 0 0 -9.96 672.88 67.58)"/><use xlink:href="#f" transform="matrix(9.96 0 0 -9.96 679.857 69.71)"/><use xlink:href="#g" transform="matrix(9.96 0 0 -9.96 685.266 67.716)"/><use xlink:href="#h" transform="matrix(9.96 0 0 -9.96 690.087 68.815)"/><use xlink:href="#g" transform="matrix(9.96 0 0 -9.96 695.366 67.716)"/><use xlink:href="#i" transform="matrix(9.96 0 0 -9.96 700.264 67.58)"/><use xlink:href="#j" transform="matrix(9.96 0 0 -9.96 704.843 67.58)"/><use xlink:href="#k" transform="matrix(9.96 0 0 -9.96 711.923 67.716)"/><use xlink:href="#l" transform="matrix(9.96 0 0 -9.96 716.2 67.58)"/><use xlink:href="#l" transform="matrix(9.96 0 0 -9.96 721.608 67.58)"/><use xlink:href="#m" transform="matrix(9.96 0 0 -9.96 726.658 67.58)"/><use xlink:href="#n" transform="matrix(9.96 0 0 -9.96 731.245 67.58)"/><use xlink:href="#o" transform="matrix(9.96 0 0 -9.96 734.158 69.71)"/><use xlink:href="#g" transform="matrix(9.96 0 0 -9.96 740.544 67.716)"/><use xlink:href="#f" transform="matrix(9.96 0 0 -9.96 745.205 69.71)"/><use xlink:href="#p" transform="matrix(9.96 0 0 -9.96 750.492 67.58)"/><use xlink:href="#q" transform="matrix(9.96 0 0 -9.96 756.847 67.58)"/><use xlink:href="#n" transform="matrix(9.96 0 0 -9.96 761.902 67.58)"/><use xlink:href="#r" transform="matrix(9.96 0 0 -9.96 764.49 67.73)"/><use xlink:href="#n" transform="matrix(9.96 0 0 -9.96 773.913 67.58)"/><use xlink:href="#s" transform="matrix(9.96 0 0 -9.96 776.763 67.697)"/><use xlink:href="#t" transform="matrix(9.96 0 0 -9.96 781.599 67.58)"/><use xlink:href="#u" transform="matrix(9.96 0 0 -9.96 786.876 67.697)"/><use xlink:href="#v" transform="matrix(9.96 0 0 -9.96 791.517 67.716)"/><use xlink:href="#g" transform="matrix(9.96 0 0 -9.96 794.607 67.716)"/></g></g><clipPath id="w"><path transform="matrix(1 0 0 -1 0 595.32)" d="M52.08 507.7h85.584v16.2H52.08z" fill-rule="evenodd"/></clipPath><g data-name="P" clip-path="url(#w)"><clipPath id="x"><path transform="matrix(1 0 0 -1 0 595.32)" d="M52.08 507.7h85.584v16.2H52.08z" fill-rule="evenodd"/></clipPath><g clip-path="url(#x)"><symbol id="y"><path d="M0 .597l.161.079h.016v-.56C.177.08.18.057.182.048a.037.037 0 01.02-.02A.164.164 0 01.26.017V0H.01v.018c.032 0 .052.003.061.008.01.005.016.011.02.019a.262.262 0 01.005.072v.357c0 .048-.002.08-.005.093A.038.038 0 01.079.59a.032.032 0 01-.021.007.13.13 0 01-.05-.015L0 .597z"/></symbol><symbol id="z"><path d="M.054.108A.052.052 0 00.093.092.052.052 0 00.108.054.053.053 0 00.092.016.052.052 0 00.054 0 .053.053 0 000 .054C0 .07.005.082.016.093c.01.01.023.015.038.015z"/></symbol><symbol id="A"><path d="M.458 0H.326C.285.06.248.12.214.183a.155.155 0 01-.021.032.032.032 0 01-.026.01.27.27 0 01-.019 0v-.12C.148.073.15.052.154.043a.036.036 0 01.02-.02.146.146 0 01.05-.005V0H0v.018c.029 0 .048.005.056.016.008.01.012.034.012.071v.237a.187.187 0 01-.006.062.049.049 0 01-.016.017C.038.426.023.429 0 .429v.018h.224V.43a.126.126 0 01-.05-.006.08.08 0 01-.018-.015C.151.403.148.381.148.342V.254a.101.101 0 01.07.016c.019.011.034.035.048.072a.371.371 0 00.031.07c.009.012.02.021.035.029a.1.1 0 00.047.012A.065.065 0 00.42.44.04.04 0 00.437.407a.042.042 0 00-.012-.03.041.041 0 00-.031-.011.082.082 0 00-.027.006.103.103 0 01-.031.007C.32.379.309.366.299.34A.447.447 0 00.274.283a.204.204 0 00-.03-.034.08.08 0 00.033-.023.636.636 0 00.067-.103A.437.437 0 01.4.037.083.083 0 01.458.018V0z"/></symbol><symbol id="B"><path d="M0 .663h.208V.645h-.01C.184.645.173.642.165.635a.03.03 0 01-.01-.023C.154.599.16.582.17.559L.28.333l.1.248a.103.103 0 01.008.04c0 .005-.001.01-.004.012a.025.025 0 01-.012.009.086.086 0 01-.03.003v.018h.146V.645A.07.07 0 01.46.637.08.08 0 01.44.615.305.305 0 01.422.578L.24.13A.23.23 0 00.17.033.135.135 0 00.09 0a.068.068 0 00-.047.017.05.05 0 00-.02.038c0 .013.005.024.014.033C.046.096.058.1.073.1.084.1.1.097.117.09A.105.105 0 01.142.081c.01 0 .02.005.031.015.012.01.024.03.035.059L.24.233.08.571a.27.27 0 01-.044.06A.11.11 0 010 .645v.018z"/></symbol><symbol id="C"><path d="M.377.184a.244.244 0 00-.07-.137A.17.17 0 00.188 0a.172.172 0 00-.132.064A.251.251 0 000 .237c0 .07.02.127.063.171a.201.201 0 00.15.066C.257.474.293.462.322.44.35.416.364.392.364.367a.04.04 0 00-.012-.03A.046.046 0 00.32.324c-.02 0-.034.006-.044.019C.27.35.266.364.265.383a.063.063 0 01-.02.044.07.07 0 01-.048.014A.097.097 0 01.12.405.192.192 0 01.079.28c0-.054.013-.1.04-.142a.121.121 0 01.106-.06c.032 0 .06.01.086.032A.22.22 0 01.363.19L.377.184z"/></symbol><use xlink:href="#y" transform="matrix(12 0 0 -12 58.046 82.34)"/><use xlink:href="#s" transform="matrix(12 0 0 -12 63.074 82.48)"/><use xlink:href="#z" transform="matrix(12 0 0 -12 69.49 82.504)"/><use xlink:href="#n" transform="matrix(12 0 0 -12 71.64 82.34)"/><use xlink:href="#e" transform="matrix(12 0 0 -12 74.857 82.34)"/><use xlink:href="#f" transform="matrix(12 0 0 -12 83.263 84.906)"/><use xlink:href="#q" transform="matrix(12 0 0 -12 89.574 82.34)"/><use xlink:href="#A" transform="matrix(12 0 0 -12 95.994 82.34)"/><use xlink:href="#B" transform="matrix(12 0 0 -12 101.818 84.93)"/><use xlink:href="#C" transform="matrix(12 0 0 -12 107.918 82.504)"/></g></g><g data-name="P" fill-rule="evenodd"><path d="M50.52 71.54h1.44v-1.56h-1.44z"/><path d="M50.52 71.42h1.44v-1.44h-1.44zM51.96 71.42h85.704v-1.44H51.96z"/><path d="M137.66 71.42h1.44v-1.44h-1.44zM139.1 71.42h665.02v-1.44H139.1zM804.12 71.54h1.44v-1.56h-1.44z"/><path d="M804.12 71.42h1.44v-1.44h-1.44zM50.52 87.62h1.44V71.54h-1.44zM804.12 87.62h1.44V71.54h-1.44z"/></g><g data-name="P" fill-rule="evenodd"><path d="M50.52 88.1h1.44v-.48h-1.44zM137.66 88.1h666.46v-.48H137.66zM804.12 88.1h1.44v-.48h-1.44zM50.52 104.18h1.44V88.1h-1.44zM804.12 104.18h1.44V88.1h-1.44z"/></g><clipPath id="D"><path transform="matrix(1 0 0 -1 0 595.32)" d="M52.08 476.86h752.04v13.8H52.08z" fill-rule="evenodd"/></clipPath><g data-name="P" clip-path="url(#D)"><clipPath id="E"><path transform="matrix(1 0 0 -1 0 595.32)" d="M52.08 476.86h752.04v13.8H52.08z" fill-rule="evenodd"/></clipPath><g clip-path="url(#E)"><symbol id="F"><path d="M.566.692L.58.467H.566a.283.283 0 01-.087.146.21.21 0 01-.134.044.218.218 0 01-.12-.033.221.221 0 01-.083-.107.479.479 0 01-.03-.182C.111.275.12.223.14.179a.216.216 0 01.087-.1.25.25 0 01.132-.036c.043 0 .08.01.114.027A.379.379 0 01.58.18L.596.17A.348.348 0 00.48.041.294.294 0 00.322 0C.212 0 .128.04.067.122A.349.349 0 000 .336a.38.38 0 00.044.182.33.33 0 00.292.174A.312.312 0 00.48.657a.077.077 0 01.029-.01C.517.646.524.65.53.655a.076.076 0 01.018.036h.017z"/></symbol><symbol id="G"><path d="M.019.447h.386l.02-.12H.403a.14.14 0 01-.02.056.066.066 0 01-.03.026.197.197 0 01-.061.007h-.04V.105C.253.072.256.051.26.042a.032.032 0 01.02-.018A.294.294 0 01.34.018V0H.098v.018c.031 0 .051.006.06.015.01.01.014.034.014.072v.31h-.04A.2.2 0 01.075.41a.062.062 0 01-.03-.024.176.176 0 01-.023-.06H0l.019.121z"/></symbol><symbol id="H"><path d="M.249.074A.737.737 0 00.163.012.132.132 0 00.106 0C.076 0 .05.01.03.032A.117.117 0 000 .115c0 .022.005.04.015.057a.194.194 0 00.069.062c.033.02.088.044.165.072v.017c0 .045-.007.075-.021.092C.214.432.193.44.166.44A.07.07 0 01.117.423.05.05 0 01.1.385V.357C.1.342.097.33.089.322A.039.039 0 00.058.31a.039.039 0 00-.03.013.05.05 0 00-.01.034c0 .028.013.054.042.078A.186.186 0 00.18.47.21.21 0 00.279.45.092.092 0 00.321.402.267.267 0 00.33.316V.165c0-.043 0-.07.002-.08C.334.077.336.07.34.068A.02.02 0 01.353.062c.005 0 .01.001.014.003l.04.036V.074C.37.024.334 0 .301 0a.047.047 0 00-.038.017C.254.028.249.047.249.074m0 .031v.17a.964.964 0 01-.095-.04.164.164 0 01-.055-.046.087.087 0 01-.017-.05c0-.024.007-.044.021-.06A.064.064 0 01.151.058C.176.057.21.073.25.105z"/></symbol><symbol id="I"><path d="M.37.447L.39.325H.367C.355.365.342.391.33.4.317.41.29.416.25.416H.156V.105C.156.07.158.05.16.043A.053.053 0 01.178.025C.186.021.2.018.224.018V0H0v.018c.032 0 .052.006.062.015.009.01.013.033.013.072v.237a.205.205 0 01-.005.06.034.034 0 01-.02.02A.15.15 0 010 .43v.018h.37z"/></symbol><symbol id="J"><path d="M.116.694A.046.046 0 00.15.68.046.046 0 00.165.645.048.048 0 00.15.61.046.046 0 00.116.595.048.048 0 00.08.61a.048.048 0 00-.015.035C.066.659.07.67.08.68c.01.01.022.014.036.014M.156.46V.101c0-.028.002-.047.006-.056A.045.045 0 01.18.025.098.098 0 01.224.017V0H.007v.018C.029.018.043.02.05.024a.042.042 0 01.017.02c.005.01.007.03.007.057v.172a.61.61 0 01-.004.095C.069.378.065.385.06.389A.03.03 0 01.04.396.098.098 0 01.007.388L0 .406.135.46h.021z"/></symbol><symbol id="K"><path d="M.351.322H.333a.154.154 0 01-.037.086.097.097 0 01-.076.034C.187.442.16.427.138.395A.273.273 0 01.095.268H.24V.236H.092V.212C.092.147.105.1.13.072A.125.125 0 01.227.03C.282.03.328.056.365.11l.017-.01C.337.033.282 0 .217 0A.196.196 0 00.06.071.258.258 0 000 .243C0 .312.02.367.062.41a.19.19 0 00.14.064C.221.474.246.47.276.46A.167.167 0 01.312.452a.03.03 0 01.02.009h.02V.32z"/></symbol><symbol id="L"><path d="M.342.416H.148V.105C.148.07.15.05.154.043A.053.053 0 01.17.025C.178.021.194.018.216.018V0H0v.018c.029 0 .048.005.056.016.008.01.012.034.012.071v.237a.187.187 0 01-.006.062.049.049 0 01-.016.017C.038.426.023.429 0 .429v.018h.49V.43C.468.429.454.426.446.422A.05.05 0 01.43.406.17.17 0 01.422.342V.105C.422.07.424.05.428.043A.053.053 0 01.444.025C.452.021.467.018.49.018V0H.274v.018C.3.018.319.023.328.033c.01.01.014.034.014.072v.31z"/></symbol><symbol id="M"><path d="M0 0v.021C.034.033.06.05.078.073a.116.116 0 01.027.074.027.027 0 01-.004.016C.1.166.097.167.094.167a.071.071 0 01-.023-.01.04.04 0 00-.019-.004.051.051 0 00-.038.014.053.053 0 00-.014.04c0 .015.006.029.018.04a.064.064 0 00.045.017c.021 0 .04-.01.057-.028A.106.106 0 00.146.162.144.144 0 00.11.068.228.228 0 000 0z"/></symbol><symbol id="N"><path d="M.071.455h.4V.437C.45.437.434.434.427.43A.05.05 0 01.41.414.17.17 0 01.403.35V.113C.403.078.405.058.41.05A.053.053 0 01.425.033C.433.028.448.026.471.026V.008H.24v.018c.025 0 .042.001.052.004.01.002.017.009.022.018.006.01.009.032.009.065v.31h-.15V.235a.786.786 0 00-.009-.15A.103.103 0 00.126.02.105.105 0 00.062 0C.021 0 0 .017 0 .052 0 .063.003.073.01.08a.034.034 0 00.026.01.045.045 0 00.032-.013C.08.065.09.059.097.059.11.06.122.071.128.096c.007.024.01.068.01.13v.098c0 .05-.003.081-.01.093C.12.427.101.434.07.437v.018z"/></symbol><symbol id="O"><path d="M.03.32v.14h.02A.029.029 0 01.07.454a.18.18 0 01.035.008.29.29 0 00.076.013C.224.474.26.464.29.444A.092.092 0 00.332.365c0-.05-.038-.087-.115-.11C.307.237.351.195.351.13A.12.12 0 00.308.04C.28.012.238 0 .183 0a.223.223 0 00-.095.019A.358.358 0 000 .084l.013.013A.253.253 0 01.165.035c.027 0 .05.01.067.028a.1.1 0 01.026.072c0 .065-.042.1-.125.103v.029c.04 0 .068.01.085.03a.103.103 0 01.027.069c0 .02-.008.04-.023.055a.078.078 0 01-.06.024C.104.445.066.404.047.321H.029z"/></symbol><symbol id="P"><path d="M.184.46V.101C.184.073.186.054.19.045a.045.045 0 01.018-.02.098.098 0 01.044-.007V0H.035v.018C.057.018.072.02.08.024a.042.042 0 01.018.02c.004.01.007.03.007.057v.172a.61.61 0 01-.005.095C.097.378.093.385.09.389a.03.03 0 01-.02.007.098.098 0 01-.034-.008L.028.406.163.46h.021m.041.193A.05.05 0 00.262.637.051.051 0 00.278.6.051.051 0 00.262.562.05.05 0 00.225.547.052.052 0 00.172.6c0 .014.005.027.016.037.01.01.022.016.037.016m-.172 0A.05.05 0 00.09.637.051.051 0 00.106.6.051.051 0 00.09.562.052.052 0 00.053.547.052.052 0 000 .6a.052.052 0 00.053.053z"/></symbol><symbol id="Q"><path d="M.035.333c.038.094.1.141.19.141a.19.19 0 00.152-.07c.04-.046.06-.1.06-.16a.266.266 0 00-.06-.168A.197.197 0 00.213 0a.177.177 0 00-.16.086A.39.39 0 000 .298a.557.557 0 00.088.306C.108.63.133.65.16.664a.39.39 0 00.145.02c.05 0 .08.002.09.004.01.003.02.01.03.02h.02A.159.159 0 00.404.64.123.123 0 00.356.612.491.491 0 00.262.603.41.41 0 01.16.592.136.136 0 01.102.548.244.244 0 01.055.457a.52.52 0 01-.02-.124m.173.108A.097.097 0 01.128.4C.108.372.097.33.097.272.097.194.11.135.139.095c.028-.04.06-.06.097-.06.034 0 .06.013.08.041.019.028.029.074.029.135 0 .066-.013.12-.038.164C.28.42.248.441.208.441z"/></symbol><symbol id="R"><path d="M.148.248l.056.001c.133 0 .2-.041.2-.123a.107.107 0 00-.05-.092A.24.24 0 00.214 0H0v.018c.029 0 .048.005.056.016.008.01.012.034.012.071v.237a.187.187 0 01-.006.062.049.049 0 01-.016.017C.038.426.023.429 0 .429v.018h.234V.43a.173.173 0 01-.06-.006.052.052 0 01-.018-.015C.15.402.148.38.148.342V.248m0-.21A.202.202 0 01.2.033c.033 0 .06.008.08.026.02.017.03.039.03.065C.31.186.267.217.18.217H.148V.038z"/></symbol><symbol id="S"><path d="M0 .447h.21V.43C.197.43.188.427.182.422A.023.023 0 01.174.404c0-.008.006-.02.017-.036L.208.344.239.293l.037.05C.299.377.31.397.31.406a.021.021 0 01-.008.017C.297.427.288.429.276.429v.018h.151V.43A.082.082 0 01.386.416.346.346 0 01.32.344L.26.262l.11-.16A.339.339 0 01.43.031.09.09 0 01.474.018V0H.264v.018c.014 0 .026.003.034.01.006.004.01.01.01.017 0 .008-.011.027-.032.057L.21.198.14.102A.188.188 0 01.105.05C.105.042.11.034.116.028A.055.055 0 01.15.018V0H.003v.018A.066.066 0 01.034.03c.013.01.033.033.063.072L.19.227.105.35A.267.267 0 01.05.416.084.084 0 010 .429v.018z"/></symbol><symbol id="T"><path d="M.284.018V0H0v.018h.023c.028 0 .048.008.06.024.008.01.012.035.012.075v.428A.22.22 0 01.088.61a.044.044 0 01-.02.021.093.093 0 01-.045.012H0v.018h.284V.644H.26C.233.644.213.636.2.62.194.61.189.585.189.545V.117A.22.22 0 01.195.051.044.044 0 01.215.03.09.09 0 01.26.018h.024z"/></symbol><symbol id="U"><path d="M.055.475A.051.051 0 00.093.458.051.051 0 00.11.42.053.053 0 00.093.382.052.052 0 00.055.366.053.053 0 00.001.42c0 .015.005.028.016.038.01.011.023.017.038.017m0-.366A.052.052 0 00.092.093.053.053 0 00.109.054.053.053 0 00.093.016.053.053 0 00.054 0 .053.053 0 000 .054C0 .07.005.082.016.093c.01.01.023.016.038.016z"/></symbol><use xlink:href="#y" transform="matrix(12 0 0 -12 58.046 115.58)"/><use xlink:href="#y" transform="matrix(12 0 0 -12 64.046 115.58)"/><use xlink:href="#z" transform="matrix(12 0 0 -12 69.49 115.744)"/><use xlink:href="#n" transform="matrix(12 0 0 -12 71.64 115.58)"/><use xlink:href="#F" transform="matrix(12 0 0 -12 75.074 115.762)"/><use xlink:href="#G" transform="matrix(12 0 0 -12 82.738 115.58)"/><use xlink:href="#H" transform="matrix(12 0 0 -12 88.34 115.691)"/><use xlink:href="#l" transform="matrix(12 0 0 -12 93.51 115.58)"/><use xlink:href="#n" transform="matrix(12 0 0 -12 99.696 115.58)"/><use xlink:href="#I" transform="matrix(12 0 0 -12 102.878 115.58)"/><use xlink:href="#J" transform="matrix(12 0 0 -12 107.968 115.58)"/><use xlink:href="#I" transform="matrix(12 0 0 -12 111.134 115.58)"/><use xlink:href="#J" transform="matrix(12 0 0 -12 116.224 115.58)"/><use xlink:href="#K" transform="matrix(12 0 0 -12 119.654 115.744)"/><use xlink:href="#l" transform="matrix(12 0 0 -12 124.554 115.58)"/><use xlink:href="#q" transform="matrix(12 0 0 -12 131.022 115.58)"/><use xlink:href="#n" transform="matrix(12 0 0 -12 137.22 115.58)"/><use xlink:href="#L" transform="matrix(12 0 0 -12 140.37 115.58)"/><use xlink:href="#g" transform="matrix(12 0 0 -12 146.972 115.744)"/><use xlink:href="#f" transform="matrix(12 0 0 -12 152.527 118.146)"/><use xlink:href="#g" transform="matrix(12 0 0 -12 158.972 115.744)"/><use xlink:href="#j" transform="matrix(12 0 0 -12 164.703 115.58)"/><use xlink:href="#l" transform="matrix(12 0 0 -12 173.13 115.58)"/><use xlink:href="#q" transform="matrix(12 0 0 -12 179.478 115.58)"/><use xlink:href="#l" transform="matrix(12 0 0 -12 185.946 115.58)"/><use xlink:href="#q" transform="matrix(12 0 0 -12 192.414 115.58)"/><use xlink:href="#n" transform="matrix(12 0 0 -12 198.612 115.58)"/><use xlink:href="#f" transform="matrix(12 0 0 -12 201.571 118.146)"/><use xlink:href="#g" transform="matrix(12 0 0 -12 208.016 115.744)"/><use xlink:href="#G" transform="matrix(12 0 0 -12 213.562 115.58)"/><use xlink:href="#H" transform="matrix(12 0 0 -12 219.164 115.691)"/><use xlink:href="#M" transform="matrix(12 0 0 -12 224.709 117.578)"/><use xlink:href="#n" transform="matrix(12 0 0 -12 227.064 115.58)"/><use xlink:href="#C" transform="matrix(12 0 0 -12 230.474 115.744)"/><use xlink:href="#G" transform="matrix(12 0 0 -12 235.402 115.58)"/><use xlink:href="#H" transform="matrix(12 0 0 -12 241.004 115.691)"/><use xlink:href="#l" transform="matrix(12 0 0 -12 246.174 115.58)"/><use xlink:href="#n" transform="matrix(12 0 0 -12 252.36 115.58)"/><use xlink:href="#C" transform="matrix(12 0 0 -12 255.77 115.744)"/><use xlink:href="#N" transform="matrix(12 0 0 -12 260.71 115.674)"/><use xlink:href="#q" transform="matrix(12 0 0 -12 266.898 115.58)"/><use xlink:href="#O" transform="matrix(12 0 0 -12 273.249 115.744)"/><use xlink:href="#g" transform="matrix(12 0 0 -12 278.3 115.744)"/><use xlink:href="#i" transform="matrix(12 0 0 -12 284.177 115.58)"/><use xlink:href="#g" transform="matrix(12 0 0 -12 289.964 115.744)"/><use xlink:href="#P" transform="matrix(12 0 0 -12 295.572 115.58)"/><use xlink:href="#n" transform="matrix(12 0 0 -12 298.896 115.58)"/><use xlink:href="#g" transform="matrix(12 0 0 -12 302.18 115.744)"/><use xlink:href="#Q" transform="matrix(12 0 0 -12 308.233 115.744)"/><use xlink:href="#g" transform="matrix(12 0 0 -12 314.288 115.744)"/><use xlink:href="#N" transform="matrix(12 0 0 -12 319.954 115.674)"/><use xlink:href="#g" transform="matrix(12 0 0 -12 326.276 115.744)"/><use xlink:href="#l" transform="matrix(12 0 0 -12 332.142 115.58)"/><use xlink:href="#A" transform="matrix(12 0 0 -12 338.634 115.58)"/><use xlink:href="#q" transform="matrix(12 0 0 -12 344.394 115.58)"/><use xlink:href="#n" transform="matrix(12 0 0 -12 350.592 115.58)"/><use xlink:href="#L" transform="matrix(12 0 0 -12 353.862 115.58)"/><use xlink:href="#g" transform="matrix(12 0 0 -12 360.464 115.744)"/><use xlink:href="#f" transform="matrix(12 0 0 -12 366.02 118.146)"/><use xlink:href="#g" transform="matrix(12 0 0 -12 372.464 115.744)"/><use xlink:href="#j" transform="matrix(12 0 0 -12 378.195 115.58)"/><use xlink:href="#l" transform="matrix(12 0 0 -12 386.622 115.58)"/><use xlink:href="#q" transform="matrix(12 0 0 -12 392.97 115.58)"/><use xlink:href="#l" transform="matrix(12 0 0 -12 399.438 115.58)"/><use xlink:href="#q" transform="matrix(12 0 0 -12 405.798 115.58)"/><use xlink:href="#n" transform="matrix(12 0 0 -12 411.996 115.58)"/><use xlink:href="#f" transform="matrix(12 0 0 -12 414.955 118.146)"/><use xlink:href="#g" transform="matrix(12 0 0 -12 421.28 115.744)"/><use xlink:href="#G" transform="matrix(12 0 0 -12 426.947 115.58)"/><use xlink:href="#H" transform="matrix(12 0 0 -12 432.548 115.691)"/><use xlink:href="#M" transform="matrix(12 0 0 -12 438.093 117.578)"/><use xlink:href="#n" transform="matrix(12 0 0 -12 440.448 115.58)"/><use xlink:href="#m" transform="matrix(12 0 0 -12 443.442 115.58)"/><use xlink:href="#C" transform="matrix(12 0 0 -12 449.378 115.744)"/><use xlink:href="#k" transform="matrix(12 0 0 -12 454.682 115.744)"/><use xlink:href="#l" transform="matrix(12 0 0 -12 459.786 115.58)"/><use xlink:href="#M" transform="matrix(12 0 0 -12 466.629 117.578)"/><use xlink:href="#n" transform="matrix(12 0 0 -12 468.984 115.58)"/><use xlink:href="#H" transform="matrix(12 0 0 -12 472.412 115.691)"/><use xlink:href="#N" transform="matrix(12 0 0 -12 477.334 115.674)"/><use xlink:href="#R" transform="matrix(12 0 0 -12 483.522 115.58)"/><use xlink:href="#i" transform="matrix(12 0 0 -12 489.053 115.58)"/><use xlink:href="#k" transform="matrix(12 0 0 -12 494.882 115.744)"/><use xlink:href="#g" transform="matrix(12 0 0 -12 500.096 115.744)"/><use xlink:href="#N" transform="matrix(12 0 0 -12 505.762 115.674)"/><use xlink:href="#m" transform="matrix(12 0 0 -12 511.674 115.58)"/><use xlink:href="#f" transform="matrix(12 0 0 -12 517.16 118.146)"/><use xlink:href="#l" transform="matrix(12 0 0 -12 523.47 115.58)"/><use xlink:href="#q" transform="matrix(12 0 0 -12 529.95 115.58)"/><use xlink:href="#S" transform="matrix(12 0 0 -12 536.306 115.58)"/><use xlink:href="#n" transform="matrix(12 0 0 -12 542.148 115.58)"/><use xlink:href="#i" transform="matrix(12 0 0 -12 545.43 115.58)"/><use xlink:href="#J" transform="matrix(12 0 0 -12 551.164 115.58)"/><use xlink:href="#h" transform="matrix(12 0 0 -12 554.3 117.068)"/><use xlink:href="#f" transform="matrix(12 0 0 -12 560.215 118.146)"/><use xlink:href="#g" transform="matrix(12 0 0 -12 566.66 115.744)"/><use xlink:href="#C" transform="matrix(12 0 0 -12 572.666 115.744)"/><use xlink:href="#G" transform="matrix(12 0 0 -12 577.618 115.58)"/><use xlink:href="#A" transform="matrix(12 0 0 -12 583.062 115.58)"/><use xlink:href="#J" transform="matrix(12 0 0 -12 589.048 115.58)"/><use xlink:href="#i" transform="matrix(12 0 0 -12 592.313 115.58)"/><use xlink:href="#n" transform="matrix(12 0 0 -12 597.696 115.58)"/><use xlink:href="#G" transform="matrix(12 0 0 -12 600.766 115.58)"/><use xlink:href="#H" transform="matrix(12 0 0 -12 606.368 115.691)"/><use xlink:href="#n" transform="matrix(12 0 0 -12 611.268 115.58)"/><use xlink:href="#L" transform="matrix(12 0 0 -12 614.538 115.58)"/><use xlink:href="#J" transform="matrix(12 0 0 -12 621.076 115.58)"/><use xlink:href="#h" transform="matrix(12 0 0 -12 624.212 117.068)"/><use xlink:href="#l" transform="matrix(12 0 0 -12 630.354 115.58)"/><use xlink:href="#k" transform="matrix(12 0 0 -12 636.997 115.744)"/><use xlink:href="#Q" transform="matrix(12 0 0 -12 642.29 115.744)"/><use xlink:href="#J" transform="matrix(12 0 0 -12 648.292 115.58)"/><use xlink:href="#l" transform="matrix(12 0 0 -12 651.546 115.58)"/><use xlink:href="#l" transform="matrix(12 0 0 -12 657.966 115.58)"/><use xlink:href="#m" transform="matrix(12 0 0 -12 664.026 115.58)"/><use xlink:href="#z" transform="matrix(12 0 0 -12 670.402 115.744)"/><use xlink:href="#n" transform="matrix(12 0 0 -12 672.552 115.58)"/><use xlink:href="#T" transform="matrix(12 0 0 -12 675.959 115.58)"/><use xlink:href="#l" transform="matrix(12 0 0 -12 679.65 115.58)"/><use xlink:href="#h" transform="matrix(12 0 0 -12 686 117.068)"/><use xlink:href="#k" transform="matrix(12 0 0 -12 692.401 115.744)"/><use xlink:href="#A" transform="matrix(12 0 0 -12 697.517 115.58)"/><use xlink:href="#C" transform="matrix(12 0 0 -12 703.526 115.744)"/><use xlink:href="#q" transform="matrix(12 0 0 -12 708.665 115.58)"/><use xlink:href="#U" transform="matrix(12 0 0 -12 715.895 115.744)"/></g><clipPath id="V"><path transform="matrix(1 0 0 -1 0 595.32)" d="M52.08 476.86h752.04v13.8H52.08z" fill-rule="evenodd"/></clipPath><g clip-path="url(#V)"><symbol id="W"><path d="M.531.662L.534.507h-.02a.15.15 0 01-.02.076.078.078 0 01-.044.035.275.275 0 01-.075.008H.189V.121C.19.077.195.049.206.038.217.026.243.019.284.018V0H0v.018c.041.001.067.008.079.02C.09.049.096.077.096.12v.42C.096.586.09.614.079.626.067.636.04.643 0 .644v.018h.531z"/></symbol><symbol id="X"><path d="M.188.31V.117C.188.076.193.05.202.04.215.025.233.018.258.018h.026V0H0v.018h.025c.028 0 .048.01.06.027.006.01.01.034.01.072v.428C.095.587.09.612.082.623.069.637.05.644.025.644H0v.018h.243c.059 0 .106-.006.14-.018A.191.191 0 00.469.582.159.159 0 00.504.479.173.173 0 00.451.347C.415.313.365.297.3.297A.426.426 0 00.188.31m0 .028a.723.723 0 01.08-.01c.034 0 .064.013.088.04.025.026.037.06.037.101a.182.182 0 01-.018.08.12.12 0 01-.05.055.144.144 0 01-.073.019.289.289 0 01-.064-.01V.338z"/></symbol><symbol id="Y"><path d="M.393 0L.137.557V.115C.137.075.14.049.15.039.162.025.18.019.207.019H.23V0H0v.018h.023c.028 0 .048.009.06.025.007.01.01.035.01.072v.432c0 .03-.003.05-.009.064a.053.053 0 01-.025.023.13.13 0 01-.059.01v.018h.188l.24-.518.236.518h.188V.644H.829C.8.644.78.636.769.619.76.609.758.584.758.547V.115c0-.04.004-.066.013-.076C.784.025.803.019.83.019h.023V0H.57v.018h.024c.028 0 .048.009.06.025.006.01.01.035.01.072v.442L.41 0H.393z"/></symbol><symbol id="Z"><path d="M.45.222H.193L.148.117A.165.165 0 01.132.06c0-.01.005-.02.014-.027C.156.025.176.02.208.018V0H0v.018c.028.005.046.011.054.02a.3.3 0 01.055.094l.233.545h.017l.23-.55A.258.258 0 01.64.04.105.105 0 01.704.018V0H.442v.018C.468.02.486.024.495.031.505.04.51.048.51.06a.202.202 0 01-.02.067L.45.222M.437.258L.324.525.208.258h.228z"/></symbol><use xlink:href="#W" transform="matrix(12 0 0 -12 721.877 115.58)"/><use xlink:href="#T" transform="matrix(12 0 0 -12 729.027 115.58)"/><use xlink:href="#n" transform="matrix(12 0 0 -12 732.568 115.58)"/><use xlink:href="#G" transform="matrix(12 0 0 -12 735.638 115.58)"/><use xlink:href="#H" transform="matrix(12 0 0 -12 741.24 115.691)"/><use xlink:href="#n" transform="matrix(12 0 0 -12 746.14 115.58)"/><use xlink:href="#X" transform="matrix(12 0 0 -12 749.34 115.58)"/><use xlink:href="#Y" transform="matrix(12 0 0 -12 756.011 115.58)"/><use xlink:href="#Z" transform="matrix(12 0 0 -12 766.61 115.58)"/></g></g><g data-name="P" fill-rule="evenodd"><path d="M50.52 104.66h1.44v-.48h-1.44zM51.96 104.66h752.16v-.48H51.96zM804.12 104.66h1.44v-.48h-1.44zM50.52 118.46h1.44v-13.8h-1.44zM804.12 118.46h1.44v-13.8h-1.44z"/></g><g data-name="P" fill-rule="evenodd"><path d="M50.52 134.54h1.44v-16.08h-1.44zM804.12 134.54h1.44v-16.08h-1.44z"/></g><g data-name="P" fill-rule="evenodd"><path d="M50.52 135.02h1.44v-.48h-1.44zM51.96 135.02h752.16v-.48H51.96zM804.12 135.02h1.44v-.48h-1.44zM50.52 151.22h1.44v-16.2h-1.44zM804.12 151.22h1.44v-16.2h-1.44z"/></g><g data-name="P" fill-rule="evenodd"><path d="M50.52 151.7h1.44v-.48h-1.44zM51.96 151.7h752.16v-.48H51.96zM804.12 151.7h1.44v-.48h-1.44zM50.52 167.78h1.44V151.7h-1.44zM804.12 167.78h1.44V151.7h-1.44z"/></g><g data-name="P" fill-rule="evenodd"><path d="M50.52 168.26h1.44v-.48h-1.44zM51.96 168.26h752.16v-.48H51.96zM804.12 168.26h1.44v-.48h-1.44zM50.52 184.37h1.44v-16.104h-1.44zM804.12 184.37h1.44v-16.104h-1.44z"/></g><g data-name="P" fill-rule="evenodd"><path d="M50.52 184.85h1.44v-.48h-1.44zM51.96 184.85h752.16v-.48H51.96zM804.12 184.85h1.44v-.48h-1.44zM50.52 200.93h1.44v-16.08h-1.44zM804.12 200.93h1.44v-16.08h-1.44z"/></g><g data-name="P" fill-rule="evenodd"><path d="M50.52 201.41h1.44v-.48h-1.44zM51.96 201.41h752.16v-.48H51.96zM804.12 201.41h1.44v-.48h-1.44zM50.52 217.61h1.44v-16.2h-1.44zM804.12 217.61h1.44v-16.2h-1.44z"/></g><g data-name="P" fill-rule="evenodd"><path d="M50.52 218.09h1.44v-.48h-1.44zM51.96 218.09h752.16v-.48H51.96zM804.12 218.09h1.44v-.48h-1.44z"/><path d="M50.52 234.17h1.44v-16.08h-1.44zM804.12 234.17h1.44v-16.08h-1.44z"/></g><g data-name="P" fill-rule="evenodd"><path d="M50.52 234.65h1.44v-.48h-1.44zM51.96 234.65h752.16v-.48H51.96zM804.12 234.65h1.44v-.48h-1.44z"/><path d="M50.52 250.73h1.44v-16.08h-1.44zM804.12 250.73h1.44v-16.08h-1.44z"/></g><clipPath id="aa"><path transform="matrix(1 0 0 -1 0 595.32)" d="M52.08 327.91h328.61v16.08H52.08z" fill-rule="evenodd"/></clipPath><g data-name="P" clip-path="url(#aa)"><clipPath id="ab"><path transform="matrix(1 0 0 -1 0 595.32)" d="M52.08 327.91h328.61v16.08H52.08z" fill-rule="evenodd"/></clipPath><g clip-path="url(#ab)"><symbol id="ac"><path d="M.437.127L.391 0H0v.018c.115.105.196.19.243.257.047.066.07.127.07.182a.144.144 0 01-.039.104.123.123 0 01-.092.04.144.144 0 01-.088-.029A.165.165 0 01.037.49H.02c.008.06.029.106.063.138a.176.176 0 00.126.049.186.186 0 00.134-.052.163.163 0 00.054-.122.236.236 0 00-.023-.1.663.663 0 00-.117-.168 3.477 3.477 0 00-.152-.16h.173c.035 0 .06.001.074.004a.099.099 0 01.038.015c.012.008.021.02.03.034h.018z"/></symbol><symbol id="ad"><path d="M.105.853h.546V.834C.611.834.584.827.573.814.56.805.556.777.556.733V.365A.41.41 0 01.568.233C.576.217.602.208.647.208V0H.63a.293.293 0 01-.047.117.16.16 0 01-.074.059.294.294 0 01-.098.014H.24C.169.19.114.17.08.13A.254.254 0 01.017 0H0v.208c.052.005.095.036.128.095.033.058.056.13.068.214.013.085.02.155.02.21a.16.16 0 01-.013.07C.195.814.185.824.173.828a.286.286 0 01-.068.007v.019m.16-.037A1.937 1.937 0 00.217.41.49.49 0 00.126.227h.245c.044 0 .07.003.078.01.009.009.013.034.013.076v.503H.264z"/></symbol><use xlink:href="#y" transform="matrix(12 0 0 -12 58.046 262.25)"/><use xlink:href="#ac" transform="matrix(12 0 0 -12 62.898 262.25)"/><use xlink:href="#z" transform="matrix(12 0 0 -12 69.49 262.414)"/><use xlink:href="#n" transform="matrix(12 0 0 -12 71.64 262.25)"/><use xlink:href="#ad" transform="matrix(12 0 0 -12 74.792 264.535)"/><use xlink:href="#H" transform="matrix(12 0 0 -12 83.252 262.361)"/><use xlink:href="#l" transform="matrix(12 0 0 -12 88.35 262.25)"/><use xlink:href="#J" transform="matrix(12 0 0 -12 94.9 262.25)"/><use xlink:href="#n" transform="matrix(12 0 0 -12 97.884 262.25)"/><use xlink:href="#f" transform="matrix(12 0 0 -12 100.843 264.816)"/><use xlink:href="#k" transform="matrix(12 0 0 -12 107.33 262.414)"/><use xlink:href="#l" transform="matrix(12 0 0 -12 112.482 262.25)"/><use xlink:href="#G" transform="matrix(12 0 0 -12 118.726 262.25)"/><use xlink:href="#I" transform="matrix(12 0 0 -12 124.082 262.25)"/><use xlink:href="#k" transform="matrix(12 0 0 -12 129.265 262.414)"/><use xlink:href="#l" transform="matrix(12 0 0 -12 134.418 262.25)"/><use xlink:href="#J" transform="matrix(12 0 0 -12 140.956 262.25)"/><use xlink:href="#i" transform="matrix(12 0 0 -12 144.221 262.25)"/><use xlink:href="#C" transform="matrix(12 0 0 -12 150.014 262.414)"/><use xlink:href="#R" transform="matrix(12 0 0 -12 155.154 262.25)"/><use xlink:href="#A" transform="matrix(12 0 0 -12 160.662 262.25)"/><use xlink:href="#q" transform="matrix(12 0 0 -12 166.53 262.25)"/><use xlink:href="#S" transform="matrix(12 0 0 -12 172.778 262.25)"/><use xlink:href="#n" transform="matrix(12 0 0 -12 178.62 262.25)"/><use xlink:href="#g" transform="matrix(12 0 0 -12 182.024 262.414)"/><use xlink:href="#Q" transform="matrix(12 0 0 -12 188.077 262.414)"/><use xlink:href="#C" transform="matrix(12 0 0 -12 194.138 262.414)"/><use xlink:href="#G" transform="matrix(12 0 0 -12 199.09 262.25)"/><use xlink:href="#k" transform="matrix(12 0 0 -12 204.71 262.414)"/><use xlink:href="#j" transform="matrix(12 0 0 -12 209.727 262.25)"/><use xlink:href="#k" transform="matrix(12 0 0 -12 218.33 262.414)"/><use xlink:href="#l" transform="matrix(12 0 0 -12 223.41 262.25)"/><use xlink:href="#R" transform="matrix(12 0 0 -12 229.878 262.25)"/><use xlink:href="#M" transform="matrix(12 0 0 -12 235.76 264.248)"/><use xlink:href="#n" transform="matrix(12 0 0 -12 238.116 262.25)"/><use xlink:href="#N" transform="matrix(12 0 0 -12 241.186 262.344)"/><use xlink:href="#H" transform="matrix(12 0 0 -12 247.532 262.361)"/><use xlink:href="#Q" transform="matrix(12 0 0 -12 252.853 262.414)"/><use xlink:href="#g" transform="matrix(12 0 0 -12 258.908 262.414)"/><use xlink:href="#f" transform="matrix(12 0 0 -12 264.463 264.816)"/><use xlink:href="#H" transform="matrix(12 0 0 -12 270.932 262.361)"/><use xlink:href="#G" transform="matrix(12 0 0 -12 275.866 262.25)"/><use xlink:href="#g" transform="matrix(12 0 0 -12 281.444 262.414)"/><use xlink:href="#f" transform="matrix(12 0 0 -12 286.999 264.816)"/><use xlink:href="#l" transform="matrix(12 0 0 -12 293.31 262.25)"/><use xlink:href="#q" transform="matrix(12 0 0 -12 299.814 262.25)"/><use xlink:href="#S" transform="matrix(12 0 0 -12 306.17 262.25)"/><use xlink:href="#n" transform="matrix(12 0 0 -12 312.12 262.25)"/><use xlink:href="#h" transform="matrix(12 0 0 -12 315.152 263.738)"/><use xlink:href="#g" transform="matrix(12 0 0 -12 321.512 262.414)"/></g><clipPath id="ae"><path transform="matrix(1 0 0 -1 0 595.32)" d="M52.08 327.91h328.61v16.08H52.08z" fill-rule="evenodd"/></clipPath><g clip-path="url(#ae)"><use xlink:href="#C" transform="matrix(12 0 0 -12 327.7 262.414)"/><use xlink:href="#N" transform="matrix(12 0 0 -12 332.64 262.344)"/><use xlink:href="#J" transform="matrix(12 0 0 -12 338.91 262.25)"/><use xlink:href="#h" transform="matrix(12 0 0 -12 342.046 263.738)"/><use xlink:href="#j" transform="matrix(12 0 0 -12 348.173 262.25)"/><use xlink:href="#k" transform="matrix(12 0 0 -12 356.775 262.414)"/><use xlink:href="#l" transform="matrix(12 0 0 -12 361.868 262.25)"/><use xlink:href="#R" transform="matrix(12 0 0 -12 368.336 262.25)"/></g></g><g data-name="P" fill-rule="evenodd"><path d="M50.52 251.21h1.44v-.48h-1.44zM51.96 251.21h328.73v-.48H51.96zM380.69 251.21h.48v-.48h-.48zM381.17 251.21h422.95v-.48H381.17zM804.12 251.21h1.44v-.48h-1.44zM50.52 267.41h1.44v-16.2h-1.44zM804.12 267.41h1.44v-16.2h-1.44z"/></g><g data-name="P" fill-rule="evenodd"><path d="M50.52 267.89h1.44v-.48h-1.44zM380.69 267.89h423.43v-.48H380.69zM804.12 267.89h1.44v-.48h-1.44zM50.52 283.97h1.44v-16.08h-1.44zM804.12 283.97h1.44v-16.08h-1.44z"/></g><g data-name="P" fill-rule="evenodd"><path d="M50.52 284.45h1.44v-.48h-1.44zM51.96 284.45h752.16v-.48H51.96zM804.12 284.45h1.44v-.48h-1.44z"/><path d="M50.52 300.55h1.44v-16.104h-1.44zM804.12 300.55h1.44v-16.104h-1.44z"/></g><g data-name="P" fill-rule="evenodd"><path d="M50.52 301.03h1.44v-.48h-1.44zM51.96 301.03h752.16v-.48H51.96zM804.12 301.03h1.44v-.48h-1.44zM50.52 317.23h1.44v-16.2h-1.44zM804.12 317.23h1.44v-16.2h-1.44z"/></g><g data-name="P" fill-rule="evenodd"><path d="M50.52 317.71h1.44v-.48h-1.44zM51.96 317.71h752.16v-.48H51.96zM804.12 317.71h1.44v-.48h-1.44zM50.52 333.79h1.44v-16.08h-1.44zM804.12 333.79h1.44v-16.08h-1.44z"/></g><g data-name="P" fill-rule="evenodd"><path d="M50.52 334.27h1.44v-.48h-1.44zM51.96 334.27h752.16v-.48H51.96zM804.12 334.27h1.44v-.48h-1.44zM50.52 350.35h1.44v-16.08h-1.44zM804.12 350.35h1.44v-16.08h-1.44z"/></g><clipPath id="af"><path transform="matrix(1 0 0 -1 0 595.32)" d="M52.08 216.77h752.04v27.6H52.08z" fill-rule="evenodd"/></clipPath><g clip-path="url(#af)"><g data-name="P"><clipPath id="ag"><path transform="matrix(1 0 0 -1 0 595.32)" d="M52.08 216.77h752.04v27.6H52.08z" fill-rule="evenodd"/></clipPath><g clip-path="url(#ag)"><symbol id="ah"><path d="M.646.018V0H.475a3.68 3.68 0 01-.226.304.106.106 0 01-.06.014V.121C.19.077.195.049.206.038.217.026.244.019.286.018V0H0v.018c.04.001.067.008.078.02.012.01.018.039.018.083v.42C.096.586.09.614.079.626.067.636.04.643 0 .644v.018h.285V.644C.244.643.217.636.206.624.195.614.19.586.19.543V.357c.036 0 .06.003.074.007a.193.193 0 01.086.08.75.75 0 01.04.09.545.545 0 00.035.08c.01.016.024.029.045.04.02.01.045.016.073.016.05 0 .075-.018.075-.053A.042.042 0 00.602.585.048.048 0 00.568.571a.127.127 0 00-.046.016.11.11 0 01-.04.014C.473.601.465.596.457.584A.474.474 0 01.42.501C.39.418.35.365.3.343.33.338.372.297.425.22.479.141.52.087.546.061a.137.137 0 01.1-.043z"/></symbol><symbol id="ai"><path d="M.725.018V0H0v.018c.027 0 .045.005.054.015.01.01.014.034.014.072v.237a.187.187 0 01-.006.062.049.049 0 01-.016.017C.038.426.023.429 0 .429v.018h.216V.43C.194.429.18.426.172.422A.05.05 0 01.155.406.17.17 0 01.148.342V.096c0-.031.003-.05.009-.055C.162.035.18.03.212.03h.053C.286.032.3.034.306.036A.02.02 0 01.32.048a.255.255 0 01.003.057v.237a.19.19 0 01-.005.062A.046.046 0 01.3.42C.292.426.277.43.254.43v.018h.208V.43a.075.075 0 01-.039-.01A.038.038 0 01.407.4.248.248 0 01.403.342V.09C.403.062.406.045.41.04.417.034.434.032.462.032h.059c.031 0 .048.003.051.01a.23.23 0 01.005.06v.24A.187.187 0 01.57.404.049.049 0 01.555.42C.547.426.532.429.509.429v.018h.216V.43C.703.429.688.426.681.422A.05.05 0 01.664.406.17.17 0 01.657.342v-.21C.657.087.658.06.661.05A.036.036 0 01.678.027.107.107 0 01.725.018z"/></symbol><symbol id="aj"><path d="M.26.23H.147V.119C.148.085.15.065.153.058A.046.046 0 01.17.04C.178.034.193.032.216.032V.014H0v.018a.202.202 0 01.044.005C.05.039.056.046.06.056c.005.01.007.03.007.063v.237c0 .039-.004.063-.012.072C.048.438.03.442 0 .442v.019h.216V.442C.194.442.18.44.171.435A.045.045 0 01.154.417.19.19 0 01.148.356V.262h.113a.259.259 0 00.072.153c.04.04.087.06.143.06A.197.197 0 00.63.404a.235.235 0 00.06-.16C.69.206.68.166.66.124A.205.205 0 00.47 0a.189.189 0 00-.15.068.253.253 0 00-.06.162m.2.212A.095.095 0 01.38.401C.36.374.35.33.35.273.35.208.363.153.39.105.415.058.449.035.49.035.563.035.6.092.6.208a.334.334 0 01-.038.168C.536.42.502.442.46.442z"/></symbol><use xlink:href="#y" transform="matrix(12 0 0 -12 58.046 361.87)"/><use xlink:href="#u" transform="matrix(12 0 0 -12 63.126 362.01)"/><use xlink:href="#z" transform="matrix(12 0 0 -12 69.49 362.034)"/><use xlink:href="#n" transform="matrix(12 0 0 -12 71.64 361.87)"/><use xlink:href="#ah" transform="matrix(12 0 0 -12 74.857 361.87)"/><use xlink:href="#g" transform="matrix(12 0 0 -12 83.072 362.034)"/><use xlink:href="#N" transform="matrix(12 0 0 -12 88.738 361.964)"/><use xlink:href="#J" transform="matrix(12 0 0 -12 95.008 361.87)"/><use xlink:href="#f" transform="matrix(12 0 0 -12 97.975 364.436)"/><use xlink:href="#n" transform="matrix(12 0 0 -12 104.016 361.87)"/><use xlink:href="#O" transform="matrix(12 0 0 -12 107.157 362.034)"/><use xlink:href="#H" transform="matrix(12 0 0 -12 112.232 361.981)"/><use xlink:href="#n" transform="matrix(12 0 0 -12 117.084 361.87)"/><use xlink:href="#ai" transform="matrix(12 0 0 -12 120.354 361.87)"/><use xlink:href="#A" transform="matrix(12 0 0 -12 129.594 361.87)"/><use xlink:href="#H" transform="matrix(12 0 0 -12 135.62 361.981)"/><use xlink:href="#N" transform="matrix(12 0 0 -12 140.542 361.964)"/><use xlink:href="#g" transform="matrix(12 0 0 -12 146.864 362.034)"/><use xlink:href="#aj" transform="matrix(12 0 0 -12 152.724 362.034)"/></g></g><g data-name="P"><clipPath id="ak"><path transform="matrix(1 0 0 -1 0 595.32)" d="M52.08 216.77h752.04v27.6H52.08z" fill-rule="evenodd"/></clipPath><g clip-path="url(#ak)"><symbol id="al"><path d="M.126.252v-.02A.183.183 0 01.065.185.086.086 0 01.046.132c0-.012.002-.02.005-.024S.058.102.062.102a.06.06 0 01.017.003.058.058 0 00.02.004.047.047 0 00.034-.015.048.048 0 00.015-.036.054.054 0 00-.018-.04A.064.064 0 00.085 0 .08.08 0 00.026.03.099.099 0 000 .099C0 .13.01.16.032.189c.022.029.053.05.094.063M.36.25V.232a.206.206 0 01-.065-.05A.09.09 0 01.28.127C.279.12.28.112.284.108.288.103.292.1.295.1c.004 0 .01.001.017.004a.063.063 0 00.021.004.047.047 0 00.035-.015A.046.046 0 00.383.06a.055.055 0 00-.02-.041A.064.064 0 00.319 0C.296 0 .277.01.26.028a.098.098 0 00-.026.07c0 .033.01.064.033.092a.175.175 0 00.092.06z"/></symbol><symbol id="am"><path d="M.445.338A.212.212 0 00.548.29a.146.146 0 00.048-.11.165.165 0 00-.032-.095A.18.18 0 00.48.021.5.5 0 00.313 0H0v.018h.025c.028 0 .047.009.06.026.007.012.01.036.01.073v.428c0 .04-.004.067-.013.078C.069.637.05.644.025.644H0v.018h.286A.565.565 0 00.415.65.205.205 0 00.526.588.152.152 0 00.535.396a.178.178 0 00-.09-.058M.19.364A.409.409 0 01.282.357c.047 0 .083.005.107.016.024.01.042.026.055.047a.132.132 0 01.019.07.127.127 0 01-.047.098C.384.616.338.63.277.63A.332.332 0 01.19.62V.364m0-.316A.492.492 0 01.301.035c.06 0 .104.013.135.04C.467.1.482.133.482.172c0 .026-.007.05-.02.074a.14.14 0 01-.069.056.295.295 0 01-.117.02A1.165 1.165 0 01.189.32V.048z"/></symbol><symbol id="an"><path d="M.023 0v.02a.194.194 0 01.065.05c.01.016.016.034.016.054 0 .009-.002.015-.005.02C.095.149.09.151.087.151A.053.053 0 01.07.147.063.063 0 00.05.143a.048.048 0 00-.035.015A.049.049 0 000 .193c0 .016.006.03.019.041a.065.065 0 00.045.018c.022 0 .041-.01.059-.028a.098.098 0 00.026-.07A.149.149 0 00.116.06.175.175 0 00.023 0m.233 0v.02c.029.015.049.03.061.047a.087.087 0 01.02.054C.336.132.334.14.331.145.328.149.325.15.32.15A.054.054 0 01.304.147a.048.048 0 00-.055.011.05.05 0 00-.015.036c0 .016.006.03.018.04a.062.062 0 00.045.018.08.08 0 00.06-.029.099.099 0 00.026-.07A.147.147 0 00.35.062.187.187 0 00.256 0z"/></symbol><use xlink:href="#al" transform="matrix(12 0 0 -12 75.033 370.567)"/><use xlink:href="#am" transform="matrix(12 0 0 -12 80.12 375.67)"/><use xlink:href="#J" transform="matrix(12 0 0 -12 88.192 375.67)"/><use xlink:href="#G" transform="matrix(12 0 0 -12 91.246 375.67)"/><use xlink:href="#H" transform="matrix(12 0 0 -12 96.896 375.781)"/><use xlink:href="#an" transform="matrix(12 0 0 -12 102.14 370.567)"/></g></g></g><g data-name="P" fill-rule="evenodd"><path d="M50.52 350.83h1.44v-.48h-1.44zM51.96 350.83h752.16v-.48H51.96zM804.12 350.83h1.44v-.48h-1.44zM50.52 378.55h1.44v-27.72h-1.44zM804.12 378.55h1.44v-27.72h-1.44z"/></g><clipPath id="ao"><path transform="matrix(1 0 0 -1 0 595.32)" d="M52.08 200.21h283.61v16.08H52.08z" fill-rule="evenodd"/></clipPath><g data-name="P" clip-path="url(#ao)"><clipPath id="ap"><path transform="matrix(1 0 0 -1 0 595.32)" d="M52.08 200.21h283.61v16.08H52.08z" fill-rule="evenodd"/></clipPath><g clip-path="url(#ap)"><symbol id="aq"><path d="M.317.247v.095a.22.22 0 01-.005.06.032.032 0 01-.019.02.105.105 0 01-.043.007v.018h.216V.43C.444.429.43.426.422.422A.05.05 0 01.405.406.17.17 0 01.398.342V.105c0-.03.002-.051.005-.06a.036.036 0 01.019-.02.11.11 0 01.044-.007V0H.24v.018A.266.266 0 01.29.023c.008.003.015.009.02.019.005.01.007.031.007.063v.11A.329.329 0 00.166.177a.17.17 0 00-.067.01C.083.196.073.204.069.214A.127.127 0 00.061.26v.081A.26.26 0 01.058.4a.036.036 0 01-.017.022A.083.083 0 010 .429v.018h.21V.43C.19.429.174.426.167.422A.05.05 0 01.149.406.17.17 0 01.143.342V.287A.14.14 0 01.147.244C.15.236.157.23.168.224A.125.125 0 01.216.218c.036 0 .07.01.101.03z"/></symbol><use xlink:href="#y" transform="matrix(12 0 0 -12 58.046 389.95)"/><use xlink:href="#t" transform="matrix(12 0 0 -12 62.828 389.95)"/><use xlink:href="#z" transform="matrix(12 0 0 -12 69.49 390.114)"/><use xlink:href="#n" transform="matrix(12 0 0 -12 71.64 389.95)"/><use xlink:href="#ad" transform="matrix(12 0 0 -12 74.792 392.235)"/><use xlink:href="#H" transform="matrix(12 0 0 -12 83.252 390.061)"/><use xlink:href="#G" transform="matrix(12 0 0 -12 88.15 389.95)"/><use xlink:href="#H" transform="matrix(12 0 0 -12 93.752 390.061)"/><use xlink:href="#n" transform="matrix(12 0 0 -12 98.652 389.95)"/><use xlink:href="#l" transform="matrix(12 0 0 -12 101.922 389.95)"/><use xlink:href="#H" transform="matrix(12 0 0 -12 108.536 390.061)"/><use xlink:href="#i" transform="matrix(12 0 0 -12 113.67 389.95)"/><use xlink:href="#aq" transform="matrix(12 0 0 -12 119.228 389.95)"/><use xlink:href="#H" transform="matrix(12 0 0 -12 125.564 390.061)"/><use xlink:href="#l" transform="matrix(12 0 0 -12 130.686 389.95)"/><use xlink:href="#l" transform="matrix(12 0 0 -12 137.154 389.95)"/><use xlink:href="#m" transform="matrix(12 0 0 -12 143.346 389.95)"/><use xlink:href="#n" transform="matrix(12 0 0 -12 148.872 389.95)"/><use xlink:href="#l" transform="matrix(12 0 0 -12 152.142 389.95)"/><use xlink:href="#H" transform="matrix(12 0 0 -12 158.768 390.061)"/><use xlink:href="#i" transform="matrix(12 0 0 -12 163.901 389.95)"/><use xlink:href="#q" transform="matrix(12 0 0 -12 169.554 389.95)"/><use xlink:href="#aq" transform="matrix(12 0 0 -12 175.796 389.95)"/><use xlink:href="#A" transform="matrix(12 0 0 -12 181.89 389.95)"/><use xlink:href="#H" transform="matrix(12 0 0 -12 187.916 390.061)"/><use xlink:href="#p" transform="matrix(12 0 0 -12 193.038 389.95)"/><use xlink:href="#n" transform="matrix(12 0 0 -12 200.328 389.95)"/><use xlink:href="#I" transform="matrix(12 0 0 -12 203.51 389.95)"/><use xlink:href="#J" transform="matrix(12 0 0 -12 208.6 389.95)"/><use xlink:href="#I" transform="matrix(12 0 0 -12 211.766 389.95)"/><use xlink:href="#J" transform="matrix(12 0 0 -12 216.856 389.95)"/><use xlink:href="#K" transform="matrix(12 0 0 -12 220.286 390.114)"/><use xlink:href="#l" transform="matrix(12 0 0 -12 225.294 389.95)"/><use xlink:href="#q" transform="matrix(12 0 0 -12 231.774 389.95)"/><use xlink:href="#n" transform="matrix(12 0 0 -12 237.972 389.95)"/><use xlink:href="#L" transform="matrix(12 0 0 -12 241.242 389.95)"/><use xlink:href="#g" transform="matrix(12 0 0 -12 247.844 390.114)"/><use xlink:href="#f" transform="matrix(12 0 0 -12 253.399 392.516)"/><use xlink:href="#g" transform="matrix(12 0 0 -12 259.844 390.114)"/><use xlink:href="#j" transform="matrix(12 0 0 -12 265.575 389.95)"/><use xlink:href="#l" transform="matrix(12 0 0 -12 273.87 389.95)"/><use xlink:href="#q" transform="matrix(12 0 0 -12 280.338 389.95)"/><use xlink:href="#l" transform="matrix(12 0 0 -12 286.698 389.95)"/><use xlink:href="#q" transform="matrix(12 0 0 -12 293.058 389.95)"/><use xlink:href="#n" transform="matrix(12 0 0 -12 299.256 389.95)"/><use xlink:href="#f" transform="matrix(12 0 0 -12 302.215 392.516)"/><use xlink:href="#g" transform="matrix(12 0 0 -12 308.66 390.114)"/><use xlink:href="#G" transform="matrix(12 0 0 -12 314.326 389.95)"/><use xlink:href="#H" transform="matrix(12 0 0 -12 319.928 390.061)"/></g></g><g data-name="P" fill-rule="evenodd"><path d="M50.52 379.03h1.44v-.48h-1.44zM51.96 379.03h283.73v-.48H51.96zM335.69 379.03h.48v-.48h-.48zM336.17 379.03h467.95v-.48H336.17zM804.12 379.03h1.44v-.48h-1.44zM50.52 395.11h1.44v-16.08h-1.44zM804.12 395.11h1.44v-16.08h-1.44z"/></g><g data-name="P" fill-rule="evenodd"><path d="M50.52 395.59h1.44v-.48h-1.44zM335.69 395.59h468.43v-.48H335.69zM804.12 395.59h1.44v-.48h-1.44zM50.52 411.67h1.44v-16.08h-1.44zM804.12 411.67h1.44v-16.08h-1.44z"/></g><clipPath id="ar"><path transform="matrix(1 0 0 -1 0 595.32)" d="M52.08 167.06h238.61v16.104H52.08z" fill-rule="evenodd"/></clipPath><g data-name="P" clip-path="url(#ar)"><clipPath id="as"><path transform="matrix(1 0 0 -1 0 595.32)" d="M52.08 167.06h238.61v16.104H52.08z" fill-rule="evenodd"/></clipPath><g clip-path="url(#as)"><symbol id="at"><path d="M.386.674L.348.59h-.2L.106.502A.349.349 0 00.311.406.216.216 0 00.375.25.22.22 0 00.354.153.257.257 0 00.229.027.264.264 0 00.114 0C.074 0 .045.007.027.02.009.034 0 .049 0 .065c0 .01.004.017.011.024a.04.04 0 00.029.01.056.056 0 00.022-.003.198.198 0 00.032-.02A.13.13 0 01.168.05c.039 0 .072.015.1.043A.144.144 0 01.313.2c0 .04-.013.077-.039.112a.247.247 0 01-.106.08.432.432 0 01-.145.026l.127.257h.237z"/></symbol><use xlink:href="#y" transform="matrix(12 0 0 -12 58.046 423.1)"/><use xlink:href="#at" transform="matrix(12 0 0 -12 63.214 423.24)"/><use xlink:href="#z" transform="matrix(12 0 0 -12 69.49 423.264)"/><use xlink:href="#n" transform="matrix(12 0 0 -12 71.64 423.1)"/><use xlink:href="#ad" transform="matrix(12 0 0 -12 74.792 425.385)"/><use xlink:href="#H" transform="matrix(12 0 0 -12 83.252 423.211)"/><use xlink:href="#G" transform="matrix(12 0 0 -12 88.15 423.1)"/><use xlink:href="#H" transform="matrix(12 0 0 -12 93.752 423.211)"/><use xlink:href="#n" transform="matrix(12 0 0 -12 98.652 423.1)"/><use xlink:href="#A" transform="matrix(12 0 0 -12 101.922 423.1)"/><use xlink:href="#g" transform="matrix(12 0 0 -12 107.888 423.264)"/><use xlink:href="#l" transform="matrix(12 0 0 -12 113.754 423.1)"/><use xlink:href="#G" transform="matrix(12 0 0 -12 120.058 423.1)"/><use xlink:href="#f" transform="matrix(12 0 0 -12 125.191 425.666)"/><use xlink:href="#g" transform="matrix(12 0 0 -12 131.636 423.264)"/><use xlink:href="#N" transform="matrix(12 0 0 -12 137.302 423.194)"/><use xlink:href="#aj" transform="matrix(12 0 0 -12 143.52 423.264)"/><use xlink:href="#n" transform="matrix(12 0 0 -12 152.244 423.1)"/><use xlink:href="#I" transform="matrix(12 0 0 -12 155.426 423.1)"/><use xlink:href="#J" transform="matrix(12 0 0 -12 160.516 423.1)"/><use xlink:href="#I" transform="matrix(12 0 0 -12 163.682 423.1)"/><use xlink:href="#J" transform="matrix(12 0 0 -12 168.772 423.1)"/><use xlink:href="#K" transform="matrix(12 0 0 -12 172.202 423.264)"/><use xlink:href="#l" transform="matrix(12 0 0 -12 177.102 423.1)"/><use xlink:href="#q" transform="matrix(12 0 0 -12 183.57 423.1)"/><use xlink:href="#n" transform="matrix(12 0 0 -12 189.768 423.1)"/><use xlink:href="#L" transform="matrix(12 0 0 -12 193.038 423.1)"/><use xlink:href="#g" transform="matrix(12 0 0 -12 199.64 423.264)"/><use xlink:href="#f" transform="matrix(12 0 0 -12 205.195 425.666)"/><use xlink:href="#g" transform="matrix(12 0 0 -12 211.64 423.264)"/><use xlink:href="#j" transform="matrix(12 0 0 -12 217.37 423.1)"/><use xlink:href="#l" transform="matrix(12 0 0 -12 225.666 423.1)"/><use xlink:href="#q" transform="matrix(12 0 0 -12 232.134 423.1)"/><use xlink:href="#l" transform="matrix(12 0 0 -12 238.494 423.1)"/><use xlink:href="#q" transform="matrix(12 0 0 -12 244.962 423.1)"/><use xlink:href="#n" transform="matrix(12 0 0 -12 251.16 423.1)"/><use xlink:href="#f" transform="matrix(12 0 0 -12 254.119 425.666)"/><use xlink:href="#g" transform="matrix(12 0 0 -12 260.564 423.264)"/><use xlink:href="#G" transform="matrix(12 0 0 -12 266.11 423.1)"/><use xlink:href="#H" transform="matrix(12 0 0 -12 271.712 423.211)"/></g></g><g data-name="P" fill-rule="evenodd"><path d="M50.52 412.15h1.44v-.48h-1.44zM51.96 412.15h238.73v-.48H51.96zM290.69 412.15h.48v-.48h-.48zM291.17 412.15h512.95v-.48H291.17z"/><path d="M804.12 412.15h1.44v-.48h-1.44zM50.52 428.26h1.44v-16.104h-1.44zM804.12 428.26h1.44v-16.104h-1.44z"/></g><g data-name="P" fill-rule="evenodd"><path d="M50.52 428.74h1.44v-.48h-1.44zM290.69 428.74h513.43v-.48H290.69zM804.12 428.74h1.44v-.48h-1.44zM50.52 442.66h1.44v-13.92h-1.44zM804.12 442.66h1.44v-13.92h-1.44z"/></g><g data-name="P" fill-rule="evenodd"><path d="M50.52 443.14h1.44v-.48h-1.44zM51.96 443.14h752.16v-.48H51.96zM804.12 443.14h1.44v-.48h-1.44zM50.52 456.94h1.44v-13.8h-1.44zM804.12 456.94h1.44v-13.8h-1.44z"/></g><g data-name="P" fill-rule="evenodd"><path d="M50.52 457.42h1.44v-.48h-1.44zM51.96 457.42h752.16v-.48H51.96zM804.12 457.42h1.44v-.48h-1.44zM50.52 471.22h1.44v-13.8h-1.44zM804.12 471.22h1.44v-13.8h-1.44z"/></g><g data-name="P" fill-rule="evenodd"><path d="M50.52 471.7h1.44v-.48h-1.44zM51.96 471.7h752.16v-.48H51.96zM804.12 471.7h1.44v-.48h-1.44zM50.52 485.5h1.44v-13.8h-1.44zM804.12 485.5h1.44v-13.8h-1.44z"/></g><g data-name="P" fill-rule="evenodd"><path d="M50.52 485.98h1.44v-.48h-1.44zM51.96 485.98h752.16v-.48H51.96zM804.12 485.98h1.44v-.48h-1.44z"/><path d="M50.52 502.056h1.44v-16.08h-1.44zM804.12 502.056h1.44v-16.08h-1.44z"/></g><g data-name="P" fill-rule="evenodd"><path d="M50.52 502.296h1.44v-.24h-1.44zM51.96 502.296h752.16v-.24H51.96zM804.12 502.296h1.44v-.24h-1.44zM50.52 518.376h1.44v-16.08h-1.44zM50.52 519.816h1.44v-1.44h-1.44z"/><path d="M50.52 519.816h1.44v-1.44h-1.44zM51.96 519.816h752.16v-1.44H51.96zM804.12 518.376h1.44v-16.08h-1.44zM804.12 519.816h1.44v-1.44h-1.44z"/><path d="M804.12 519.816h1.44v-1.44h-1.44z"/></g></svg>