<svg xmlns="http://www.w3.org/2000/svg" xmlns:xlink="http://www.w3.org/1999/xlink" width="1122.56" height="793.76" viewBox="0 0 841.92 595.32"><g data-name="Artifact"><clipPath id="a"><path transform="matrix(1 0 0 -1 0 595.32)" d="M425.59 548.28h5.04v11.52h-5.04z" fill-rule="evenodd"/></clipPath><g clip-path="url(#a)"><clipPath id="b"><path transform="matrix(1 0 0 -1 0 595.32)" d="M425.59 548.28h5.04v11.52h-5.04z" fill-rule="evenodd"/></clipPath><g clip-path="url(#b)"><symbol id="c"><path d="M.149.597h.196c.017 0 .02.001.023.009l.038.089-.009.007C.382.682.373.676.351.676H.142L.033.439.032.434c0-.006.004-.008.012-.008a.397.397 0 00.113-.02C.272.369.324.308.324.208.324.112.264.037.185.037c-.02 0-.036.007-.066.029C.087.09.065.099.042.099.014.099 0 .087 0 .062 0 .024.046 0 .122 0c.083 0 .155.027.206.078a.236.236 0 01.066.178.214.214 0 01-.068.168C.282.468.225.491.107.512l.042.085z"/></symbol><use xlink:href="#c" transform="matrix(9.96 0 0 -9.96 425.909 44.78)"/></g></g></g><g data-name="P"><clipPath id="d"><path transform="matrix(1 0 0 -1 0 595.32)" d="M0 0h841.92v595.32H0z" fill-rule="evenodd"/></clipPath><g clip-path="url(#d)"><symbol id="e"><path d="M.497.626H.189V.121C.19.077.195.049.206.038.217.026.244.019.286.018V0H0v.018c.041.001.067.008.079.02C.09.049.096.077.096.12v.42C.096.586.09.614.079.626.067.636.04.643 0 .644v.018h.686V.644C.645.643.619.636.607.624.596.614.59.586.59.543V.12C.59.077.596.049.607.038.62.026.645.019.686.018V0H.401v.018C.442.02.468.026.48.038c.012.01.018.039.018.083v.505z"/></symbol><symbol id="f"><path d="M.002.617L.14.672H.16V.568c.023.04.046.067.069.082a.13.13 0 00.074.024.142.142 0 00.112-.052A.25.25 0 00.47.454.28.28 0 00.403.262.176.176 0 00.265.2a.172.172 0 00-.062.01.146.146 0 00-.044.03V.104c0-.031.001-.05.005-.059a.043.043 0 01.02-.02.122.122 0 01.05-.007V0H0v.018h.012c.018 0 .033.003.046.01.006.004.011.01.014.018a.196.196 0 01.006.06V.53a.23.23 0 01-.004.055.033.033 0 01-.013.018.04.04 0 01-.023.006A.088.088 0 01.008.6L.002.617M.16.539V.372c0-.036.001-.06.004-.071A.092.092 0 01.196.25.104.104 0 01.264.229c.032 0 .059.013.079.039a.22.22 0 01.04.14c0 .068-.016.12-.046.157a.093.093 0 01-.12.027.272.272 0 01-.058-.053z"/></symbol><symbol id="g"><path d="M.216.474A.198.198 0 00.38.397.237.237 0 00.432.246c0-.04-.01-.081-.03-.122A.21.21 0 00.324.031.208.208 0 00.211 0a.19.19 0 00-.16.08A.25.25 0 000 .234c0 .04.01.082.03.122a.208.208 0 00.186.12M.201.441A.102.102 0 01.15.427.107.107 0 01.107.373a.26.26 0 01-.016-.1C.09.21.104.154.129.106.155.058.19.035.232.035.264.035.29.048.31.074.33.1.34.144.34.208.34.288.325.35.29.396A.106.106 0 01.2.442z"/></symbol><symbol id="h"><path d="M.08.571h.394V.553C.452.553.437.55.43.546A.05.05 0 01.413.53.17.17 0 01.406.466v-.22C.406.198.41.17.418.158.426.15.445.143.474.142V0H.456a.146.146 0 01-.02.07.096.096 0 01-.05.042.275.275 0 01-.094.012H.177a.299.299 0 01-.084-.01.097.097 0 01-.05-.04A.162.162 0 01.017 0H0v.142c.027.001.05.012.073.032.022.02.04.06.057.118a.639.639 0 01.025.174C.155.522.13.551.08.553V.57M.187.54V.513C.188.353.16.233.102.156h.166c.03 0 .047.002.051.007.005.005.007.024.007.056v.32H.187z"/></symbol><symbol id="i"><path d="M.292.236C.373.22.414.181.414.122A.1.1 0 00.363.03.279.279 0 00.22 0H0v.018c.029 0 .047.005.055.016.007.011.011.035.011.071v.237a.19.19 0 01-.005.062.046.046 0 01-.016.017C.038.426.023.429 0 .429v.018h.206c.04 0 .072-.003.096-.009a.114.114 0 00.06-.037.097.097 0 00.025-.066C.387.285.355.251.292.236M.147.248h.026C.218.247.25.255.27.271A.08.08 0 01.3.335C.3.363.29.384.27.396a.188.188 0 01-.097.02H.147V.248m0-.208A.192.192 0 01.206.032c.038 0 .067.008.086.025A.084.084 0 01.32.123C.32.153.308.175.284.19a.185.185 0 01-.102.024H.147V.04z"/></symbol><symbol id="j"><path d="M.224 0v.018c.03.003.05.011.058.024.008.013.012.04.012.081v.102C.272.225.258.222.25.217A.205.205 0 01.216.162L.132 0H0v.018c.023.002.04.008.052.02a.322.322 0 01.047.076c.03.061.053.098.067.11.014.014.029.02.045.022C.19.255.172.281.155.326a.213.213 0 01-.02.042.023.023 0 01-.02.01A.073.073 0 01.09.372.1.1 0 00.056.363a.038.038 0 00-.031.013.047.047 0 00-.011.032c0 .015.005.025.017.033a.07.07 0 00.04.012.086.086 0 00.064-.024A.226.226 0 00.18.344C.195.306.211.28.23.27A.115.115 0 01.294.25v.073C.294.366.29.394.28.406.272.418.253.426.224.429v.018h.22V.43C.416.425.397.418.389.405.379.393.375.365.375.325V.25c.026 0 .047.006.065.018.018.011.033.037.047.075.018.05.036.081.055.092a.11.11 0 00.055.017C.616.453.63.448.64.439A.04.04 0 00.655.41.047.047 0 00.644.375a.038.038 0 00-.03-.013.1.1 0 00-.035.01.071.071 0 01-.023.005.025.025 0 01-.022-.01.213.213 0 01-.02-.042C.497.281.478.255.458.246A.074.074 0 00.504.224.489.489 0 00.57.116.334.334 0 01.617.037.082.082 0 01.67.018V0H.537L.453.162a.194.194 0 01-.036.055C.411.222.397.225.375.225V.123C.375.076.38.048.389.038.4.028.417.022.445.018V0h-.22z"/></symbol><symbol id="k"><path d="M.07.292A.23.23 0 01.117.136.147.147 0 01.232.08c.03 0 .055.008.077.024a.18.18 0 01.054.083l.015-.01a.234.234 0 00-.06-.122A.16.16 0 00.196 0c-.053 0-.1.02-.138.063A.242.242 0 000 .23c0 .077.02.137.059.18.039.042.088.064.148.064.05 0 .09-.017.123-.05A.18.18 0 00.378.292H.07m0 .029h.207a.191.191 0 01-.01.06.096.096 0 01-.037.043.09.09 0 01-.05.016.101.101 0 01-.073-.032A.136.136 0 01.07.321z"/></symbol><symbol id="l"><path d="M.148.248h.194v.094a.27.27 0 01-.004.055.037.037 0 01-.017.022C.312.426.297.43.274.43v.018H.49V.43A.108.108 0 01.446.422a.036.036 0 01-.019-.02.216.216 0 01-.005-.06V.105c0-.028.002-.047.004-.056A.039.039 0 01.444.026.096.096 0 01.49.018V0H.274v.018C.3.018.319.023.328.033c.01.01.014.034.014.072v.11H.148v-.11C.148.077.15.058.152.049A.039.039 0 01.17.026.096.096 0 01.216.018V0H0v.018c.029 0 .048.005.056.016.008.01.012.034.012.071v.237a.252.252 0 01-.004.056.035.035 0 01-.018.022A.096.096 0 010 .43v.018h.216V.43A.108.108 0 01.172.422a.036.036 0 01-.019-.02.216.216 0 01-.005-.06V.248z"/></symbol><symbol id="m"><path d="M.438.447V.43A.094.094 0 01.393.42.04.04 0 01.375.4.224.224 0 01.37.341V.105C.37.077.371.058.374.049A.039.039 0 01.393.027.093.093 0 01.438.018V0H.222v.018c.027 0 .045.005.054.015.009.01.014.034.014.072v.097H.254L.11 0H0v.018c.016 0 .028.002.034.006a.225.225 0 01.035.044l.105.147C.099.241.062.281.062.335a.1.1 0 00.04.079c.027.022.072.033.137.033h.199M.29.41a.133.133 0 01-.037.006C.221.416.196.407.18.39A.08.08 0 01.155.333C.155.304.167.281.19.262a.134.134 0 01.1-.028V.41z"/></symbol><symbol id="o"><path d="M.166.853l.132.055h.021V.633c.03.028.06.041.09.041.043 0 .079-.023.109-.069A.3.3 0 00.563.437.299.299 0 00.517.27C.487.223.45.2.406.2a.113.113 0 00-.087.043V.105C.32.072.321.052.325.043a.034.034 0 01.02-.02.202.202 0 01.062-.005V0H.166v.018c.033 0 .054.005.063.014.01.01.015.034.015.073v.138A.11.11 0 00.158.2C.112.2.075.224.045.27A.312.312 0 000 .443c0 .06.014.115.043.162.029.047.066.07.112.07A.11.11 0 00.244.627V.75a.243.243 0 01-.008.08C.23.838.222.844.208.844A.089.089 0 01.173.837L.166.853M.244.584C.225.622.202.642.174.642.145.642.123.623.107.587A.435.435 0 01.085.425.35.35 0 01.108.282C.124.25.146.233.173.233c.026 0 .05.015.07.045v.306M.32.286A.079.079 0 01.35.247.074.074 0 01.39.233c.025 0 .046.016.062.048.016.031.024.08.024.148C.476.57.448.642.392.642.368.642.344.628.319.602V.286z"/></symbol><symbol id="p"><path d="M.298.117l.14.33h.15V.43C.566.429.551.426.544.422A.05.05 0 01.527.406.17.17 0 01.52.342V.105c0-.03.001-.051.004-.06a.036.036 0 01.019-.02.11.11 0 01.044-.007V0H.372v.018C.4.018.417.023.426.033c.009.01.013.034.013.072v.269L.281 0H.264L.103.374V.105c0-.03.002-.051.005-.06a.036.036 0 01.019-.02.106.106 0 01.044-.007V0H0v.018c.029 0 .048.005.056.016.008.01.012.034.012.071v.237a.187.187 0 01-.006.062.049.049 0 01-.016.017C.038.426.023.429 0 .429v.018h.157l.14-.33z"/></symbol><symbol id="q"><path d="M.148.138L.342.36c0 .025-.006.043-.014.053-.01.01-.024.014-.046.015v.018H.49V.43C.468.429.454.426.446.422A.05.05 0 01.43.406.17.17 0 01.422.342V.105C.422.07.424.05.428.043A.053.053 0 01.444.025C.452.021.467.018.49.018V0H.274v.018C.3.018.319.023.328.033c.01.01.014.034.014.072v.21L.148.091C.15.064.153.045.16.034.167.024.183.018.207.018V0H0v.018c.029 0 .048.005.056.016.008.01.012.034.012.071v.237a.187.187 0 01-.006.062.049.049 0 01-.016.017C.038.426.023.429 0 .429v.018h.216V.43C.194.429.18.426.172.422A.05.05 0 01.155.406.17.17 0 01.148.342V.138z"/></symbol><symbol id="r"><path d="M.242.677L.488.231v.213a.96.96 0 00.007.144.115.115 0 00.119.096.085.085 0 00.058-.018.055.055 0 00.02-.043.048.048 0 00-.014-.035.049.049 0 00-.036-.014.08.08 0 00-.043.013C.583.597.571.602.564.602.552.602.544.596.538.583A.31.31 0 01.531.496V0H.509L.207.54V.223A.536.536 0 00.193.076.101.101 0 00.148.018.138.138 0 00.08 0C.052 0 .032.006.02.019A.057.057 0 000 .06c0 .014.005.025.015.034.01.009.022.013.036.013A.094.094 0 00.095.094.103.103 0 01.133.079c.012 0 .02.008.024.025a.57.57 0 01.007.11v.34a.23.23 0 01-.007.071.046.046 0 01-.028.025.166.166 0 01-.06.01v.017h.173m.515-.2A.162.162 0 00.864.435C.896.409.912.37.912.319A.149.149 0 00.872.21.132.132 0 00.773.169a.148.148 0 00-.108.046.16.16 0 00-.046.116c0 .04.012.073.037.102a.126.126 0 00.1.043M.754.453C.715.453.696.424.696.367c0-.042.008-.082.026-.12C.739.21.76.191.787.191.823.191.84.218.84.272A.343.343 0 01.818.39C.803.432.78.453.754.453M.62.07h.292V.015H.62V.07z"/></symbol><symbol id="s"><path d="M0 .339c0 .075.011.14.034.195a.273.273 0 00.091.122c.03.02.06.031.09.031C.268.688.313.662.354.61A.41.41 0 00.428.35.514.514 0 00.395.152.26.26 0 00.31.036.173.173 0 00.21 0C.149 0 .096.037.054.112A.455.455 0 000 .339M.096.327c0-.091.01-.166.033-.223C.148.055.176.03.212.03.23.03.248.039.267.054a.152.152 0 01.043.08.965.965 0 01.023.237.648.648 0 01-.024.189.168.168 0 01-.045.08.077.077 0 01-.107-.014.249.249 0 01-.049-.128A1.185 1.185 0 01.096.327z"/></symbol><symbol id="t"><path d="M.45.244v-.07H.36V0H.28v.175H0v.062l.307.439h.054V.244H.45m-.17 0v.329L.048.244H.28z"/></symbol><symbol id="u"><path d="M.01.548A.268.268 0 00.082.65a.162.162 0 00.107.036.149.149 0 00.123-.051.127.127 0 00.032-.083c0-.048-.03-.098-.091-.15A.197.197 0 00.345.336.177.177 0 00.376.231.22.22 0 00.322.082C.274.027.205 0 .115 0 .071 0 .04.006.024.017.008.027 0 .04 0 .052c0 .01.004.018.011.025a.04.04 0 00.028.01.084.084 0 00.025-.003.285.285 0 00.038-.018.245.245 0 01.04-.018.135.135 0 01.039-.006c.033 0 .062.013.086.04a.127.127 0 01.037.09A.176.176 0 01.26.29a.199.199 0 01-.057.035.184.184 0 01-.075.016H.111v.015a.2.2 0 01.077.028.147.147 0 01.057.055.145.145 0 01.018.07.108.108 0 01-.11.113C.103.621.06.594.026.54L.01.548z"/></symbol><symbol id="v"><path d="M.279.708L.039 0H0l.24.708h.039z"/></symbol><use xlink:href="#e" transform="matrix(9.96 0 0 -9.96 672.88 67.58)"/><use xlink:href="#f" transform="matrix(9.96 0 0 -9.96 679.857 69.71)"/><use xlink:href="#g" transform="matrix(9.96 0 0 -9.96 685.266 67.716)"/><use xlink:href="#h" transform="matrix(9.96 0 0 -9.96 690.087 68.815)"/><use xlink:href="#g" transform="matrix(9.96 0 0 -9.96 695.366 67.716)"/><use xlink:href="#i" transform="matrix(9.96 0 0 -9.96 700.264 67.58)"/><use xlink:href="#j" transform="matrix(9.96 0 0 -9.96 704.843 67.58)"/><use xlink:href="#k" transform="matrix(9.96 0 0 -9.96 711.923 67.716)"/><use xlink:href="#l" transform="matrix(9.96 0 0 -9.96 716.2 67.58)"/><use xlink:href="#l" transform="matrix(9.96 0 0 -9.96 721.608 67.58)"/><use xlink:href="#m" transform="matrix(9.96 0 0 -9.96 726.658 67.58)"/><use xlink:href="#n" transform="matrix(9.96 0 0 -9.96 731.245 67.58)"/><use xlink:href="#o" transform="matrix(9.96 0 0 -9.96 734.158 69.71)"/><use xlink:href="#g" transform="matrix(9.96 0 0 -9.96 740.544 67.716)"/><use xlink:href="#f" transform="matrix(9.96 0 0 -9.96 745.205 69.71)"/><use xlink:href="#p" transform="matrix(9.96 0 0 -9.96 750.492 67.58)"/><use xlink:href="#q" transform="matrix(9.96 0 0 -9.96 756.847 67.58)"/><use xlink:href="#n" transform="matrix(9.96 0 0 -9.96 761.902 67.58)"/><use xlink:href="#r" transform="matrix(9.96 0 0 -9.96 764.49 67.73)"/><use xlink:href="#n" transform="matrix(9.96 0 0 -9.96 773.913 67.58)"/><use xlink:href="#s" transform="matrix(9.96 0 0 -9.96 776.763 67.697)"/><use xlink:href="#t" transform="matrix(9.96 0 0 -9.96 781.599 67.58)"/><use xlink:href="#u" transform="matrix(9.96 0 0 -9.96 786.876 67.697)"/><use xlink:href="#v" transform="matrix(9.96 0 0 -9.96 791.517 67.716)"/><use xlink:href="#g" transform="matrix(9.96 0 0 -9.96 794.607 67.716)"/></g></g><clipPath id="w"><path transform="matrix(1 0 0 -1 0 595.32)" d="M52.08 480.1h752.04v43.8H52.08z" fill-rule="evenodd"/></clipPath><g clip-path="url(#w)"><g data-name="P"><clipPath id="x"><path transform="matrix(1 0 0 -1 0 595.32)" d="M52.08 480.1h752.04v43.8H52.08z" fill-rule="evenodd"/></clipPath><g clip-path="url(#x)"><symbol id="y"><path d="M0 .193v.018h.011c.03 0 .047.008.052.024a.275.275 0 01.008.078v.43c0 .04-.004.065-.012.076C.051.831.035.837.011.837H0v.018h.302V.837H.29C.266.837.25.831.242.82.234.807.23.782.23.743V.295C.23.267.234.25.24.245.247.239.265.236.295.236h.061c.04 0 .06.003.065.01.004.006.007.023.007.049v.448c0 .039-.004.064-.012.076C.408.831.392.837.368.837H.356v.018h.302V.837H.646C.622.837.606.831.6.82.59.808.587.782.587.743V.306a.2.2 0 01.005-.06C.595.24.615.237.652.237h.077c.03 0 .047.004.05.012A.17.17 0 01.784.3v.443C.784.78.78.806.772.819.765.83.75.837.724.837H.713v.018h.301V.837h-.011C.979.837.963.831.955.82.947.807.943.78.943.743V.306c0-.037.003-.063.01-.076.007-.012.024-.019.05-.019h.011V0H.996A.279.279 0 01.95.112a.17.17 0 01-.076.065.31.31 0 01-.108.016H0z"/></symbol><symbol id="z"><path d="M.347.687A.33.33 0 00.703.349.353.353 0 00.63.127.328.328 0 00.354 0 .335.335 0 000 .348a.33.33 0 00.347.339M.353.655C.293.655.246.625.215.562A.496.496 0 01.176.345c0-.113.02-.197.06-.25A.136.136 0 01.352.036.14.14 0 01.436.06a.2.2 0 01.067.1.557.557 0 01.024.179.592.592 0 01-.025.196.19.19 0 01-.062.092.146.146 0 01-.087.027z"/></symbol><symbol id="A"><path d="M.122.855H.67V.837C.63.837.603.83.592.82.58.81.575.785.575.75V.308C.575.28.577.26.582.249A.053.053 0 01.609.222a.144.144 0 01.06-.01V0H.651A.204.204 0 01.59.14a.216.216 0 01-.155.053h-.18a.254.254 0 01-.165-.05A.204.204 0 01.02 0H0v.211c.08.016.138.07.172.163.035.093.053.217.053.372 0 .038-.007.062-.02.073C.192.831.165.837.122.837v.018M.434.813H.267V.755C.267.676.262.599.251.523A.726.726 0 00.207.345.33.33 0 00.133.236h.236c.032 0 .05.002.056.007.006.004.009.019.009.043v.526z"/></symbol><symbol id="B"><path d="M.252.624v-.27h.014c.042 0 .072.014.09.04.02.026.032.065.037.117h.019V.164H.393a.256.256 0 01-.025.093.104.104 0 01-.043.048.163.163 0 01-.073.013V.13c0-.036.002-.058.005-.067a.042.042 0 01.017-.02.081.081 0 01.041-.007h.04C.417.037.466.05.503.08a.239.239 0 01.081.13h.018L.572 0H0v.018h.022c.02 0 .035.003.046.01a.044.044 0 01.02.024.201.201 0 01.005.061V.55c0 .03 0 .048-.002.055A.047.047 0 01.073.63a.084.084 0 01-.051.014H0v.018h.554V.466H.536a.236.236 0 01-.04.103.146.146 0 01-.073.046.393.393 0 01-.102.009H.252z"/></symbol><symbol id="C"><path d="M.252.318V.113C.252.08.254.058.258.05A.053.053 0 01.28.027.091.091 0 01.324.018h.022V0H0v.018h.022c.02 0 .035.003.046.01a.044.044 0 01.02.024.201.201 0 01.005.061V.55a.218.218 0 01-.005.063.048.048 0 01-.022.022.085.085 0 01-.044.01H0v.018h.346V.644H.324a.092.092 0 01-.046-.01.047.047 0 01-.02-.024A.201.201 0 01.252.55V.36h.234V.55a.218.218 0 01-.005.063.048.048 0 01-.022.022.087.087 0 01-.044.01H.393v.018H.74V.644H.717a.09.09 0 01-.046-.01A.047.047 0 01.65.61.201.201 0 01.646.55V.113C.646.08.647.058.65.05A.05.05 0 01.673.027.091.091 0 01.717.018H.74V0H.393v.018h.022a.09.09 0 01.046.01.047.047 0 01.02.024.201.201 0 01.005.061v.205H.252z"/></symbol><symbol id="D"><path d="M.49.553c0 .036-.004.06-.013.072C.47.638.448.644.415.644H.393v.018h.355V.644H.725c-.03 0-.05-.006-.06-.018C.654.615.648.59.648.55V.114c0-.04.005-.067.016-.079.01-.011.03-.017.06-.017h.023V0H.393v.018h.022c.031 0 .051.006.06.018C.486.05.49.074.49.114v.36L.257.106C.257.075.26.053.269.039.276.025.298.019.332.019h.023V0H0v.018h.022c.03 0 .051.006.061.018.01.013.015.038.015.078v.435c0 .04-.004.066-.012.077C.078.638.056.644.022.644H0v.018h.355V.644H.332c-.03 0-.05-.006-.06-.02C.262.613.257.588.257.55V.187L.49.553z"/></symbol><symbol id="E"><path d="M0 .662h.345V.644H.333C.301.644.28.638.268.626.258.614.252.592.252.559V.36c.046 0 .075.001.089.004a.07.07 0 01.038.027.252.252 0 01.034.086c.012.05.025.087.036.111A.148.148 0 00.5.648.136.136 0 00.578.67.105.105 0 00.653.643.086.086 0 00.68.578.062.062 0 00.662.53.067.067 0 00.615.512c-.037 0-.057.022-.06.065C.553.598.545.609.532.609.518.609.505.6.495.584A.377.377 0 01.46.494.993.993 0 00.43.4.144.144 0 00.395.347a.132.132 0 00.047-.02.132.132 0 00.031-.034C.483.28.502.246.532.191L.599.07A.111.111 0 01.636.03.104.104 0 01.69.018V0H.467L.331.254a.202.202 0 01-.035.052C.29.312.274.316.252.316V.092c0-.032.006-.052.02-.06C.284.021.308.017.344.017V0H0v.018c.038 0 .063.006.075.017.012.01.018.033.018.068v.443C.093.585.088.61.079.624c-.01.013-.031.02-.065.02H0v.018z"/></symbol><symbol id="G"><path d="M.71.652C.676.652.653.646.643.635.632.623.626.602.626.57v-.46c0-.035.005-.058.016-.069.01-.01.034-.015.071-.016V.008H.38v.018c.027 0 .046.002.057.006a.044.044 0 01.023.022c.005.01.008.028.008.054v.519h-.16V.429C.308.347.307.284.302.24A.361.361 0 00.268.117.21.21 0 00.197.029.168.168 0 00.1 0a.104.104 0 00-.075.025A.083.083 0 000 .087c0 .02.005.038.016.05.01.014.026.02.046.02C.1.158.121.135.126.088c.001-.02.01-.03.024-.03.02 0 .042.013.065.04A.23.23 0 01.26.212C.268.26.271.33.271.421v.125C.271.58.27.605.265.616a.042.042 0 01-.026.027.194.194 0 01-.067.009V.67h.539V.652z"/></symbol><symbol id="H"><path d="M.346.018V0H0v.018h.022c.02 0 .035.003.046.01a.044.044 0 01.02.024.201.201 0 01.005.061V.55a.218.218 0 01-.005.063.048.048 0 01-.022.022.085.085 0 01-.044.01H0v.018h.346V.644H.324a.092.092 0 01-.046-.01.047.047 0 01-.02-.024A.201.201 0 01.252.55V.113C.252.08.254.058.258.05A.053.053 0 01.28.027.091.091 0 01.324.018h.022z"/></symbol><symbol id="I"><path d="M.408.188H.174L.146.124A.143.143 0 01.133.071C.133.052.14.039.155.03A.189.189 0 01.22.018V0H0v.018a.1.1 0 01.059.03c.015.016.034.049.056.1l.237.528h.01L.6.133A.33.33 0 01.656.036.077.077 0 01.703.018V0h-.32v.018h.013c.026 0 .044.004.054.01.007.006.01.014.01.023A.06.06 0 01.459.07a.456.456 0 01-.015.037L.408.188M.392.225L.293.453.191.225h.2z"/></symbol><symbol id="J"><path d="M.245.3V.116C.245.08.247.058.25.048A.05.05 0 01.274.026.158.158 0 01.336.018V0H0v.018c.03 0 .051.003.062.008A.05.05 0 01.085.05C.09.058.092.08.092.116v.43a.195.195 0 01-.007.067.047.047 0 01-.023.023A.156.156 0 010 .644v.018h.289c.095 0 .163-.017.204-.05A.158.158 0 00.555.483a.162.162 0 00-.04-.11.204.204 0 00-.11-.062A.754.754 0 00.245.3m0 .324V.338L.269.337c.04 0 .07.012.092.035.021.024.032.06.032.11S.383.567.361.59C.339.613.307.624.265.624h-.02z"/></symbol><symbol id="K"><path d="M.465.302V.116A.2.2 0 00.458.048.047.047 0 00.436.026.156.156 0 00.374.018V0h.338v.018A.158.158 0 00.65.026.053.053 0 00.627.05a.21.21 0 00-.006.067v.43a.21.21 0 00.006.067.05.05 0 00.023.023.156.156 0 00.062.008v.018H.405A.671.671 0 01.229.646a.177.177 0 01-.09-.062.163.163 0 01-.036-.105C.103.431.121.39.156.36A.218.218 0 01.25.312L.09.089A.339.339 0 00.047.035.083.083 0 000 .018V0h.208l.214.302h.043m0 .324v-.29H.437A.317.317 0 00.337.35a.104.104 0 00-.053.045.168.168 0 00-.02.085c0 .05.012.087.036.111.024.024.062.036.114.036h.052z"/></symbol><use xlink:href="#y" transform="matrix(14.04 0 0 -14.04 355.36 98.615)"/><use xlink:href="#z" transform="matrix(14.04 0 0 -14.04 370.678 96.113)"/><use xlink:href="#A" transform="matrix(14.04 0 0 -14.04 381.053 98.615)"/><use xlink:href="#B" transform="matrix(14.04 0 0 -14.04 390.937 95.9)"/><use xlink:href="#C" transform="matrix(14.04 0 0 -14.04 400.316 95.9)"/><use xlink:href="#C" transform="matrix(14.04 0 0 -14.04 411.239 95.9)"/><use xlink:href="#D" transform="matrix(14.04 0 0 -14.04 422.087 95.9)"/><use xlink:href="#E" transform="matrix(14.04 0 0 -14.04 433.078 95.9)"/><use xlink:href="#F" transform="matrix(14.04 0 0 -14.04 442.97 95.9)"/><use xlink:href="#G" transform="matrix(14.04 0 0 -14.04 446.562 96.01)"/><use xlink:href="#H" transform="matrix(14.04 0 0 -14.04 457.052 95.9)"/><use xlink:href="#E" transform="matrix(14.04 0 0 -14.04 462.562 95.9)"/><use xlink:href="#I" transform="matrix(14.04 0 0 -14.04 472.465 95.9)"/><use xlink:href="#J" transform="matrix(14.04 0 0 -14.04 482.792 95.9)"/><use xlink:href="#K" transform="matrix(14.04 0 0 -14.04 490.793 95.9)"/></g></g></g><g data-name="P" fill-rule="evenodd"><path d="M50.52 71.54h1.44v-1.56h-1.44z"/><path d="M50.52 71.42h1.44v-1.44h-1.44zM51.96 71.42h752.16v-1.44H51.96zM804.12 71.54h1.44v-1.56h-1.44z"/><path d="M804.12 71.42h1.44v-1.44h-1.44zM50.52 115.22h1.44V71.54h-1.44zM804.12 115.22h1.44V71.54h-1.44z"/></g><clipPath id="L"><path transform="matrix(1 0 0 -1 0 595.32)" d="M52.08 462.58h130.34v16.08H52.08z" fill-rule="evenodd"/></clipPath><g data-name="P" clip-path="url(#L)"><clipPath id="M"><path transform="matrix(1 0 0 -1 0 595.32)" d="M52.08 462.58h130.34v16.08H52.08z" fill-rule="evenodd"/></clipPath><g clip-path="url(#M)"><symbol id="N"><path d="M.24.074C.186.024.136 0 .09 0A.087.087 0 000 .09c0 .035.015.066.045.094.03.028.095.065.196.11v.047a.21.21 0 01-.006.065.05.05 0 01-.021.023.063.063 0 01-.035.01.09.09 0 01-.053-.014C.118.42.114.413.114.405c0-.007.004-.016.013-.026C.14.365.146.352.146.34A.054.054 0 00.128.298.065.065 0 00.082.28.075.075 0 00.03.3a.057.057 0 00-.02.043.1.1 0 00.027.067.175.175 0 00.078.05.317.317 0 00.103.017c.044 0 .078-.01.103-.028a.128.128 0 00.05-.06.388.388 0 00.006-.094V.118c0-.021 0-.034.002-.04A.023.023 0 01.387.066a.017.017 0 01.01-.004c.01 0 .018.007.027.019L.438.069a.18.18 0 00-.05-.053A.11.11 0 00.328 0a.093.093 0 00-.06.018.084.084 0 00-.027.056m0 .035v.153A.285.285 0 01.153.188a.09.09 0 01-.02-.053C.134.12.14.107.15.095A.044.044 0 01.184.082C.2.082.22.092.241.109z"/></symbol><symbol id="O"><path d="M.108 0v.018c.02 0 .033.005.04.015.007.01.011.03.011.06v.333H.114C.082.426.06.42.047.409.035.397.025.374.018.337H0v.12h.455v-.12H.437a.146.146 0 01-.026.069C.4.419.377.426.342.426H.296V.093c0-.03.003-.05.01-.06C.315.023.329.018.348.018V0h-.24z"/></symbol><use xlink:href="#A" transform="matrix(14.04 0 0 -14.04 101.66 132.335)"/><use xlink:href="#N" transform="matrix(14.04 0 0 -14.04 111.894 129.71)"/><use xlink:href="#O" transform="matrix(14.04 0 0 -14.04 118.58 129.62)"/><use xlink:href="#N" transform="matrix(14.04 0 0 -14.04 125.794 129.71)"/></g></g><clipPath id="P"><path transform="matrix(1 0 0 -1 0 595.32)" d="M183.02 462.58h621.1v16.08h-621.1z" fill-rule="evenodd"/></clipPath><g data-name="P" clip-path="url(#P)"><clipPath id="Q"><path transform="matrix(1 0 0 -1 0 595.32)" d="M183.02 462.58h621.1v16.08h-621.1z" fill-rule="evenodd"/></clipPath><g clip-path="url(#Q)"><symbol id="R"><path d="M0 0v.018c.019 0 .032.005.04.014C.047.042.05.06.05.087v.28c0 .03-.003.048-.011.057C.033.434.02.438 0 .438v.019h.232V.438C.216.438.205.434.198.426.19.418.188.4.188.373V.252h.13v.12c0 .023-.002.04-.006.05C.307.433.294.438.275.438v.019h.232V.438C.488.438.475.434.467.424.459.415.456.4.456.378v-.29c0-.03.003-.048.01-.056C.475.023.489.019.507.018V0H.276v.018C.29.018.303.022.309.03c.007.008.01.026.01.055v.137H.188V.087c0-.029.003-.047.01-.056C.205.022.216.018.232.018V0H0z"/></symbol><symbol id="S"><path d="M0 .457h.19L.308.173l.115.284h.186V.438C.59.438.578.432.57.422.563.412.56.396.56.372V.086C.56.062.561.044.57.034.575.024.59.02.607.018V0h-.24v.018c.02 0 .034.006.042.016s.012.028.012.053V.38L.263 0H.238L.084.375V.08c0-.022.004-.037.01-.046C.103.024.117.019.138.018V0H0v.018c.018 0 .031.006.039.015.007.01.011.027.011.05v.292C.05.397.047.413.04.422.031.432.018.438 0 .438v.019z"/></symbol><symbol id="T"><path d="M.382.258h-.25A.236.236 0 01.18.115a.102.102 0 01.08-.04C.28.074.299.08.315.09a.21.21 0 01.051.06L.382.138A.279.279 0 00.3.03.178.178 0 00.196 0a.173.173 0 00-.154.078A.276.276 0 000 .234c0 .077.02.137.062.182a.19.19 0 00.145.068.156.156 0 00.12-.057C.36.389.379.333.382.258m-.12.033a.438.438 0 01-.01.108.087.087 0 01-.025.044.04.04 0 01-.028.01C.182.452.17.442.158.426a.214.214 0 01-.03-.119V.291h.134z"/></symbol><symbol id="U"><path d="M.23.26C.287.244.323.226.338.203A.12.12 0 00.313.038.214.214 0 00.176 0C.095 0 .036.032 0 .095l.015.009C.053.067.091.048.13.048c.03 0 .052.01.07.027a.1.1 0 01.026.071C.225.203.19.233.124.237v.031c.058 0 .088.03.088.09a.1.1 0 01-.02.067.067.067 0 01-.055.024C.087.45.057.413.042.341H.024L.03.484h.018C.055.47.062.464.07.464L.095.47C.129.48.16.484.187.484a.18.18 0 00.108-.03A.097.097 0 00.338.37C.338.314.302.278.23.26z"/></symbol><use xlink:href="#I" transform="matrix(14.04 0 0 -14.04 328.96 129.62)"/><use xlink:href="#R" transform="matrix(14.04 0 0 -14.04 339.41 129.62)"/><use xlink:href="#N" transform="matrix(14.04 0 0 -14.04 347.606 129.71)"/><use xlink:href="#S" transform="matrix(14.04 0 0 -14.04 354.538 129.62)"/><use xlink:href="#R" transform="matrix(14.04 0 0 -14.04 364.079 129.62)"/><use xlink:href="#T" transform="matrix(14.04 0 0 -14.04 372.228 129.812)"/><use xlink:href="#U" transform="matrix(14.04 0 0 -14.04 378.105 129.812)"/></g><clipPath id="V"><path transform="matrix(1 0 0 -1 0 595.32)" d="M183.02 462.58h621.1v16.08h-621.1z" fill-rule="evenodd"/></clipPath><g clip-path="url(#V)"><symbol id="W"><path d="M.018 0v.021A.178.178 0 01.1.085a.14.14 0 01.025.08.02.02 0 01-.003.012C.12.179.118.18.115.18A.02.02 0 01.106.177.069.069 0 00.071.17a.067.067 0 00-.05.022.078.078 0 00.003.11.08.08 0 00.06.024C.11.325.134.315.154.292a.126.126 0 00.03-.088A.196.196 0 00.143.08.242.242 0 00.018 0z"/></symbol><symbol id="X"><path d="M.368.131L.383.12a.229.229 0 00-.08-.09A.192.192 0 00.2 0C.14 0 .09.023.055.069A.258.258 0 000 .234c0 .063.017.117.05.164.04.057.095.086.165.086A.167.167 0 00.328.448C.356.424.37.398.37.368A.06.06 0 00.353.325.06.06 0 00.309.308.065.065 0 00.26.327C.248.339.24.362.238.395.236.415.23.429.224.437A.035.035 0 01.197.45C.182.45.168.44.157.425A.208.208 0 01.132.31c0-.043.007-.085.02-.124A.19.19 0 01.208.099.1.1 0 01.272.078c.016 0 .031.003.045.01a.209.209 0 01.051.043z"/></symbol><symbol id="Y"><path d="M.235.197L.087.536A.426.426 0 01.038.63.082.082 0 010 .654v.018h.243V.654C.227.654.215.651.209.645a.025.025 0 01-.01-.02C.2.613.207.588.224.552L.302.373l.053.138c.02.05.029.084.029.103a.036.036 0 01-.012.029C.364.65.35.653.33.654v.018h.152V.654A.057.057 0 01.446.637.423.423 0 01.398.536L.268.197A.743.743 0 00.195.041.105.105 0 00.11 0a.093.093 0 00-.066.023A.073.073 0 00.02.08c0 .019.005.035.017.047A.057.057 0 00.08.145C.096.145.109.139.119.129.129.119.134.102.134.08.134.068.136.06.14.057A.013.013 0 01.149.05c.009 0 .017.005.026.014A.303.303 0 01.22.16l.014.038z"/></symbol><symbol id="Z"><path d="M.47.577V.559C.45.559.435.553.43.542a.094.094 0 01-.01-.044V.203C.42.176.425.159.433.15S.452.139.47.138V0H.452C.445.08.394.12.3.12H.168C.078.12.028.08.018 0H0v.138c.04.003.072.04.095.11.023.07.035.146.035.226a.204.204 0 01-.005.054C.12.54.115.548.109.552A.08.08 0 01.073.56v.018H.47M.284.546h-.12V.474A.573.573 0 00.085.15h.15c.032 0 .048.02.048.058v.338z"/></symbol><symbol id="aa"><path d="M.123.678C.144.678.163.67.177.655A.072.072 0 00.199.602.072.072 0 00.176.55.072.072 0 00.123.527.072.072 0 00.07.549a.072.072 0 00-.022.053c0 .02.007.039.022.053a.072.072 0 00.053.023M.191.457V.095c0-.033.004-.053.012-.062C.21.023.225.019.247.018V0H0v.018c.02 0 .035.006.045.017.006.008.01.027.01.06V.36C.055.394.05.414.043.423.036.432.021.437 0 .438v.019h.191z"/></symbol><symbol id="ab"><path d="M0 .018C.019.02.032.024.04.033c.007.009.01.026.01.051v.29c0 .024-.003.04-.01.048C.033.432.02.437 0 .438v.019h.401v-.12H.383C.376.375.366.398.353.41.34.42.315.426.278.426h-.09V.082c0-.023.003-.04.01-.049C.207.023.222.02.245.018V0H0v.018z"/></symbol><symbol id="ac"><path d="M.213.484c.04 0 .077-.01.11-.03.035-.021.06-.05.078-.088A.286.286 0 00.428.242a.262.262 0 00-.05-.163A.195.195 0 00.215 0a.188.188 0 00-.158.072A.267.267 0 000 .24a.27.27 0 00.057.17c.038.05.09.074.156.074M.215.449A.057.057 0 01.172.43C.16.418.152.393.148.356A1.687 1.687 0 01.143.202C.143.167.145.135.15.104A.094.094 0 01.173.052a.054.054 0 01.04-.018C.228.034.24.038.25.046a.082.082 0 01.025.046 1.127 1.127 0 010 .302.087.087 0 01-.027.045.051.051 0 01-.033.01z"/></symbol><symbol id="ad"><path d="M.277.008v.018a.07.07 0 01.04.012c.01.007.016.025.016.051v.345H.204v-.2a.685.685 0 00-.01-.149A.11.11 0 00.086 0a.086.086 0 00-.064.023A.076.076 0 000 .078c0 .02.006.036.017.048a.058.058 0 00.045.02C.097.146.114.124.114.082c0-.02.004-.029.011-.029C.14.053.151.065.16.09A.566.566 0 01.17.234v.133c0 .03-.004.05-.012.061C.15.44.136.445.116.446v.018H.52V.446c-.033 0-.05-.02-.05-.061V.09C.47.07.474.052.48.042.487.032.5.027.519.026V.008H.277z"/></symbol><symbol id="ae"><path d="M0 .457h.232V.438C.215.438.203.433.197.424.19.414.188.395.188.366V.253c.036 0 .061.006.075.018a.172.172 0 01.039.068c.017.048.034.08.052.098a.097.097 0 00.073.027.108.108 0 00.067-.022.068.068 0 00.029-.057.069.069 0 00-.017-.047A.055.055 0 00.462.32C.426.32.407.34.406.376.406.402.4.416.39.416.373.416.356.393.34.349A.693.693 0 00.31.279.128.128 0 00.284.25.18.18 0 00.355.222.29.29 0 00.414.146l.043-.07C.48.04.504.02.529.019V0H.353L.217.222H.188V.095c0-.028.003-.048.01-.06C.205.026.216.02.232.019V0H0v.018c.015 0 .028.004.037.012.01.008.014.028.014.06v.27C.051.39.048.41.04.42.033.433.02.438 0 .438v.019z"/></symbol><symbol id="af"><path d="M0 .457h.252c.053 0 .096-.01.13-.03a.091.091 0 00.05-.084C.432.293.397.26.327.241.421.231.468.191.468.123A.099.099 0 00.411.031.333.333 0 00.254 0H0v.018C.022.02.036.026.042.034.047.042.05.058.05.082v.272C.05.39.047.414.04.422.036.432.022.437 0 .438v.019M.193.253C.271.255.31.284.31.339.31.396.27.425.193.426V.253m0-.03v-.15C.193.056.196.045.201.04.206.033.216.03.232.03c.028 0 .051.01.07.03a.1.1 0 01.03.072C.331.164.32.186.298.201.278.215.243.222.193.222z"/></symbol><symbol id="ag"><path d="M.486.457V.438A.05.05 0 01.45.426C.442.418.438.4.438.368v-.26c0-.034.004-.058.01-.07C.457.026.469.02.487.018V0H.253v.018C.285.02.3.047.3.1v.106a.723.723 0 00-.043 0L.181 0H0v.018c.035 0 .06.02.076.06l.052.143C.06.242.025.28.025.337c0 .029.009.053.027.073.018.02.04.033.064.038a.693.693 0 00.131.009h.239M.3.419a.216.216 0 01-.048.007C.225.426.204.417.19.4A.094.094 0 01.169.337c0-.03.01-.056.03-.074C.217.244.246.235.285.235H.3V.42z"/></symbol><symbol id="ah"><path d="M.191.26V.09c0-.023.002-.04.006-.048A.038.038 0 01.214.024.118.118 0 01.26.018V0H0v.018c.02 0 .035.006.045.017.006.008.01.027.01.058v.482C.055.607.05.628.043.637.036.646.021.65 0 .652V.67h.191V.61c.016.024.033.04.05.051A.146.146 0 00.41.652.195.195 0 00.471.564.347.347 0 00.471.317.185.185 0 00.407.23.158.158 0 00.243.217.185.185 0 00.19.26m0 .05C.22.27.25.25.281.25.3.25.313.26.325.278.342.305.35.358.35.434.35.513.34.567.322.596a.057.057 0 01-.05.029C.24.625.212.6.192.553V.31z"/></symbol><symbol id="ai"><path d="M.507.138V0H.49a.129.129 0 01-.04.088C.426.11.384.12.324.12H0v.018c.02 0 .033.005.04.015.008.01.011.031.011.062v.27C.051.52.047.54.04.547.031.554.018.558 0 .56v.018h.232V.559C.216.558.204.554.198.546.19.54.188.521.188.491V.223c0-.032.003-.052.01-.06C.205.154.219.15.242.15H.27c.02 0 .034.004.04.012C.316.17.32.19.32.221v.265c0 .03-.003.05-.01.06C.305.553.293.558.276.558v.018h.232V.559C.488.558.475.553.467.543S.456.516.456.491V.213c0-.03.003-.05.01-.06C.471.143.485.14.506.138z"/></symbol><symbol id="aj"><path d="M.229.457V.095C.229.062.233.042.24.033.248.023.262.019.284.018V0H.038v.018c.02 0 .035.006.045.017.006.008.01.027.01.06V.36C.092.394.088.414.08.423.074.432.06.437.038.438v.019h.191m.019.211a.062.062 0 00.045-.02.063.063 0 00.02-.045.063.063 0 00-.02-.046.063.063 0 00-.045-.019.063.063 0 00-.046.02.063.063 0 00-.02.045c0 .018.007.033.02.046a.063.063 0 00.046.019m-.183 0A.062.062 0 00.11.648.063.063 0 00.13.604.063.063 0 00.11.557.063.063 0 00.066.538a.063.063 0 00-.046.02A.063.063 0 000 .602c0 .018.006.033.019.046a.063.063 0 00.046.019z"/></symbol><use xlink:href="#W" transform="matrix(14.04 0 0 -14.04 384.022 132.081)"/><use xlink:href="#F" transform="matrix(14.04 0 0 -14.04 387.08 129.62)"/><use xlink:href="#X" transform="matrix(14.04 0 0 -14.04 391.069 129.812)"/><use xlink:href="#O" transform="matrix(14.04 0 0 -14.04 397.021 129.62)"/><use xlink:href="#N" transform="matrix(14.04 0 0 -14.04 404.25 129.71)"/><use xlink:href="#O" transform="matrix(14.04 0 0 -14.04 410.837 129.62)"/><use xlink:href="#Y" transform="matrix(14.04 0 0 -14.04 417.65 132.65)"/><use xlink:href="#X" transform="matrix(14.04 0 0 -14.04 425.031 129.812)"/><use xlink:href="#W" transform="matrix(14.04 0 0 -14.04 431.183 132.081)"/><use xlink:href="#F" transform="matrix(14.04 0 0 -14.04 434.24 129.62)"/><use xlink:href="#Z" transform="matrix(14.04 0 0 -14.04 437.694 131.306)"/><use xlink:href="#aa" transform="matrix(14.04 0 0 -14.04 445.086 129.62)"/><use xlink:href="#N" transform="matrix(14.04 0 0 -14.04 449.248 129.71)"/><use xlink:href="#ab" transform="matrix(14.04 0 0 -14.04 456.173 129.62)"/><use xlink:href="#R" transform="matrix(14.04 0 0 -14.04 462.534 129.62)"/><use xlink:href="#ac" transform="matrix(14.04 0 0 -14.04 470.592 129.812)"/><use xlink:href="#U" transform="matrix(14.04 0 0 -14.04 477.332 129.812)"/><use xlink:href="#W" transform="matrix(14.04 0 0 -14.04 483.243 132.081)"/><use xlink:href="#F" transform="matrix(14.04 0 0 -14.04 486.3 129.62)"/><use xlink:href="#ad" transform="matrix(14.04 0 0 -14.04 489.823 129.73)"/><use xlink:href="#aa" transform="matrix(14.04 0 0 -14.04 497.835 129.62)"/><use xlink:href="#ae" transform="matrix(14.04 0 0 -14.04 501.979 129.62)"/><use xlink:href="#Y" transform="matrix(14.04 0 0 -14.04 509.653 132.65)"/><use xlink:href="#af" transform="matrix(14.04 0 0 -14.04 517.1 129.62)"/><use xlink:href="#N" transform="matrix(14.04 0 0 -14.04 524.671 129.71)"/><use xlink:href="#R" transform="matrix(14.04 0 0 -14.04 531.582 129.62)"/><use xlink:href="#R" transform="matrix(14.04 0 0 -14.04 539.627 129.62)"/><use xlink:href="#ag" transform="matrix(14.04 0 0 -14.04 547.432 129.62)"/><use xlink:href="#F" transform="matrix(14.04 0 0 -14.04 554.788 129.62)"/><use xlink:href="#O" transform="matrix(14.04 0 0 -14.04 558.481 129.62)"/><use xlink:href="#N" transform="matrix(14.04 0 0 -14.04 565.696 129.71)"/><use xlink:href="#F" transform="matrix(14.04 0 0 -14.04 572.127 129.62)"/><use xlink:href="#ah" transform="matrix(14.04 0 0 -14.04 575.905 132.623)"/><use xlink:href="#T" transform="matrix(14.04 0 0 -14.04 583.985 129.812)"/><use xlink:href="#ae" transform="matrix(14.04 0 0 -14.04 590.164 129.62)"/><use xlink:href="#ac" transform="matrix(14.04 0 0 -14.04 598.202 129.812)"/><use xlink:href="#S" transform="matrix(14.04 0 0 -14.04 605.158 129.62)"/><use xlink:href="#T" transform="matrix(14.04 0 0 -14.04 614.76 129.812)"/><use xlink:href="#R" transform="matrix(14.04 0 0 -14.04 620.961 129.62)"/><use xlink:href="#Z" transform="matrix(14.04 0 0 -14.04 628.526 131.306)"/><use xlink:href="#N" transform="matrix(14.04 0 0 -14.04 636.26 129.71)"/><use xlink:href="#ai" transform="matrix(14.04 0 0 -14.04 643.13 131.306)"/><use xlink:href="#aa" transform="matrix(14.04 0 0 -14.04 650.899 129.62)"/><use xlink:href="#aj" transform="matrix(14.04 0 0 -14.04 654.316 129.62)"/></g></g><g data-name="P" fill-rule="evenodd"><path d="M50.52 116.78h1.44v-1.56h-1.44zM51.96 116.66h130.46v-1.44H51.96zM182.42 116.78h.48v-.12h-.48z"/><path d="M182.42 116.66h1.44v-1.44h-1.44zM183.86 116.66h620.26v-1.44H183.86zM804.12 116.78h1.44v-1.56h-1.44zM50.52 132.74h1.44v-15.96h-1.44zM182.42 132.74h.48v-15.96h-.48zM804.12 132.74h1.44v-15.96h-1.44z"/></g><g data-name="P" fill-rule="evenodd"><path d="M50.52 134.3h1.44v-1.56h-1.44zM51.96 134.18h130.46v-1.44H51.96zM182.42 134.3h.48v-.12h-.48z"/><path d="M182.42 134.18h1.44v-1.44h-1.44zM183.86 134.18h620.26v-1.44H183.86zM804.12 134.3h1.44v-1.56h-1.44zM50.52 150.38h1.44V134.3h-1.44zM182.42 150.38h.48V134.3h-.48zM804.12 150.38h1.44V134.3h-1.44z"/></g><g data-name="P"><path d="M50.52 150.86h1.44v-.48h-1.44z" fill-rule="evenodd"/><path stroke-width=".48" stroke-dasharray=".48,.48" stroke-linejoin="round" fill="none" stroke="#000" d="M51.96 150.62h130.46"/><path d="M182.42 150.86h.48v-.48h-.48z" fill-rule="evenodd"/><path stroke-width=".48" stroke-dasharray=".48,.48" stroke-linejoin="round" fill="none" stroke="#000" d="M182.9 150.62h621.22"/><path d="M804.12 150.86h1.44v-.48h-1.44zM50.52 166.94h1.44v-16.08h-1.44zM182.42 166.94h.48v-16.08h-.48zM804.12 166.94h1.44v-16.08h-1.44z" fill-rule="evenodd"/></g><g data-name="P"><path d="M50.52 167.42h1.44v-.48h-1.44z" fill-rule="evenodd"/><path stroke-width=".48" stroke-dasharray=".48,.48" stroke-linejoin="round" fill="none" stroke="#000" d="M51.96 167.18h130.46"/><path d="M182.42 167.42h.48v-.48h-.48z" fill-rule="evenodd"/><path stroke-width=".48" stroke-dasharray=".48,.48" stroke-linejoin="round" fill="none" stroke="#000" d="M182.9 167.18h621.22"/><path d="M804.12 167.42h1.44v-.48h-1.44zM50.52 183.53h1.44v-16.104h-1.44zM182.42 183.53h.48v-16.104h-.48zM804.12 183.53h1.44v-16.104h-1.44z" fill-rule="evenodd"/></g><g data-name="P"><path d="M50.52 184.01h1.44v-.48h-1.44z" fill-rule="evenodd"/><path stroke-width=".48" stroke-dasharray=".48,.48" stroke-linejoin="round" fill="none" stroke="#000" d="M51.96 183.77h130.46"/><path d="M182.42 184.01h.48v-.48h-.48z" fill-rule="evenodd"/><path stroke-width=".48" stroke-dasharray=".48,.48" stroke-linejoin="round" fill="none" stroke="#000" d="M182.9 183.77h621.22"/><path d="M804.12 184.01h1.44v-.48h-1.44zM50.52 200.21h1.44v-16.2h-1.44zM182.42 200.21h.48v-16.2h-.48zM804.12 200.21h1.44v-16.2h-1.44z" fill-rule="evenodd"/></g><g data-name="P"><path d="M50.52 200.69h1.44v-.48h-1.44z" fill-rule="evenodd"/><path stroke-width=".48" stroke-dasharray=".48,.48" stroke-linejoin="round" fill="none" stroke="#000" d="M51.96 200.45h130.46"/><path d="M182.42 200.69h.48v-.48h-.48z" fill-rule="evenodd"/><path stroke-width=".48" stroke-dasharray=".48,.48" stroke-linejoin="round" fill="none" stroke="#000" d="M182.9 200.45h621.22"/><path d="M804.12 200.69h1.44v-.48h-1.44zM50.52 216.77h1.44v-16.08h-1.44zM182.42 216.77h.48v-16.08h-.48zM804.12 216.77h1.44v-16.08h-1.44z" fill-rule="evenodd"/></g><g data-name="P"><path d="M50.52 217.25h1.44v-.48h-1.44z" fill-rule="evenodd"/><path stroke-width=".48" stroke-dasharray=".48,.48" stroke-linejoin="round" fill="none" stroke="#000" d="M51.96 217.01h130.46"/><path d="M182.42 217.25h.48v-.48h-.48z" fill-rule="evenodd"/><path stroke-width=".48" stroke-dasharray=".48,.48" stroke-linejoin="round" fill="none" stroke="#000" d="M182.9 217.01h621.22"/><path d="M804.12 217.25h1.44v-.48h-1.44zM50.52 233.33h1.44v-16.08h-1.44zM182.42 233.33h.48v-16.08h-.48zM804.12 233.33h1.44v-16.08h-1.44z" fill-rule="evenodd"/></g><g data-name="P"><path d="M50.52 233.81h1.44v-.48h-1.44z" fill-rule="evenodd"/><path stroke-width=".48" stroke-dasharray=".48,.48" stroke-linejoin="round" fill="none" stroke="#000" d="M51.96 233.57h130.46"/><path d="M182.42 233.81h.48v-.48h-.48z" fill-rule="evenodd"/><path stroke-width=".48" stroke-dasharray=".48,.48" stroke-linejoin="round" fill="none" stroke="#000" d="M182.9 233.57h621.22"/><path d="M804.12 233.81h1.44v-.48h-1.44zM50.52 250.01h1.44v-16.2h-1.44zM182.42 250.01h.48v-16.2h-.48zM804.12 250.01h1.44v-16.2h-1.44z" fill-rule="evenodd"/></g><g data-name="P"><path d="M50.52 250.49h1.44v-.48h-1.44z" fill-rule="evenodd"/><path stroke-width=".48" stroke-dasharray=".48,.48" stroke-linejoin="round" fill="none" stroke="#000" d="M51.96 250.25h130.46"/><path d="M182.42 250.49h.48v-.48h-.48z" fill-rule="evenodd"/><path stroke-width=".48" stroke-dasharray=".48,.48" stroke-linejoin="round" fill="none" stroke="#000" d="M182.9 250.25h621.22"/><path d="M804.12 250.49h1.44v-.48h-1.44zM50.52 266.57h1.44v-16.08h-1.44zM182.42 266.57h.48v-16.08h-.48zM804.12 266.57h1.44v-16.08h-1.44z" fill-rule="evenodd"/></g><g data-name="P"><path d="M50.52 267.05h1.44v-.48h-1.44z" fill-rule="evenodd"/><path stroke-width=".48" stroke-dasharray=".48,.48" stroke-linejoin="round" fill="none" stroke="#000" d="M51.96 266.81h130.46"/><path d="M182.42 267.05h.48v-.48h-.48z" fill-rule="evenodd"/><path stroke-width=".48" stroke-dasharray=".48,.48" stroke-linejoin="round" fill="none" stroke="#000" d="M182.9 266.81h621.22"/><path d="M804.12 267.05h1.44v-.48h-1.44zM50.52 283.13h1.44v-16.08h-1.44zM182.42 283.13h.48v-16.08h-.48zM804.12 283.13h1.44v-16.08h-1.44z" fill-rule="evenodd"/></g><g data-name="P"><path d="M50.52 283.61h1.44v-.48h-1.44z" fill-rule="evenodd"/><path stroke-width=".48" stroke-dasharray=".48,.48" stroke-linejoin="round" fill="none" stroke="#000" d="M51.96 283.37h130.46"/><path d="M182.42 283.61h.48v-.48h-.48z" fill-rule="evenodd"/><path stroke-width=".48" stroke-dasharray=".48,.48" stroke-linejoin="round" fill="none" stroke="#000" d="M182.9 283.37h621.22"/><path d="M804.12 283.61h1.44v-.48h-1.44zM50.52 299.83h1.44v-16.224h-1.44zM182.42 299.83h.48v-16.224h-.48z" fill-rule="evenodd"/><path d="M804.12 299.83h1.44v-16.224h-1.44z" fill-rule="evenodd"/></g><g data-name="P"><path d="M50.52 300.31h1.44v-.48h-1.44z" fill-rule="evenodd"/><path stroke-width=".48" stroke-dasharray=".48,.48" stroke-linejoin="round" fill="none" stroke="#000" d="M51.96 300.07h130.46"/><path d="M182.42 300.31h.48v-.48h-.48z" fill-rule="evenodd"/><path stroke-width=".48" stroke-dasharray=".48,.48" stroke-linejoin="round" fill="none" stroke="#000" d="M182.9 300.07h621.22"/><path d="M804.12 300.31h1.44v-.48h-1.44zM50.52 316.39h1.44v-16.08h-1.44zM182.42 316.39h.48v-16.08h-.48zM804.12 316.39h1.44v-16.08h-1.44z" fill-rule="evenodd"/></g><g data-name="P"><path d="M50.52 316.87h1.44v-.48h-1.44z" fill-rule="evenodd"/><path stroke-width=".48" stroke-dasharray=".48,.48" stroke-linejoin="round" fill="none" stroke="#000" d="M51.96 316.63h130.46"/><path d="M182.42 316.87h.48v-.48h-.48z" fill-rule="evenodd"/><path stroke-width=".48" stroke-dasharray=".48,.48" stroke-linejoin="round" fill="none" stroke="#000" d="M182.9 316.63h621.22"/><path d="M804.12 316.87h1.44v-.48h-1.44zM50.52 332.95h1.44v-16.08h-1.44zM182.42 332.95h.48v-16.08h-.48zM804.12 332.95h1.44v-16.08h-1.44z" fill-rule="evenodd"/></g><g data-name="P"><path d="M50.52 333.43h1.44v-.48h-1.44z" fill-rule="evenodd"/><path stroke-width=".48" stroke-dasharray=".48,.48" stroke-linejoin="round" fill="none" stroke="#000" d="M51.96 333.19h130.46"/><path d="M182.42 333.43h.48v-.48h-.48z" fill-rule="evenodd"/><path stroke-width=".48" stroke-dasharray=".48,.48" stroke-linejoin="round" fill="none" stroke="#000" d="M182.9 333.19h621.22"/><path d="M804.12 333.43h1.44v-.48h-1.44zM50.52 349.63h1.44v-16.2h-1.44zM182.42 349.63h.48v-16.2h-.48zM804.12 349.63h1.44v-16.2h-1.44z" fill-rule="evenodd"/></g><g data-name="P"><path d="M50.52 350.11h1.44v-.48h-1.44z" fill-rule="evenodd"/><path stroke-width=".48" stroke-dasharray=".48,.48" stroke-linejoin="round" fill="none" stroke="#000" d="M51.96 349.87h130.46"/><path d="M182.42 350.11h.48v-.48h-.48z" fill-rule="evenodd"/><path stroke-width=".48" stroke-dasharray=".48,.48" stroke-linejoin="round" fill="none" stroke="#000" d="M182.9 349.87h621.22"/><path d="M804.12 350.11h1.44v-.48h-1.44zM50.52 366.19h1.44v-16.08h-1.44zM182.42 366.19h.48v-16.08h-.48zM804.12 366.19h1.44v-16.08h-1.44z" fill-rule="evenodd"/></g><clipPath id="ak"><path transform="matrix(1 0 0 -1 0 595.32)" d="M183.02 211.49h621.1v16.08h-621.1z" fill-rule="evenodd"/></clipPath><g data-name="P" clip-path="url(#ak)"><clipPath id="al"><path transform="matrix(1 0 0 -1 0 595.32)" d="M183.02 211.49h621.1v16.08h-621.1z" fill-rule="evenodd"/></clipPath><g clip-path="url(#al)"><symbol id="am"><path d="M.26.676V.134A.34.34 0 01.265.056.05.05 0 01.288.03a.106.106 0 01.054-.01h.015V0H.01v.018h.017c.029 0 .049.003.06.01a.05.05 0 01.025.027.297.297 0 01.007.08v.343c0 .03-.002.05-.005.057a.04.04 0 01-.016.02.046.046 0 01-.028.007.157.157 0 01-.06-.015L0 .564l.244.112H.26z"/></symbol><symbol id="an"><path d="M.144 0l.18.546H.187a.272.272 0 01-.122-.02A.11.11 0 01.02.47H0l.048.206h.394L.22 0H.144z"/></symbol><symbol id="ao"><path d="M.081.163A.078.078 0 00.14.139.079.079 0 00.163.08.079.079 0 00.139.023.08.08 0 00.08 0a.08.08 0 00-.058.023A.08.08 0 000 .081.08.08 0 00.023.14a.079.079 0 00.058.024z"/></symbol><symbol id="ap"><path d="M.507.457V.438C.486.436.472.43.465.421.46.41.455.392.455.362V.09C.456.062.46.043.467.033.473.023.487.02.507.018V0H.275v.018c.02 0 .032.005.037.016.005.01.007.028.007.053v.339H.188V.09c0-.03.003-.05.009-.058C.203.022.215.018.232.018V0H0v.018c.02 0 .033.005.04.015.008.01.011.03.011.063v.273c0 .03-.004.049-.012.057S.02.438 0 .438v.019h.507z"/></symbol><symbol id="aq"><path d="M.275 0v.018c.03 0 .044.022.044.065v.224L.188.083C.188.041.203.02.232.018V0H0v.018c.019 0 .032.005.04.016.007.01.011.028.011.054V.37C.051.416.034.438 0 .438v.019h.232V.438C.215.438.204.433.197.424.191.414.188.397.188.37V.147l.13.227c0 .024-.003.04-.01.05C.301.434.29.438.275.438v.019h.232V.438C.49.438.477.434.468.425.46.417.456.401.456.376v-.29c0-.027.003-.045.01-.054C.476.022.489.018.508.018V0H.275z"/></symbol><use xlink:href="#am" transform="matrix(14.04 0 0 -14.04 188.985 380.71)"/><use xlink:href="#an" transform="matrix(14.04 0 0 -14.04 195.595 380.902)"/><use xlink:href="#ao" transform="matrix(14.04 0 0 -14.04 202.801 380.881)"/><use xlink:href="#F" transform="matrix(14.04 0 0 -14.04 205.694 380.71)"/><use xlink:href="#B" transform="matrix(14.04 0 0 -14.04 209.43 380.71)"/><use xlink:href="#ap" transform="matrix(14.04 0 0 -14.04 218.993 380.71)"/><use xlink:href="#aa" transform="matrix(14.04 0 0 -14.04 226.72 380.71)"/><use xlink:href="#ae" transform="matrix(14.04 0 0 -14.04 230.863 380.71)"/><use xlink:href="#ah" transform="matrix(14.04 0 0 -14.04 238.689 383.713)"/><use xlink:href="#aq" transform="matrix(14.04 0 0 -14.04 246.708 380.71)"/><use xlink:href="#U" transform="matrix(14.04 0 0 -14.04 254.444 380.902)"/></g></g><g data-name="P" fill-rule="evenodd"><path d="M50.52 367.75h1.44v-1.56h-1.44zM51.96 367.63h130.46v-1.44H51.96zM182.42 367.75h.48v-.12h-.48z"/><path d="M182.42 367.63h1.44v-1.44h-1.44zM183.86 367.63h620.26v-1.44H183.86zM804.12 367.75h1.44v-1.56h-1.44zM50.52 383.83h1.44v-16.08h-1.44zM182.42 383.83h.48v-16.08h-.48zM804.12 383.83h1.44v-16.08h-1.44z"/></g><g data-name="P" fill-rule="evenodd"><path d="M50.52 385.39h1.44v-1.56h-1.44zM51.96 385.27h130.46v-1.44H51.96zM182.42 385.39h.48v-.12h-.48z"/><path d="M182.42 385.27h1.44v-1.44h-1.44zM183.86 385.27h620.26v-1.44H183.86zM804.12 385.39h1.44v-1.56h-1.44zM50.52 399.07h1.44v-13.68h-1.44zM182.42 399.07h.48v-13.68h-.48zM804.12 399.07h1.44v-13.68h-1.44z"/></g><g data-name="P"><path d="M50.52 399.55h1.44v-.48h-1.44z" fill-rule="evenodd"/><path stroke-width=".48" stroke-dasharray=".48,.48" stroke-linejoin="round" fill="none" stroke="#000" d="M51.96 399.31h130.46"/><path d="M182.42 399.55h.48v-.48h-.48z" fill-rule="evenodd"/><path stroke-width=".48" stroke-dasharray=".48,.48" stroke-linejoin="round" fill="none" stroke="#000" d="M182.9 399.31h621.22"/><path d="M804.12 399.55h1.44v-.48h-1.44zM50.52 413.35h1.44v-13.8h-1.44zM182.42 413.35h.48v-13.8h-.48zM804.12 413.35h1.44v-13.8h-1.44z" fill-rule="evenodd"/></g><g data-name="P"><path d="M50.52 413.83h1.44v-.48h-1.44z" fill-rule="evenodd"/><path stroke-width=".48" stroke-dasharray=".48,.48" stroke-linejoin="round" fill="none" stroke="#000" d="M51.96 413.59h130.46"/><path d="M182.42 413.83h.48v-.48h-.48z" fill-rule="evenodd"/><path stroke-width=".48" stroke-dasharray=".48,.48" stroke-linejoin="round" fill="none" stroke="#000" d="M182.9 413.59h621.22"/><path d="M804.12 413.83h1.44v-.48h-1.44zM50.52 427.66h1.44v-13.824h-1.44zM182.42 427.66h.48v-13.824h-.48zM804.12 427.66h1.44v-13.824h-1.44z" fill-rule="evenodd"/></g><g data-name="P"><path d="M50.52 428.14h1.44v-.48h-1.44z" fill-rule="evenodd"/><path stroke-width=".48" stroke-dasharray=".48,.48" stroke-linejoin="round" fill="none" stroke="#000" d="M51.96 427.9h130.46"/><path d="M182.42 428.14h.48v-.48h-.48z" fill-rule="evenodd"/><path stroke-width=".48" stroke-dasharray=".48,.48" stroke-linejoin="round" fill="none" stroke="#000" d="M182.9 427.9h621.22"/><path d="M804.12 428.14h1.44v-.48h-1.44zM50.52 442.06h1.44v-13.92h-1.44zM182.42 442.06h.48v-13.92h-.48zM804.12 442.06h1.44v-13.92h-1.44z" fill-rule="evenodd"/></g><g data-name="P"><path d="M50.52 442.54h1.44v-.48h-1.44z" fill-rule="evenodd"/><path stroke-width=".48" stroke-dasharray=".48,.48" stroke-linejoin="round" fill="none" stroke="#000" d="M51.96 442.3h130.46"/><path d="M182.42 442.54h.48v-.48h-.48z" fill-rule="evenodd"/><path stroke-width=".48" stroke-dasharray=".48,.48" stroke-linejoin="round" fill="none" stroke="#000" d="M182.9 442.3h621.22"/><path d="M804.12 442.54h1.44v-.48h-1.44zM50.52 456.34h1.44v-13.8h-1.44zM182.42 456.34h.48v-13.8h-.48z" fill-rule="evenodd"/><path d="M804.12 456.34h1.44v-13.8h-1.44z" fill-rule="evenodd"/></g><g data-name="P"><path d="M50.52 456.82h1.44v-.48h-1.44z" fill-rule="evenodd"/><path stroke-width=".48" stroke-dasharray=".48,.48" stroke-linejoin="round" fill="none" stroke="#000" d="M51.96 456.58h130.46"/><path d="M182.42 456.82h.48v-.48h-.48z" fill-rule="evenodd"/><path stroke-width=".48" stroke-dasharray=".48,.48" stroke-linejoin="round" fill="none" stroke="#000" d="M182.9 456.58h621.22"/><path d="M804.12 456.82h1.44v-.48h-1.44zM50.52 470.62h1.44v-13.8h-1.44zM182.42 470.62h.48v-13.8h-.48zM804.12 470.62h1.44v-13.8h-1.44z" fill-rule="evenodd"/></g><clipPath id="ar"><path transform="matrix(1 0 0 -1 0 595.32)" d="M52.08 82.824h752.04v41.4H52.08z" fill-rule="evenodd"/></clipPath><g clip-path="url(#ar)"><g data-name="P"><clipPath id="as"><path transform="matrix(1 0 0 -1 0 595.32)" d="M52.08 82.824h752.04v41.4H52.08z" fill-rule="evenodd"/></clipPath><g clip-path="url(#as)"><symbol id="at"><path d="M.462.634H.257V.448C.257.261.24.14.208.083.176.028.132 0 .075 0 .051 0 .033.006.02.018A.055.055 0 000 .059C0 .071.004.082.013.09a.041.041 0 00.03.014c.01 0 .022-.005.035-.015a.07.07 0 01.04-.016c.028 0 .051.023.069.07a.878.878 0 01.027.268v.138c0 .044-.006.072-.017.083C.185.644.159.651.118.652V.67h.533V.652C.61.65.584.644.572.632.561.621.555.592.555.55V.13c0-.044.006-.072.017-.084C.584.034.61.027.651.025V.009H.366v.018c.041.001.067.008.079.02.011.011.017.039.017.082v.506z"/></symbol><symbol id="au"><path d="M.116.694A.046.046 0 00.15.68.046.046 0 00.165.645.048.048 0 00.15.61.046.046 0 00.116.595.048.048 0 00.08.61a.048.048 0 00-.015.035C.066.659.07.67.08.68c.01.01.022.014.036.014M.156.46V.101c0-.028.002-.047.006-.056A.045.045 0 01.18.025.098.098 0 01.224.017V0H.007v.018C.029.018.043.02.05.024a.042.042 0 01.017.02c.005.01.007.03.007.057v.172a.61.61 0 01-.004.095C.069.378.065.385.06.389A.03.03 0 01.04.396.098.098 0 01.007.388L0 .406.135.46h.021z"/></symbol><symbol id="av"><path d="M.458 0H.326C.285.06.248.12.214.183a.155.155 0 01-.021.032.032.032 0 01-.026.01.27.27 0 01-.019 0v-.12C.148.073.15.052.154.043a.036.036 0 01.02-.02.146.146 0 01.05-.005V0H0v.018c.029 0 .048.005.056.016.008.01.012.034.012.071v.237a.187.187 0 01-.006.062.049.049 0 01-.016.017C.038.426.023.429 0 .429v.018h.224V.43a.126.126 0 01-.05-.006.08.08 0 01-.018-.015C.151.403.148.381.148.342V.254a.101.101 0 01.07.016c.019.011.034.035.048.072a.371.371 0 00.031.07c.009.012.02.021.035.029a.1.1 0 00.047.012A.065.065 0 00.42.44.04.04 0 00.437.407a.042.042 0 00-.012-.03.041.041 0 00-.031-.011.082.082 0 00-.027.006.103.103 0 01-.031.007C.32.379.309.366.299.34A.447.447 0 00.274.283a.204.204 0 00-.03-.034.08.08 0 00.033-.023.636.636 0 00.067-.103A.437.437 0 01.4.037.083.083 0 01.458.018V0z"/></symbol><symbol id="aw"><path d="M.249.074A.737.737 0 00.163.012.132.132 0 00.106 0C.076 0 .05.01.03.032A.117.117 0 000 .115c0 .022.005.04.015.057a.194.194 0 00.069.062c.033.02.088.044.165.072v.017c0 .045-.007.075-.021.092C.214.432.193.44.166.44A.07.07 0 01.117.423.05.05 0 01.1.385V.357C.1.342.097.33.089.322A.039.039 0 00.058.31a.039.039 0 00-.03.013.05.05 0 00-.01.034c0 .028.013.054.042.078A.186.186 0 00.18.47.21.21 0 00.279.45.092.092 0 00.321.402.267.267 0 00.33.316V.165c0-.043 0-.07.002-.08C.334.077.336.07.34.068A.02.02 0 01.353.062c.005 0 .01.001.014.003l.04.036V.074C.37.024.334 0 .301 0a.047.047 0 00-.038.017C.254.028.249.047.249.074m0 .031v.17a.964.964 0 01-.095-.04.164.164 0 01-.055-.046.087.087 0 01-.017-.05c0-.024.007-.044.021-.06A.064.064 0 01.151.058C.176.057.21.073.25.105z"/></symbol><symbol id="ax"><path d="M.517 0H0v.041h.517V0z"/></symbol><symbol id="ay"><path d="M.029.499v.192h.017C.05.67.063.66.082.66c.007 0 .022.005.046.013.037.014.075.02.116.02A.18.18 0 00.375.643a.157.157 0 00.05-.115.151.151 0 00-.037-.103.22.22 0 00-.1-.063.18.18 0 00.15-.176c0-.055-.02-.1-.063-.134A.241.241 0 00.217 0C.124 0 .051.044 0 .133l.017.01A.216.216 0 01.19.045c.043 0 .077.015.1.043a.16.16 0 01.037.106c0 .043-.016.08-.046.11-.03.029-.08.044-.15.044v.032c.05 0 .087.005.112.016.025.01.045.027.06.05.016.024.024.05.024.082 0 .036-.01.065-.033.088a.117.117 0 01-.088.034.144.144 0 01-.11-.042A.206.206 0 01.046.5H.029z"/></symbol><symbol id="az"><path d="M0 .663h.208V.645h-.01C.184.645.173.642.165.635a.03.03 0 01-.01-.023C.154.599.16.582.17.559L.28.333l.1.248a.103.103 0 01.008.04c0 .005-.001.01-.004.012a.025.025 0 01-.012.009.086.086 0 01-.03.003v.018h.146V.645A.07.07 0 01.46.637.08.08 0 01.44.615.305.305 0 01.422.578L.24.13A.23.23 0 00.17.033.135.135 0 00.09 0a.068.068 0 00-.047.017.05.05 0 00-.02.038c0 .013.005.024.014.033C.046.096.058.1.073.1.084.1.1.097.117.09A.105.105 0 01.142.081c.01 0 .02.005.031.015.012.01.024.03.035.059L.24.233.08.571a.27.27 0 01-.044.06A.11.11 0 010 .645v.018z"/></symbol><symbol id="aA"><path d="M.317.247v.095a.22.22 0 01-.005.06.032.032 0 01-.019.02.105.105 0 01-.043.007v.018h.216V.43C.444.429.43.426.422.422A.05.05 0 01.405.406.17.17 0 01.398.342V.105c0-.03.002-.051.005-.06a.036.036 0 01.019-.02.11.11 0 01.044-.007V0H.24v.018A.266.266 0 01.29.023c.008.003.015.009.02.019.005.01.007.031.007.063v.11A.329.329 0 00.166.177a.17.17 0 00-.067.01C.083.196.073.204.069.214A.127.127 0 00.061.26v.081A.26.26 0 01.058.4a.036.036 0 01-.017.022A.083.083 0 010 .429v.018h.21V.43C.19.429.174.426.167.422A.05.05 0 01.149.406.17.17 0 01.143.342V.287A.14.14 0 01.147.244C.15.236.157.23.168.224A.125.125 0 01.216.218c.036 0 .07.01.101.03z"/></symbol><symbol id="aB"><path d="M.071.455h.4V.437C.45.437.434.434.427.43A.05.05 0 01.41.414.17.17 0 01.403.35V.113C.403.078.405.058.41.05A.053.053 0 01.425.033C.433.028.448.026.471.026V.008H.24v.018c.025 0 .042.001.052.004.01.002.017.009.022.018.006.01.009.032.009.065v.31h-.15V.235a.786.786 0 00-.009-.15A.103.103 0 00.126.02.105.105 0 00.062 0C.021 0 0 .017 0 .052 0 .063.003.073.01.08a.034.034 0 00.026.01.045.045 0 00.032-.013C.08.065.09.059.097.059.11.06.122.071.128.096c.007.024.01.068.01.13v.098c0 .05-.003.081-.01.093C.12.427.101.434.07.437v.018z"/></symbol><use xlink:href="#at" transform="matrix(14.04 0 0 -14.04 203.903 483.93)"/><use xlink:href="#au" transform="matrix(14.04 0 0 -14.04 213.71 483.82)"/><use xlink:href="#av" transform="matrix(14.04 0 0 -14.04 217.518 483.82)"/><use xlink:href="#aw" transform="matrix(14.04 0 0 -14.04 224.526 483.95)"/><use xlink:href="#f" transform="matrix(14.04 0 0 -14.04 230.127 486.823)"/><use xlink:href="#ax" transform="matrix(14.04 0 0 -14.04 237.12 486.85)"/><use xlink:href="#ax" transform="matrix(14.04 0 0 -14.04 244.085 486.85)"/><use xlink:href="#ax" transform="matrix(14.04 0 0 -14.04 251.048 486.85)"/><use xlink:href="#ax" transform="matrix(14.04 0 0 -14.04 258.11 486.85)"/><use xlink:href="#ax" transform="matrix(14.04 0 0 -14.04 265.074 486.85)"/><use xlink:href="#ax" transform="matrix(14.04 0 0 -14.04 272.038 486.85)"/><use xlink:href="#ax" transform="matrix(14.04 0 0 -14.04 279.1 486.85)"/><use xlink:href="#ax" transform="matrix(14.04 0 0 -14.04 286.064 486.85)"/><use xlink:href="#ax" transform="matrix(14.04 0 0 -14.04 293.028 486.85)"/><use xlink:href="#ax" transform="matrix(14.04 0 0 -14.04 300.09 486.85)"/><use xlink:href="#ax" transform="matrix(14.04 0 0 -14.04 307.054 486.85)"/><use xlink:href="#ax" transform="matrix(14.04 0 0 -14.04 314.018 486.85)"/><use xlink:href="#ax" transform="matrix(14.04 0 0 -14.04 320.982 486.85)"/><use xlink:href="#ax" transform="matrix(14.04 0 0 -14.04 328.044 486.85)"/><use xlink:href="#ax" transform="matrix(14.04 0 0 -14.04 335.008 486.85)"/><use xlink:href="#ax" transform="matrix(14.04 0 0 -14.04 341.971 486.85)"/><use xlink:href="#ax" transform="matrix(14.04 0 0 -14.04 349.034 486.85)"/><use xlink:href="#ax" transform="matrix(14.04 0 0 -14.04 355.997 486.85)"/><use xlink:href="#ax" transform="matrix(14.04 0 0 -14.04 362.961 486.85)"/><use xlink:href="#ax" transform="matrix(14.04 0 0 -14.04 370.023 486.85)"/><use xlink:href="#ax" transform="matrix(14.04 0 0 -14.04 376.987 486.85)"/><use xlink:href="#ax" transform="matrix(14.04 0 0 -14.04 383.951 486.85)"/><use xlink:href="#ax" transform="matrix(14.04 0 0 -14.04 391.013 486.85)"/><use xlink:href="#ax" transform="matrix(14.04 0 0 -14.04 397.977 486.85)"/><use xlink:href="#ax" transform="matrix(14.04 0 0 -14.04 404.94 486.85)"/><use xlink:href="#ax" transform="matrix(14.04 0 0 -14.04 412.003 486.85)"/><use xlink:href="#ax" transform="matrix(14.04 0 0 -14.04 418.967 486.85)"/><use xlink:href="#ax" transform="matrix(14.04 0 0 -14.04 425.93 486.85)"/><use xlink:href="#ax" transform="matrix(14.04 0 0 -14.04 432.993 486.85)"/><use xlink:href="#ax" transform="matrix(14.04 0 0 -14.04 439.956 486.85)"/><use xlink:href="#ax" transform="matrix(14.04 0 0 -14.04 447.019 486.85)"/><use xlink:href="#ax" transform="matrix(14.04 0 0 -14.04 453.982 486.85)"/><use xlink:href="#ax" transform="matrix(14.04 0 0 -14.04 460.946 486.85)"/><use xlink:href="#ax" transform="matrix(14.04 0 0 -14.04 468.008 486.85)"/><use xlink:href="#ax" transform="matrix(14.04 0 0 -14.04 474.972 486.85)"/><use xlink:href="#ax" transform="matrix(14.04 0 0 -14.04 481.936 486.85)"/><use xlink:href="#ax" transform="matrix(14.04 0 0 -14.04 488.998 486.85)"/><use xlink:href="#ax" transform="matrix(14.04 0 0 -14.04 495.962 486.85)"/><use xlink:href="#ax" transform="matrix(14.04 0 0 -14.04 502.926 486.85)"/><use xlink:href="#ax" transform="matrix(14.04 0 0 -14.04 509.988 486.85)"/><use xlink:href="#ax" transform="matrix(14.04 0 0 -14.04 516.952 486.85)"/><use xlink:href="#n" transform="matrix(14.04 0 0 -14.04 524.13 483.82)"/><use xlink:href="#ay" transform="matrix(14.04 0 0 -14.04 527.935 484.033)"/><use xlink:href="#aw" transform="matrix(14.04 0 0 -14.04 535.077 483.95)"/><use xlink:href="#i" transform="matrix(14.04 0 0 -14.04 541.14 483.82)"/><use xlink:href="#au" transform="matrix(14.04 0 0 -14.04 547.848 483.82)"/><use xlink:href="#h" transform="matrix(14.04 0 0 -14.04 551.434 485.561)"/><use xlink:href="#az" transform="matrix(14.04 0 0 -14.04 558.414 486.85)"/><use xlink:href="#i" transform="matrix(14.04 0 0 -14.04 565.499 483.82)"/><use xlink:href="#aw" transform="matrix(14.04 0 0 -14.04 572.297 483.95)"/><use xlink:href="#aA" transform="matrix(14.04 0 0 -14.04 578.236 483.82)"/><use xlink:href="#n" transform="matrix(14.04 0 0 -14.04 585.092 483.82)"/><use xlink:href="#i" transform="matrix(14.04 0 0 -14.04 588.931 483.82)"/><use xlink:href="#au" transform="matrix(14.04 0 0 -14.04 595.584 483.82)"/><use xlink:href="#h" transform="matrix(14.04 0 0 -14.04 599.297 485.561)"/><use xlink:href="#h" transform="matrix(14.04 0 0 -14.04 606.485 485.561)"/><use xlink:href="#au" transform="matrix(14.04 0 0 -14.04 613.907 483.82)"/><use xlink:href="#aB" transform="matrix(14.04 0 0 -14.04 617.523 483.93)"/><use xlink:href="#k" transform="matrix(14.04 0 0 -14.04 624.925 484.012)"/><use xlink:href="#l" transform="matrix(14.04 0 0 -14.04 630.841 483.82)"/><use xlink:href="#l" transform="matrix(14.04 0 0 -14.04 638.38 483.82)"/><use xlink:href="#m" transform="matrix(14.04 0 0 -14.04 645.5 483.82)"/></g></g><g data-name="P"><clipPath id="aC"><path transform="matrix(1 0 0 -1 0 595.32)" d="M52.08 82.824h752.04v41.4H52.08z" fill-rule="evenodd"/></clipPath><g clip-path="url(#aC)"><symbol id="aD"><path d="M.105.853h.546V.834C.611.834.584.827.573.814.56.805.556.777.556.733V.365A.41.41 0 01.568.233C.576.217.602.208.647.208V0H.63a.293.293 0 01-.047.117.16.16 0 01-.074.059.294.294 0 01-.098.014H.24C.169.19.114.17.08.13A.254.254 0 01.017 0H0v.208c.052.005.095.036.128.095.033.058.056.13.068.214.013.085.02.155.02.21a.16.16 0 01-.013.07C.195.814.185.824.173.828a.286.286 0 01-.068.007v.019m.16-.037A1.937 1.937 0 00.217.41.49.49 0 00.126.227h.245c.044 0 .07.003.078.01.009.009.013.034.013.076v.503H.264z"/></symbol><symbol id="aE"><path d="M.019.447h.386l.02-.12H.403a.14.14 0 01-.02.056.066.066 0 01-.03.026.197.197 0 01-.061.007h-.04V.105C.253.072.256.051.26.042a.032.032 0 01.02-.018A.294.294 0 01.34.018V0H.098v.018c.031 0 .051.006.06.015.01.01.014.034.014.072v.31h-.04A.2.2 0 01.075.41a.062.062 0 01-.03-.024.176.176 0 01-.023-.06H0l.019.121z"/></symbol><symbol id="aF"><path d="M.03.32v.14h.02A.029.029 0 01.07.454a.18.18 0 01.035.008.29.29 0 00.076.013C.224.474.26.464.29.444A.092.092 0 00.332.365c0-.05-.038-.087-.115-.11C.307.237.351.195.351.13A.12.12 0 00.308.04C.28.012.238 0 .183 0a.223.223 0 00-.095.019A.358.358 0 000 .084l.013.013A.253.253 0 01.165.035c.027 0 .05.01.067.028a.1.1 0 01.026.072c0 .065-.042.1-.125.103v.029c.04 0 .068.01.085.03a.103.103 0 01.027.069c0 .02-.008.04-.023.055a.078.078 0 01-.06.024C.104.445.066.404.047.321H.029z"/></symbol><symbol id="aG"><path d="M.342.416H.148V.105C.148.07.15.05.154.043A.053.053 0 01.17.025C.178.021.194.018.216.018V0H0v.018c.029 0 .048.005.056.016.008.01.012.034.012.071v.237a.187.187 0 01-.006.062.049.049 0 01-.016.017C.038.426.023.429 0 .429v.018h.49V.43C.468.429.454.426.446.422A.05.05 0 01.43.406.17.17 0 01.422.342V.105C.422.07.424.05.428.043A.053.053 0 01.444.025C.452.021.467.018.49.018V0H.274v.018C.3.018.319.023.328.033c.01.01.014.034.014.072v.31z"/></symbol><symbol id="aH"><path d="M.126.252v-.02A.183.183 0 01.065.185.086.086 0 01.046.132c0-.012.002-.02.005-.024S.058.102.062.102a.06.06 0 01.017.003.058.058 0 00.02.004.047.047 0 00.034-.015.048.048 0 00.015-.036.054.054 0 00-.018-.04A.064.064 0 00.085 0 .08.08 0 00.026.03.099.099 0 000 .099C0 .13.01.16.032.189c.022.029.053.05.094.063M.36.25V.232a.206.206 0 01-.065-.05A.09.09 0 01.28.127C.279.12.28.112.284.108.288.103.292.1.295.1c.004 0 .01.001.017.004a.063.063 0 00.021.004.047.047 0 00.035-.015A.046.046 0 00.383.06a.055.055 0 00-.02-.041A.064.064 0 00.319 0C.296 0 .277.01.26.028a.098.098 0 00-.026.07c0 .033.01.064.033.092a.175.175 0 00.092.06z"/></symbol><symbol id="aI"><path d="M.023 0v.02a.194.194 0 01.065.05c.01.016.016.034.016.054 0 .009-.002.015-.005.02C.095.149.09.151.087.151A.053.053 0 01.07.147.063.063 0 00.05.143a.048.048 0 00-.035.015A.049.049 0 000 .193c0 .016.006.03.019.041a.065.065 0 00.045.018c.022 0 .041-.01.059-.028a.098.098 0 00.026-.07A.149.149 0 00.116.06.175.175 0 00.023 0m.233 0v.02c.029.015.049.03.061.047a.087.087 0 01.02.054C.336.132.334.14.331.145.328.149.325.15.32.15A.054.054 0 01.304.147a.048.048 0 00-.055.011.05.05 0 00-.015.036c0 .016.006.03.018.04a.062.062 0 00.045.018.08.08 0 00.06-.029.099.099 0 00.026-.07A.147.147 0 00.35.062.187.187 0 00.256 0z"/></symbol><symbol id="aJ"><path d="M.437.127L.391 0H0v.018c.115.105.196.19.243.257.047.066.07.127.07.182a.144.144 0 01-.039.104.123.123 0 01-.092.04.144.144 0 01-.088-.029A.165.165 0 01.037.49H.02c.008.06.029.106.063.138a.176.176 0 00.126.049.186.186 0 00.134-.052.163.163 0 00.054-.122.236.236 0 00-.023-.1.663.663 0 00-.117-.168 3.477 3.477 0 00-.152-.16h.173c.035 0 .06.001.074.004a.099.099 0 01.038.015c.012.008.021.02.03.034h.018z"/></symbol><symbol id="aK"><path d="M.054.108A.052.052 0 00.093.092.052.052 0 00.108.054.053.053 0 00.092.016.052.052 0 00.054 0 .053.053 0 000 .054C0 .07.005.082.016.093c.01.01.023.015.038.015z"/></symbol><use xlink:href="#aD" transform="matrix(14.04 0 0 -14.04 279.468 502.57)"/><use xlink:href="#aw" transform="matrix(14.04 0 0 -14.04 289.366 500.026)"/><use xlink:href="#aE" transform="matrix(14.04 0 0 -14.04 295.181 499.896)"/><use xlink:href="#aw" transform="matrix(14.04 0 0 -14.04 301.735 500.026)"/><use xlink:href="#n" transform="matrix(14.04 0 0 -14.04 307.468 499.896)"/><use xlink:href="#aF" transform="matrix(14.04 0 0 -14.04 311.143 500.088)"/><use xlink:href="#aw" transform="matrix(14.04 0 0 -14.04 317.025 500.026)"/><use xlink:href="#aG" transform="matrix(14.04 0 0 -14.04 323.073 499.896)"/><use xlink:href="#g" transform="matrix(14.04 0 0 -14.04 330.644 500.088)"/><use xlink:href="#i" transform="matrix(14.04 0 0 -14.04 337.562 499.896)"/><use xlink:href="#l" transform="matrix(14.04 0 0 -14.04 344.175 499.896)"/><use xlink:href="#k" transform="matrix(14.04 0 0 -14.04 351.794 500.088)"/><use xlink:href="#l" transform="matrix(14.04 0 0 -14.04 357.822 499.896)"/><use xlink:href="#l" transform="matrix(14.04 0 0 -14.04 365.264 499.896)"/><use xlink:href="#m" transform="matrix(14.04 0 0 -14.04 372.48 499.896)"/><use xlink:href="#n" transform="matrix(14.04 0 0 -14.04 378.946 499.896)"/><use xlink:href="#aH" transform="matrix(14.04 0 0 -14.04 382.915 493.925)"/><use xlink:href="#ax" transform="matrix(14.04 0 0 -14.04 388.335 502.926)"/><use xlink:href="#ax" transform="matrix(14.04 0 0 -14.04 395.397 502.926)"/><use xlink:href="#ax" transform="matrix(14.04 0 0 -14.04 402.459 502.926)"/><use xlink:href="#ax" transform="matrix(14.04 0 0 -14.04 409.423 502.926)"/><use xlink:href="#ax" transform="matrix(14.04 0 0 -14.04 416.386 502.926)"/><use xlink:href="#aI" transform="matrix(14.04 0 0 -14.04 424.024 493.925)"/><use xlink:href="#ax" transform="matrix(14.04 0 0 -14.04 429.57 502.926)"/><use xlink:href="#ax" transform="matrix(14.04 0 0 -14.04 436.632 502.926)"/><use xlink:href="#ax" transform="matrix(14.04 0 0 -14.04 443.596 502.926)"/><use xlink:href="#ax" transform="matrix(14.04 0 0 -14.04 450.56 502.926)"/><use xlink:href="#ax" transform="matrix(14.04 0 0 -14.04 457.622 502.926)"/><use xlink:href="#ax" transform="matrix(14.04 0 0 -14.04 464.586 502.926)"/><use xlink:href="#ax" transform="matrix(14.04 0 0 -14.04 471.648 502.926)"/><use xlink:href="#ax" transform="matrix(14.04 0 0 -14.04 478.612 502.926)"/><use xlink:href="#ax" transform="matrix(14.04 0 0 -14.04 485.575 502.926)"/><use xlink:href="#ax" transform="matrix(14.04 0 0 -14.04 492.638 502.926)"/><use xlink:href="#ax" transform="matrix(14.04 0 0 -14.04 499.601 502.926)"/><use xlink:href="#ax" transform="matrix(14.04 0 0 -14.04 506.565 502.926)"/><use xlink:href="#ax" transform="matrix(14.04 0 0 -14.04 513.53 502.926)"/><use xlink:href="#n" transform="matrix(14.04 0 0 -14.04 520.708 499.896)"/><use xlink:href="#aJ" transform="matrix(14.04 0 0 -14.04 524.52 499.896)"/><use xlink:href="#s" transform="matrix(14.04 0 0 -14.04 531.661 500.06)"/><use xlink:href="#ax" transform="matrix(14.04 0 0 -14.04 538.1 502.926)"/><use xlink:href="#ax" transform="matrix(14.04 0 0 -14.04 545.063 502.926)"/><use xlink:href="#ax" transform="matrix(14.04 0 0 -14.04 552.027 502.926)"/><use xlink:href="#ax" transform="matrix(14.04 0 0 -14.04 559.09 502.926)"/><use xlink:href="#f" transform="matrix(14.04 0 0 -14.04 566.121 502.899)"/><use xlink:href="#aK" transform="matrix(14.04 0 0 -14.04 574.226 500.088)"/></g></g></g><g data-name="P"><path d="M50.52 471.1h1.44v-.48h-1.44z" fill-rule="evenodd"/><path stroke-width=".48" stroke-dasharray=".48,.48" stroke-linejoin="round" fill="none" stroke="#000" d="M51.96 470.86h130.46M182.42 470.86h.48M182.9 470.86h621.22"/><path d="M804.12 471.1h1.44v-.48h-1.44zM50.52 512.496h1.44v-41.4h-1.44z" fill-rule="evenodd"/><path d="M804.12 512.496h1.44v-41.4h-1.44z" fill-rule="evenodd"/></g><g data-name="P" fill-rule="evenodd"><path d="M50.52 513.936h1.44v-1.44h-1.44z"/><path d="M50.52 513.936h1.44v-1.44h-1.44zM51.96 513.936h1.44v-1.44h-1.44zM53.4 513.936h750.72v-1.44H53.4zM804.12 513.936h1.44v-1.44h-1.44z"/></g></svg>