<svg xmlns="http://www.w3.org/2000/svg" xmlns:xlink="http://www.w3.org/1999/xlink" width="1122.56" height="793.76" viewBox="0 0 841.92 595.32"><g data-name="Artifact"><clipPath id="a"><path transform="matrix(1 0 0 -1 0 595.32)" d="M425.59 548.28h5.04v11.52h-5.04z" fill-rule="evenodd"/></clipPath><g clip-path="url(#a)"><clipPath id="b"><path transform="matrix(1 0 0 -1 0 595.32)" d="M425.59 548.28h5.04v11.52h-5.04z" fill-rule="evenodd"/></clipPath><g clip-path="url(#b)"><symbol id="c"><path d="M.412.698a.436.436 0 01-.245-.08A.387.387 0 010 .293C0 .206.027.118.07.068A.198.198 0 01.224 0c.124 0 .21.095.21.233 0 .129-.072.209-.189.209C.201.442.181.435.118.397a.346.346 0 00.296.285L.412.698M.208.396C.295.396.344.324.344.199.344.089.305.028.235.028.147.028.093.122.093.277c0 .051.008.079.028.094a.145.145 0 00.087.025z"/></symbol><use xlink:href="#c" transform="matrix(9.96 0 0 -9.96 425.929 44.78)"/></g></g></g><g data-name="P"><clipPath id="d"><path transform="matrix(1 0 0 -1 0 595.32)" d="M0 0h841.92v595.32H0z" fill-rule="evenodd"/></clipPath><g clip-path="url(#d)"><symbol id="e"><path d="M.497.626H.189V.121C.19.077.195.049.206.038.217.026.244.019.286.018V0H0v.018c.041.001.067.008.079.02C.09.049.096.077.096.12v.42C.096.586.09.614.079.626.067.636.04.643 0 .644v.018h.686V.644C.645.643.619.636.607.624.596.614.59.586.59.543V.12C.59.077.596.049.607.038.62.026.645.019.686.018V0H.401v.018C.442.02.468.026.48.038c.012.01.018.039.018.083v.505z"/></symbol><symbol id="f"><path d="M.002.617L.14.672H.16V.568c.023.04.046.067.069.082a.13.13 0 00.074.024.142.142 0 00.112-.052A.25.25 0 00.47.454.28.28 0 00.403.262.176.176 0 00.265.2a.172.172 0 00-.062.01.146.146 0 00-.044.03V.104c0-.031.001-.05.005-.059a.043.043 0 01.02-.02.122.122 0 01.05-.007V0H0v.018h.012c.018 0 .033.003.046.01.006.004.011.01.014.018a.196.196 0 01.006.06V.53a.23.23 0 01-.004.055.033.033 0 01-.013.018.04.04 0 01-.023.006A.088.088 0 01.008.6L.002.617M.16.539V.372c0-.036.001-.06.004-.071A.092.092 0 01.196.25.104.104 0 01.264.229c.032 0 .059.013.079.039a.22.22 0 01.04.14c0 .068-.016.12-.046.157a.093.093 0 01-.12.027.272.272 0 01-.058-.053z"/></symbol><symbol id="g"><path d="M.216.474A.198.198 0 00.38.397.237.237 0 00.432.246c0-.04-.01-.081-.03-.122A.21.21 0 00.324.031.208.208 0 00.211 0a.19.19 0 00-.16.08A.25.25 0 000 .234c0 .04.01.082.03.122a.208.208 0 00.186.12M.201.441A.102.102 0 01.15.427.107.107 0 01.107.373a.26.26 0 01-.016-.1C.09.21.104.154.129.106.155.058.19.035.232.035.264.035.29.048.31.074.33.1.34.144.34.208.34.288.325.35.29.396A.106.106 0 01.2.442z"/></symbol><symbol id="h"><path d="M.08.571h.394V.553C.452.553.437.55.43.546A.05.05 0 01.413.53.17.17 0 01.406.466v-.22C.406.198.41.17.418.158.426.15.445.143.474.142V0H.456a.146.146 0 01-.02.07.096.096 0 01-.05.042.275.275 0 01-.094.012H.177a.299.299 0 01-.084-.01.097.097 0 01-.05-.04A.162.162 0 01.017 0H0v.142c.027.001.05.012.073.032.022.02.04.06.057.118a.639.639 0 01.025.174C.155.522.13.551.08.553V.57M.187.54V.513C.188.353.16.233.102.156h.166c.03 0 .047.002.051.007.005.005.007.024.007.056v.32H.187z"/></symbol><symbol id="i"><path d="M.292.236C.373.22.414.181.414.122A.1.1 0 00.363.03.279.279 0 00.22 0H0v.018c.029 0 .047.005.055.016.007.011.011.035.011.071v.237a.19.19 0 01-.005.062.046.046 0 01-.016.017C.038.426.023.429 0 .429v.018h.206c.04 0 .072-.003.096-.009a.114.114 0 00.06-.037.097.097 0 00.025-.066C.387.285.355.251.292.236M.147.248h.026C.218.247.25.255.27.271A.08.08 0 01.3.335C.3.363.29.384.27.396a.188.188 0 01-.097.02H.147V.248m0-.208A.192.192 0 01.206.032c.038 0 .067.008.086.025A.084.084 0 01.32.123C.32.153.308.175.284.19a.185.185 0 01-.102.024H.147V.04z"/></symbol><symbol id="j"><path d="M.224 0v.018c.03.003.05.011.058.024.008.013.012.04.012.081v.102C.272.225.258.222.25.217A.205.205 0 01.216.162L.132 0H0v.018c.023.002.04.008.052.02a.322.322 0 01.047.076c.03.061.053.098.067.11.014.014.029.02.045.022C.19.255.172.281.155.326a.213.213 0 01-.02.042.023.023 0 01-.02.01A.073.073 0 01.09.372.1.1 0 00.056.363a.038.038 0 00-.031.013.047.047 0 00-.011.032c0 .015.005.025.017.033a.07.07 0 00.04.012.086.086 0 00.064-.024A.226.226 0 00.18.344C.195.306.211.28.23.27A.115.115 0 01.294.25v.073C.294.366.29.394.28.406.272.418.253.426.224.429v.018h.22V.43C.416.425.397.418.389.405.379.393.375.365.375.325V.25c.026 0 .047.006.065.018.018.011.033.037.047.075.018.05.036.081.055.092a.11.11 0 00.055.017C.616.453.63.448.64.439A.04.04 0 00.655.41.047.047 0 00.644.375a.038.038 0 00-.03-.013.1.1 0 00-.035.01.071.071 0 01-.023.005.025.025 0 01-.022-.01.213.213 0 01-.02-.042C.497.281.478.255.458.246A.074.074 0 00.504.224.489.489 0 00.57.116.334.334 0 01.617.037.082.082 0 01.67.018V0H.537L.453.162a.194.194 0 01-.036.055C.411.222.397.225.375.225V.123C.375.076.38.048.389.038.4.028.417.022.445.018V0h-.22z"/></symbol><symbol id="k"><path d="M.07.292A.23.23 0 01.117.136.147.147 0 01.232.08c.03 0 .055.008.077.024a.18.18 0 01.054.083l.015-.01a.234.234 0 00-.06-.122A.16.16 0 00.196 0c-.053 0-.1.02-.138.063A.242.242 0 000 .23c0 .077.02.137.059.18.039.042.088.064.148.064.05 0 .09-.017.123-.05A.18.18 0 00.378.292H.07m0 .029h.207a.191.191 0 01-.01.06.096.096 0 01-.037.043.09.09 0 01-.05.016.101.101 0 01-.073-.032A.136.136 0 01.07.321z"/></symbol><symbol id="l"><path d="M.148.248h.194v.094a.27.27 0 01-.004.055.037.037 0 01-.017.022C.312.426.297.43.274.43v.018H.49V.43A.108.108 0 01.446.422a.036.036 0 01-.019-.02.216.216 0 01-.005-.06V.105c0-.028.002-.047.004-.056A.039.039 0 01.444.026.096.096 0 01.49.018V0H.274v.018C.3.018.319.023.328.033c.01.01.014.034.014.072v.11H.148v-.11C.148.077.15.058.152.049A.039.039 0 01.17.026.096.096 0 01.216.018V0H0v.018c.029 0 .048.005.056.016.008.01.012.034.012.071v.237a.252.252 0 01-.004.056.035.035 0 01-.018.022A.096.096 0 010 .43v.018h.216V.43A.108.108 0 01.172.422a.036.036 0 01-.019-.02.216.216 0 01-.005-.06V.248z"/></symbol><symbol id="m"><path d="M.438.447V.43A.094.094 0 01.393.42.04.04 0 01.375.4.224.224 0 01.37.341V.105C.37.077.371.058.374.049A.039.039 0 01.393.027.093.093 0 01.438.018V0H.222v.018c.027 0 .045.005.054.015.009.01.014.034.014.072v.097H.254L.11 0H0v.018c.016 0 .028.002.034.006a.225.225 0 01.035.044l.105.147C.099.241.062.281.062.335a.1.1 0 00.04.079c.027.022.072.033.137.033h.199M.29.41a.133.133 0 01-.037.006C.221.416.196.407.18.39A.08.08 0 01.155.333C.155.304.167.281.19.262a.134.134 0 01.1-.028V.41z"/></symbol><symbol id="o"><path d="M.166.853l.132.055h.021V.633c.03.028.06.041.09.041.043 0 .079-.023.109-.069A.3.3 0 00.563.437.299.299 0 00.517.27C.487.223.45.2.406.2a.113.113 0 00-.087.043V.105C.32.072.321.052.325.043a.034.034 0 01.02-.02.202.202 0 01.062-.005V0H.166v.018c.033 0 .054.005.063.014.01.01.015.034.015.073v.138A.11.11 0 00.158.2C.112.2.075.224.045.27A.312.312 0 000 .443c0 .06.014.115.043.162.029.047.066.07.112.07A.11.11 0 00.244.627V.75a.243.243 0 01-.008.08C.23.838.222.844.208.844A.089.089 0 01.173.837L.166.853M.244.584C.225.622.202.642.174.642.145.642.123.623.107.587A.435.435 0 01.085.425.35.35 0 01.108.282C.124.25.146.233.173.233c.026 0 .05.015.07.045v.306M.32.286A.079.079 0 01.35.247.074.074 0 01.39.233c.025 0 .046.016.062.048.016.031.024.08.024.148C.476.57.448.642.392.642.368.642.344.628.319.602V.286z"/></symbol><symbol id="p"><path d="M.298.117l.14.33h.15V.43C.566.429.551.426.544.422A.05.05 0 01.527.406.17.17 0 01.52.342V.105c0-.03.001-.051.004-.06a.036.036 0 01.019-.02.11.11 0 01.044-.007V0H.372v.018C.4.018.417.023.426.033c.009.01.013.034.013.072v.269L.281 0H.264L.103.374V.105c0-.03.002-.051.005-.06a.036.036 0 01.019-.02.106.106 0 01.044-.007V0H0v.018c.029 0 .048.005.056.016.008.01.012.034.012.071v.237a.187.187 0 01-.006.062.049.049 0 01-.016.017C.038.426.023.429 0 .429v.018h.157l.14-.33z"/></symbol><use xlink:href="#e" transform="matrix(9.96 0 0 -9.96 670.36 67.58)"/><use xlink:href="#f" transform="matrix(9.96 0 0 -9.96 677.337 69.71)"/><use xlink:href="#g" transform="matrix(9.96 0 0 -9.96 682.746 67.716)"/><use xlink:href="#h" transform="matrix(9.96 0 0 -9.96 687.567 68.815)"/><use xlink:href="#g" transform="matrix(9.96 0 0 -9.96 692.846 67.716)"/><use xlink:href="#i" transform="matrix(9.96 0 0 -9.96 697.744 67.58)"/><use xlink:href="#j" transform="matrix(9.96 0 0 -9.96 702.323 67.58)"/><use xlink:href="#k" transform="matrix(9.96 0 0 -9.96 709.404 67.716)"/><use xlink:href="#l" transform="matrix(9.96 0 0 -9.96 713.68 67.58)"/><use xlink:href="#l" transform="matrix(9.96 0 0 -9.96 719.088 67.58)"/><use xlink:href="#m" transform="matrix(9.96 0 0 -9.96 724.138 67.58)"/><use xlink:href="#n" transform="matrix(9.96 0 0 -9.96 728.725 67.58)"/><use xlink:href="#o" transform="matrix(9.96 0 0 -9.96 731.638 69.71)"/><use xlink:href="#g" transform="matrix(9.96 0 0 -9.96 738.024 67.716)"/><use xlink:href="#f" transform="matrix(9.96 0 0 -9.96 742.684 69.71)"/><use xlink:href="#p" transform="matrix(9.96 0 0 -9.96 747.972 67.58)"/></g><clipPath id="q"><path transform="matrix(1 0 0 -1 0 595.32)" d="M0 0h841.92v595.32H0z" fill-rule="evenodd"/></clipPath><g clip-path="url(#q)"><symbol id="r"><path d="M.148.138L.342.36c0 .025-.006.043-.014.053-.01.01-.024.014-.046.015v.018H.49V.43C.468.429.454.426.446.422A.05.05 0 01.43.406.17.17 0 01.422.342V.105C.422.07.424.05.428.043A.053.053 0 01.444.025C.452.021.467.018.49.018V0H.274v.018C.3.018.319.023.328.033c.01.01.014.034.014.072v.21L.148.091C.15.064.153.045.16.034.167.024.183.018.207.018V0H0v.018c.029 0 .048.005.056.016.008.01.012.034.012.071v.237a.187.187 0 01-.006.062.049.049 0 01-.016.017C.038.426.023.429 0 .429v.018h.216V.43C.194.429.18.426.172.422A.05.05 0 01.155.406.17.17 0 01.148.342V.138z"/></symbol><symbol id="s"><path d="M.242.677L.488.231v.213a.96.96 0 00.007.144.115.115 0 00.119.096.085.085 0 00.058-.018.055.055 0 00.02-.043.048.048 0 00-.014-.035.049.049 0 00-.036-.014.08.08 0 00-.043.013C.583.597.571.602.564.602.552.602.544.596.538.583A.31.31 0 01.531.496V0H.509L.207.54V.223A.536.536 0 00.193.076.101.101 0 00.148.018.138.138 0 00.08 0C.052 0 .032.006.02.019A.057.057 0 000 .06c0 .014.005.025.015.034.01.009.022.013.036.013A.094.094 0 00.095.094.103.103 0 01.133.079c.012 0 .02.008.024.025a.57.57 0 01.007.11v.34a.23.23 0 01-.007.071.046.046 0 01-.028.025.166.166 0 01-.06.01v.017h.173m.515-.2A.162.162 0 00.864.435C.896.409.912.37.912.319A.149.149 0 00.872.21.132.132 0 00.773.169a.148.148 0 00-.108.046.16.16 0 00-.046.116c0 .04.012.073.037.102a.126.126 0 00.1.043M.754.453C.715.453.696.424.696.367c0-.042.008-.082.026-.12C.739.21.76.191.787.191.823.191.84.218.84.272A.343.343 0 01.818.39C.803.432.78.453.754.453M.62.07h.292V.015H.62V.07z"/></symbol><symbol id="t"><path d="M0 .339c0 .075.011.14.034.195a.273.273 0 00.091.122c.03.02.06.031.09.031C.268.688.313.662.354.61A.41.41 0 00.428.35.514.514 0 00.395.152.26.26 0 00.31.036.173.173 0 00.21 0C.149 0 .096.037.054.112A.455.455 0 000 .339M.096.327c0-.091.01-.166.033-.223C.148.055.176.03.212.03.23.03.248.039.267.054a.152.152 0 01.043.08.965.965 0 01.023.237.648.648 0 01-.024.189.168.168 0 01-.045.08.077.077 0 01-.107-.014.249.249 0 01-.049-.128A1.185 1.185 0 01.096.327z"/></symbol><symbol id="u"><path d="M.45.244v-.07H.36V0H.28v.175H0v.062l.307.439h.054V.244H.45m-.17 0v.329L.048.244H.28z"/></symbol><symbol id="v"><path d="M.01.548A.268.268 0 00.082.65a.162.162 0 00.107.036.149.149 0 00.123-.051.127.127 0 00.032-.083c0-.048-.03-.098-.091-.15A.197.197 0 00.345.336.177.177 0 00.376.231.22.22 0 00.322.082C.274.027.205 0 .115 0 .071 0 .04.006.024.017.008.027 0 .04 0 .052c0 .01.004.018.011.025a.04.04 0 00.028.01.084.084 0 00.025-.003.285.285 0 00.038-.018.245.245 0 01.04-.018.135.135 0 01.039-.006c.033 0 .062.013.086.04a.127.127 0 01.037.09A.176.176 0 01.26.29a.199.199 0 01-.057.035.184.184 0 01-.075.016H.111v.015a.2.2 0 01.077.028.147.147 0 01.057.055.145.145 0 01.018.07.108.108 0 01-.11.113C.103.621.06.594.026.54L.01.548z"/></symbol><symbol id="w"><path d="M.279.708L.039 0H0l.24.708h.039z"/></symbol><use xlink:href="#r" transform="matrix(9.96 0 0 -9.96 754.424 67.58)"/><use xlink:href="#n" transform="matrix(9.96 0 0 -9.96 759.479 67.58)"/><use xlink:href="#n" transform="matrix(9.96 0 0 -9.96 761.989 67.58)"/><use xlink:href="#s" transform="matrix(9.96 0 0 -9.96 764.576 67.73)"/><use xlink:href="#n" transform="matrix(9.96 0 0 -9.96 774 67.58)"/><use xlink:href="#t" transform="matrix(9.96 0 0 -9.96 776.85 67.697)"/><use xlink:href="#u" transform="matrix(9.96 0 0 -9.96 781.686 67.58)"/><use xlink:href="#v" transform="matrix(9.96 0 0 -9.96 786.964 67.697)"/><use xlink:href="#w" transform="matrix(9.96 0 0 -9.96 791.604 67.716)"/><use xlink:href="#g" transform="matrix(9.96 0 0 -9.96 794.694 67.716)"/></g></g><clipPath id="x"><path transform="matrix(1 0 0 -1 0 595.32)" d="M52.08 507.7h364.39v16.2H52.08z" fill-rule="evenodd"/></clipPath><g data-name="P" clip-path="url(#x)"><clipPath id="y"><path transform="matrix(1 0 0 -1 0 595.32)" d="M52.08 507.7h364.39v16.2H52.08z" fill-rule="evenodd"/></clipPath><g clip-path="url(#y)"><symbol id="z"><path d="M.393 0v.018h.021c.032 0 .052.007.06.02a.167.167 0 01.012.076v.505H.252V.114c0-.043.005-.07.016-.08.01-.01.03-.016.058-.016h.02V0H0v.018h.021c.029 0 .048.006.058.017.01.01.014.037.014.079v.435c0 .04-.005.065-.013.077C.07.638.05.644.02.644H0v.018h.739V.644H.72C.69.644.67.638.66.625.65.613.645.588.645.55V.114c0-.043.006-.07.017-.08.01-.01.031-.016.061-.016H.74V0H.393z"/></symbol><symbol id="A"><path d="M.277.008v.018a.07.07 0 01.04.012c.01.007.016.025.016.051v.345H.204v-.2a.685.685 0 00-.01-.149A.11.11 0 00.086 0a.086.086 0 00-.064.023A.076.076 0 000 .078c0 .02.006.036.017.048a.058.058 0 00.045.02C.097.146.114.124.114.082c0-.02.004-.029.011-.029C.14.053.151.065.16.09A.566.566 0 01.17.234v.133c0 .03-.004.05-.012.061C.15.44.136.445.116.446v.018H.52V.446c-.033 0-.05-.02-.05-.061V.09C.47.07.474.052.48.042.487.032.5.027.519.026V.008H.277z"/></symbol><symbol id="B"><path d="M.24.074C.186.024.136 0 .09 0A.087.087 0 000 .09c0 .035.015.066.045.094.03.028.095.065.196.11v.047a.21.21 0 01-.006.065.05.05 0 01-.021.023.063.063 0 01-.035.01.09.09 0 01-.053-.014C.118.42.114.413.114.405c0-.007.004-.016.013-.026C.14.365.146.352.146.34A.054.054 0 00.128.298.065.065 0 00.082.28.075.075 0 00.03.3a.057.057 0 00-.02.043.1.1 0 00.027.067.175.175 0 00.078.05.317.317 0 00.103.017c.044 0 .078-.01.103-.028a.128.128 0 00.05-.06.388.388 0 00.006-.094V.118c0-.021 0-.034.002-.04A.023.023 0 01.387.066a.017.017 0 01.01-.004c.01 0 .018.007.027.019L.438.069a.18.18 0 00-.05-.053A.11.11 0 00.328 0a.093.093 0 00-.06.018.084.084 0 00-.027.056m0 .035v.153A.285.285 0 01.153.188a.09.09 0 01-.02-.053C.134.12.14.107.15.095A.044.044 0 01.184.082C.2.082.22.092.241.109z"/></symbol><symbol id="C"><path d="M0 0v.018c.019 0 .032.005.04.014C.047.042.05.06.05.087v.28c0 .03-.003.048-.011.057C.033.434.02.438 0 .438v.019h.232V.438C.216.438.205.434.198.426.19.418.188.4.188.373V.252h.13v.12c0 .023-.002.04-.006.05C.307.433.294.438.275.438v.019h.232V.438C.488.438.475.434.467.424.459.415.456.4.456.378v-.29c0-.03.003-.048.01-.056C.475.023.489.019.507.018V0H.276v.018C.29.018.303.022.309.03c.007.008.01.026.01.055v.137H.188V.087c0-.029.003-.047.01-.056C.205.022.216.018.232.018V0H0z"/></symbol><symbol id="E"><path d="M.213.484c.04 0 .077-.01.11-.03.035-.021.06-.05.078-.088A.286.286 0 00.428.242a.262.262 0 00-.05-.163A.195.195 0 00.215 0a.188.188 0 00-.158.072A.267.267 0 000 .24a.27.27 0 00.057.17c.038.05.09.074.156.074M.215.449A.057.057 0 01.172.43C.16.418.152.393.148.356A1.687 1.687 0 01.143.202C.143.167.145.135.15.104A.094.094 0 01.173.052a.054.054 0 01.04-.018C.228.034.24.038.25.046a.082.082 0 01.025.046 1.127 1.127 0 010 .302.087.087 0 01-.027.045.051.051 0 01-.033.01z"/></symbol><symbol id="F"><path d="M.404.69H.42A.184.184 0 00.376.606.131.131 0 00.268.557C.26.557.25.557.234.559A.477.477 0 01.203.56a.153.153 0 01-.11-.046C.062.484.043.434.04.364c.042.08.1.12.174.12.06 0 .111-.022.153-.067A.246.246 0 00.428.241a.27.27 0 00-.055-.17A.188.188 0 00.215 0a.192.192 0 00-.158.07C.02.119 0 .19 0 .29c0 .075.01.145.031.209.021.064.05.11.086.138C.154.665.21.68.282.68A.557.557 0 00.344.676c.019 0 .039.005.06.015M.214.45C.187.45.168.433.158.4A.643.643 0 01.144.24C.144.154.149.1.159.072.17.047.188.033.215.033c.017 0 .03.008.042.022C.27.069.277.09.28.122.283.153.285.208.285.29c0 .05-.004.09-.014.118C.262.435.243.45.214.45z"/></symbol><symbol id="G"><path d="M.368.131L.383.12a.229.229 0 00-.08-.09A.192.192 0 00.2 0C.14 0 .09.023.055.069A.258.258 0 000 .234c0 .063.017.117.05.164.04.057.095.086.165.086A.167.167 0 00.328.448C.356.424.37.398.37.368A.06.06 0 00.353.325.06.06 0 00.309.308.065.065 0 00.26.327C.248.339.24.362.238.395.236.415.23.429.224.437A.035.035 0 01.197.45C.182.45.168.44.157.425A.208.208 0 01.132.31c0-.043.007-.085.02-.124A.19.19 0 01.208.099.1.1 0 01.272.078c.016 0 .031.003.045.01a.209.209 0 01.051.043z"/></symbol><symbol id="H"><path d="M.108 0v.018c.02 0 .033.005.04.015.007.01.011.03.011.06v.333H.114C.082.426.06.42.047.409.035.397.025.374.018.337H0v.12h.455v-.12H.437a.146.146 0 01-.026.069C.4.419.377.426.342.426H.296V.093c0-.03.003-.05.01-.06C.315.023.329.018.348.018V0h-.24z"/></symbol><symbol id="I"><path d="M.382.258h-.25A.236.236 0 01.18.115a.102.102 0 01.08-.04C.28.074.299.08.315.09a.21.21 0 01.051.06L.382.138A.279.279 0 00.3.03.178.178 0 00.196 0a.173.173 0 00-.154.078A.276.276 0 000 .234c0 .077.02.137.062.182a.19.19 0 00.145.068.156.156 0 00.12-.057C.36.389.379.333.382.258m-.12.033a.438.438 0 01-.01.108.087.087 0 01-.025.044.04.04 0 01-.028.01C.182.452.17.442.158.426a.214.214 0 01-.03-.119V.291h.134z"/></symbol><symbol id="J"><path d="M.239 0v.018c.018 0 .03.005.038.015.008.01.012.027.012.053v.136C.277.222.266.213.257.195L.16 0H0v.018c.013 0 .022.002.028.006a.082.082 0 01.021.03l.064.128C.125.206.137.222.15.23a.161.161 0 00.062.019.283.283 0 00-.048.1.265.265 0 01-.02.054C.14.41.135.415.128.415.12.415.115.405.113.383A.095.095 0 00.101.336C.094.326.082.322.066.322A.053.053 0 00.03.337C.019.347.013.364.013.387a.077.077 0 00.081.077A.074.074 0 00.152.44a.232.232 0 00.04-.08.316.316 0 01.04-.089C.243.259.262.253.29.253v.12c0 .024-.004.04-.013.05C.268.433.256.438.24.438v.019h.236V.438C.455.438.442.432.435.424.43.415.425.397.425.368V.253c.017 0 .03.003.042.01a.066.066 0 01.027.028.784.784 0 01.03.08c.013.037.028.062.043.075A.082.082 0 00.62.464C.64.464.66.457.676.443A.072.072 0 00.701.386.07.07 0 00.686.34.049.049 0 00.647.322C.616.322.6.344.6.388.6.406.596.415.587.415.574.415.561.392.547.346A.251.251 0 00.503.25a.144.144 0 00.063-.02.15.15 0 00.04-.056l.06-.12A.075.075 0 01.684.025a.06.06 0 01.03-.007V0h-.16L.456.195C.447.213.437.222.425.222V.077c0-.023.003-.038.01-.045C.44.025.455.02.475.018V0H.24z"/></symbol><symbol id="K"><path d="M.486.457V.438A.05.05 0 01.45.426C.442.418.438.4.438.368v-.26c0-.034.004-.058.01-.07C.457.026.469.02.487.018V0H.253v.018C.285.02.3.047.3.1v.106a.723.723 0 00-.043 0L.181 0H0v.018c.035 0 .06.02.076.06l.052.143C.06.242.025.28.025.337c0 .029.009.053.027.073.018.02.04.033.064.038a.693.693 0 00.131.009h.239M.3.419a.216.216 0 01-.048.007C.225.426.204.417.19.4A.094.094 0 01.169.337c0-.03.01-.056.03-.074C.217.244.246.235.285.235H.3V.42z"/></symbol><use xlink:href="#z" transform="matrix(14.04 0 0 -14.04 178.861 84.38)"/><use xlink:href="#A" transform="matrix(14.04 0 0 -14.04 189.585 84.49)"/><use xlink:href="#B" transform="matrix(14.04 0 0 -14.04 198.01 84.47)"/><use xlink:href="#C" transform="matrix(14.04 0 0 -14.04 204.964 84.38)"/><use xlink:href="#D" transform="matrix(14.04 0 0 -14.04 212.529 84.38)"/><use xlink:href="#E" transform="matrix(14.04 0 0 -14.04 216.392 84.572)"/><use xlink:href="#F" transform="matrix(14.04 0 0 -14.04 223.447 84.572)"/><use xlink:href="#G" transform="matrix(14.04 0 0 -14.04 230.445 84.572)"/><use xlink:href="#H" transform="matrix(14.04 0 0 -14.04 236.398 84.38)"/><use xlink:href="#I" transform="matrix(14.04 0 0 -14.04 243.635 84.572)"/><use xlink:href="#J" transform="matrix(14.04 0 0 -14.04 249.41 84.38)"/><use xlink:href="#I" transform="matrix(14.04 0 0 -14.04 259.95 84.572)"/><use xlink:href="#C" transform="matrix(14.04 0 0 -14.04 266.122 84.38)"/><use xlink:href="#C" transform="matrix(14.04 0 0 -14.04 274.209 84.38)"/><use xlink:href="#K" transform="matrix(14.04 0 0 -14.04 281.972 84.38)"/></g></g><clipPath id="L"><path transform="matrix(1 0 0 -1 0 595.32)" d="M417.07 507.7h387.05v16.2H417.07z" fill-rule="evenodd"/></clipPath><g data-name="P" clip-path="url(#L)"><clipPath id="M"><path transform="matrix(1 0 0 -1 0 595.32)" d="M417.07 507.7h387.05v16.2H417.07z" fill-rule="evenodd"/></clipPath><g clip-path="url(#M)"><symbol id="N"><path d="M.123.678C.144.678.163.67.177.655A.072.072 0 00.199.602.072.072 0 00.176.55.072.072 0 00.123.527.072.072 0 00.07.549a.072.072 0 00-.022.053c0 .02.007.039.022.053a.072.072 0 00.053.023M.191.457V.095c0-.033.004-.053.012-.062C.21.023.225.019.247.018V0H0v.018c.02 0 .035.006.045.017.006.008.01.027.01.06V.36C.055.394.05.414.043.423.036.432.021.437 0 .438v.019h.191z"/></symbol><symbol id="O"><path d="M0 .457h.232V.438C.215.438.203.433.197.424.19.414.188.395.188.366V.253c.036 0 .061.006.075.018a.172.172 0 01.039.068c.017.048.034.08.052.098a.097.097 0 00.073.027.108.108 0 00.067-.022.068.068 0 00.029-.057.069.069 0 00-.017-.047A.055.055 0 00.462.32C.426.32.407.34.406.376.406.402.4.416.39.416.373.416.356.393.34.349A.693.693 0 00.31.279.128.128 0 00.284.25.18.18 0 00.355.222.29.29 0 00.414.146l.043-.07C.48.04.504.02.529.019V0H.353L.217.222H.188V.095c0-.028.003-.048.01-.06C.205.026.216.02.232.019V0H0v.018c.015 0 .028.004.037.012.01.008.014.028.014.06v.27C.051.39.048.41.04.42.033.433.02.438 0 .438v.019z"/></symbol><symbol id="P"><path d="M.235.197L.087.536A.426.426 0 01.038.63.082.082 0 010 .654v.018h.243V.654C.227.654.215.651.209.645a.025.025 0 01-.01-.02C.2.613.207.588.224.552L.302.373l.053.138c.02.05.029.084.029.103a.036.036 0 01-.012.029C.364.65.35.653.33.654v.018h.152V.654A.057.057 0 01.446.637.423.423 0 01.398.536L.268.197A.743.743 0 00.195.041.105.105 0 00.11 0a.093.093 0 00-.066.023A.073.073 0 00.02.08c0 .019.005.035.017.047A.057.057 0 00.08.145C.096.145.109.139.119.129.129.119.134.102.134.08.134.068.136.06.14.057A.013.013 0 01.149.05c.009 0 .017.005.026.014A.303.303 0 01.22.16l.014.038z"/></symbol><symbol id="Q"><path d="M0 .457h.252c.053 0 .096-.01.13-.03a.091.091 0 00.05-.084C.432.293.397.26.327.241.421.231.468.191.468.123A.099.099 0 00.411.031.333.333 0 00.254 0H0v.018C.022.02.036.026.042.034.047.042.05.058.05.082v.272C.05.39.047.414.04.422.036.432.022.437 0 .438v.019M.193.253C.271.255.31.284.31.339.31.396.27.425.193.426V.253m0-.03v-.15C.193.056.196.045.201.04.206.033.216.03.232.03c.028 0 .051.01.07.03a.1.1 0 01.03.072C.331.164.32.186.298.201.278.215.243.222.193.222z"/></symbol><use xlink:href="#z" transform="matrix(14.04 0 0 -14.04 559.791 84.38)"/><use xlink:href="#A" transform="matrix(14.04 0 0 -14.04 570.515 84.49)"/><use xlink:href="#B" transform="matrix(14.04 0 0 -14.04 578.94 84.47)"/><use xlink:href="#C" transform="matrix(14.04 0 0 -14.04 585.894 84.38)"/><use xlink:href="#D" transform="matrix(14.04 0 0 -14.04 593.459 84.38)"/><use xlink:href="#A" transform="matrix(14.04 0 0 -14.04 596.897 84.49)"/><use xlink:href="#N" transform="matrix(14.04 0 0 -14.04 605.007 84.38)"/><use xlink:href="#O" transform="matrix(14.04 0 0 -14.04 609.15 84.38)"/><use xlink:href="#P" transform="matrix(14.04 0 0 -14.04 616.7 87.41)"/><use xlink:href="#Q" transform="matrix(14.04 0 0 -14.04 624.145 84.38)"/><use xlink:href="#B" transform="matrix(14.04 0 0 -14.04 631.857 84.47)"/><use xlink:href="#C" transform="matrix(14.04 0 0 -14.04 638.726 84.38)"/><use xlink:href="#C" transform="matrix(14.04 0 0 -14.04 646.813 84.38)"/><use xlink:href="#K" transform="matrix(14.04 0 0 -14.04 654.604 84.38)"/></g></g><g data-name="P" fill-rule="evenodd"><path d="M50.52 71.54h1.44v-1.56h-1.44z"/><path d="M50.52 71.42h1.44v-1.44h-1.44zM51.96 71.42h364.51v-1.44H51.96zM416.47 71.54h.48v-.12h-.48zM416.47 71.42h1.44v-1.44h-1.44zM417.91 71.42h386.21v-1.44H417.91zM804.12 71.54h1.44v-1.56h-1.44z"/><path d="M804.12 71.42h1.44v-1.44h-1.44zM50.52 87.62h1.44V71.54h-1.44zM416.47 87.62h.48V71.54h-.48zM804.12 87.62h1.44V71.54h-1.44z"/></g><g data-name="P" fill-rule="evenodd"><path d="M50.52 89.18h1.44v-1.56h-1.44zM51.96 89.06h364.51v-1.44H51.96zM416.47 89.18h.48v-.12h-.48zM416.47 89.06h1.44v-1.44h-1.44zM417.91 89.06h386.21v-1.44H417.91zM804.12 89.18h1.44v-1.56h-1.44zM50.52 105.14h1.44V89.18h-1.44zM416.47 105.14h.48V89.18h-.48zM804.12 105.14h1.44V89.18h-1.44z"/></g><g data-name="P"><path d="M50.52 105.62h1.44v-.48h-1.44z" fill-rule="evenodd"/><path stroke-width=".48" stroke-dasharray=".48,.48" stroke-linejoin="round" fill="none" stroke="#000" d="M51.96 105.38h364.51"/><path d="M416.47 105.62h.48v-.48h-.48z" fill-rule="evenodd"/><path stroke-width=".48" stroke-dasharray=".48,.48" stroke-linejoin="round" fill="none" stroke="#000" d="M416.95 105.38h387.17"/><path d="M804.12 105.62h1.44v-.48h-1.44zM50.52 121.82h1.44v-16.2h-1.44zM416.47 121.82h.48v-16.2h-.48z" fill-rule="evenodd"/><path d="M804.12 121.82h1.44v-16.2h-1.44z" fill-rule="evenodd"/></g><g data-name="P"><path d="M50.52 122.3h1.44v-.48h-1.44z" fill-rule="evenodd"/><path stroke-width=".48" stroke-dasharray=".48,.48" stroke-linejoin="round" fill="none" stroke="#000" d="M51.96 122.06h364.51"/><path d="M416.47 122.3h.48v-.48h-.48z" fill-rule="evenodd"/><path stroke-width=".48" stroke-dasharray=".48,.48" stroke-linejoin="round" fill="none" stroke="#000" d="M416.95 122.06h387.17"/><path d="M804.12 122.3h1.44v-.48h-1.44zM50.52 138.38h1.44V122.3h-1.44zM416.47 138.38h.48V122.3h-.48zM804.12 138.38h1.44V122.3h-1.44z" fill-rule="evenodd"/></g><g data-name="P"><path d="M50.52 138.86h1.44v-.48h-1.44z" fill-rule="evenodd"/><path stroke-width=".48" stroke-dasharray=".48,.48" stroke-linejoin="round" fill="none" stroke="#000" d="M51.96 138.62h364.51"/><path d="M416.47 138.86h.48v-.48h-.48z" fill-rule="evenodd"/><path stroke-width=".48" stroke-dasharray=".48,.48" stroke-linejoin="round" fill="none" stroke="#000" d="M416.95 138.62h387.17"/><path d="M804.12 138.86h1.44v-.48h-1.44zM50.52 154.94h1.44v-16.08h-1.44zM416.47 154.94h.48v-16.08h-.48zM804.12 154.94h1.44v-16.08h-1.44z" fill-rule="evenodd"/></g><g data-name="P"><path d="M50.52 155.42h1.44v-.48h-1.44z" fill-rule="evenodd"/><path stroke-width=".48" stroke-dasharray=".48,.48" stroke-linejoin="round" fill="none" stroke="#000" d="M51.96 155.18h364.51"/><path d="M416.47 155.42h.48v-.48h-.48z" fill-rule="evenodd"/><path stroke-width=".48" stroke-dasharray=".48,.48" stroke-linejoin="round" fill="none" stroke="#000" d="M416.95 155.18h387.17"/><path d="M804.12 155.42h1.44v-.48h-1.44zM50.52 171.5h1.44v-16.08h-1.44zM416.47 171.5h.48v-16.08h-.48zM804.12 171.5h1.44v-16.08h-1.44z" fill-rule="evenodd"/></g><g data-name="P"><path d="M50.52 171.98h1.44v-.48h-1.44z" fill-rule="evenodd"/><path stroke-width=".48" stroke-dasharray=".48,.48" stroke-linejoin="round" fill="none" stroke="#000" d="M51.96 171.74h364.51"/><path d="M416.47 171.98h.48v-.48h-.48z" fill-rule="evenodd"/><path stroke-width=".48" stroke-dasharray=".48,.48" stroke-linejoin="round" fill="none" stroke="#000" d="M416.95 171.74h387.17"/><path d="M804.12 171.98h1.44v-.48h-1.44zM50.52 188.21h1.44v-16.224h-1.44zM416.47 188.21h.48v-16.224h-.48zM804.12 188.21h1.44v-16.224h-1.44z" fill-rule="evenodd"/></g><g data-name="P"><path d="M50.52 188.69h1.44v-.48h-1.44z" fill-rule="evenodd"/><path stroke-width=".48" stroke-dasharray=".48,.48" stroke-linejoin="round" fill="none" stroke="#000" d="M51.96 188.45h364.51"/><path d="M416.47 188.69h.48v-.48h-.48z" fill-rule="evenodd"/><path stroke-width=".48" stroke-dasharray=".48,.48" stroke-linejoin="round" fill="none" stroke="#000" d="M416.95 188.45h387.17"/><path d="M804.12 188.69h1.44v-.48h-1.44zM50.52 204.77h1.44v-16.08h-1.44zM416.47 204.77h.48v-16.08h-.48zM804.12 204.77h1.44v-16.08h-1.44z" fill-rule="evenodd"/></g><g data-name="P"><path d="M50.52 205.25h1.44v-.48h-1.44z" fill-rule="evenodd"/><path stroke-width=".48" stroke-dasharray=".48,.48" stroke-linejoin="round" fill="none" stroke="#000" d="M51.96 205.01h364.51"/><path d="M416.47 205.25h.48v-.48h-.48z" fill-rule="evenodd"/><path stroke-width=".48" stroke-dasharray=".48,.48" stroke-linejoin="round" fill="none" stroke="#000" d="M416.95 205.01h387.17"/><path d="M804.12 205.25h1.44v-.48h-1.44zM50.52 221.33h1.44v-16.08h-1.44zM416.47 221.33h.48v-16.08h-.48zM804.12 221.33h1.44v-16.08h-1.44z" fill-rule="evenodd"/></g><g data-name="P"><path d="M50.52 221.81h1.44v-.48h-1.44z" fill-rule="evenodd"/><path stroke-width=".48" stroke-dasharray=".48,.48" stroke-linejoin="round" fill="none" stroke="#000" d="M51.96 221.57h364.51"/><path d="M416.47 221.81h.48v-.48h-.48z" fill-rule="evenodd"/><path stroke-width=".48" stroke-dasharray=".48,.48" stroke-linejoin="round" fill="none" stroke="#000" d="M416.95 221.57h387.17"/><path d="M804.12 221.81h1.44v-.48h-1.44zM50.52 238.01h1.44v-16.2h-1.44zM416.47 238.01h.48v-16.2h-.48zM804.12 238.01h1.44v-16.2h-1.44z" fill-rule="evenodd"/></g><g data-name="P"><path d="M50.52 238.49h1.44v-.48h-1.44z" fill-rule="evenodd"/><path stroke-width=".48" stroke-dasharray=".48,.48" stroke-linejoin="round" fill="none" stroke="#000" d="M51.96 238.25h364.51"/><path d="M416.47 238.49h.48v-.48h-.48z" fill-rule="evenodd"/><path stroke-width=".48" stroke-dasharray=".48,.48" stroke-linejoin="round" fill="none" stroke="#000" d="M416.95 238.25h387.17"/><path d="M804.12 238.49h1.44v-.48h-1.44zM50.52 254.57h1.44v-16.08h-1.44zM416.47 254.57h.48v-16.08h-.48zM804.12 254.57h1.44v-16.08h-1.44z" fill-rule="evenodd"/></g><g data-name="P"><path d="M50.52 255.05h1.44v-.48h-1.44z" fill-rule="evenodd"/><path stroke-width=".48" stroke-dasharray=".48,.48" stroke-linejoin="round" fill="none" stroke="#000" d="M51.96 254.81h364.51"/><path d="M416.47 255.05h.48v-.48h-.48z" fill-rule="evenodd"/><path stroke-width=".48" stroke-dasharray=".48,.48" stroke-linejoin="round" fill="none" stroke="#000" d="M416.95 254.81h387.17"/><path d="M804.12 255.05h1.44v-.48h-1.44zM50.52 271.13h1.44v-16.08h-1.44zM416.47 271.13h.48v-16.08h-.48zM804.12 271.13h1.44v-16.08h-1.44z" fill-rule="evenodd"/></g><g data-name="P"><path d="M50.52 271.61h1.44v-.48h-1.44z" fill-rule="evenodd"/><path stroke-width=".48" stroke-dasharray=".48,.48" stroke-linejoin="round" fill="none" stroke="#000" d="M51.96 271.37h364.51"/><path d="M416.47 271.61h.48v-.48h-.48z" fill-rule="evenodd"/><path stroke-width=".48" stroke-dasharray=".48,.48" stroke-linejoin="round" fill="none" stroke="#000" d="M416.95 271.37h387.17"/><path d="M804.12 271.61h1.44v-.48h-1.44zM50.52 287.81h1.44v-16.2h-1.44zM416.47 287.81h.48v-16.2h-.48zM804.12 287.81h1.44v-16.2h-1.44z" fill-rule="evenodd"/></g><g data-name="P"><path d="M50.52 288.29h1.44v-.48h-1.44z" fill-rule="evenodd"/><path stroke-width=".48" stroke-dasharray=".48,.48" stroke-linejoin="round" fill="none" stroke="#000" d="M51.96 288.05h364.51"/><path d="M416.47 288.29h.48v-.48h-.48z" fill-rule="evenodd"/><path stroke-width=".48" stroke-dasharray=".48,.48" stroke-linejoin="round" fill="none" stroke="#000" d="M416.95 288.05h387.17"/><path d="M804.12 288.29h1.44v-.48h-1.44zM50.52 304.39h1.44v-16.104h-1.44zM416.47 304.39h.48v-16.104h-.48z" fill-rule="evenodd"/><path d="M804.12 304.39h1.44v-16.104h-1.44z" fill-rule="evenodd"/></g><g data-name="P"><path d="M50.52 304.87h1.44v-.48h-1.44z" fill-rule="evenodd"/><path stroke-width=".48" stroke-dasharray=".48,.48" stroke-linejoin="round" fill="none" stroke="#000" d="M51.96 304.63h364.51"/><path d="M416.47 304.87h.48v-.48h-.48z" fill-rule="evenodd"/><path stroke-width=".48" stroke-dasharray=".48,.48" stroke-linejoin="round" fill="none" stroke="#000" d="M416.95 304.63h387.17"/><path d="M804.12 304.87h1.44v-.48h-1.44zM50.52 320.95h1.44v-16.08h-1.44zM416.47 320.95h.48v-16.08h-.48zM804.12 320.95h1.44v-16.08h-1.44z" fill-rule="evenodd"/></g><g data-name="P"><path d="M50.52 321.43h1.44v-.48h-1.44z" fill-rule="evenodd"/><path stroke-width=".48" stroke-dasharray=".48,.48" stroke-linejoin="round" fill="none" stroke="#000" d="M51.96 321.19h364.51"/><path d="M416.47 321.43h.48v-.48h-.48z" fill-rule="evenodd"/><path stroke-width=".48" stroke-dasharray=".48,.48" stroke-linejoin="round" fill="none" stroke="#000" d="M416.95 321.19h387.17"/><path d="M804.12 321.43h1.44v-.48h-1.44zM50.52 337.63h1.44v-16.2h-1.44zM416.47 337.63h.48v-16.2h-.48zM804.12 337.63h1.44v-16.2h-1.44z" fill-rule="evenodd"/></g><g data-name="P"><path d="M50.52 338.11h1.44v-.48h-1.44z" fill-rule="evenodd"/><path stroke-width=".48" stroke-dasharray=".48,.48" stroke-linejoin="round" fill="none" stroke="#000" d="M51.96 337.87h364.51"/><path d="M416.47 338.11h.48v-.48h-.48z" fill-rule="evenodd"/><path stroke-width=".48" stroke-dasharray=".48,.48" stroke-linejoin="round" fill="none" stroke="#000" d="M416.95 337.87h387.17"/><path d="M804.12 338.11h1.44v-.48h-1.44zM50.52 354.19h1.44v-16.08h-1.44zM416.47 354.19h.48v-16.08h-.48zM804.12 354.19h1.44v-16.08h-1.44z" fill-rule="evenodd"/></g><g data-name="P"><path d="M50.52 354.67h1.44v-.48h-1.44z" fill-rule="evenodd"/><path stroke-width=".48" stroke-dasharray=".48,.48" stroke-linejoin="round" fill="none" stroke="#000" d="M51.96 354.43h364.51"/><path d="M416.47 354.67h.48v-.48h-.48z" fill-rule="evenodd"/><path stroke-width=".48" stroke-dasharray=".48,.48" stroke-linejoin="round" fill="none" stroke="#000" d="M416.95 354.43h387.17"/><path d="M804.12 354.67h1.44v-.48h-1.44zM50.52 370.75h1.44v-16.08h-1.44zM416.47 370.75h.48v-16.08h-.48zM804.12 370.75h1.44v-16.08h-1.44z" fill-rule="evenodd"/></g><g data-name="P"><path d="M50.52 371.23h1.44v-.48h-1.44z" fill-rule="evenodd"/><path stroke-width=".48" stroke-dasharray=".48,.48" stroke-linejoin="round" fill="none" stroke="#000" d="M51.96 370.99h364.51"/><path d="M416.47 371.23h.48v-.48h-.48z" fill-rule="evenodd"/><path stroke-width=".48" stroke-dasharray=".48,.48" stroke-linejoin="round" fill="none" stroke="#000" d="M416.95 370.99h387.17"/><path d="M804.12 371.23h1.44v-.48h-1.44zM50.52 387.43h1.44v-16.2h-1.44zM416.47 387.43h.48v-16.2h-.48zM804.12 387.43h1.44v-16.2h-1.44z" fill-rule="evenodd"/></g><g data-name="P"><path d="M50.52 387.91h1.44v-.48h-1.44z" fill-rule="evenodd"/><path stroke-width=".48" stroke-dasharray=".48,.48" stroke-linejoin="round" fill="none" stroke="#000" d="M51.96 387.67h364.51"/><path d="M416.47 387.91h.48v-.48h-.48z" fill-rule="evenodd"/><path stroke-width=".48" stroke-dasharray=".48,.48" stroke-linejoin="round" fill="none" stroke="#000" d="M416.95 387.67h387.17"/><path d="M804.12 387.91h1.44v-.48h-1.44zM50.52 403.99h1.44v-16.08h-1.44zM416.47 403.99h.48v-16.08h-.48zM804.12 403.99h1.44v-16.08h-1.44z" fill-rule="evenodd"/></g><g data-name="P"><path d="M50.52 404.47h1.44v-.48h-1.44z" fill-rule="evenodd"/><path stroke-width=".48" stroke-dasharray=".48,.48" stroke-linejoin="round" fill="none" stroke="#000" d="M51.96 404.23h364.51"/><path d="M416.47 404.47h.48v-.48h-.48z" fill-rule="evenodd"/><path stroke-width=".48" stroke-dasharray=".48,.48" stroke-linejoin="round" fill="none" stroke="#000" d="M416.95 404.23h387.17"/><path d="M804.12 404.47h1.44v-.48h-1.44zM50.52 420.58h1.44v-16.104h-1.44zM416.47 420.58h.48v-16.104h-.48zM804.12 420.58h1.44v-16.104h-1.44z" fill-rule="evenodd"/></g><g data-name="P"><path d="M50.52 421.06h1.44v-.48h-1.44z" fill-rule="evenodd"/><path stroke-width=".48" stroke-dasharray=".48,.48" stroke-linejoin="round" fill="none" stroke="#000" d="M51.96 420.82h364.51"/><path d="M416.47 421.06h.48v-.48h-.48z" fill-rule="evenodd"/><path stroke-width=".48" stroke-dasharray=".48,.48" stroke-linejoin="round" fill="none" stroke="#000" d="M416.95 420.82h387.17"/><path d="M804.12 421.06h1.44v-.48h-1.44zM50.52 437.26h1.44v-16.2h-1.44zM416.47 437.26h.48v-16.2h-.48zM804.12 437.26h1.44v-16.2h-1.44z" fill-rule="evenodd"/></g><g data-name="P"><path d="M50.52 437.74h1.44v-.48h-1.44z" fill-rule="evenodd"/><path stroke-width=".48" stroke-dasharray=".48,.48" stroke-linejoin="round" fill="none" stroke="#000" d="M51.96 437.5h364.51"/><path d="M416.47 437.74h.48v-.48h-.48z" fill-rule="evenodd"/><path stroke-width=".48" stroke-dasharray=".48,.48" stroke-linejoin="round" fill="none" stroke="#000" d="M416.95 437.5h387.17"/><path d="M804.12 437.74h1.44v-.48h-1.44zM50.52 453.82h1.44v-16.08h-1.44zM50.52 455.26h1.44v-1.44h-1.44z" fill-rule="evenodd"/><path d="M50.52 455.26h1.44v-1.44h-1.44zM51.96 455.26h364.51v-1.44H51.96zM416.47 453.82h.48v-16.08h-.48zM416.47 455.26h1.44v-1.44h-1.44zM417.91 455.26h386.21v-1.44H417.91zM804.12 453.82h1.44v-16.08h-1.44zM804.12 455.26h1.44v-1.44h-1.44z" fill-rule="evenodd"/><path d="M804.12 455.26h1.44v-1.44h-1.44z" fill-rule="evenodd"/></g></svg>