<svg width="29" height="26" viewBox="0 0 29 26" fill="none" xmlns="http://www.w3.org/2000/svg">
<rect x="0.982422" width="27.7368" height="25.7143" rx="12.8571" fill="#CCD8EA"/>
<g clip-path="url(#clip0)">
<path d="M19.7324 8.31603L22.4833 10.8265C22.5992 10.9322 22.5992 11.1048 22.4833 11.2106L15.8226 17.2891L12.9925 17.5757C12.6143 17.6147 12.2941 17.3225 12.3368 16.9774L12.6509 14.3945L19.3116 8.31603C19.4275 8.21027 19.6165 8.21027 19.7324 8.31603ZM24.673 7.67867L23.1848 6.32047C22.7212 5.89743 21.9679 5.89743 21.5013 6.32047L20.4217 7.30573C20.3058 7.41149 20.3058 7.58405 20.4217 7.68981L23.1726 10.2003C23.2885 10.306 23.4775 10.306 23.5934 10.2003L24.673 9.215C25.1366 8.78917 25.1366 8.10172 24.673 7.67867ZM19.1652 15.6358V18.4691H9.40595V9.5629H16.4143C16.5119 9.5629 16.6034 9.52672 16.6735 9.46549L17.8934 8.35221C18.1252 8.14069 17.9605 7.78165 17.6342 7.78165H8.91799C8.1098 7.78165 7.4541 8.38004 7.4541 9.11759V18.9145C7.4541 19.652 8.1098 20.2504 8.91799 20.2504H19.6531C20.4613 20.2504 21.117 19.652 21.117 18.9145V14.5226C21.117 14.2248 20.7236 14.0773 20.4918 14.286L19.2719 15.3993C19.2048 15.4633 19.1652 15.5468 19.1652 15.6358Z" fill="#3D5C9F"/>
</g>
<defs>
<clipPath id="clip0">
<rect width="17.5666" height="14.25" fill="white" transform="translate(7.4541 6)"/>
</clipPath>
</defs>
</svg>
