<svg xmlns="http://www.w3.org/2000/svg" xmlns:xlink="http://www.w3.org/1999/xlink" width="793.707" height="559.373" viewBox="0 0 595.28 419.53"><path stroke-width=".557" stroke-miterlimit="10" fill="none" stroke="#231f20" d="M554.25 365.9H42.271V53.99H554.25z"/><path stroke-width=".573" stroke-miterlimit="10" fill="none" stroke="#231f20" d="M297.768 53.869v311.868"/><path stroke-width=".559" stroke-miterlimit="10" fill="none" stroke="#231f20" d="M42.6 68.13l511.65.658M42.6 79.967l511.65.657M41.941 94.435l512.31-.657M41.941 107.59h512.31M43.257 121.4H554.25M42.6 133.895l510.993.657M43.257 147.705l510.336-.657M42.6 162.173h511.65M42.6 176.642h511.65M42.6 187.821h511.65M42.6 200.974l510.993-.657M42.6 214.785h510.993M41.941 227.938l511.651.657M41.284 243.063h512.31M42.6 256.874l510.993-.657M42.6 268.712l511.65.658M41.284 283.181l512.966-.659M42.6 295.675h511.65M41.941 310.143h512.31M41.941 323.297l512.31-.656M41.941 338.424l511.651 1.314M42.928 351.247l511.652 1.314"/><symbol id="a"><path d="M.497.626H.189V.121C.19.077.195.049.206.038.217.026.244.019.286.018V0H0v.018c.041.001.067.008.079.02C.09.049.096.077.096.12v.42C.096.586.09.614.079.626.067.636.04.643 0 .644v.018h.686V.644C.645.643.619.636.607.624.596.614.59.586.59.543V.12C.59.077.596.049.607.038.62.026.645.019.686.018V0H.401v.018C.442.02.468.026.48.038c.012.01.018.039.018.083v.505z"/></symbol><symbol id="b"><path d="M.071.455h.4V.437C.45.437.434.434.427.43A.05.05 0 01.41.414.17.17 0 01.403.35V.113C.403.078.405.058.41.05A.053.053 0 01.425.033C.433.028.448.026.471.026V.008H.24v.018c.025 0 .042.001.052.004.01.002.017.009.022.018.006.01.009.032.009.065v.31h-.15V.235a.786.786 0 00-.009-.15A.103.103 0 00.126.02.105.105 0 00.062 0C.021 0 0 .017 0 .052 0 .063.003.073.01.08a.034.034 0 00.026.01.045.045 0 00.032-.013C.08.065.09.059.097.059.11.06.122.071.128.096c.007.024.01.068.01.13v.098c0 .05-.003.081-.01.093C.12.427.101.434.07.437v.018z"/></symbol><symbol id="c"><path d="M.249.074A.737.737 0 00.163.012.132.132 0 00.106 0C.076 0 .05.01.03.032A.117.117 0 000 .115c0 .022.005.04.015.057a.194.194 0 00.069.062c.033.02.088.044.165.072v.017c0 .045-.007.075-.021.092C.214.432.193.44.166.44A.07.07 0 01.117.423.05.05 0 01.1.385V.357C.1.342.097.33.089.322A.039.039 0 00.058.31a.039.039 0 00-.03.013.05.05 0 00-.01.034c0 .028.013.054.042.078A.186.186 0 00.18.47.21.21 0 00.279.45.092.092 0 00.321.402.267.267 0 00.33.316V.165c0-.043 0-.07.002-.08C.334.077.336.07.34.068A.02.02 0 01.353.062c.005 0 .01.001.014.003l.04.036V.074C.37.024.334 0 .301 0a.047.047 0 00-.038.017C.254.028.249.047.249.074m0 .031v.17a.964.964 0 01-.095-.04.164.164 0 01-.055-.046.087.087 0 01-.017-.05c0-.024.007-.044.021-.06A.064.064 0 01.151.058C.176.057.21.073.25.105z"/></symbol><symbol id="d"><path d="M.148.248h.194v.094a.27.27 0 01-.004.055.037.037 0 01-.017.022C.312.426.297.43.274.43v.018H.49V.43A.108.108 0 01.446.422a.036.036 0 01-.019-.02.216.216 0 01-.005-.06V.105c0-.028.002-.047.004-.056A.039.039 0 01.444.026.096.096 0 01.49.018V0H.274v.018C.3.018.319.023.328.033c.01.01.014.034.014.072v.11H.148v-.11C.148.077.15.058.152.049A.039.039 0 01.17.026.096.096 0 01.216.018V0H0v.018c.029 0 .048.005.056.016.008.01.012.034.012.071v.237a.252.252 0 01-.004.056.035.035 0 01-.018.022A.096.096 0 010 .43v.018h.216V.43A.108.108 0 01.172.422a.036.036 0 01-.019-.02.216.216 0 01-.005-.06V.248z"/></symbol><symbol id="f"><path d="M.216.474A.198.198 0 00.38.397.237.237 0 00.432.246c0-.04-.01-.081-.03-.122A.21.21 0 00.324.031.208.208 0 00.211 0a.19.19 0 00-.16.08A.25.25 0 000 .234c0 .04.01.082.03.122a.208.208 0 00.186.12M.201.441A.102.102 0 01.15.427.107.107 0 01.107.373a.26.26 0 01-.016-.1C.09.21.104.154.129.106.155.058.19.035.232.035.264.035.29.048.31.074.33.1.34.144.34.208.34.288.325.35.29.396A.106.106 0 01.2.442z"/></symbol><symbol id="g"><path d="M.035.333c.038.094.1.141.19.141a.19.19 0 00.152-.07c.04-.046.06-.1.06-.16a.266.266 0 00-.06-.168A.197.197 0 00.213 0a.177.177 0 00-.16.086A.39.39 0 000 .298a.557.557 0 00.088.306C.108.63.133.65.16.664a.39.39 0 00.145.02c.05 0 .08.002.09.004.01.003.02.01.03.02h.02A.159.159 0 00.404.64.123.123 0 00.356.612.491.491 0 00.262.603.41.41 0 01.16.592.136.136 0 01.102.548.244.244 0 01.055.457a.52.52 0 01-.02-.124m.173.108A.097.097 0 01.128.4C.108.372.097.33.097.272.097.194.11.135.139.095c.028-.04.06-.06.097-.06.034 0 .06.013.08.041.019.028.029.074.029.135 0 .066-.013.12-.038.164C.28.42.248.441.208.441z"/></symbol><symbol id="h"><path d="M.377.184a.244.244 0 00-.07-.137A.17.17 0 00.188 0a.172.172 0 00-.132.064A.251.251 0 000 .237c0 .07.02.127.063.171a.201.201 0 00.15.066C.257.474.293.462.322.44.35.416.364.392.364.367a.04.04 0 00-.012-.03A.046.046 0 00.32.324c-.02 0-.034.006-.044.019C.27.35.266.364.265.383a.063.063 0 01-.02.044.07.07 0 01-.048.014A.097.097 0 01.12.405.192.192 0 01.079.28c0-.054.013-.1.04-.142a.121.121 0 01.106-.06c.032 0 .06.01.086.032A.22.22 0 01.363.19L.377.184z"/></symbol><symbol id="i"><path d="M.019.447h.386l.02-.12H.403a.14.14 0 01-.02.056.066.066 0 01-.03.026.197.197 0 01-.061.007h-.04V.105C.253.072.256.051.26.042a.032.032 0 01.02-.018A.294.294 0 01.34.018V0H.098v.018c.031 0 .051.006.06.015.01.01.014.034.014.072v.31h-.04A.2.2 0 01.075.41a.062.062 0 01-.03-.024.176.176 0 01-.023-.06H0l.019.121z"/></symbol><symbol id="j"><path d="M.07.292A.23.23 0 01.117.136.147.147 0 01.232.08c.03 0 .055.008.077.024a.18.18 0 01.054.083l.015-.01a.234.234 0 00-.06-.122A.16.16 0 00.196 0c-.053 0-.1.02-.138.063A.242.242 0 000 .23c0 .077.02.137.059.18.039.042.088.064.148.064.05 0 .09-.017.123-.05A.18.18 0 00.378.292H.07m0 .029h.207a.191.191 0 01-.01.06.096.096 0 01-.037.043.09.09 0 01-.05.016.101.101 0 01-.073-.032A.136.136 0 01.07.321z"/></symbol><symbol id="k"><path d="M.224 0v.018c.03.003.05.011.058.024.008.013.012.04.012.081v.102C.272.225.258.222.25.217A.205.205 0 01.216.162L.132 0H0v.018c.023.002.04.008.052.02a.322.322 0 01.047.076c.03.061.053.098.067.11.014.014.029.02.045.022C.19.255.172.281.155.326a.213.213 0 01-.02.042.023.023 0 01-.02.01A.073.073 0 01.09.372.1.1 0 00.056.363a.038.038 0 00-.031.013.047.047 0 00-.011.032c0 .015.005.025.017.033a.07.07 0 00.04.012.086.086 0 00.064-.024A.226.226 0 00.18.344C.195.306.211.28.23.27A.115.115 0 01.294.25v.073C.294.366.29.394.28.406.272.418.253.426.224.429v.018h.22V.43C.416.425.397.418.389.405.379.393.375.365.375.325V.25c.026 0 .047.006.065.018.018.011.033.037.047.075.018.05.036.081.055.092a.11.11 0 00.055.017C.616.453.63.448.64.439A.04.04 0 00.655.41.047.047 0 00.644.375a.038.038 0 00-.03-.013.1.1 0 00-.035.01.071.071 0 01-.023.005.025.025 0 01-.022-.01.213.213 0 01-.02-.042C.497.281.478.255.458.246A.074.074 0 00.504.224.489.489 0 00.57.116.334.334 0 01.617.037.082.082 0 01.67.018V0H.537L.453.162a.194.194 0 01-.036.055C.411.222.397.225.375.225V.123C.375.076.38.048.389.038.4.028.417.022.445.018V0h-.22z"/></symbol><symbol id="l"><path d="M.438.447V.43A.094.094 0 01.393.42.04.04 0 01.375.4.224.224 0 01.37.341V.105C.37.077.371.058.374.049A.039.039 0 01.393.027.093.093 0 01.438.018V0H.222v.018c.027 0 .045.005.054.015.009.01.014.034.014.072v.097H.254L.11 0H0v.018c.016 0 .028.002.034.006a.225.225 0 01.035.044l.105.147C.099.241.062.281.062.335a.1.1 0 00.04.079c.027.022.072.033.137.033h.199M.29.41a.133.133 0 01-.037.006C.221.416.196.407.18.39A.08.08 0 01.155.333C.155.304.167.281.19.262a.134.134 0 01.1-.028V.41z"/></symbol><symbol id="m"><path d="M.116.694A.046.046 0 00.15.68.046.046 0 00.165.645.048.048 0 00.15.61.046.046 0 00.116.595.048.048 0 00.08.61a.048.048 0 00-.015.035C.066.659.07.67.08.68c.01.01.022.014.036.014M.156.46V.101c0-.028.002-.047.006-.056A.045.045 0 01.18.025.098.098 0 01.224.017V0H.007v.018C.029.018.043.02.05.024a.042.042 0 01.017.02c.005.01.007.03.007.057v.172a.61.61 0 01-.004.095C.069.378.065.385.06.389A.03.03 0 01.04.396.098.098 0 01.007.388L0 .406.135.46h.021z"/></symbol><symbol id="n"><path d="M.458 0H.326C.285.06.248.12.214.183a.155.155 0 01-.021.032.032.032 0 01-.026.01.27.27 0 01-.019 0v-.12C.148.073.15.052.154.043a.036.036 0 01.02-.02.146.146 0 01.05-.005V0H0v.018c.029 0 .048.005.056.016.008.01.012.034.012.071v.237a.187.187 0 01-.006.062.049.049 0 01-.016.017C.038.426.023.429 0 .429v.018h.224V.43a.126.126 0 01-.05-.006.08.08 0 01-.018-.015C.151.403.148.381.148.342V.254a.101.101 0 01.07.016c.019.011.034.035.048.072a.371.371 0 00.031.07c.009.012.02.021.035.029a.1.1 0 00.047.012A.065.065 0 00.42.44.04.04 0 00.437.407a.042.042 0 00-.012-.03.041.041 0 00-.031-.011.082.082 0 00-.027.006.103.103 0 01-.031.007C.32.379.309.366.299.34A.447.447 0 00.274.283a.204.204 0 00-.03-.034.08.08 0 00.033-.023.636.636 0 00.067-.103A.437.437 0 01.4.037.083.083 0 01.458.018V0z"/></symbol><symbol id="o"><path d="M0 .663h.208V.645h-.01C.184.645.173.642.165.635a.03.03 0 01-.01-.023C.154.599.16.582.17.559L.28.333l.1.248a.103.103 0 01.008.04c0 .005-.001.01-.004.012a.025.025 0 01-.012.009.086.086 0 01-.03.003v.018h.146V.645A.07.07 0 01.46.637.08.08 0 01.44.615.305.305 0 01.422.578L.24.13A.23.23 0 00.17.033.135.135 0 00.09 0a.068.068 0 00-.047.017.05.05 0 00-.02.038c0 .013.005.024.014.033C.046.096.058.1.073.1.084.1.1.097.117.09A.105.105 0 01.142.081c.01 0 .02.005.031.015.012.01.024.03.035.059L.24.233.08.571a.27.27 0 01-.044.06A.11.11 0 010 .645v.018z"/></symbol><symbol id="p"><path d="M.292.236C.373.22.414.181.414.122A.1.1 0 00.363.03.279.279 0 00.22 0H0v.018c.029 0 .047.005.055.016.007.011.011.035.011.071v.237a.19.19 0 01-.005.062.046.046 0 01-.016.017C.038.426.023.429 0 .429v.018h.206c.04 0 .072-.003.096-.009a.114.114 0 00.06-.037.097.097 0 00.025-.066C.387.285.355.251.292.236M.147.248h.026C.218.247.25.255.27.271A.08.08 0 01.3.335C.3.363.29.384.27.396a.188.188 0 01-.097.02H.147V.248m0-.208A.192.192 0 01.206.032c.038 0 .067.008.086.025A.084.084 0 01.32.123C.32.153.308.175.284.19a.185.185 0 01-.102.024H.147V.04z"/></symbol><use xlink:href="#a" transform="matrix(11.8377 0 0 -11.8377 119.43 65.684)" fill="#231f20"/><use xlink:href="#b" transform="matrix(11.8377 0 0 -11.8377 127.832 65.777)" fill="#231f20"/><use xlink:href="#c" transform="matrix(11.8377 0 0 -11.8377 134.092 65.794)" fill="#231f20"/><use xlink:href="#d" transform="matrix(11.8377 0 0 -11.8377 139.191 65.684)" fill="#231f20"/><use xlink:href="#e" transform="matrix(11.8377 0 0 -11.8377 145.259 65.684)" fill="#231f20"/><use xlink:href="#f" transform="matrix(11.8377 0 0 -11.8377 148.617 65.846)" fill="#231f20"/><use xlink:href="#g" transform="matrix(11.8377 0 0 -11.8377 154.588 65.846)" fill="#231f20"/><use xlink:href="#h" transform="matrix(11.8377 0 0 -11.8377 160.567 65.846)" fill="#231f20"/><use xlink:href="#i" transform="matrix(11.8377 0 0 -11.8377 165.488 65.684)" fill="#231f20"/><use xlink:href="#j" transform="matrix(11.8377 0 0 -11.8377 171.03 65.846)" fill="#231f20"/><use xlink:href="#k" transform="matrix(11.8377 0 0 -11.8377 175.98 65.684)" fill="#231f20"/><use xlink:href="#j" transform="matrix(11.8377 0 0 -11.8377 184.313 65.846)" fill="#231f20"/><use xlink:href="#d" transform="matrix(11.8377 0 0 -11.8377 189.395 65.684)" fill="#231f20"/><use xlink:href="#d" transform="matrix(11.8377 0 0 -11.8377 195.728 65.684)" fill="#231f20"/><use xlink:href="#l" transform="matrix(11.8377 0 0 -11.8377 201.79 65.684)" fill="#231f20"/><use xlink:href="#a" transform="matrix(11.8377 0 0 -11.8377 385.79 66.667)" fill="#231f20"/><use xlink:href="#b" transform="matrix(11.8377 0 0 -11.8377 394.192 66.76)" fill="#231f20"/><use xlink:href="#c" transform="matrix(11.8377 0 0 -11.8377 400.452 66.777)" fill="#231f20"/><use xlink:href="#d" transform="matrix(11.8377 0 0 -11.8377 405.552 66.667)" fill="#231f20"/><use xlink:href="#e" transform="matrix(11.8377 0 0 -11.8377 411.619 66.667)" fill="#231f20"/><use xlink:href="#b" transform="matrix(11.8377 0 0 -11.8377 414.648 66.76)" fill="#231f20"/><use xlink:href="#m" transform="matrix(11.8377 0 0 -11.8377 420.832 66.667)" fill="#231f20"/><use xlink:href="#n" transform="matrix(11.8377 0 0 -11.8377 424.042 66.667)" fill="#231f20"/><use xlink:href="#o" transform="matrix(11.8377 0 0 -11.8377 429.433 69.222)" fill="#231f20"/><use xlink:href="#p" transform="matrix(11.8377 0 0 -11.8377 435.56 66.667)" fill="#231f20"/><use xlink:href="#c" transform="matrix(11.8377 0 0 -11.8377 441.138 66.777)" fill="#231f20"/><use xlink:href="#d" transform="matrix(11.8377 0 0 -11.8377 446.238 66.667)" fill="#231f20"/><use xlink:href="#d" transform="matrix(11.8377 0 0 -11.8377 452.57 66.667)" fill="#231f20"/><use xlink:href="#l" transform="matrix(11.8377 0 0 -11.8377 458.632 66.667)" fill="#231f20"/></svg>