<svg xmlns="http://www.w3.org/2000/svg" xmlns:xlink="http://www.w3.org/1999/xlink" width="793.707" height="559.373" viewBox="0 0 595.28 419.53"><path d="M45.105 51.1l517.155-.66zM44.447 70.23l517.813-.66z" fill="#231f20"/><path stroke-width=".552" stroke-miterlimit="10" fill="none" stroke="#231f20" d="M43.786 107.168l500.69 1.32M43.786 133.556l500.051.659M43.786 161.26l500.69 1.318M43.786 186.325l500.69 1.979M43.786 214.691l501.326 1.317M43.786 241.075l500.69 1.32M43.786 268.122l500.666 1.979M43.786 295.826l501.326.659"/><path stroke-width=".561" stroke-miterlimit="10" fill="none" stroke="#231f20" d="M117.007 80.125l.659 243.406M146.03 80.125l-.659 242.087M173.077 80.125v242.087M198.803 80.125V323.53M225.848 80.125V323.53M252.233 80.125l-.66 243.406M277.959 79.463v244.068M305.664 80.784l-1.32 242.087M332.049 80.125l.659 243.406M357.115 80.784l.66 243.406M385.48 79.463v243.408M411.864 80.125l-.659 242.746M438.91 80.125l-1.32 242.746M464.636 80.784l.659 242.087M489.702 79.463V324.19M518.727 80.125v242.087M545.771 79.463l-1.979 244.068"/><path stroke-width=".552" stroke-miterlimit="10" fill="none" stroke="#231f20" d="M545.771 79.463H43.127l1.32 243.408 499.345.66"/><path stroke-width=".419" stroke-miterlimit="10" fill="none" stroke="#231f20" d="M353.158 42.523h207.786"/><symbol id="a"><path d="M.105.853h.546V.834C.611.834.584.827.573.814.56.805.556.777.556.733V.365A.41.41 0 01.568.233C.576.217.602.208.647.208V0H.63a.293.293 0 01-.047.117.16.16 0 01-.074.059.294.294 0 01-.098.014H.24C.169.19.114.17.08.13A.254.254 0 01.017 0H0v.208c.052.005.095.036.128.095.033.058.056.13.068.214.013.085.02.155.02.21a.16.16 0 01-.013.07C.195.814.185.824.173.828a.286.286 0 01-.068.007v.019m.16-.037A1.937 1.937 0 00.217.41.49.49 0 00.126.227h.245c.044 0 .07.003.078.01.009.009.013.034.013.076v.503H.264z"/></symbol><symbol id="b"><path d="M.249.074A.737.737 0 00.163.012.132.132 0 00.106 0C.076 0 .05.01.03.032A.117.117 0 000 .115c0 .022.005.04.015.057a.194.194 0 00.069.062c.033.02.088.044.165.072v.017c0 .045-.007.075-.021.092C.214.432.193.44.166.44A.07.07 0 01.117.423.05.05 0 01.1.385V.357C.1.342.097.33.089.322A.039.039 0 00.058.31a.039.039 0 00-.03.013.05.05 0 00-.01.034c0 .028.013.054.042.078A.186.186 0 00.18.47.21.21 0 00.279.45.092.092 0 00.321.402.267.267 0 00.33.316V.165c0-.043 0-.07.002-.08C.334.077.336.07.34.068A.02.02 0 01.353.062c.005 0 .01.001.014.003l.04.036V.074C.37.024.334 0 .301 0a.047.047 0 00-.038.017C.254.028.249.047.249.074m0 .031v.17a.964.964 0 01-.095-.04.164.164 0 01-.055-.046.087.087 0 01-.017-.05c0-.024.007-.044.021-.06A.064.064 0 01.151.058C.176.057.21.073.25.105z"/></symbol><symbol id="c"><path d="M.148.248h.194v.094a.27.27 0 01-.004.055.037.037 0 01-.017.022C.312.426.297.43.274.43v.018H.49V.43A.108.108 0 01.446.422a.036.036 0 01-.019-.02.216.216 0 01-.005-.06V.105c0-.028.002-.047.004-.056A.039.039 0 01.444.026.096.096 0 01.49.018V0H.274v.018C.3.018.319.023.328.033c.01.01.014.034.014.072v.11H.148v-.11C.148.077.15.058.152.049A.039.039 0 01.17.026.096.096 0 01.216.018V0H0v.018c.029 0 .048.005.056.016.008.01.012.034.012.071v.237a.252.252 0 01-.004.056.035.035 0 01-.018.022A.096.096 0 010 .43v.018h.216V.43A.108.108 0 01.172.422a.036.036 0 01-.019-.02.216.216 0 01-.005-.06V.248z"/></symbol><symbol id="d"><path d="M.116.694A.046.046 0 00.15.68.046.046 0 00.165.645.048.048 0 00.15.61.046.046 0 00.116.595.048.048 0 00.08.61a.048.048 0 00-.015.035C.066.659.07.67.08.68c.01.01.022.014.036.014M.156.46V.101c0-.028.002-.047.006-.056A.045.045 0 01.18.025.098.098 0 01.224.017V0H.007v.018C.029.018.043.02.05.024a.042.042 0 01.017.02c.005.01.007.03.007.057v.172a.61.61 0 01-.004.095C.069.378.065.385.06.389A.03.03 0 01.04.396.098.098 0 01.007.388L0 .406.135.46h.021z"/></symbol><symbol id="f"><path d="M.216.474A.198.198 0 00.38.397.237.237 0 00.432.246c0-.04-.01-.081-.03-.122A.21.21 0 00.324.031.208.208 0 00.211 0a.19.19 0 00-.16.08A.25.25 0 000 .234c0 .04.01.082.03.122a.208.208 0 00.186.12M.201.441A.102.102 0 01.15.427.107.107 0 01.107.373a.26.26 0 01-.016-.1C.09.21.104.154.129.106.155.058.19.035.232.035.264.035.29.048.31.074.33.1.34.144.34.208.34.288.325.35.29.396A.106.106 0 01.2.442z"/></symbol><symbol id="g"><path d="M.035.333c.038.094.1.141.19.141a.19.19 0 00.152-.07c.04-.046.06-.1.06-.16a.266.266 0 00-.06-.168A.197.197 0 00.213 0a.177.177 0 00-.16.086A.39.39 0 000 .298a.557.557 0 00.088.306C.108.63.133.65.16.664a.39.39 0 00.145.02c.05 0 .08.002.09.004.01.003.02.01.03.02h.02A.159.159 0 00.404.64.123.123 0 00.356.612.491.491 0 00.262.603.41.41 0 01.16.592.136.136 0 01.102.548.244.244 0 01.055.457a.52.52 0 01-.02-.124m.173.108A.097.097 0 01.128.4C.108.372.097.33.097.272.097.194.11.135.139.095c.028-.04.06-.06.097-.06.034 0 .06.013.08.041.019.028.029.074.029.135 0 .066-.013.12-.038.164C.28.42.248.441.208.441z"/></symbol><symbol id="h"><path d="M.351.322H.333a.154.154 0 01-.037.086.097.097 0 01-.076.034C.187.442.16.427.138.395A.273.273 0 01.095.268H.24V.236H.092V.212C.092.147.105.1.13.072A.125.125 0 01.227.03C.282.03.328.056.365.11l.017-.01C.337.033.282 0 .217 0A.196.196 0 00.06.071.258.258 0 000 .243C0 .312.02.367.062.41a.19.19 0 00.14.064C.221.474.246.47.276.46A.167.167 0 01.312.452a.03.03 0 01.02.009h.02V.32z"/></symbol><symbol id="i"><path d="M.458 0H.326C.285.06.248.12.214.183a.155.155 0 01-.021.032.032.032 0 01-.026.01.27.27 0 01-.019 0v-.12C.148.073.15.052.154.043a.036.036 0 01.02-.02.146.146 0 01.05-.005V0H0v.018c.029 0 .048.005.056.016.008.01.012.034.012.071v.237a.187.187 0 01-.006.062.049.049 0 01-.016.017C.038.426.023.429 0 .429v.018h.224V.43a.126.126 0 01-.05-.006.08.08 0 01-.018-.015C.151.403.148.381.148.342V.254a.101.101 0 01.07.016c.019.011.034.035.048.072a.371.371 0 00.031.07c.009.012.02.021.035.029a.1.1 0 00.047.012A.065.065 0 00.42.44.04.04 0 00.437.407a.042.042 0 00-.012-.03.041.041 0 00-.031-.011.082.082 0 00-.027.006.103.103 0 01-.031.007C.32.379.309.366.299.34A.447.447 0 00.274.283a.204.204 0 00-.03-.034.08.08 0 00.033-.023.636.636 0 00.067-.103A.437.437 0 01.4.037.083.083 0 01.458.018V0z"/></symbol><symbol id="j"><path d="M.019.447h.386l.02-.12H.403a.14.14 0 01-.02.056.066.066 0 01-.03.026.197.197 0 01-.061.007h-.04V.105C.253.072.256.051.26.042a.032.032 0 01.02-.018A.294.294 0 01.34.018V0H.098v.018c.031 0 .051.006.06.015.01.01.014.034.014.072v.31h-.04A.2.2 0 01.075.41a.062.062 0 01-.03-.024.176.176 0 01-.023-.06H0l.019.121z"/></symbol><symbol id="k"><path d="M.148.138L.342.36c0 .025-.006.043-.014.053-.01.01-.024.014-.046.015v.018H.49V.43C.468.429.454.426.446.422A.05.05 0 01.43.406.17.17 0 01.422.342V.105C.422.07.424.05.428.043A.053.053 0 01.444.025C.452.021.467.018.49.018V0H.274v.018C.3.018.319.023.328.033c.01.01.014.034.014.072v.21L.148.091C.15.064.153.045.16.034.167.024.183.018.207.018V0H0v.018c.029 0 .048.005.056.016.008.01.012.034.012.071v.237a.187.187 0 01-.006.062.049.049 0 01-.016.017C.038.426.023.429 0 .429v.018h.216V.43C.194.429.18.426.172.422A.05.05 0 01.155.406.17.17 0 01.148.342V.138z"/></symbol><symbol id="l"><path d="M.292.236C.373.22.414.181.414.122A.1.1 0 00.363.03.279.279 0 00.22 0H0v.018c.029 0 .047.005.055.016.007.011.011.035.011.071v.237a.19.19 0 01-.005.062.046.046 0 01-.016.017C.038.426.023.429 0 .429v.018h.206c.04 0 .072-.003.096-.009a.114.114 0 00.06-.037.097.097 0 00.025-.066C.387.285.355.251.292.236M.147.248h.026C.218.247.25.255.27.271A.08.08 0 01.3.335C.3.363.29.384.27.396a.188.188 0 01-.097.02H.147V.248m0-.208A.192.192 0 01.206.032c.038 0 .067.008.086.025A.084.084 0 01.32.123C.32.153.308.175.284.19a.185.185 0 01-.102.024H.147V.04z"/></symbol><symbol id="m"><path d="M.37.447L.39.325H.367C.355.365.342.391.33.4.317.41.29.416.25.416H.156V.105C.156.07.158.05.16.043A.053.053 0 01.178.025C.186.021.2.018.224.018V0H0v.018c.032 0 .052.006.062.015.009.01.013.033.013.072v.237a.205.205 0 01-.005.06.034.034 0 01-.02.02A.15.15 0 010 .43v.018h.37z"/></symbol><symbol id="n"><path d="M.08.571h.394V.553C.452.553.437.55.43.546A.05.05 0 01.413.53.17.17 0 01.406.466v-.22C.406.198.41.17.418.158.426.15.445.143.474.142V0H.456a.146.146 0 01-.02.07.096.096 0 01-.05.042.275.275 0 01-.094.012H.177a.299.299 0 01-.084-.01.097.097 0 01-.05-.04A.162.162 0 01.017 0H0v.142c.027.001.05.012.073.032.022.02.04.06.057.118a.639.639 0 01.025.174C.155.522.13.551.08.553V.57M.187.54V.513C.188.353.16.233.102.156h.166c.03 0 .047.002.051.007.005.005.007.024.007.056v.32H.187z"/></symbol><symbol id="o"><path d="M.377.184a.244.244 0 00-.07-.137A.17.17 0 00.188 0a.172.172 0 00-.132.064A.251.251 0 000 .237c0 .07.02.127.063.171a.201.201 0 00.15.066C.257.474.293.462.322.44.35.416.364.392.364.367a.04.04 0 00-.012-.03A.046.046 0 00.32.324c-.02 0-.034.006-.044.019C.27.35.266.364.265.383a.063.063 0 01-.02.044.07.07 0 01-.048.014A.097.097 0 01.12.405.192.192 0 01.079.28c0-.054.013-.1.04-.142a.121.121 0 01.106-.06c.032 0 .06.01.086.032A.22.22 0 01.363.19L.377.184z"/></symbol><symbol id="p"><path d="M.071.455h.4V.437C.45.437.434.434.427.43A.05.05 0 01.41.414.17.17 0 01.403.35V.113C.403.078.405.058.41.05A.053.053 0 01.425.033C.433.028.448.026.471.026V.008H.24v.018c.025 0 .042.001.052.004.01.002.017.009.022.018.006.01.009.032.009.065v.31h-.15V.235a.786.786 0 00-.009-.15A.103.103 0 00.126.02.105.105 0 00.062 0C.021 0 0 .017 0 .052 0 .063.003.073.01.08a.034.034 0 00.026.01.045.045 0 00.032-.013C.08.065.09.059.097.059.11.06.122.071.128.096c.007.024.01.068.01.13v.098c0 .05-.003.081-.01.093C.12.427.101.434.07.437v.018z"/></symbol><symbol id="q"><path d="M.224 0v.018c.03.003.05.011.058.024.008.013.012.04.012.081v.102C.272.225.258.222.25.217A.205.205 0 01.216.162L.132 0H0v.018c.023.002.04.008.052.02a.322.322 0 01.047.076c.03.061.053.098.067.11.014.014.029.02.045.022C.19.255.172.281.155.326a.213.213 0 01-.02.042.023.023 0 01-.02.01A.073.073 0 01.09.372.1.1 0 00.056.363a.038.038 0 00-.031.013.047.047 0 00-.011.032c0 .015.005.025.017.033a.07.07 0 00.04.012.086.086 0 00.064-.024A.226.226 0 00.18.344C.195.306.211.28.23.27A.115.115 0 01.294.25v.073C.294.366.29.394.28.406.272.418.253.426.224.429v.018h.22V.43C.416.425.397.418.389.405.379.393.375.365.375.325V.25c.026 0 .047.006.065.018.018.011.033.037.047.075.018.05.036.081.055.092a.11.11 0 00.055.017C.616.453.63.448.64.439A.04.04 0 00.655.41.047.047 0 00.644.375a.038.038 0 00-.03-.013.1.1 0 00-.035.01.071.071 0 01-.023.005.025.025 0 01-.022-.01.213.213 0 01-.02-.042C.497.281.478.255.458.246A.074.074 0 00.504.224.489.489 0 00.57.116.334.334 0 01.617.037.082.082 0 01.67.018V0H.537L.453.162a.194.194 0 01-.036.055C.411.222.397.225.375.225V.123C.375.076.38.048.389.038.4.028.417.022.445.018V0h-.22z"/></symbol><symbol id="r"><path d="M.07.292A.23.23 0 01.117.136.147.147 0 01.232.08c.03 0 .055.008.077.024a.18.18 0 01.054.083l.015-.01a.234.234 0 00-.06-.122A.16.16 0 00.196 0c-.053 0-.1.02-.138.063A.242.242 0 000 .23c0 .077.02.137.059.18.039.042.088.064.148.064.05 0 .09-.017.123-.05A.18.18 0 00.378.292H.07m0 .029h.207a.191.191 0 01-.01.06.096.096 0 01-.037.043.09.09 0 01-.05.016.101.101 0 01-.073-.032A.136.136 0 01.07.321z"/></symbol><symbol id="s"><path d="M.438.447V.43A.094.094 0 01.393.42.04.04 0 01.375.4.224.224 0 01.37.341V.105C.37.077.371.058.374.049A.039.039 0 01.393.027.093.093 0 01.438.018V0H.222v.018c.027 0 .045.005.054.015.009.01.014.034.014.072v.097H.254L.11 0H0v.018c.016 0 .028.002.034.006a.225.225 0 01.035.044l.105.147C.099.241.062.281.062.335a.1.1 0 00.04.079c.027.022.072.033.137.033h.199M.29.41a.133.133 0 01-.037.006C.221.416.196.407.18.39A.08.08 0 01.155.333C.155.304.167.281.19.262a.134.134 0 01.1-.028V.41z"/></symbol><symbol id="t"><path d="M0 0v.021C.034.033.06.05.078.073a.116.116 0 01.027.074.027.027 0 01-.004.016C.1.166.097.167.094.167a.071.071 0 01-.023-.01.04.04 0 00-.019-.004.051.051 0 00-.038.014.053.053 0 00-.014.04c0 .015.006.029.018.04a.064.064 0 00.045.017c.021 0 .04-.01.057-.028A.106.106 0 00.146.162.144.144 0 00.11.068.228.228 0 000 0z"/></symbol><symbol id="u"><path d="M.03.32v.14h.02A.029.029 0 01.07.454a.18.18 0 01.035.008.29.29 0 00.076.013C.224.474.26.464.29.444A.092.092 0 00.332.365c0-.05-.038-.087-.115-.11C.307.237.351.195.351.13A.12.12 0 00.308.04C.28.012.238 0 .183 0a.223.223 0 00-.095.019A.358.358 0 000 .084l.013.013A.253.253 0 01.165.035c.027 0 .05.01.067.028a.1.1 0 01.026.072c0 .065-.042.1-.125.103v.029c.04 0 .068.01.085.03a.103.103 0 01.027.069c0 .02-.008.04-.023.055a.078.078 0 01-.06.024C.104.445.066.404.047.321H.029z"/></symbol><symbol id="v"><path d="M.725.018V0H0v.018c.027 0 .045.005.054.015.01.01.014.034.014.072v.237a.187.187 0 01-.006.062.049.049 0 01-.016.017C.038.426.023.429 0 .429v.018h.216V.43C.194.429.18.426.172.422A.05.05 0 01.155.406.17.17 0 01.148.342V.096c0-.031.003-.05.009-.055C.162.035.18.03.212.03h.053C.286.032.3.034.306.036A.02.02 0 01.32.048a.255.255 0 01.003.057v.237a.19.19 0 01-.005.062A.046.046 0 01.3.42C.292.426.277.43.254.43v.018h.208V.43a.075.075 0 01-.039-.01A.038.038 0 01.407.4.248.248 0 01.403.342V.09C.403.062.406.045.41.04.417.034.434.032.462.032h.059c.031 0 .048.003.051.01a.23.23 0 01.005.06v.24A.187.187 0 01.57.404.049.049 0 01.555.42C.547.426.532.429.509.429v.018h.216V.43C.703.429.688.426.681.422A.05.05 0 01.664.406.17.17 0 01.657.342v-.21C.657.087.658.06.661.05A.036.036 0 01.678.027.107.107 0 01.725.018z"/></symbol><symbol id="w"><path d="M.085.626c0 .012.003.021.01.028.006.007.014.01.024.01.021 0 .04-.02.057-.06.01-.023.02-.037.032-.043A.088.088 0 01.244.553c.02 0 .036.004.047.013A.12.12 0 01.32.613c.013.034.03.051.05.051.01 0 .018-.004.025-.01a.035.035 0 00.01-.027C.405.602.39.58.356.557a.198.198 0 00-.11-.032.204.204 0 00-.121.03c-.027.02-.04.043-.04.071M.148.138L.342.36c0 .025-.006.043-.014.053-.01.01-.024.014-.046.015v.018H.49V.43C.468.429.454.426.446.422A.05.05 0 01.43.406.17.17 0 01.422.342V.105C.422.07.424.05.428.043A.053.053 0 01.444.025C.452.021.467.018.49.018V0H.274v.018C.3.018.319.023.328.033c.01.01.014.034.014.072v.21L.148.091C.15.064.153.045.16.034.167.024.183.018.207.018V0H0v.018c.029 0 .048.005.056.016.008.01.012.034.012.071v.237a.187.187 0 01-.006.062.049.049 0 01-.016.017C.038.426.023.429 0 .429v.018h.216V.43C.194.429.18.426.172.422A.05.05 0 01.155.406.17.17 0 01.148.342V.138z"/></symbol><symbol id="x"><path d="M0 .663h.208V.645h-.01C.184.645.173.642.165.635a.03.03 0 01-.01-.023C.154.599.16.582.17.559L.28.333l.1.248a.103.103 0 01.008.04c0 .005-.001.01-.004.012a.025.025 0 01-.012.009.086.086 0 01-.03.003v.018h.146V.645A.07.07 0 01.46.637.08.08 0 01.44.615.305.305 0 01.422.578L.24.13A.23.23 0 00.17.033.135.135 0 00.09 0a.068.068 0 00-.047.017.05.05 0 00-.02.038c0 .013.005.024.014.033C.046.096.058.1.073.1.084.1.1.097.117.09A.105.105 0 01.142.081c.01 0 .02.005.031.015.012.01.024.03.035.059L.24.233.08.571a.27.27 0 01-.044.06A.11.11 0 010 .645v.018z"/></symbol><symbol id="y"><path d="M.055.475A.051.051 0 00.093.458.051.051 0 00.11.42.053.053 0 00.093.382.052.052 0 00.055.366.053.053 0 00.001.42c0 .015.005.028.016.038.01.011.023.017.038.017m0-.366A.052.052 0 00.092.093.053.053 0 00.109.054.053.053 0 00.093.016.053.053 0 00.054 0 .053.053 0 000 .054C0 .07.005.082.016.093c.01.01.023.016.038.016z"/></symbol><use xlink:href="#a" transform="matrix(11.8735 0 0 -11.8735 44.98 47.752)" fill="#231f20"/><use xlink:href="#b" transform="matrix(11.8735 0 0 -11.8735 53.351 45.601)" fill="#231f20"/><use xlink:href="#c" transform="matrix(11.8735 0 0 -11.8735 58.466 45.49)" fill="#231f20"/><use xlink:href="#d" transform="matrix(11.8735 0 0 -11.8735 64.9 45.49)" fill="#231f20"/><use xlink:href="#e" transform="matrix(11.8735 0 0 -11.8735 67.853 45.49)" fill="#231f20"/><use xlink:href="#f" transform="matrix(11.8735 0 0 -11.8735 71.221 45.653)" fill="#231f20"/><use xlink:href="#g" transform="matrix(11.8735 0 0 -11.8735 77.21 45.653)" fill="#231f20"/><use xlink:href="#e" transform="matrix(11.8735 0 0 -11.8735 82.802 45.49)" fill="#231f20"/><use xlink:href="#h" transform="matrix(11.8735 0 0 -11.8735 86.176 45.653)" fill="#231f20"/><use xlink:href="#i" transform="matrix(11.8735 0 0 -11.8735 91.13 45.49)" fill="#231f20"/><use xlink:href="#j" transform="matrix(11.8735 0 0 -11.8735 96.55 45.49)" fill="#231f20"/><use xlink:href="#k" transform="matrix(11.8735 0 0 -11.8735 101.935 45.49)" fill="#231f20"/><use xlink:href="#l" transform="matrix(11.8735 0 0 -11.8735 108.3 45.49)" fill="#231f20"/><use xlink:href="#c" transform="matrix(11.8735 0 0 -11.8735 113.892 45.49)" fill="#231f20"/><use xlink:href="#f" transform="matrix(11.8735 0 0 -11.8735 120.378 45.653)" fill="#231f20"/><use xlink:href="#m" transform="matrix(11.8735 0 0 -11.8735 126.094 45.49)" fill="#231f20"/><use xlink:href="#f" transform="matrix(11.8735 0 0 -11.8735 130.886 45.653)" fill="#231f20"/><use xlink:href="#e" transform="matrix(11.8735 0 0 -11.8735 136.422 45.49)" fill="#231f20"/><use xlink:href="#n" transform="matrix(11.8735 0 0 -11.8735 139.541 46.963)" fill="#231f20"/><use xlink:href="#f" transform="matrix(11.8735 0 0 -11.8735 145.834 45.653)" fill="#231f20"/><use xlink:href="#o" transform="matrix(11.8735 0 0 -11.8735 152.074 45.653)" fill="#231f20"/><use xlink:href="#p" transform="matrix(11.8735 0 0 -11.8735 157.01 45.584)" fill="#231f20"/><use xlink:href="#d" transform="matrix(11.8735 0 0 -11.8735 163.212 45.49)" fill="#231f20"/><use xlink:href="#n" transform="matrix(11.8735 0 0 -11.8735 166.316 46.963)" fill="#231f20"/><use xlink:href="#q" transform="matrix(11.8735 0 0 -11.8735 172.342 45.49)" fill="#231f20"/><use xlink:href="#r" transform="matrix(11.8735 0 0 -11.8735 180.7 45.653)" fill="#231f20"/><use xlink:href="#c" transform="matrix(11.8735 0 0 -11.8735 185.798 45.49)" fill="#231f20"/><use xlink:href="#c" transform="matrix(11.8735 0 0 -11.8735 192.15 45.49)" fill="#231f20"/><use xlink:href="#s" transform="matrix(11.8735 0 0 -11.8735 198.23 45.49)" fill="#231f20"/><use xlink:href="#t" transform="matrix(11.8735 0 0 -11.8735 204.335 47.468)" fill="#231f20"/><use xlink:href="#e" transform="matrix(11.8735 0 0 -11.8735 206.666 45.49)" fill="#231f20"/><use xlink:href="#u" transform="matrix(11.8735 0 0 -11.8735 209.773 45.653)" fill="#231f20"/><use xlink:href="#f" transform="matrix(11.8735 0 0 -11.8735 214.653 45.653)" fill="#231f20"/><use xlink:href="#l" transform="matrix(11.8735 0 0 -11.8735 220.468 45.49)" fill="#231f20"/><use xlink:href="#c" transform="matrix(11.8735 0 0 -11.8735 226.06 45.49)" fill="#231f20"/><use xlink:href="#d" transform="matrix(11.8735 0 0 -11.8735 232.494 45.49)" fill="#231f20"/><use xlink:href="#v" transform="matrix(11.8735 0 0 -11.8735 235.714 45.49)" fill="#231f20"/><use xlink:href="#c" transform="matrix(11.8735 0 0 -11.8735 244.857 45.49)" fill="#231f20"/><use xlink:href="#d" transform="matrix(11.8735 0 0 -11.8735 251.29 45.49)" fill="#231f20"/><use xlink:href="#w" transform="matrix(11.8735 0 0 -11.8735 254.51 45.49)" fill="#231f20"/><use xlink:href="#e" transform="matrix(11.8735 0 0 -11.8735 260.595 45.49)" fill="#231f20"/><use xlink:href="#f" transform="matrix(11.8735 0 0 -11.8735 263.964 45.653)" fill="#231f20"/><use xlink:href="#m" transform="matrix(11.8735 0 0 -11.8735 269.68 45.49)" fill="#231f20"/><use xlink:href="#p" transform="matrix(11.8735 0 0 -11.8735 273.833 45.584)" fill="#231f20"/><use xlink:href="#s" transform="matrix(11.8735 0 0 -11.8735 279.682 45.49)" fill="#231f20"/><use xlink:href="#n" transform="matrix(11.8735 0 0 -11.8735 285.3 46.963)" fill="#231f20"/><use xlink:href="#t" transform="matrix(11.8735 0 0 -11.8735 291.831 47.468)" fill="#231f20"/><use xlink:href="#e" transform="matrix(11.8735 0 0 -11.8735 294.162 45.49)" fill="#231f20"/><use xlink:href="#o" transform="matrix(11.8735 0 0 -11.8735 297.536 45.653)" fill="#231f20"/><use xlink:href="#j" transform="matrix(11.8735 0 0 -11.8735 302.471 45.49)" fill="#231f20"/><use xlink:href="#b" transform="matrix(11.8735 0 0 -11.8735 308.156 45.601)" fill="#231f20"/><use xlink:href="#c" transform="matrix(11.8735 0 0 -11.8735 313.272 45.49)" fill="#231f20"/><use xlink:href="#e" transform="matrix(11.8735 0 0 -11.8735 319.357 45.49)" fill="#231f20"/><use xlink:href="#u" transform="matrix(11.8735 0 0 -11.8735 322.465 45.653)" fill="#231f20"/><use xlink:href="#x" transform="matrix(11.8735 0 0 -11.8735 326.836 48.053)" fill="#231f20"/><use xlink:href="#g" transform="matrix(11.8735 0 0 -11.8735 333.001 45.653)" fill="#231f20"/><use xlink:href="#d" transform="matrix(11.8735 0 0 -11.8735 338.94 45.49)" fill="#231f20"/><use xlink:href="#l" transform="matrix(11.8735 0 0 -11.8735 342.171 45.49)" fill="#231f20"/><use xlink:href="#y" transform="matrix(11.8735 0 0 -11.8735 348.518 45.653)" fill="#231f20"/><use xlink:href="#a" transform="matrix(11.8735 0 0 -11.8735 49.623 205.076)" fill="#231f20"/><use xlink:href="#b" transform="matrix(11.8735 0 0 -11.8735 57.994 202.925)" fill="#231f20"/><use xlink:href="#j" transform="matrix(11.8735 0 0 -11.8735 62.603 202.815)" fill="#231f20"/><use xlink:href="#b" transform="matrix(11.8735 0 0 -11.8735 68.288 202.925)" fill="#231f20"/><use xlink:href="#e" transform="matrix(11.8735 0 0 -11.8735 73.137 202.815)" fill="#231f20"/><use xlink:href="#f" transform="matrix(11.8735 0 0 -11.8735 76.505 202.977)" fill="#231f20"/><use xlink:href="#m" transform="matrix(11.8735 0 0 -11.8735 82.221 202.815)" fill="#231f20"/><use xlink:href="#p" transform="matrix(11.8735 0 0 -11.8735 86.374 202.908)" fill="#231f20"/><use xlink:href="#s" transform="matrix(11.8735 0 0 -11.8735 92.223 202.815)" fill="#231f20"/><use xlink:href="#n" transform="matrix(11.8735 0 0 -11.8735 97.842 204.287)" fill="#231f20"/><use xlink:href="#d" transform="matrix(11.8735 0 0 -11.8735 104.082 202.815)" fill="#231f20"/><use xlink:href="#l" transform="matrix(11.8735 0 0 -11.8735 107.314 202.815)" fill="#231f20"/><symbol id="z"><path d="M.131.345A.463.463 0 00.03.45a.16.16 0 00-.023.08c0 .044.017.08.05.112A.185.185 0 00.19.687.187.187 0 00.32.644a.13.13 0 00.048-.1A.134.134 0 00.341.47.383.383 0 00.23.38.623.623 0 00.345.273.173.173 0 00.382.169a.158.158 0 00-.053-.12A.197.197 0 00.189 0a.187.187 0 00-.147.06A.153.153 0 000 .162C0 .192.01.22.03.25.05.278.082.31.13.345m.077.052A.35.35 0 01.282.48a.15.15 0 01.016.07c0 .034-.01.06-.029.08A.105.105 0 01.19.66.115.115 0 01.11.63.089.089 0 01.077.563c0-.017.004-.034.013-.05a.187.187 0 01.037-.05l.08-.066M.154.327a.228.228 0 01-.06-.075.196.196 0 01-.02-.087C.075.123.087.089.11.064A.114.114 0 01.197.026c.035 0 .063.01.084.03.021.02.032.044.032.072a.111.111 0 01-.019.063.699.699 0 01-.14.136z"/></symbol><symbol id="A"><path d="M.063.676h.355V.657L.198 0H.143l.198.596H.159A.17.17 0 01.08.583a.164.164 0 01-.066-.07L0 .52l.063.157z"/></symbol><symbol id="B"><path d="M.405.688V.668A.32.32 0 01.3.644.295.295 0 01.22.585.38.38 0 01.152.497.53.53 0 01.11.38.248.248 0 00.25.43.154.154 0 00.369.375a.2.2 0 00.05-.14.25.25 0 00-.05-.152A.189.189 0 00.207 0a.161.161 0 00-.115.045A.297.297 0 000 .27a.438.438 0 00.264.395c.04.014.078.021.113.021h.028M.102.346a.843.843 0 01-.01-.107C.093.208.099.174.11.137A.201.201 0 01.162.05a.086.086 0 01.06-.023c.028 0 .054.014.076.04a.173.173 0 01.034.115.298.298 0 01-.034.144C.276.366.245.387.204.387A.118.118 0 01.164.38.395.395 0 01.102.346z"/></symbol><use xlink:href="#z" transform="matrix(11.8735 0 0 -11.8735 131.252 205.4)" fill="#231f20"/><use xlink:href="#z" transform="matrix(11.8735 0 0 -11.8735 528.515 205.4)" fill="#231f20"/><use xlink:href="#A" transform="matrix(11.8735 0 0 -11.8735 156.692 205.423)" fill="#231f20"/><use xlink:href="#A" transform="matrix(11.8735 0 0 -11.8735 500.524 205.423)" fill="#231f20"/><use xlink:href="#B" transform="matrix(11.8735 0 0 -11.8735 182.48 205.4)" fill="#231f20"/><use xlink:href="#B" transform="matrix(11.8735 0 0 -11.8735 475.03 205.4)" fill="#231f20"/><path stroke-width=".372" stroke-miterlimit="10" fill="none" stroke="#231f20" d="M212.438 198.168l4.272 8.534 3.694-8.411"/><symbol id="C"><path d="M.386.674L.348.59h-.2L.106.502A.349.349 0 00.311.406.216.216 0 00.375.25.22.22 0 00.354.153.257.257 0 00.229.027.264.264 0 00.114 0C.074 0 .045.007.027.02.009.034 0 .049 0 .065c0 .01.004.017.011.024a.04.04 0 00.029.01.056.056 0 00.022-.003.198.198 0 00.032-.02A.13.13 0 01.168.05c.039 0 .072.015.1.043A.144.144 0 01.313.2c0 .04-.013.077-.039.112a.247.247 0 01-.106.08.432.432 0 01-.145.026l.127.257h.237z"/></symbol><symbol id="D"><path d="M.27.018V0a.466.466 0 00-.232.254.538.538 0 00.037.475.43.43 0 00.195.18V.887a.28.28 0 01-.1-.091A.42.42 0 01.114.65 1.029 1.029 0 01.11.276.498.498 0 01.141.168.35.35 0 01.27.018z"/></symbol><symbol id="E"><path d="M0 .888v.02A.456.456 0 00.231.654.535.535 0 00.195.18.427.427 0 000 0v.018C.04.041.073.071.099.11a.403.403 0 01.057.146A1.034 1.034 0 01.16.63.355.355 0 010 .888z"/></symbol><use xlink:href="#C" transform="matrix(11.8735 0 0 -11.8735 202.424 205.399)" fill="#231f20"/><use xlink:href="#D" transform="matrix(11.8735 0 0 -11.8735 208.28 207.799)" fill="#231f20"/><use xlink:href="#e" transform="matrix(11.8735 0 0 -11.8735 211.746 205.26)" fill="#231f20"/><use xlink:href="#e" transform="matrix(11.8735 0 0 -11.8735 214.714 205.26)" fill="#231f20"/><use xlink:href="#e" transform="matrix(11.8735 0 0 -11.8735 217.683 205.26)" fill="#231f20"/><use xlink:href="#E" transform="matrix(11.8735 0 0 -11.8735 220.918 207.799)" fill="#231f20"/><path stroke-width=".372" stroke-miterlimit="10" fill="none" stroke="#231f20" d="M450.567 198.168l4.272 8.534 3.695-8.411"/><use xlink:href="#C" transform="matrix(11.8735 0 0 -11.8735 440.554 205.399)" fill="#231f20"/><use xlink:href="#D" transform="matrix(11.8735 0 0 -11.8735 446.41 207.799)" fill="#231f20"/><use xlink:href="#e" transform="matrix(11.8735 0 0 -11.8735 449.876 205.26)" fill="#231f20"/><use xlink:href="#e" transform="matrix(11.8735 0 0 -11.8735 452.844 205.26)" fill="#231f20"/><use xlink:href="#e" transform="matrix(11.8735 0 0 -11.8735 455.813 205.26)" fill="#231f20"/><use xlink:href="#E" transform="matrix(11.8735 0 0 -11.8735 459.048 207.799)" fill="#231f20"/><path stroke-width=".372" stroke-miterlimit="10" fill="none" stroke="#231f20" d="M239.482 198.168l4.272 8.534 3.695-8.411"/><path stroke-width=".561" stroke-miterlimit="10" fill="none" stroke="#231f20" d="M238.38 198.128v8.738"/><symbol id="F"><path d="M.45.244v-.07H.36V0H.28v.175H0v.062l.307.439h.054V.244H.45m-.17 0v.329L.048.244H.28z"/></symbol><use xlink:href="#F" transform="matrix(11.8735 0 0 -11.8735 228.593 205.26)" fill="#231f20"/><use xlink:href="#D" transform="matrix(11.8735 0 0 -11.8735 234.83 207.799)" fill="#231f20"/><use xlink:href="#e" transform="matrix(11.8735 0 0 -11.8735 238.298 205.26)" fill="#231f20"/><use xlink:href="#e" transform="matrix(11.8735 0 0 -11.8735 241.266 205.26)" fill="#231f20"/><use xlink:href="#e" transform="matrix(11.8735 0 0 -11.8735 244.235 205.26)" fill="#231f20"/><use xlink:href="#E" transform="matrix(11.8735 0 0 -11.8735 247.47 207.799)" fill="#231f20"/><path stroke-width=".372" stroke-miterlimit="10" fill="none" stroke="#231f20" d="M424.51 198.168l4.274 8.534 3.695-8.411"/><path stroke-width=".561" stroke-miterlimit="10" fill="none" stroke="#231f20" d="M423.41 198.128v8.738"/><use xlink:href="#F" transform="matrix(11.8735 0 0 -11.8735 413.62 205.26)" fill="#231f20"/><use xlink:href="#D" transform="matrix(11.8735 0 0 -11.8735 419.858 207.799)" fill="#231f20"/><use xlink:href="#e" transform="matrix(11.8735 0 0 -11.8735 423.325 205.26)" fill="#231f20"/><use xlink:href="#e" transform="matrix(11.8735 0 0 -11.8735 426.294 205.26)" fill="#231f20"/><use xlink:href="#e" transform="matrix(11.8735 0 0 -11.8735 429.262 205.26)" fill="#231f20"/><use xlink:href="#E" transform="matrix(11.8735 0 0 -11.8735 432.497 207.799)" fill="#231f20"/><path stroke-width=".561" stroke-miterlimit="10" fill="none" stroke="#231f20" d="M271.732 198.29v8.412M268.435 198.29v8.329M265.59 198.332l-.124 8.35"/><symbol id="G"><path d="M.01.548A.268.268 0 00.082.65a.162.162 0 00.107.036.149.149 0 00.123-.051.127.127 0 00.032-.083c0-.048-.03-.098-.091-.15A.197.197 0 00.345.336.177.177 0 00.376.231.22.22 0 00.322.082C.274.027.205 0 .115 0 .071 0 .04.006.024.017.008.027 0 .04 0 .052c0 .01.004.018.011.025a.04.04 0 00.028.01.084.084 0 00.025-.003.285.285 0 00.038-.018.245.245 0 01.04-.018.135.135 0 01.039-.006c.033 0 .062.013.086.04a.127.127 0 01.037.09A.176.176 0 01.26.29a.199.199 0 01-.057.035.184.184 0 01-.075.016H.111v.015a.2.2 0 01.077.028.147.147 0 01.057.055.145.145 0 01.018.07.108.108 0 01-.11.113C.103.621.06.594.026.54L.01.548z"/></symbol><use xlink:href="#G" transform="matrix(11.8735 0 0 -11.8735 254.82 205.399)" fill="#231f20"/><use xlink:href="#D" transform="matrix(11.8735 0 0 -11.8735 260.763 207.799)" fill="#231f20"/><use xlink:href="#e" transform="matrix(11.8735 0 0 -11.8735 264.23 205.26)" fill="#231f20"/><use xlink:href="#e" transform="matrix(11.8735 0 0 -11.8735 267.198 205.26)" fill="#231f20"/><use xlink:href="#e" transform="matrix(11.8735 0 0 -11.8735 270.166 205.26)" fill="#231f20"/><use xlink:href="#E" transform="matrix(11.8735 0 0 -11.8735 273.401 207.799)" fill="#231f20"/><path stroke-width=".561" stroke-miterlimit="10" fill="none" stroke="#231f20" d="M404.32 198.29v8.412M401.023 198.29v8.329M398.178 198.332l-.124 8.35"/><use xlink:href="#G" transform="matrix(11.8735 0 0 -11.8735 387.407 205.399)" fill="#231f20"/><use xlink:href="#D" transform="matrix(11.8735 0 0 -11.8735 393.35 207.799)" fill="#231f20"/><use xlink:href="#e" transform="matrix(11.8735 0 0 -11.8735 396.816 205.26)" fill="#231f20"/><use xlink:href="#e" transform="matrix(11.8735 0 0 -11.8735 399.785 205.26)" fill="#231f20"/><use xlink:href="#e" transform="matrix(11.8735 0 0 -11.8735 402.753 205.26)" fill="#231f20"/><use xlink:href="#E" transform="matrix(11.8735 0 0 -11.8735 405.988 207.799)" fill="#231f20"/><path stroke-width=".561" stroke-miterlimit="10" fill="none" stroke="#231f20" d="M296.882 197.838v8.409M294.656 197.96v8.412"/><symbol id="H"><path d="M.437.127L.391 0H0v.018c.115.105.196.19.243.257.047.066.07.127.07.182a.144.144 0 01-.039.104.123.123 0 01-.092.04.144.144 0 01-.088-.029A.165.165 0 01.037.49H.02c.008.06.029.106.063.138a.176.176 0 00.126.049.186.186 0 00.134-.052.163.163 0 00.054-.122.236.236 0 00-.023-.1.663.663 0 00-.117-.168 3.477 3.477 0 00-.152-.16h.173c.035 0 .06.001.074.004a.099.099 0 01.038.015c.012.008.021.02.03.034h.018z"/></symbol><use xlink:href="#H" transform="matrix(11.8735 0 0 -11.8735 283.29 205.26)" fill="#231f20"/><use xlink:href="#D" transform="matrix(11.8735 0 0 -11.8735 289.458 207.799)" fill="#231f20"/><use xlink:href="#e" transform="matrix(11.8735 0 0 -11.8735 292.925 205.26)" fill="#231f20"/><use xlink:href="#e" transform="matrix(11.8735 0 0 -11.8735 295.893 205.26)" fill="#231f20"/><use xlink:href="#E" transform="matrix(11.8735 0 0 -11.8735 299.128 207.799)" fill="#231f20"/><path stroke-width=".561" stroke-miterlimit="10" fill="none" stroke="#231f20" d="M375.379 197.838v8.409M373.153 197.96v8.412"/><use xlink:href="#H" transform="matrix(11.8735 0 0 -11.8735 361.786 205.26)" fill="#231f20"/><use xlink:href="#D" transform="matrix(11.8735 0 0 -11.8735 367.955 207.799)" fill="#231f20"/><use xlink:href="#e" transform="matrix(11.8735 0 0 -11.8735 371.422 205.26)" fill="#231f20"/><use xlink:href="#e" transform="matrix(11.8735 0 0 -11.8735 374.39 205.26)" fill="#231f20"/><use xlink:href="#E" transform="matrix(11.8735 0 0 -11.8735 377.625 207.799)" fill="#231f20"/><path stroke-width=".561" stroke-miterlimit="10" fill="none" stroke="#231f20" d="M319.967 198.332v8.286"/><symbol id="I"><path d="M0 .597l.161.079h.016v-.56C.177.08.18.057.182.048a.037.037 0 01.02-.02A.164.164 0 01.26.017V0H.01v.018c.032 0 .052.003.061.008.01.005.016.011.02.019a.262.262 0 01.005.072v.357c0 .048-.002.08-.005.093A.038.038 0 01.079.59a.032.032 0 01-.021.007.13.13 0 01-.05-.015L0 .597z"/></symbol><use xlink:href="#I" transform="matrix(11.8735 0 0 -11.8735 309.984 205.257)" fill="#231f20"/><use xlink:href="#D" transform="matrix(11.8735 0 0 -11.8735 315.017 207.797)" fill="#231f20"/><use xlink:href="#e" transform="matrix(11.8735 0 0 -11.8735 318.483 205.257)" fill="#231f20"/><use xlink:href="#E" transform="matrix(11.8735 0 0 -11.8735 321.719 207.797)" fill="#231f20"/><path stroke-width=".561" stroke-miterlimit="10" fill="none" stroke="#231f20" d="M346.682 198.332v8.286"/><use xlink:href="#I" transform="matrix(11.8735 0 0 -11.8735 336.699 205.257)" fill="#231f20"/><use xlink:href="#D" transform="matrix(11.8735 0 0 -11.8735 341.731 207.797)" fill="#231f20"/><use xlink:href="#e" transform="matrix(11.8735 0 0 -11.8735 345.198 205.257)" fill="#231f20"/><use xlink:href="#E" transform="matrix(11.8735 0 0 -11.8735 348.433 207.797)" fill="#231f20"/><symbol id="J"><path d="M.495.677h.221V.66A.087.087 0 01.66.634a.407.407 0 01-.056-.09L.398.14A.314.314 0 00.314.022.153.153 0 00.23 0C.194 0 .168.01.15.029a.092.092 0 00-.027.064.065.065 0 00.066.066C.207.16.219.156.228.147.236.136.24.12.245.096.249.07.26.056.279.056c.023 0 .045.021.066.065l.009.02-.237.43a.226.226 0 01-.053.07A.123.123 0 010 .66v.017h.33V.66H.317C.28.66.26.65.26.632c0-.007.003-.017.01-.03L.437.3l.126.247A.194.194 0 01.587.62c0 .01-.005.02-.015.027C.562.654.536.658.495.659v.018z"/></symbol><symbol id="K"><path d="M0 .457h.19L.308.173l.115.284h.186V.438C.59.438.578.432.57.422.563.412.56.396.56.372V.086C.56.062.561.044.57.034.575.024.59.02.607.018V0h-.24v.018c.02 0 .034.006.042.016s.012.028.012.053V.38L.263 0H.238L.084.375V.08c0-.022.004-.037.01-.046C.103.024.117.019.138.018V0H0v.018c.018 0 .031.006.039.015.007.01.011.027.011.05v.292C.05.397.047.413.04.422.031.432.018.438 0 .438v.019z"/></symbol><symbol id="L"><path d="M.213.484c.04 0 .077-.01.11-.03.035-.021.06-.05.078-.088A.286.286 0 00.428.242a.262.262 0 00-.05-.163A.195.195 0 00.215 0a.188.188 0 00-.158.072A.267.267 0 000 .24a.27.27 0 00.057.17c.038.05.09.074.156.074M.215.449A.057.057 0 01.172.43C.16.418.152.393.148.356A1.687 1.687 0 01.143.202C.143.167.145.135.15.104A.094.094 0 01.173.052a.054.054 0 01.04-.018C.228.034.24.038.25.046a.082.082 0 01.025.046 1.127 1.127 0 010 .302.087.087 0 01-.027.045.051.051 0 01-.033.01z"/></symbol><symbol id="M"><path d="M0 .457h.252c.053 0 .096-.01.13-.03a.091.091 0 00.05-.084C.432.293.397.26.327.241.421.231.468.191.468.123A.099.099 0 00.411.031.333.333 0 00.254 0H0v.018C.022.02.036.026.042.034.047.042.05.058.05.082v.272C.05.39.047.414.04.422.036.432.022.437 0 .438v.019M.193.253C.271.255.31.284.31.339.31.396.27.425.193.426V.253m0-.03v-.15C.193.056.196.045.201.04.206.033.216.03.232.03c.028 0 .051.01.07.03a.1.1 0 01.03.072C.331.164.32.186.298.201.278.215.243.222.193.222z"/></symbol><symbol id="N"><path d="M0 0v.018c.019 0 .032.005.04.014C.047.042.05.06.05.087v.28c0 .03-.003.048-.011.057C.033.434.02.438 0 .438v.019h.232V.438C.216.438.205.434.198.426.19.418.188.4.188.373V.252h.13v.12c0 .023-.002.04-.006.05C.307.433.294.438.275.438v.019h.232V.438C.488.438.475.434.467.424.459.415.456.4.456.378v-.29c0-.03.003-.048.01-.056C.475.023.489.019.507.018V0H.276v.018C.29.018.303.022.309.03c.007.008.01.026.01.055v.137H.188V.087c0-.029.003-.047.01-.056C.205.022.216.018.232.018V0H0z"/></symbol><symbol id="O"><path d="M.123.678C.144.678.163.67.177.655A.072.072 0 00.199.602.072.072 0 00.176.55.072.072 0 00.123.527.072.072 0 00.07.549a.072.072 0 00-.022.053c0 .02.007.039.022.053a.072.072 0 00.053.023M.191.457V.095c0-.033.004-.053.012-.062C.21.023.225.019.247.018V0H0v.018c.02 0 .035.006.045.017.006.008.01.027.01.06V.36C.055.394.05.414.043.423.036.432.021.437 0 .438v.019h.191z"/></symbol><symbol id="Q"><path d="M.507.457V.438C.486.436.472.43.465.421.46.41.455.392.455.362V.09C.456.062.46.043.467.033.473.023.487.02.507.018V0H.275v.018c.02 0 .032.005.037.016.005.01.007.028.007.053v.339H.188V.09c0-.03.003-.05.009-.058C.203.022.215.018.232.018V0H0v.018c.02 0 .033.005.04.015.008.01.011.03.011.063v.273c0 .03-.004.049-.012.057S.02.438 0 .438v.019h.507z"/></symbol><symbol id="R"><path d="M.23.26C.287.244.323.226.338.203A.12.12 0 00.313.038.214.214 0 00.176 0C.095 0 .036.032 0 .095l.015.009C.053.067.091.048.13.048c.03 0 .052.01.07.027a.1.1 0 01.026.071C.225.203.19.233.124.237v.031c.058 0 .088.03.088.09a.1.1 0 01-.02.067.067.067 0 01-.055.024C.087.45.057.413.042.341H.024L.03.484h.018C.055.47.062.464.07.464L.095.47C.129.48.16.484.187.484a.18.18 0 00.108-.03A.097.097 0 00.338.37C.338.314.302.278.23.26z"/></symbol><symbol id="S"><path d="M.24.074C.186.024.136 0 .09 0A.087.087 0 000 .09c0 .035.015.066.045.094.03.028.095.065.196.11v.047a.21.21 0 01-.006.065.05.05 0 01-.021.023.063.063 0 01-.035.01.09.09 0 01-.053-.014C.118.42.114.413.114.405c0-.007.004-.016.013-.026C.14.365.146.352.146.34A.054.054 0 00.128.298.065.065 0 00.082.28.075.075 0 00.03.3a.057.057 0 00-.02.043.1.1 0 00.027.067.175.175 0 00.078.05.317.317 0 00.103.017c.044 0 .078-.01.103-.028a.128.128 0 00.05-.06.388.388 0 00.006-.094V.118c0-.021 0-.034.002-.04A.023.023 0 01.387.066a.017.017 0 01.01-.004c.01 0 .018.007.027.019L.438.069a.18.18 0 00-.05-.053A.11.11 0 00.328 0a.093.093 0 00-.06.018.084.084 0 00-.027.056m0 .035v.153A.285.285 0 01.153.188a.09.09 0 01-.02-.053C.134.12.14.107.15.095A.044.044 0 01.184.082C.2.082.22.092.241.109z"/></symbol><symbol id="T"><path d="M.5.457V.438C.484.437.472.432.464.423.456.415.453.396.453.368v-.27c0-.035.003-.056.009-.064C.468.027.482.021.5.018V0H.267v.018C.29.021.303.027.308.035c.005.008.008.03.008.063v.115A.546.546 0 00.162.182.124.124 0 00.093.2a.09.09 0 00-.037.041.187.187 0 00-.008.06v.062c0 .031-.003.05-.008.059C.034.43.02.436 0 .438v.019h.228V.438A.056.056 0 01.196.424C.19.417.186.398.186.368V.302c0-.029.002-.048.008-.059C.2.233.214.228.234.228a.32.32 0 01.082.015v.12C.316.392.313.41.308.42.302.43.29.435.272.44v.018H.5z"/></symbol><symbol id="U"><path d="M.382.258h-.25A.236.236 0 01.18.115a.102.102 0 01.08-.04C.28.074.299.08.315.09a.21.21 0 01.051.06L.382.138A.279.279 0 00.3.03.178.178 0 00.196 0a.173.173 0 00-.154.078A.276.276 0 000 .234c0 .077.02.137.062.182a.19.19 0 00.145.068.156.156 0 00.12-.057C.36.389.379.333.382.258m-.12.033a.438.438 0 01-.01.108.087.087 0 01-.025.044.04.04 0 01-.028.01C.182.452.17.442.158.426a.214.214 0 01-.03-.119V.291h.134z"/></symbol><symbol id="V"><path d="M.486.457V.438A.05.05 0 01.45.426C.442.418.438.4.438.368v-.26c0-.034.004-.058.01-.07C.457.026.469.02.487.018V0H.253v.018C.285.02.3.047.3.1v.106a.723.723 0 00-.043 0L.181 0H0v.018c.035 0 .06.02.076.06l.052.143C.06.242.025.28.025.337c0 .029.009.053.027.073.018.02.04.033.064.038a.693.693 0 00.131.009h.239M.3.419a.216.216 0 01-.048.007C.225.426.204.417.19.4A.094.094 0 01.169.337c0-.03.01-.056.03-.074C.217.244.246.235.285.235H.3V.42z"/></symbol><use xlink:href="#J" transform="matrix(11.8735 0 0 -11.8735 239.807 338.883)" fill="#231f20"/><use xlink:href="#K" transform="matrix(11.8735 0 0 -11.8735 247.867 338.704)" fill="#231f20"/><use xlink:href="#L" transform="matrix(11.8735 0 0 -11.8735 255.804 338.866)" fill="#231f20"/><use xlink:href="#M" transform="matrix(11.8735 0 0 -11.8735 261.438 338.704)" fill="#231f20"/><use xlink:href="#N" transform="matrix(11.8735 0 0 -11.8735 267.833 338.704)" fill="#231f20"/><use xlink:href="#O" transform="matrix(11.8735 0 0 -11.8735 274.51 338.704)" fill="#231f20"/><use xlink:href="#P" transform="matrix(11.8735 0 0 -11.8735 277.567 338.704)" fill="#231f20"/><use xlink:href="#Q" transform="matrix(11.8735 0 0 -11.8735 280.941 338.704)" fill="#231f20"/><use xlink:href="#L" transform="matrix(11.8735 0 0 -11.8735 287.803 338.866)" fill="#231f20"/><use xlink:href="#R" transform="matrix(11.8735 0 0 -11.8735 293.468 338.866)" fill="#231f20"/><use xlink:href="#N" transform="matrix(11.8735 0 0 -11.8735 298.49 338.704)" fill="#231f20"/><use xlink:href="#S" transform="matrix(11.8735 0 0 -11.8735 305.457 338.78)" fill="#231f20"/><use xlink:href="#T" transform="matrix(11.8735 0 0 -11.8735 310.687 338.704)" fill="#231f20"/><use xlink:href="#U" transform="matrix(11.8735 0 0 -11.8735 317.54 338.866)" fill="#231f20"/><use xlink:href="#N" transform="matrix(11.8735 0 0 -11.8735 322.76 338.704)" fill="#231f20"/><use xlink:href="#N" transform="matrix(11.8735 0 0 -11.8735 329.599 338.704)" fill="#231f20"/><use xlink:href="#V" transform="matrix(11.8735 0 0 -11.8735 336.235 338.704)" fill="#231f20"/><symbol id="W"><path d="M.566.692L.58.467H.566a.283.283 0 01-.087.146.21.21 0 01-.134.044.218.218 0 01-.12-.033.221.221 0 01-.083-.107.479.479 0 01-.03-.182C.111.275.12.223.14.179a.216.216 0 01.087-.1.25.25 0 01.132-.036c.043 0 .08.01.114.027A.379.379 0 01.58.18L.596.17A.348.348 0 00.48.041.294.294 0 00.322 0C.212 0 .128.04.067.122A.349.349 0 000 .336a.38.38 0 00.044.182.33.33 0 00.292.174A.312.312 0 00.48.657a.077.077 0 01.029-.01C.517.646.524.65.53.655a.076.076 0 01.018.036h.017z"/></symbol><symbol id="X"><path d="M0 .074h.252V0H0v.074z"/></symbol><symbol id="Y"><path d="M.002.617L.14.672H.16V.568c.023.04.046.067.069.082a.13.13 0 00.074.024.142.142 0 00.112-.052A.25.25 0 00.47.454.28.28 0 00.403.262.176.176 0 00.265.2a.172.172 0 00-.062.01.146.146 0 00-.044.03V.104c0-.031.001-.05.005-.059a.043.043 0 01.02-.02.122.122 0 01.05-.007V0H0v.018h.012c.018 0 .033.003.046.01.006.004.011.01.014.018a.196.196 0 01.006.06V.53a.23.23 0 01-.004.055.033.033 0 01-.013.018.04.04 0 01-.023.006A.088.088 0 01.008.6L.002.617M.16.539V.372c0-.036.001-.06.004-.071A.092.092 0 01.196.25.104.104 0 01.264.229c.032 0 .059.013.079.039a.22.22 0 01.04.14c0 .068-.016.12-.046.157a.093.093 0 01-.12.027.272.272 0 01-.058-.053z"/></symbol><symbol id="Z"><path d="M.188.31V.117C.188.076.193.05.202.04.215.025.233.018.258.018h.026V0H0v.018h.025c.028 0 .048.01.06.027.006.01.01.034.01.072v.428C.095.587.09.612.082.623.069.637.05.644.025.644H0v.018h.243c.059 0 .106-.006.14-.018A.191.191 0 00.469.582.159.159 0 00.504.479.173.173 0 00.451.347C.415.313.365.297.3.297A.426.426 0 00.188.31m0 .028a.723.723 0 01.08-.01c.034 0 .064.013.088.04.025.026.037.06.037.101a.182.182 0 01-.018.08.12.12 0 01-.05.055.144.144 0 01-.073.019.289.289 0 01-.064-.01V.338z"/></symbol><symbol id="aa"><path d="M.342.416H.148V.105C.148.07.15.05.154.043A.053.053 0 01.17.025C.178.021.194.018.216.018V0H0v.018c.029 0 .048.005.056.016.008.01.012.034.012.071v.237a.187.187 0 01-.006.062.049.049 0 01-.016.017C.038.426.023.429 0 .429v.018h.49V.43C.468.429.454.426.446.422A.05.05 0 01.43.406.17.17 0 01.422.342V.105C.422.07.424.05.428.043A.053.053 0 01.444.025C.452.021.467.018.49.018V0H.274v.018C.3.018.319.023.328.033c.01.01.014.034.014.072v.31z"/></symbol><symbol id="ab"><path d="M.148.248l.056.001c.133 0 .2-.041.2-.123a.107.107 0 00-.05-.092A.24.24 0 00.214 0H0v.018c.029 0 .048.005.056.016.008.01.012.034.012.071v.237a.187.187 0 01-.006.062.049.049 0 01-.016.017C.038.426.023.429 0 .429v.018h.234V.43a.173.173 0 01-.06-.006.052.052 0 01-.018-.015C.15.402.148.38.148.342V.248m0-.21A.202.202 0 01.2.033c.033 0 .06.008.08.026.02.017.03.039.03.065C.31.186.267.217.18.217H.148V.038z"/></symbol><symbol id="ac"><path d="M.151.602V.455h.105V.42H.15V.13c0-.029.004-.048.013-.058A.04.04 0 01.196.057c.01 0 .021.003.031.01.01.006.018.016.023.03h.02A.155.155 0 00.22.023.105.105 0 00.157 0a.088.088 0 00-.044.012.077.077 0 00-.032.036.19.19 0 00-.01.072v.3H0v.017c.018.007.036.019.055.036a.29.29 0 01.081.129h.015z"/></symbol><symbol id="ad"><path d="M.553.183L.57.18.513 0H0v.018h.025c.028 0 .048.01.06.027.007.01.01.035.01.073v.427c0 .041-.004.067-.013.078C.069.637.05.644.025.644H0v.018h.3V.644a.185.185 0 01-.074-.01.06.06 0 01-.03-.026A.213.213 0 01.19.534V.118C.189.09.192.072.197.062A.035.035 0 01.215.047.317.317 0 01.29.042h.048a.35.35 0 01.107.011c.02.008.04.02.056.04a.33.33 0 01.051.09z"/></symbol><symbol id="ae"><path d="M.002.617L.14.672H.16V.568c.023.04.046.067.069.082a.13.13 0 00.074.024.142.142 0 00.112-.052A.25.25 0 00.47.454.28.28 0 00.403.262.176.176 0 00.265.2a.172.172 0 00-.062.01.146.146 0 00-.044.03V.104c0-.031.001-.05.005-.059a.043.043 0 01.02-.02.122.122 0 01.05-.007V0H0v.018h.012c.018 0 .033.003.046.01.006.004.011.01.014.018a.196.196 0 01.006.06V.53a.23.23 0 01-.004.055.033.033 0 01-.013.018.04.04 0 01-.023.006A.088.088 0 01.008.6L.002.617M.16.539V.372c0-.036.001-.06.004-.071A.092.092 0 01.196.25.104.104 0 01.264.229c.032 0 .059.013.079.039a.22.22 0 01.04.14c0 .068-.016.12-.046.157a.093.093 0 01-.12.027.272.272 0 01-.058-.053z"/></symbol><symbol id="af"><path d="M.579.692L.596.483H.579a.286.286 0 01-.067.118.21.21 0 01-.152.057.216.216 0 01-.193-.1.36.36 0 01-.055-.201c0-.063.013-.12.037-.173A.26.26 0 01.245.07.233.233 0 01.438.042.282.282 0 01.502.07V.26a.17.17 0 01-.007.065.048.048 0 01-.024.024.13.13 0 01-.055.008v.018h.256V.358H.66C.635.358.618.349.608.333A.171.171 0 01.598.26V.06A.485.485 0 00.367 0C.238 0 .141.041.075.123A.329.329 0 000 .336C0 .394.014.45.042.503A.359.359 0 00.179.65.335.335 0 00.35.692.335.335 0 00.416.687.595.595 0 00.5.66.135.135 0 01.537.65c.006 0 .011.002.015.008.005.006.008.017.009.033h.018z"/></symbol><symbol id="ag"><path d="M.659 0H.482L.258.31.218.309h-.03V.118C.188.076.193.05.202.04.215.025.233.018.258.018h.026V0H0v.018h.025c.028 0 .048.01.06.027.007.01.01.034.01.072v.428c0 .042-.004.067-.013.078C.069.637.05.644.025.644H0v.018h.241c.07 0 .122-.005.155-.016A.174.174 0 00.481.59.146.146 0 00.517.492a.154.154 0 00-.04-.106.223.223 0 00-.123-.064L.49.132A.34.34 0 01.57.045.203.203 0 01.66.018V0m-.47.34a.23.23 0 00.016 0h.01C.28.34.327.354.359.38a.131.131 0 01.049.105.135.135 0 01-.04.1.138.138 0 01-.102.04.43.43 0 01-.077-.01V.34z"/></symbol><symbol id="ah"><path d="M.45.222H.193L.148.117A.165.165 0 01.132.06c0-.01.005-.02.014-.027C.156.025.176.02.208.018V0H0v.018c.028.005.046.011.054.02a.3.3 0 01.055.094l.233.545h.017l.23-.55A.258.258 0 01.64.04.105.105 0 01.704.018V0H.442v.018C.468.02.486.024.495.031.505.04.51.048.51.06a.202.202 0 01-.02.067L.45.222M.437.258L.324.525.208.258h.228z"/></symbol><symbol id="ai"><path d="M.566.692L.58.467H.566a.283.283 0 01-.087.146.21.21 0 01-.134.044.218.218 0 01-.12-.033.221.221 0 01-.083-.107.479.479 0 01-.03-.182C.111.275.12.223.14.179a.216.216 0 01.087-.1.25.25 0 01.132-.036c.043 0 .08.01.114.027A.379.379 0 01.58.18L.596.17A.348.348 0 00.48.041.294.294 0 00.322 0C.212 0 .128.04.067.122A.349.349 0 000 .336a.38.38 0 00.044.182.33.33 0 00.292.174A.312.312 0 00.48.657a.077.077 0 01.029-.01C.517.646.524.65.53.655a.076.076 0 01.018.036h.017z"/></symbol><symbol id="aj"><path d="M.314.064A.23.23 0 00.25.014.157.157 0 00.183 0a.167.167 0 00-.128.061A.229.229 0 000 .219C0 .283.02.34.06.395c.04.053.093.08.156.08.04 0 .072-.013.098-.038V.52A.633.633 0 01.31.614C.308.625.304.634.3.638a.03.03 0 01-.02.006.103.103 0 01-.033-.008L.239.653l.134.055h.022V.191c0-.052 0-.085.003-.096C.4.083.404.075.41.07A.03.03 0 01.429.064c.009 0 .02.003.035.008L.469.055.336 0H.314v.064m0 .034v.23A.156.156 0 01.296.39.1.1 0 01.257.43.092.092 0 01.21.444.1.1 0 01.134.406C.104.372.089.322.089.257.09.192.104.141.132.106.161.071.192.054.228.054c.03 0 .058.015.086.044z"/></symbol><symbol id="ak"><path d="M.284.018V0H0v.018h.023c.028 0 .048.008.06.024.008.01.012.035.012.075v.428A.22.22 0 01.088.61a.044.044 0 01-.02.021.093.093 0 01-.045.012H0v.018h.284V.644H.26C.233.644.213.636.2.62.194.61.189.585.189.545V.117A.22.22 0 01.195.051.044.044 0 01.215.03.09.09 0 01.26.018h.024z"/></symbol><symbol id="al"><path d="M.298.117l.14.33h.15V.43C.566.429.551.426.544.422A.05.05 0 01.527.406.17.17 0 01.52.342V.105c0-.03.001-.051.004-.06a.036.036 0 01.019-.02.11.11 0 01.044-.007V0H.372v.018C.4.018.417.023.426.033c.009.01.013.034.013.072v.269L.281 0H.264L.103.374V.105c0-.03.002-.051.005-.06a.036.036 0 01.019-.02.106.106 0 01.044-.007V0H0v.018c.029 0 .048.005.056.016.008.01.012.034.012.071v.237a.187.187 0 01-.006.062.049.049 0 01-.016.017C.038.426.023.429 0 .429v.018h.157l.14-.33z"/></symbol><symbol id="am"><path d="M.188.626v-.26H.31c.028 0 .048.006.06.018.014.012.022.036.027.073h.018V.232H.396a.128.128 0 01-.01.057.06.06 0 01-.027.027.105.105 0 01-.05.01H.19V.116A.22.22 0 01.194.051.044.044 0 01.215.03.093.093 0 01.26.018h.024V0H0v.018h.023c.028 0 .048.008.06.024.008.01.012.035.012.075v.428A.22.22 0 01.088.61a.044.044 0 01-.02.021.09.09 0 01-.045.012H0v.018h.493L.499.517H.482a.194.194 0 01-.03.067.094.094 0 01-.041.032.22.22 0 01-.077.01H.188z"/></symbol><symbol id="an"><path d="M.166.853l.132.055h.021V.633c.03.028.06.041.09.041.043 0 .079-.023.109-.069A.3.3 0 00.563.437.299.299 0 00.517.27C.487.223.45.2.406.2a.113.113 0 00-.087.043V.105C.32.072.321.052.325.043a.034.034 0 01.02-.02.202.202 0 01.062-.005V0H.166v.018c.033 0 .054.005.063.014.01.01.015.034.015.073v.138A.11.11 0 00.158.2C.112.2.075.224.045.27A.312.312 0 000 .443c0 .06.014.115.043.162.029.047.066.07.112.07A.11.11 0 00.244.627V.75a.243.243 0 01-.008.08C.23.838.222.844.208.844A.089.089 0 01.173.837L.166.853M.244.584C.225.622.202.642.174.642.145.642.123.623.107.587A.435.435 0 01.085.425.35.35 0 01.108.282C.124.25.146.233.173.233c.026 0 .05.015.07.045v.306M.32.286A.079.079 0 01.35.247.074.074 0 01.39.233c.025 0 .046.016.062.048.016.031.024.08.024.148C.476.57.448.642.392.642.368.642.344.628.319.602V.286z"/></symbol><symbol id="ao"><path d="M.249.074A.737.737 0 00.163.012.132.132 0 00.106 0C.076 0 .05.01.03.032A.117.117 0 000 .115c0 .022.005.04.015.057a.194.194 0 00.069.062c.033.02.088.044.165.072v.017c0 .045-.007.075-.021.092C.214.432.193.44.166.44A.07.07 0 01.117.423.05.05 0 01.1.385V.357C.1.342.097.33.089.322A.039.039 0 00.058.31a.039.039 0 00-.03.013.05.05 0 00-.01.034c0 .028.013.054.042.078A.186.186 0 00.18.47.21.21 0 00.279.45.092.092 0 00.321.402.267.267 0 00.33.316V.165c0-.043 0-.07.002-.08C.334.077.336.07.34.068A.02.02 0 01.353.062c.005 0 .01.001.014.003l.04.036V.074C.37.024.334 0 .301 0a.047.047 0 00-.038.017C.254.028.249.047.249.074m0 .031v.17a.964.964 0 01-.095-.04.164.164 0 01-.055-.046.087.087 0 01-.017-.05c0-.024.007-.044.021-.06A.064.064 0 01.151.058C.176.057.21.073.25.105z"/></symbol><symbol id="ap"><path d="M.156.46v-.1c.037.067.076.1.115.1A.062.062 0 00.315.444.05.05 0 00.333.406.045.045 0 00.32.374.04.04 0 00.29.361C.279.36.266.366.251.377.237.39.227.395.221.395.213.395.207.39.2.385A.235.235 0 01.156.319V.104C.156.08.159.061.165.048A.05.05 0 01.187.026.099.099 0 01.234.018V0h-.23v.018c.024 0 .04.003.052.01a.042.042 0 01.017.025.251.251 0 01.002.048v.173a.663.663 0 01-.003.093.035.035 0 01-.012.022.032.032 0 01-.02.007.097.097 0 01-.035-.008L0 .406.135.46h.02z"/></symbol><symbol id="aq"><path d="M.317.247v.095a.22.22 0 01-.005.06.032.032 0 01-.019.02.105.105 0 01-.043.007v.018h.216V.43C.444.429.43.426.422.422A.05.05 0 01.405.406.17.17 0 01.398.342V.105c0-.03.002-.051.005-.06a.036.036 0 01.019-.02.11.11 0 01.044-.007V0H.24v.018A.266.266 0 01.29.023c.008.003.015.009.02.019.005.01.007.031.007.063v.11A.329.329 0 00.166.177a.17.17 0 00-.067.01C.083.196.073.204.069.214A.127.127 0 00.061.26v.081A.26.26 0 01.058.4a.036.036 0 01-.017.022A.083.083 0 010 .429v.018h.21V.43C.19.429.174.426.167.422A.05.05 0 01.149.406.17.17 0 01.143.342V.287A.14.14 0 01.147.244C.15.236.157.23.168.224A.125.125 0 01.216.218c.036 0 .07.01.101.03z"/></symbol><symbol id="ar"><path d="M.49.142V0H.472a.123.123 0 01-.037.09C.41.114.368.125.305.125H0v.018c.029 0 .048.005.056.016.008.01.012.034.012.071v.237a.187.187 0 01-.006.062.049.049 0 01-.016.017C.038.55.023.553 0 .553V.57h.216V.553C.194.553.18.55.172.546A.05.05 0 01.155.53.17.17 0 01.148.466V.214c0-.028.003-.045.008-.05C.16.158.177.156.205.156h.079c.03 0 .047.003.051.008C.34.17.342.187.342.218v.248a.22.22 0 01-.005.06.034.034 0 01-.02.02.106.106 0 01-.043.007V.57H.49V.553C.468.553.454.55.446.546A.05.05 0 01.43.53.17.17 0 01.422.466v-.23C.422.194.426.168.434.16.44.149.46.143.49.142z"/></symbol><symbol id="as"><path d="M.188.355h.308v.19A.222.222 0 01.49.61a.044.044 0 01-.02.021.09.09 0 01-.045.012H.4v.018h.284V.644H.66A.093.093 0 01.617.633.042.042 0 01.595.609.243.243 0 01.59.544V.117A.22.22 0 01.596.051.044.044 0 01.616.03.093.093 0 01.661.018h.024V0H.4v.018h.024c.027 0 .047.008.059.024.008.01.012.035.012.075V.32H.188V.117A.22.22 0 01.195.051.044.044 0 01.215.03.09.09 0 01.26.018h.024V0H0v.018h.023c.028 0 .048.008.06.024.008.01.012.035.012.075v.427a.222.222 0 01-.007.067.044.044 0 01-.02.021.093.093 0 01-.045.012H0v.018h.284V.644H.26A.093.093 0 01.215.633a.042.042 0 01-.02-.024.223.223 0 01-.007-.065V.355z"/></symbol><symbol id="at"><path d="M.156.365c.032.033.052.052.057.056.015.013.03.022.048.03.017.006.033.01.05.01A.112.112 0 00.383.435a.12.12 0 00.04-.07C.458.403.487.43.51.441A.15.15 0 00.58.46.11.11 0 00.643.442a.12.12 0 00.044-.06.27.27 0 00.01-.089V.101C.698.073.7.054.705.043A.043.043 0 01.722.025.093.093 0 01.765.018V0h-.22v.018h.009c.019 0 .034.003.045.01a.044.044 0 01.016.026A.313.313 0 01.617.1v.192a.163.163 0 01-.013.078C.59.39.57.4.542.4A.116.116 0 01.49.39.278.278 0 01.427.34V.1c0-.03.002-.05.005-.057a.044.044 0 01.02-.02A.114.114 0 01.5.019V0H.274v.018c.025 0 .042.003.05.008.01.006.017.015.02.027A.26.26 0 01.347.1v.192C.347.33.34.356.33.373a.069.069 0 01-.06.03A.108.108 0 01.218.39.201.201 0 01.156.341V.1c0-.03.002-.048.006-.057A.045.045 0 01.18.024.122.122 0 01.229.018V0H.007v.018c.02 0 .035.002.043.006a.044.044 0 01.019.02c.004.01.006.03.006.057v.171a.62.62 0 01-.004.095C.069.377.065.385.06.39A.03.03 0 01.04.396.094.094 0 01.007.388L0 .406.135.46h.02V.365z"/></symbol><symbol id="au"><path d="M.07.292A.23.23 0 01.117.136.147.147 0 01.232.08c.03 0 .055.008.077.024a.18.18 0 01.054.083l.015-.01a.234.234 0 00-.06-.122A.16.16 0 00.196 0c-.053 0-.1.02-.138.063A.242.242 0 000 .23c0 .077.02.137.059.18.039.042.088.064.148.064.05 0 .09-.017.123-.05A.18.18 0 00.378.292H.07m0 .029h.207a.191.191 0 01-.01.06.096.096 0 01-.037.043.09.09 0 01-.05.016.101.101 0 01-.073-.032A.136.136 0 01.07.321z"/></symbol><symbol id="av"><path d="M.271.474V.322H.255C.243.37.227.402.208.419a.106.106 0 01-.074.026.082.082 0 01-.055-.018C.065.415.058.402.058.387.058.37.063.353.073.34A.174.174 0 01.135.298L.206.263c.066-.032.1-.075.1-.127A.12.12 0 00.258.037.16.16 0 00.156 0a.355.355 0 00-.094.015.095.095 0 01-.026.005C.028.02.022.015.018.007H.002v.16h.016A.182.182 0 01.07.063.126.126 0 01.157.03c.022 0 .04.006.054.02.015.013.022.029.022.047a.075.075 0 01-.024.057.407.407 0 01-.094.058.28.28 0 00-.093.063.11.11 0 00-.022.07c0 .038.013.068.038.093a.135.135 0 00.098.037A.23.23 0 00.2.463.151.151 0 01.233.456a.02.02 0 01.012.003.047.047 0 01.01.015h.016z"/></symbol><symbol id="aw"><path d="M.116.694A.046.046 0 00.15.68.046.046 0 00.165.645.048.048 0 00.15.61.046.046 0 00.116.595.048.048 0 00.08.61a.048.048 0 00-.015.035C.066.659.07.67.08.68c.01.01.022.014.036.014M.156.46V.101c0-.028.002-.047.006-.056A.045.045 0 01.18.025.098.098 0 01.224.017V0H.007v.018C.029.018.043.02.05.024a.042.042 0 01.017.02c.005.01.007.03.007.057v.172a.61.61 0 01-.004.095C.069.378.065.385.06.389A.03.03 0 01.04.396.098.098 0 01.007.388L0 .406.135.46h.021z"/></symbol><symbol id="ax"><path d="M.156.366C.208.429.258.46.306.46A.107.107 0 00.369.442.121.121 0 00.41.382c.007-.02.01-.05.01-.09v-.19A.16.16 0 01.428.042.04.04 0 01.445.024.1.1 0 01.49.018V0H.269v.018h.009c.02 0 .035.003.043.009A.05.05 0 01.34.055C.34.06.34.075.34.101v.183c0 .04-.006.07-.016.089C.315.39.297.4.27.4.233.4.194.38.156.337V.1c0-.03.002-.049.005-.056A.047.047 0 01.18.024.122.122 0 01.229.018V0H.007v.018h.01c.023 0 .038.005.046.017C.071.046.075.069.075.1v.166a.677.677 0 01-.004.098C.07.377.065.385.061.39A.03.03 0 01.04.396.094.094 0 01.007.388L0 .406.135.46h.02V.366z"/></symbol><symbol id="ay"><path d="M0 0v.018h.025c.028 0 .048.009.06.027.007.01.01.035.01.072v.428c0 .041-.004.067-.013.078C.069.637.05.644.025.644H0v.018h.27A.587.587 0 00.495.628.267.267 0 00.62.516.345.345 0 00.667.334a.331.331 0 00-.084-.23C.52.034.424 0 .296 0H0m.189.048A.499.499 0 01.293.034c.075 0 .138.027.188.08.05.053.075.125.075.216A.302.302 0 01.48.546a.252.252 0 01-.192.079.415.415 0 01-.1-.014V.048z"/></symbol><symbol id="az"><path d="M.377.184a.244.244 0 00-.07-.137A.17.17 0 00.188 0a.172.172 0 00-.132.064A.251.251 0 000 .237c0 .07.02.127.063.171a.201.201 0 00.15.066C.257.474.293.462.322.44.35.416.364.392.364.367a.04.04 0 00-.012-.03A.046.046 0 00.32.324c-.02 0-.034.006-.044.019C.27.35.266.364.265.383a.063.063 0 01-.02.044.07.07 0 01-.048.014A.097.097 0 01.12.405.192.192 0 01.079.28c0-.054.013-.1.04-.142a.121.121 0 01.106-.06c.032 0 .06.01.086.032A.22.22 0 01.363.19L.377.184z"/></symbol><symbol id="aA"><path d="M.054.108A.052.052 0 00.093.092.052.052 0 00.108.054.053.053 0 00.092.016.052.052 0 00.054 0 .053.053 0 000 .054C0 .07.005.082.016.093c.01.01.023.015.038.015z"/></symbol><use xlink:href="#W" transform="matrix(8.7425 0 0 -8.7425 40.472 360.94)" fill="#231f20"/><use xlink:href="#X" transform="matrix(8.7425 0 0 -8.7425 46.342 359.168)" fill="#231f20"/><use xlink:href="#i" transform="matrix(8.7425 0 0 -8.7425 49.095 360.807)" fill="#231f20"/><use xlink:href="#b" transform="matrix(8.7425 0 0 -8.7425 53.328 360.888)" fill="#231f20"/><use xlink:href="#Y" transform="matrix(8.7425 0 0 -8.7425 56.868 362.677)" fill="#231f20"/><use xlink:href="#d" transform="matrix(8.7425 0 0 -8.7425 61.526 360.807)" fill="#231f20"/><use xlink:href="#h" transform="matrix(8.7425 0 0 -8.7425 63.999 360.927)" fill="#231f20"/><use xlink:href="#o" transform="matrix(8.7425 0 0 -8.7425 67.75 360.927)" fill="#231f20"/><use xlink:href="#t" transform="matrix(8.7425 0 0 -8.7425 71.802 362.263)" fill="#231f20"/><use xlink:href="#e" transform="matrix(8.7425 0 0 -8.7425 73.518 360.807)" fill="#231f20"/><use xlink:href="#Z" transform="matrix(8.7425 0 0 -8.7425 75.848 360.807)" fill="#231f20"/><use xlink:href="#X" transform="matrix(8.7425 0 0 -8.7425 80.918 359.168)" fill="#231f20"/><use xlink:href="#aa" transform="matrix(8.7425 0 0 -8.7425 83.672 360.807)" fill="#231f20"/><use xlink:href="#x" transform="matrix(8.7425 0 0 -8.7425 88.204 362.694)" fill="#231f20"/><use xlink:href="#p" transform="matrix(8.7425 0 0 -8.7425 92.19 360.876)" fill="#231f20"/><use xlink:href="#ab" transform="matrix(8.7425 0 0 -8.7425 96.698 360.807)" fill="#231f20"/><use xlink:href="#aa" transform="matrix(8.7425 0 0 -8.7425 100.685 360.807)" fill="#231f20"/><use xlink:href="#d" transform="matrix(8.7425 0 0 -8.7425 105.422 360.807)" fill="#231f20"/><use xlink:href="#j" transform="matrix(8.7425 0 0 -8.7425 107.647 360.807)" fill="#231f20"/><use xlink:href="#t" transform="matrix(8.7425 0 0 -8.7425 111.23 362.263)" fill="#231f20"/><use xlink:href="#e" transform="matrix(8.7425 0 0 -8.7425 112.946 360.807)" fill="#231f20"/><use xlink:href="#Z" transform="matrix(8.7425 0 0 -8.7425 115.277 360.807)" fill="#231f20"/><use xlink:href="#ac" transform="matrix(8.7425 0 0 -8.7425 120.078 360.871)" fill="#231f20"/><use xlink:href="#X" transform="matrix(8.7425 0 0 -8.7425 122.778 359.168)" fill="#231f20"/><use xlink:href="#e" transform="matrix(8.7425 0 0 -8.7425 125.334 360.807)" fill="#231f20"/><use xlink:href="#aa" transform="matrix(8.7425 0 0 -8.7425 127.716 360.807)" fill="#231f20"/><use xlink:href="#r" transform="matrix(8.7425 0 0 -8.7425 132.522 360.927)" fill="#231f20"/><use xlink:href="#Y" transform="matrix(8.7425 0 0 -8.7425 136.05 362.677)" fill="#231f20"/><use xlink:href="#d" transform="matrix(8.7425 0 0 -8.7425 140.706 360.807)" fill="#231f20"/><use xlink:href="#f" transform="matrix(8.7425 0 0 -8.7425 143.175 360.927)" fill="#231f20"/><use xlink:href="#n" transform="matrix(8.7425 0 0 -8.7425 147.11 361.892)" fill="#231f20"/><use xlink:href="#f" transform="matrix(8.7425 0 0 -8.7425 151.743 360.927)" fill="#231f20"/><use xlink:href="#c" transform="matrix(8.7425 0 0 -8.7425 156.016 360.807)" fill="#231f20"/><use xlink:href="#j" transform="matrix(8.7425 0 0 -8.7425 160.548 360.807)" fill="#231f20"/><use xlink:href="#k" transform="matrix(8.7425 0 0 -8.7425 164.514 360.807)" fill="#231f20"/><use xlink:href="#j" transform="matrix(8.7425 0 0 -8.7425 169.046 360.807)" fill="#231f20"/><use xlink:href="#t" transform="matrix(8.7425 0 0 -8.7425 172.629 362.263)" fill="#231f20"/><use xlink:href="#e" transform="matrix(8.7425 0 0 -8.7425 174.345 360.807)" fill="#231f20"/><use xlink:href="#ad" transform="matrix(8.7425 0 0 -8.7425 176.706 360.807)" fill="#231f20"/><use xlink:href="#ae" transform="matrix(8.7425 0 0 -8.7425 181.842 362.677)" fill="#231f20"/><use xlink:href="#X" transform="matrix(8.7425 0 0 -8.7425 186.598 359.168)" fill="#231f20"/><use xlink:href="#e" transform="matrix(8.7425 0 0 -8.7425 189.155 360.807)" fill="#231f20"/><use xlink:href="#p" transform="matrix(8.7425 0 0 -8.7425 191.392 360.876)" fill="#231f20"/><use xlink:href="#f" transform="matrix(8.7425 0 0 -8.7425 195.997 360.927)" fill="#231f20"/><use xlink:href="#i" transform="matrix(8.7425 0 0 -8.7425 200.27 360.807)" fill="#231f20"/><use xlink:href="#b" transform="matrix(8.7425 0 0 -8.7425 204.503 360.888)" fill="#231f20"/><use xlink:href="#p" transform="matrix(8.7425 0 0 -8.7425 208.203 360.876)" fill="#231f20"/><use xlink:href="#d" transform="matrix(8.7425 0 0 -8.7425 212.77 360.807)" fill="#231f20"/><use xlink:href="#u" transform="matrix(8.7425 0 0 -8.7425 215.048 360.927)" fill="#231f20"/><use xlink:href="#f" transform="matrix(8.7425 0 0 -8.7425 218.64 360.927)" fill="#231f20"/><use xlink:href="#l" transform="matrix(8.7425 0 0 -8.7425 222.922 360.807)" fill="#231f20"/><use xlink:href="#b" transform="matrix(8.7425 0 0 -8.7425 227.042 360.888)" fill="#231f20"/><use xlink:href="#c" transform="matrix(8.7425 0 0 -8.7425 230.808 360.807)" fill="#231f20"/><use xlink:href="#k" transform="matrix(8.7425 0 0 -8.7425 235.485 360.807)" fill="#231f20"/><use xlink:href="#w" transform="matrix(8.7425 0 0 -8.7425 240.162 360.807)" fill="#231f20"/><use xlink:href="#e" transform="matrix(8.7425 0 0 -8.7425 244.643 360.807)" fill="#231f20"/><use xlink:href="#aa" transform="matrix(8.7425 0 0 -8.7425 247.025 360.807)" fill="#231f20"/><use xlink:href="#b" transform="matrix(8.7425 0 0 -8.7425 251.818 360.888)" fill="#231f20"/><use xlink:href="#Y" transform="matrix(8.7425 0 0 -8.7425 255.358 362.677)" fill="#231f20"/><use xlink:href="#f" transform="matrix(8.7425 0 0 -8.7425 260.054 360.927)" fill="#231f20"/><use xlink:href="#n" transform="matrix(8.7425 0 0 -8.7425 263.988 361.892)" fill="#231f20"/><use xlink:href="#f" transform="matrix(8.7425 0 0 -8.7425 268.621 360.927)" fill="#231f20"/><use xlink:href="#c" transform="matrix(8.7425 0 0 -8.7425 272.894 360.807)" fill="#231f20"/><use xlink:href="#j" transform="matrix(8.7425 0 0 -8.7425 277.426 360.807)" fill="#231f20"/><use xlink:href="#k" transform="matrix(8.7425 0 0 -8.7425 281.392 360.807)" fill="#231f20"/><use xlink:href="#j" transform="matrix(8.7425 0 0 -8.7425 285.924 360.807)" fill="#231f20"/><use xlink:href="#t" transform="matrix(8.7425 0 0 -8.7425 289.507 362.263)" fill="#231f20"/><use xlink:href="#e" transform="matrix(8.7425 0 0 -8.7425 291.223 360.807)" fill="#231f20"/><use xlink:href="#af" transform="matrix(8.7425 0 0 -8.7425 293.716 360.94)" fill="#231f20"/><use xlink:href="#ae" transform="matrix(8.7425 0 0 -8.7425 299.691 362.677)" fill="#231f20"/><use xlink:href="#X" transform="matrix(8.7425 0 0 -8.7425 304.447 359.168)" fill="#231f20"/><use xlink:href="#m" transform="matrix(8.7425 0 0 -8.7425 307.136 360.807)" fill="#231f20"/><use xlink:href="#r" transform="matrix(8.7425 0 0 -8.7425 310.799 360.927)" fill="#231f20"/><use xlink:href="#c" transform="matrix(8.7425 0 0 -8.7425 314.552 360.807)" fill="#231f20"/><use xlink:href="#r" transform="matrix(8.7425 0 0 -8.7425 319.358 360.927)" fill="#231f20"/><use xlink:href="#Y" transform="matrix(8.7425 0 0 -8.7425 322.885 362.677)" fill="#231f20"/><use xlink:href="#b" transform="matrix(8.7425 0 0 -8.7425 327.598 360.888)" fill="#231f20"/><use xlink:href="#p" transform="matrix(8.7425 0 0 -8.7425 331.29 360.876)" fill="#231f20"/><use xlink:href="#d" transform="matrix(8.7425 0 0 -8.7425 335.856 360.807)" fill="#231f20"/><use xlink:href="#u" transform="matrix(8.7425 0 0 -8.7425 338.133 360.927)" fill="#231f20"/><use xlink:href="#f" transform="matrix(8.7425 0 0 -8.7425 341.726 360.927)" fill="#231f20"/><use xlink:href="#l" transform="matrix(8.7425 0 0 -8.7425 346.008 360.807)" fill="#231f20"/><use xlink:href="#b" transform="matrix(8.7425 0 0 -8.7425 350.127 360.888)" fill="#231f20"/><use xlink:href="#c" transform="matrix(8.7425 0 0 -8.7425 353.894 360.807)" fill="#231f20"/><use xlink:href="#k" transform="matrix(8.7425 0 0 -8.7425 358.57 360.807)" fill="#231f20"/><use xlink:href="#w" transform="matrix(8.7425 0 0 -8.7425 363.248 360.807)" fill="#231f20"/><use xlink:href="#e" transform="matrix(8.7425 0 0 -8.7425 367.73 360.807)" fill="#231f20"/><use xlink:href="#aa" transform="matrix(8.7425 0 0 -8.7425 370.111 360.807)" fill="#231f20"/><use xlink:href="#b" transform="matrix(8.7425 0 0 -8.7425 374.904 360.888)" fill="#231f20"/><use xlink:href="#Y" transform="matrix(8.7425 0 0 -8.7425 378.444 362.677)" fill="#231f20"/><use xlink:href="#f" transform="matrix(8.7425 0 0 -8.7425 383.14 360.927)" fill="#231f20"/><use xlink:href="#n" transform="matrix(8.7425 0 0 -8.7425 387.074 361.892)" fill="#231f20"/><use xlink:href="#f" transform="matrix(8.7425 0 0 -8.7425 391.707 360.927)" fill="#231f20"/><use xlink:href="#c" transform="matrix(8.7425 0 0 -8.7425 395.98 360.807)" fill="#231f20"/><use xlink:href="#j" transform="matrix(8.7425 0 0 -8.7425 400.512 360.807)" fill="#231f20"/><use xlink:href="#k" transform="matrix(8.7425 0 0 -8.7425 404.478 360.807)" fill="#231f20"/><use xlink:href="#j" transform="matrix(8.7425 0 0 -8.7425 409.01 360.807)" fill="#231f20"/><use xlink:href="#t" transform="matrix(8.7425 0 0 -8.7425 412.593 362.263)" fill="#231f20"/><use xlink:href="#e" transform="matrix(8.7425 0 0 -8.7425 414.31 360.807)" fill="#231f20"/><use xlink:href="#ag" transform="matrix(8.7425 0 0 -8.7425 416.644 360.807)" fill="#231f20"/><use xlink:href="#X" transform="matrix(8.7425 0 0 -8.7425 422.68 359.168)" fill="#231f20"/><use xlink:href="#i" transform="matrix(8.7425 0 0 -8.7425 425.434 360.807)" fill="#231f20"/><use xlink:href="#f" transform="matrix(8.7425 0 0 -8.7425 429.335 360.927)" fill="#231f20"/><use xlink:href="#Y" transform="matrix(8.7425 0 0 -8.7425 433.382 362.677)" fill="#231f20"/><use xlink:href="#d" transform="matrix(8.7425 0 0 -8.7425 438.039 360.807)" fill="#231f20"/><use xlink:href="#c" transform="matrix(8.7425 0 0 -8.7425 440.41 360.807)" fill="#231f20"/><use xlink:href="#ab" transform="matrix(8.7425 0 0 -8.7425 445.087 360.807)" fill="#231f20"/><use xlink:href="#t" transform="matrix(8.7425 0 0 -8.7425 449.347 362.263)" fill="#231f20"/><use xlink:href="#e" transform="matrix(8.7425 0 0 -8.7425 451.063 360.807)" fill="#231f20"/><use xlink:href="#ah" transform="matrix(8.7425 0 0 -8.7425 452.836 360.807)" fill="#231f20"/><use xlink:href="#X" transform="matrix(8.7425 0 0 -8.7425 459.434 359.168)" fill="#231f20"/><use xlink:href="#l" transform="matrix(8.7425 0 0 -8.7425 462.196 360.807)" fill="#231f20"/><use xlink:href="#d" transform="matrix(8.7425 0 0 -8.7425 466.373 360.807)" fill="#231f20"/><use xlink:href="#n" transform="matrix(8.7425 0 0 -8.7425 468.659 361.892)" fill="#231f20"/><use xlink:href="#o" transform="matrix(8.7425 0 0 -8.7425 473.296 360.927)" fill="#231f20"/><use xlink:href="#x" transform="matrix(8.7425 0 0 -8.7425 476.808 362.694)" fill="#231f20"/><use xlink:href="#j" transform="matrix(8.7425 0 0 -8.7425 481.18 360.807)" fill="#231f20"/><use xlink:href="#c" transform="matrix(8.7425 0 0 -8.7425 485.145 360.807)" fill="#231f20"/><use xlink:href="#d" transform="matrix(8.7425 0 0 -8.7425 489.882 360.807)" fill="#231f20"/><use xlink:href="#w" transform="matrix(8.7425 0 0 -8.7425 492.253 360.807)" fill="#231f20"/><use xlink:href="#t" transform="matrix(8.7425 0 0 -8.7425 497.203 362.263)" fill="#231f20"/><use xlink:href="#e" transform="matrix(8.7425 0 0 -8.7425 498.92 360.807)" fill="#231f20"/><use xlink:href="#ai" transform="matrix(8.7425 0 0 -8.7425 501.42 360.94)" fill="#231f20"/><use xlink:href="#aj" transform="matrix(8.7425 0 0 -8.7425 507.226 360.927)" fill="#231f20"/><use xlink:href="#X" transform="matrix(8.7425 0 0 -8.7425 511.661 359.168)" fill="#231f20"/><use xlink:href="#i" transform="matrix(8.7425 0 0 -8.7425 514.415 360.807)" fill="#231f20"/><use xlink:href="#f" transform="matrix(8.7425 0 0 -8.7425 518.316 360.927)" fill="#231f20"/><use xlink:href="#Y" transform="matrix(8.7425 0 0 -8.7425 522.363 362.677)" fill="#231f20"/><use xlink:href="#f" transform="matrix(8.7425 0 0 -8.7425 527.059 360.927)" fill="#231f20"/><use xlink:href="#c" transform="matrix(8.7425 0 0 -8.7425 531.332 360.807)" fill="#231f20"/><use xlink:href="#b" transform="matrix(8.7425 0 0 -8.7425 536.124 360.888)" fill="#231f20"/><use xlink:href="#t" transform="matrix(8.7425 0 0 -8.7425 540.164 362.263)" fill="#231f20"/><use xlink:href="#Z" transform="matrix(8.7425 0 0 -8.7425 40.301 371.298)" fill="#231f20"/><use xlink:href="#ak" transform="matrix(8.7425 0 0 -8.7425 45.235 371.298)" fill="#231f20"/><use xlink:href="#X" transform="matrix(8.7425 0 0 -8.7425 48.283 369.66)" fill="#231f20"/><use xlink:href="#aa" transform="matrix(8.7425 0 0 -8.7425 51.036 371.298)" fill="#231f20"/><use xlink:href="#p" transform="matrix(8.7425 0 0 -8.7425 55.568 371.367)" fill="#231f20"/><use xlink:href="#f" transform="matrix(8.7425 0 0 -8.7425 60.174 371.418)" fill="#231f20"/><use xlink:href="#al" transform="matrix(8.7425 0 0 -8.7425 64.28 371.298)" fill="#231f20"/><use xlink:href="#g" transform="matrix(8.7425 0 0 -8.7425 69.951 371.418)" fill="#231f20"/><use xlink:href="#b" transform="matrix(8.7425 0 0 -8.7425 74.38 371.38)" fill="#231f20"/><use xlink:href="#t" transform="matrix(8.7425 0 0 -8.7425 78.42 372.754)" fill="#231f20"/><use xlink:href="#e" transform="matrix(8.7425 0 0 -8.7425 80.136 371.298)" fill="#231f20"/><use xlink:href="#am" transform="matrix(8.7425 0 0 -8.7425 82.462 371.298)" fill="#231f20"/><use xlink:href="#X" transform="matrix(8.7425 0 0 -8.7425 87.537 369.66)" fill="#231f20"/><use xlink:href="#e" transform="matrix(8.7425 0 0 -8.7425 90.093 371.298)" fill="#231f20"/><use xlink:href="#an" transform="matrix(8.7425 0 0 -8.7425 92.65 373.168)" fill="#231f20"/><use xlink:href="#b" transform="matrix(8.7425 0 0 -8.7425 98.256 371.38)" fill="#231f20"/><use xlink:href="#o" transform="matrix(8.7425 0 0 -8.7425 102.125 371.418)" fill="#231f20"/><use xlink:href="#r" transform="matrix(8.7425 0 0 -8.7425 106.137 371.418)" fill="#231f20"/><use xlink:href="#j" transform="matrix(8.7425 0 0 -8.7425 109.745 371.298)" fill="#231f20"/><use xlink:href="#i" transform="matrix(8.7425 0 0 -8.7425 113.711 371.298)" fill="#231f20"/><use xlink:href="#b" transform="matrix(8.7425 0 0 -8.7425 117.944 371.38)" fill="#231f20"/><use xlink:href="#t" transform="matrix(8.7425 0 0 -8.7425 121.984 372.754)" fill="#231f20"/><use xlink:href="#e" transform="matrix(8.7425 0 0 -8.7425 123.7 371.298)" fill="#231f20"/><use xlink:href="#ao" transform="matrix(8.7425 0 0 -8.7425 126.197 371.38)" fill="#231f20"/><use xlink:href="#ap" transform="matrix(8.7425 0 0 -8.7425 129.822 371.298)" fill="#231f20"/><use xlink:href="#e" transform="matrix(8.7425 0 0 -8.7425 132.678 371.298)" fill="#231f20"/><use xlink:href="#X" transform="matrix(8.7425 0 0 -8.7425 135.218 369.66)" fill="#231f20"/><use xlink:href="#e" transform="matrix(8.7425 0 0 -8.7425 137.775 371.298)" fill="#231f20"/><use xlink:href="#v" transform="matrix(8.7425 0 0 -8.7425 140.157 371.298)" fill="#231f20"/><use xlink:href="#j" transform="matrix(8.7425 0 0 -8.7425 146.744 371.298)" fill="#231f20"/><use xlink:href="#x" transform="matrix(8.7425 0 0 -8.7425 150.45 373.185)" fill="#231f20"/><use xlink:href="#aq" transform="matrix(8.7425 0 0 -8.7425 154.899 371.298)" fill="#231f20"/><use xlink:href="#c" transform="matrix(8.7425 0 0 -8.7425 159.364 371.298)" fill="#231f20"/><use xlink:href="#k" transform="matrix(8.7425 0 0 -8.7425 164.042 371.298)" fill="#231f20"/><use xlink:href="#w" transform="matrix(8.7425 0 0 -8.7425 168.719 371.298)" fill="#231f20"/><use xlink:href="#e" transform="matrix(8.7425 0 0 -8.7425 173.2 371.298)" fill="#231f20"/><use xlink:href="#u" transform="matrix(8.7425 0 0 -8.7425 175.488 371.418)" fill="#231f20"/><use xlink:href="#x" transform="matrix(8.7425 0 0 -8.7425 178.706 373.185)" fill="#231f20"/><use xlink:href="#g" transform="matrix(8.7425 0 0 -8.7425 183.246 371.418)" fill="#231f20"/><use xlink:href="#t" transform="matrix(8.7425 0 0 -8.7425 187.832 372.754)" fill="#231f20"/><use xlink:href="#e" transform="matrix(8.7425 0 0 -8.7425 189.548 371.298)" fill="#231f20"/><use xlink:href="#ap" transform="matrix(8.7425 0 0 -8.7425 191.79 371.298)" fill="#231f20"/><use xlink:href="#e" transform="matrix(8.7425 0 0 -8.7425 194.645 371.298)" fill="#231f20"/><use xlink:href="#X" transform="matrix(8.7425 0 0 -8.7425 197.185 369.66)" fill="#231f20"/><use xlink:href="#e" transform="matrix(8.7425 0 0 -8.7425 199.742 371.298)" fill="#231f20"/><use xlink:href="#Y" transform="matrix(8.7425 0 0 -8.7425 201.898 373.168)" fill="#231f20"/><use xlink:href="#r" transform="matrix(8.7425 0 0 -8.7425 206.623 371.418)" fill="#231f20"/><use xlink:href="#o" transform="matrix(8.7425 0 0 -8.7425 210.698 371.418)" fill="#231f20"/><use xlink:href="#j" transform="matrix(8.7425 0 0 -8.7425 214.332 371.298)" fill="#231f20"/><use xlink:href="#b" transform="matrix(8.7425 0 0 -8.7425 218.518 371.38)" fill="#231f20"/><use xlink:href="#l" transform="matrix(8.7425 0 0 -8.7425 222.293 371.298)" fill="#231f20"/><use xlink:href="#Y" transform="matrix(8.7425 0 0 -8.7425 226.184 373.168)" fill="#231f20"/><use xlink:href="#b" transform="matrix(8.7425 0 0 -8.7425 230.897 371.38)" fill="#231f20"/><use xlink:href="#ar" transform="matrix(8.7425 0 0 -8.7425 234.663 372.383)" fill="#231f20"/><use xlink:href="#d" transform="matrix(8.7425 0 0 -8.7425 239.4 371.298)" fill="#231f20"/><use xlink:href="#s" transform="matrix(8.7425 0 0 -8.7425 241.57 371.298)" fill="#231f20"/><use xlink:href="#t" transform="matrix(8.7425 0 0 -8.7425 246.066 372.754)" fill="#231f20"/><use xlink:href="#e" transform="matrix(8.7425 0 0 -8.7425 247.782 371.298)" fill="#231f20"/><use xlink:href="#as" transform="matrix(8.7425 0 0 -8.7425 250.117 371.298)" fill="#231f20"/><use xlink:href="#X" transform="matrix(8.7425 0 0 -8.7425 256.634 369.66)" fill="#231f20"/><use xlink:href="#e" transform="matrix(8.7425 0 0 -8.7425 259.19 371.298)" fill="#231f20"/><use xlink:href="#m" transform="matrix(8.7425 0 0 -8.7425 261.509 371.298)" fill="#231f20"/><use xlink:href="#r" transform="matrix(8.7425 0 0 -8.7425 265.172 371.418)" fill="#231f20"/><use xlink:href="#al" transform="matrix(8.7425 0 0 -8.7425 268.925 371.298)" fill="#231f20"/><use xlink:href="#d" transform="matrix(8.7425 0 0 -8.7425 274.52 371.298)" fill="#231f20"/><use xlink:href="#o" transform="matrix(8.7425 0 0 -8.7425 276.992 371.418)" fill="#231f20"/><use xlink:href="#r" transform="matrix(8.7425 0 0 -8.7425 281.004 371.418)" fill="#231f20"/><use xlink:href="#i" transform="matrix(8.7425 0 0 -8.7425 284.758 371.298)" fill="#231f20"/><use xlink:href="#ar" transform="matrix(8.7425 0 0 -8.7425 289.007 372.383)" fill="#231f20"/><use xlink:href="#d" transform="matrix(8.7425 0 0 -8.7425 293.744 371.298)" fill="#231f20"/><use xlink:href="#s" transform="matrix(8.7425 0 0 -8.7425 295.914 371.298)" fill="#231f20"/><use xlink:href="#t" transform="matrix(8.7425 0 0 -8.7425 300.41 372.754)" fill="#231f20"/><use xlink:href="#e" transform="matrix(8.7425 0 0 -8.7425 302.125 371.298)" fill="#231f20"/><use xlink:href="#ah" transform="matrix(8.7425 0 0 -8.7425 303.898 371.298)" fill="#231f20"/><use xlink:href="#at" transform="matrix(8.7425 0 0 -8.7425 310.215 371.298)" fill="#231f20"/><use xlink:href="#X" transform="matrix(8.7425 0 0 -8.7425 317.298 369.66)" fill="#231f20"/><use xlink:href="#b" transform="matrix(8.7425 0 0 -8.7425 320.167 371.38)" fill="#231f20"/><use xlink:href="#al" transform="matrix(8.7425 0 0 -8.7425 323.933 371.298)" fill="#231f20"/><use xlink:href="#aa" transform="matrix(8.7425 0 0 -8.7425 329.467 371.298)" fill="#231f20"/><use xlink:href="#x" transform="matrix(8.7425 0 0 -8.7425 334 373.185)" fill="#231f20"/><use xlink:href="#j" transform="matrix(8.7425 0 0 -8.7425 338.37 371.298)" fill="#231f20"/><use xlink:href="#b" transform="matrix(8.7425 0 0 -8.7425 342.556 371.38)" fill="#231f20"/><use xlink:href="#ar" transform="matrix(8.7425 0 0 -8.7425 346.323 372.383)" fill="#231f20"/><use xlink:href="#d" transform="matrix(8.7425 0 0 -8.7425 351.06 371.298)" fill="#231f20"/><use xlink:href="#s" transform="matrix(8.7425 0 0 -8.7425 353.23 371.298)" fill="#231f20"/><use xlink:href="#t" transform="matrix(8.7425 0 0 -8.7425 357.725 372.754)" fill="#231f20"/><use xlink:href="#e" transform="matrix(8.7425 0 0 -8.7425 359.441 371.298)" fill="#231f20"/><use xlink:href="#ap" transform="matrix(8.7425 0 0 -8.7425 361.682 371.298)" fill="#231f20"/><use xlink:href="#au" transform="matrix(8.7425 0 0 -8.7425 364.863 371.418)" fill="#231f20"/><use xlink:href="#av" transform="matrix(8.7425 0 0 -8.7425 368.847 371.418)" fill="#231f20"/><use xlink:href="#X" transform="matrix(8.7425 0 0 -8.7425 372.175 369.66)" fill="#231f20"/><use xlink:href="#Y" transform="matrix(8.7425 0 0 -8.7425 374.702 373.168)" fill="#231f20"/><use xlink:href="#r" transform="matrix(8.7425 0 0 -8.7425 379.428 371.418)" fill="#231f20"/><use xlink:href="#u" transform="matrix(8.7425 0 0 -8.7425 383.192 371.418)" fill="#231f20"/><use xlink:href="#r" transform="matrix(8.7425 0 0 -8.7425 386.867 371.418)" fill="#231f20"/><use xlink:href="#i" transform="matrix(8.7425 0 0 -8.7425 390.621 371.298)" fill="#231f20"/><use xlink:href="#ar" transform="matrix(8.7425 0 0 -8.7425 394.87 372.383)" fill="#231f20"/><use xlink:href="#d" transform="matrix(8.7425 0 0 -8.7425 399.607 371.298)" fill="#231f20"/><use xlink:href="#s" transform="matrix(8.7425 0 0 -8.7425 401.777 371.298)" fill="#231f20"/><use xlink:href="#t" transform="matrix(8.7425 0 0 -8.7425 406.272 372.754)" fill="#231f20"/><use xlink:href="#e" transform="matrix(8.7425 0 0 -8.7425 407.988 371.298)" fill="#231f20"/><use xlink:href="#ae" transform="matrix(8.7425 0 0 -8.7425 410.144 373.168)" fill="#231f20"/><use xlink:href="#aw" transform="matrix(8.7425 0 0 -8.7425 414.801 371.298)" fill="#231f20"/><use xlink:href="#ax" transform="matrix(8.7425 0 0 -8.7425 417.027 371.298)" fill="#231f20"/><use xlink:href="#X" transform="matrix(8.7425 0 0 -8.7425 421.701 369.66)" fill="#231f20"/><use xlink:href="#e" transform="matrix(8.7425 0 0 -8.7425 424.258 371.298)" fill="#231f20"/><use xlink:href="#v" transform="matrix(8.7425 0 0 -8.7425 426.64 371.298)" fill="#231f20"/><use xlink:href="#j" transform="matrix(8.7425 0 0 -8.7425 433.227 371.298)" fill="#231f20"/><use xlink:href="#k" transform="matrix(8.7425 0 0 -8.7425 437.192 371.298)" fill="#231f20"/><use xlink:href="#an" transform="matrix(8.7425 0 0 -8.7425 442.045 373.168)" fill="#231f20"/><use xlink:href="#j" transform="matrix(8.7425 0 0 -8.7425 447.39 371.298)" fill="#231f20"/><use xlink:href="#t" transform="matrix(8.7425 0 0 -8.7425 450.973 372.754)" fill="#231f20"/><use xlink:href="#e" transform="matrix(8.7425 0 0 -8.7425 452.689 371.298)" fill="#231f20"/><use xlink:href="#aw" transform="matrix(8.7425 0 0 -8.7425 455.13 371.298)" fill="#231f20"/><use xlink:href="#X" transform="matrix(8.7425 0 0 -8.7425 457.66 369.66)" fill="#231f20"/><use xlink:href="#e" transform="matrix(8.7425 0 0 -8.7425 460.216 371.298)" fill="#231f20"/><use xlink:href="#d" transform="matrix(8.7425 0 0 -8.7425 462.658 371.298)" fill="#231f20"/><use xlink:href="#al" transform="matrix(8.7425 0 0 -8.7425 465.029 371.298)" fill="#231f20"/><use xlink:href="#aa" transform="matrix(8.7425 0 0 -8.7425 470.563 371.298)" fill="#231f20"/><use xlink:href="#p" transform="matrix(8.7425 0 0 -8.7425 475.095 371.367)" fill="#231f20"/><use xlink:href="#b" transform="matrix(8.7425 0 0 -8.7425 479.718 371.38)" fill="#231f20"/><use xlink:href="#c" transform="matrix(8.7425 0 0 -8.7425 483.484 371.298)" fill="#231f20"/><use xlink:href="#j" transform="matrix(8.7425 0 0 -8.7425 488.016 371.298)" fill="#231f20"/><use xlink:href="#b" transform="matrix(8.7425 0 0 -8.7425 492.202 371.38)" fill="#231f20"/><use xlink:href="#ar" transform="matrix(8.7425 0 0 -8.7425 495.968 372.383)" fill="#231f20"/><use xlink:href="#d" transform="matrix(8.7425 0 0 -8.7425 500.705 371.298)" fill="#231f20"/><use xlink:href="#s" transform="matrix(8.7425 0 0 -8.7425 502.875 371.298)" fill="#231f20"/><use xlink:href="#t" transform="matrix(8.7425 0 0 -8.7425 507.37 372.754)" fill="#231f20"/><use xlink:href="#e" transform="matrix(8.7425 0 0 -8.7425 509.087 371.298)" fill="#231f20"/><use xlink:href="#ag" transform="matrix(8.7425 0 0 -8.7425 40.306 381.79)" fill="#231f20"/><use xlink:href="#ae" transform="matrix(8.7425 0 0 -8.7425 45.958 383.659)" fill="#231f20"/><use xlink:href="#X" transform="matrix(8.7425 0 0 -8.7425 50.713 380.15)" fill="#231f20"/><use xlink:href="#e" transform="matrix(8.7425 0 0 -8.7425 53.27 381.79)" fill="#231f20"/><use xlink:href="#Y" transform="matrix(8.7425 0 0 -8.7425 55.426 383.659)" fill="#231f20"/><use xlink:href="#r" transform="matrix(8.7425 0 0 -8.7425 60.151 381.909)" fill="#231f20"/><use xlink:href="#aa" transform="matrix(8.7425 0 0 -8.7425 63.905 381.79)" fill="#231f20"/><use xlink:href="#p" transform="matrix(8.7425 0 0 -8.7425 68.437 381.858)" fill="#231f20"/><use xlink:href="#b" transform="matrix(8.7425 0 0 -8.7425 73.06 381.87)" fill="#231f20"/><use xlink:href="#c" transform="matrix(8.7425 0 0 -8.7425 76.826 381.79)" fill="#231f20"/><use xlink:href="#j" transform="matrix(8.7425 0 0 -8.7425 81.358 381.79)" fill="#231f20"/><use xlink:href="#b" transform="matrix(8.7425 0 0 -8.7425 85.544 381.87)" fill="#231f20"/><use xlink:href="#ar" transform="matrix(8.7425 0 0 -8.7425 89.31 382.874)" fill="#231f20"/><use xlink:href="#d" transform="matrix(8.7425 0 0 -8.7425 94.048 381.79)" fill="#231f20"/><use xlink:href="#s" transform="matrix(8.7425 0 0 -8.7425 96.218 381.79)" fill="#231f20"/><use xlink:href="#t" transform="matrix(8.7425 0 0 -8.7425 100.713 383.245)" fill="#231f20"/><use xlink:href="#e" transform="matrix(8.7425 0 0 -8.7425 102.43 381.79)" fill="#231f20"/><use xlink:href="#ay" transform="matrix(8.7425 0 0 -8.7425 104.764 381.79)" fill="#231f20"/><use xlink:href="#az" transform="matrix(8.7425 0 0 -8.7425 111.226 381.909)" fill="#231f20"/><use xlink:href="#X" transform="matrix(8.7425 0 0 -8.7425 115.163 380.15)" fill="#231f20"/><use xlink:href="#u" transform="matrix(8.7425 0 0 -8.7425 117.822 381.909)" fill="#231f20"/><use xlink:href="#x" transform="matrix(8.7425 0 0 -8.7425 121.04 383.676)" fill="#231f20"/><use xlink:href="#g" transform="matrix(8.7425 0 0 -8.7425 125.58 381.909)" fill="#231f20"/><use xlink:href="#c" transform="matrix(8.7425 0 0 -8.7425 129.893 381.79)" fill="#231f20"/><use xlink:href="#k" transform="matrix(8.7425 0 0 -8.7425 134.57 381.79)" fill="#231f20"/><use xlink:href="#w" transform="matrix(8.7425 0 0 -8.7425 139.248 381.79)" fill="#231f20"/><use xlink:href="#e" transform="matrix(8.7425 0 0 -8.7425 143.729 381.79)" fill="#231f20"/><use xlink:href="#i" transform="matrix(8.7425 0 0 -8.7425 146.11 381.79)" fill="#231f20"/><use xlink:href="#b" transform="matrix(8.7425 0 0 -8.7425 150.344 381.87)" fill="#231f20"/><use xlink:href="#al" transform="matrix(8.7425 0 0 -8.7425 154.11 381.79)" fill="#231f20"/><use xlink:href="#d" transform="matrix(8.7425 0 0 -8.7425 159.704 381.79)" fill="#231f20"/><use xlink:href="#c" transform="matrix(8.7425 0 0 -8.7425 162.074 381.79)" fill="#231f20"/><use xlink:href="#ab" transform="matrix(8.7425 0 0 -8.7425 166.752 381.79)" fill="#231f20"/><use xlink:href="#aA" transform="matrix(8.7425 0 0 -8.7425 171.16 381.909)" fill="#231f20"/></svg>