<svg xmlns="http://www.w3.org/2000/svg" xmlns:xlink="http://www.w3.org/1999/xlink" width="793.707" height="559.373" viewBox="0 0 595.28 419.53"><path stroke-width=".547" stroke-miterlimit="10" fill="none" stroke="#231f20" d="M555.625 356.037H41.23V56.882h514.395z"/><path stroke-width=".562" stroke-miterlimit="10" fill="none" stroke="#231f20" d="M111.6 57.875V355.87M41.562 71.088l514.063.662M41.562 82.98l514.063.664M40.9 97.519l514.725-.662M40.9 110.732h514.725M42.223 124.61h513.402M41.562 137.165l513.402.659M42.223 151.04l512.74-.662M41.562 165.575h514.063M41.562 180.112h514.063M41.562 191.345h514.063M41.562 204.56l513.402-.662M41.562 218.436h513.402M40.9 231.65l514.063.661M40.24 246.848h514.724M41.562 260.724l513.402-.66M41.562 272.617l514.063.66M40.24 287.154l515.385-.661M41.562 299.709h514.063M40.9 314.244h514.725M40.9 327.46l514.725-.662M40.9 342.656l514.063 1.322M40.9 355.87l514.063-.658"/><clipPath id="a"><path transform="matrix(1 0 0 -1 0 419.53)" d="M0 419.53h595.28V0H0z"/></clipPath><g clip-path="url(#a)" stroke-width=".562" stroke-miterlimit="10" fill="none" stroke="#231f20"><path d="M381.457 372.167c58.207-.107 115.691-.107 174.168.223M70.888 372.257c52.606-.197 104.145-.197 156.74-.025"/></g><symbol id="b"><path d="M0 .193v.018h.011c.03 0 .047.008.052.024a.275.275 0 01.008.078v.43c0 .04-.004.065-.012.076C.051.831.035.837.011.837H0v.018h.302V.837H.29C.266.837.25.831.242.82.234.807.23.782.23.743V.295C.23.267.234.25.24.245.247.239.265.236.295.236h.061c.04 0 .06.003.065.01.004.006.007.023.007.049v.448c0 .039-.004.064-.012.076C.408.831.392.837.368.837H.356v.018h.302V.837H.646C.622.837.606.831.6.82.59.808.587.782.587.743V.306a.2.2 0 01.005-.06C.595.24.615.237.652.237h.077c.03 0 .047.004.05.012A.17.17 0 01.784.3v.443C.784.78.78.806.772.819.765.83.75.837.724.837H.713v.018h.301V.837h-.011C.979.837.963.831.955.82.947.807.943.78.943.743V.306c0-.037.003-.063.01-.076.007-.012.024-.019.05-.019h.011V0H.996A.279.279 0 01.95.112a.17.17 0 01-.076.065.31.31 0 01-.108.016H0z"/></symbol><symbol id="c"><path d="M.213.484c.04 0 .077-.01.11-.03.035-.021.06-.05.078-.088A.286.286 0 00.428.242a.262.262 0 00-.05-.163A.195.195 0 00.215 0a.188.188 0 00-.158.072A.267.267 0 000 .24a.27.27 0 00.057.17c.038.05.09.074.156.074M.215.449A.057.057 0 01.172.43C.16.418.152.393.148.356A1.687 1.687 0 01.143.202C.143.167.145.135.15.104A.094.094 0 01.173.052a.054.054 0 01.04-.018C.228.034.24.038.25.046a.082.082 0 01.025.046 1.127 1.127 0 010 .302.087.087 0 01-.027.045.051.051 0 01-.033.01z"/></symbol><symbol id="d"><path d="M.47.577V.559C.45.559.435.553.43.542a.094.094 0 01-.01-.044V.203C.42.176.425.159.433.15S.452.139.47.138V0H.452C.445.08.394.12.3.12H.168C.078.12.028.08.018 0H0v.138c.04.003.072.04.095.11.023.07.035.146.035.226a.204.204 0 01-.005.054C.12.54.115.548.109.552A.08.08 0 01.073.56v.018H.47M.284.546h-.12V.474A.573.573 0 00.085.15h.15c.032 0 .048.02.048.058v.338z"/></symbol><symbol id="e"><path d="M.382.258h-.25A.236.236 0 01.18.115a.102.102 0 01.08-.04C.28.074.299.08.315.09a.21.21 0 01.051.06L.382.138A.279.279 0 00.3.03.178.178 0 00.196 0a.173.173 0 00-.154.078A.276.276 0 000 .234c0 .077.02.137.062.182a.19.19 0 00.145.068.156.156 0 00.12-.057C.36.389.379.333.382.258m-.12.033a.438.438 0 01-.01.108.087.087 0 01-.025.044.04.04 0 01-.028.01C.182.452.17.442.158.426a.214.214 0 01-.03-.119V.291h.134z"/></symbol><symbol id="f"><path d="M0 0v.018c.019 0 .032.005.04.014C.047.042.05.06.05.087v.28c0 .03-.003.048-.011.057C.033.434.02.438 0 .438v.019h.232V.438C.216.438.205.434.198.426.19.418.188.4.188.373V.252h.13v.12c0 .023-.002.04-.006.05C.307.433.294.438.275.438v.019h.232V.438C.488.438.475.434.467.424.459.415.456.4.456.378v-.29c0-.03.003-.048.01-.056C.475.023.489.019.507.018V0H.276v.018C.29.018.303.022.309.03c.007.008.01.026.01.055v.137H.188V.087c0-.029.003-.047.01-.056C.205.022.216.018.232.018V0H0z"/></symbol><symbol id="g"><path d="M.275 0v.018c.03 0 .044.022.044.065v.224L.188.083C.188.041.203.02.232.018V0H0v.018c.019 0 .032.005.04.016.007.01.011.028.011.054V.37C.051.416.034.438 0 .438v.019h.232V.438C.215.438.204.433.197.424.191.414.188.397.188.37V.147l.13.227c0 .024-.003.04-.01.05C.301.434.29.438.275.438v.019h.232V.438C.49.438.477.434.468.425.46.417.456.401.456.376v-.29c0-.027.003-.045.01-.054C.476.022.489.018.508.018V0H.275z"/></symbol><symbol id="h"><path d="M0 .457h.232V.438C.215.438.203.433.197.424.19.414.188.395.188.366V.253c.036 0 .061.006.075.018a.172.172 0 01.039.068c.017.048.034.08.052.098a.097.097 0 00.073.027.108.108 0 00.067-.022.068.068 0 00.029-.057.069.069 0 00-.017-.047A.055.055 0 00.462.32C.426.32.407.34.406.376.406.402.4.416.39.416.373.416.356.393.34.349A.693.693 0 00.31.279.128.128 0 00.284.25.18.18 0 00.355.222.29.29 0 00.414.146l.043-.07C.48.04.504.02.529.019V0H.353L.217.222H.188V.095c0-.028.003-.048.01-.06C.205.026.216.02.232.019V0H0v.018c.015 0 .028.004.037.012.01.008.014.028.014.06v.27C.051.39.048.41.04.42.033.433.02.438 0 .438v.019z"/></symbol><symbol id="j"><path d="M.277.008v.018a.07.07 0 01.04.012c.01.007.016.025.016.051v.345H.204v-.2a.685.685 0 00-.01-.149A.11.11 0 00.086 0a.086.086 0 00-.064.023A.076.076 0 000 .078c0 .02.006.036.017.048a.058.058 0 00.045.02C.097.146.114.124.114.082c0-.02.004-.029.011-.029C.14.053.151.065.16.09A.566.566 0 01.17.234v.133c0 .03-.004.05-.012.061C.15.44.136.445.116.446v.018H.52V.446c-.033 0-.05-.02-.05-.061V.09C.47.07.474.052.48.042.487.032.5.027.519.026V.008H.277z"/></symbol><symbol id="k"><path d="M.123.678C.144.678.163.67.177.655A.072.072 0 00.199.602.072.072 0 00.176.55.072.072 0 00.123.527.072.072 0 00.07.549a.072.072 0 00-.022.053c0 .02.007.039.022.053a.072.072 0 00.053.023M.191.457V.095c0-.033.004-.053.012-.062C.21.023.225.019.247.018V0H0v.018c.02 0 .035.006.045.017.006.008.01.027.01.06V.36C.055.394.05.414.043.423.036.432.021.437 0 .438v.019h.191z"/></symbol><symbol id="l"><path d="M.24.074C.186.024.136 0 .09 0A.087.087 0 000 .09c0 .035.015.066.045.094.03.028.095.065.196.11v.047a.21.21 0 01-.006.065.05.05 0 01-.021.023.063.063 0 01-.035.01.09.09 0 01-.053-.014C.118.42.114.413.114.405c0-.007.004-.016.013-.026C.14.365.146.352.146.34A.054.054 0 00.128.298.065.065 0 00.082.28.075.075 0 00.03.3a.057.057 0 00-.02.043.1.1 0 00.027.067.175.175 0 00.078.05.317.317 0 00.103.017c.044 0 .078-.01.103-.028a.128.128 0 00.05-.06.388.388 0 00.006-.094V.118c0-.021 0-.034.002-.04A.023.023 0 01.387.066a.017.017 0 01.01-.004c.01 0 .018.007.027.019L.438.069a.18.18 0 00-.05-.053A.11.11 0 00.328 0a.093.093 0 00-.06.018.084.084 0 00-.027.056m0 .035v.153A.285.285 0 01.153.188a.09.09 0 01-.02-.053C.134.12.14.107.15.095A.044.044 0 01.184.082C.2.082.22.092.241.109z"/></symbol><symbol id="m"><path d="M.191.26V.09c0-.023.002-.04.006-.048A.038.038 0 01.214.024.118.118 0 01.26.018V0H0v.018c.02 0 .035.006.045.017.006.008.01.027.01.058v.482C.055.607.05.628.043.637.036.646.021.65 0 .652V.67h.191V.61c.016.024.033.04.05.051A.146.146 0 00.41.652.195.195 0 00.471.564.347.347 0 00.471.317.185.185 0 00.407.23.158.158 0 00.243.217.185.185 0 00.19.26m0 .05C.22.27.25.25.281.25.3.25.313.26.325.278.342.305.35.358.35.434.35.513.34.567.322.596a.057.057 0 01-.05.029C.24.625.212.6.192.553V.31z"/></symbol><symbol id="n"><path d="M.486.457V.438A.05.05 0 01.45.426C.442.418.438.4.438.368v-.26c0-.034.004-.058.01-.07C.457.026.469.02.487.018V0H.253v.018C.285.02.3.047.3.1v.106a.723.723 0 00-.043 0L.181 0H0v.018c.035 0 .06.02.076.06l.052.143C.06.242.025.28.025.337c0 .029.009.053.027.073.018.02.04.033.064.038a.693.693 0 00.131.009h.239M.3.419a.216.216 0 01-.048.007C.225.426.204.417.19.4A.094.094 0 01.169.337c0-.03.01-.056.03-.074C.217.244.246.235.285.235H.3V.42z"/></symbol><use xlink:href="#b" transform="matrix(12.6303 0 0 -12.6303 247.918 54.072)" fill="#231f20"/><use xlink:href="#c" transform="matrix(12.6303 0 0 -12.6303 261.712 51.802)" fill="#231f20"/><use xlink:href="#d" transform="matrix(12.6303 0 0 -12.6303 267.205 53.147)" fill="#231f20"/><use xlink:href="#e" transform="matrix(12.6303 0 0 -12.6303 274.083 51.802)" fill="#231f20"/><use xlink:href="#f" transform="matrix(12.6303 0 0 -12.6303 279.635 51.63)" fill="#231f20"/><use xlink:href="#f" transform="matrix(12.6303 0 0 -12.6303 286.91 51.63)" fill="#231f20"/><use xlink:href="#g" transform="matrix(12.6303 0 0 -12.6303 294.185 51.63)" fill="#231f20"/><use xlink:href="#h" transform="matrix(12.6303 0 0 -12.6303 301.466 51.63)" fill="#231f20"/><use xlink:href="#i" transform="matrix(12.6303 0 0 -12.6303 308.304 51.63)" fill="#231f20"/><use xlink:href="#j" transform="matrix(12.6303 0 0 -12.6303 311.535 51.728)" fill="#231f20"/><use xlink:href="#k" transform="matrix(12.6303 0 0 -12.6303 318.806 51.63)" fill="#231f20"/><use xlink:href="#h" transform="matrix(12.6303 0 0 -12.6303 322.496 51.63)" fill="#231f20"/><use xlink:href="#l" transform="matrix(12.6303 0 0 -12.6303 329.711 51.71)" fill="#231f20"/><use xlink:href="#m" transform="matrix(12.6303 0 0 -12.6303 335.7 54.33)" fill="#231f20"/><use xlink:href="#n" transform="matrix(12.6303 0 0 -12.6303 342.697 51.63)" fill="#231f20"/><symbol id="o"><path d="M.105.853h.546V.834C.611.834.584.827.573.814.56.805.556.777.556.733V.365A.41.41 0 01.568.233C.576.217.602.208.647.208V0H.63a.293.293 0 01-.047.117.16.16 0 01-.074.059.294.294 0 01-.098.014H.24C.169.19.114.17.08.13A.254.254 0 01.017 0H0v.208c.052.005.095.036.128.095.033.058.056.13.068.214.013.085.02.155.02.21a.16.16 0 01-.013.07C.195.814.185.824.173.828a.286.286 0 01-.068.007v.019m.16-.037A1.937 1.937 0 00.217.41.49.49 0 00.126.227h.245c.044 0 .07.003.078.01.009.009.013.034.013.076v.503H.264z"/></symbol><symbol id="p"><path d="M.249.074A.737.737 0 00.163.012.132.132 0 00.106 0C.076 0 .05.01.03.032A.117.117 0 000 .115c0 .022.005.04.015.057a.194.194 0 00.069.062c.033.02.088.044.165.072v.017c0 .045-.007.075-.021.092C.214.432.193.44.166.44A.07.07 0 01.117.423.05.05 0 01.1.385V.357C.1.342.097.33.089.322A.039.039 0 00.058.31a.039.039 0 00-.03.013.05.05 0 00-.01.034c0 .028.013.054.042.078A.186.186 0 00.18.47.21.21 0 00.279.45.092.092 0 00.321.402.267.267 0 00.33.316V.165c0-.043 0-.07.002-.08C.334.077.336.07.34.068A.02.02 0 01.353.062c.005 0 .01.001.014.003l.04.036V.074C.37.024.334 0 .301 0a.047.047 0 00-.038.017C.254.028.249.047.249.074m0 .031v.17a.964.964 0 01-.095-.04.164.164 0 01-.055-.046.087.087 0 01-.017-.05c0-.024.007-.044.021-.06A.064.064 0 01.151.058C.176.057.21.073.25.105z"/></symbol><symbol id="q"><path d="M.019.447h.386l.02-.12H.403a.14.14 0 01-.02.056.066.066 0 01-.03.026.197.197 0 01-.061.007h-.04V.105C.253.072.256.051.26.042a.032.032 0 01.02-.018A.294.294 0 01.34.018V0H.098v.018c.031 0 .051.006.06.015.01.01.014.034.014.072v.31h-.04A.2.2 0 01.075.41a.062.062 0 01-.03-.024.176.176 0 01-.023-.06H0l.019.121z"/></symbol><symbol id="r"><path d="M.45.222H.193L.148.117A.165.165 0 01.132.06c0-.01.005-.02.014-.027C.156.025.176.02.208.018V0H0v.018c.028.005.046.011.054.02a.3.3 0 01.055.094l.233.545h.017l.23-.55A.258.258 0 01.64.04.105.105 0 01.704.018V0H.442v.018C.468.02.486.024.495.031.505.04.51.048.51.06a.202.202 0 01-.02.067L.45.222M.437.258L.324.525.208.258h.228z"/></symbol><symbol id="s"><path d="M.148.248h.194v.094a.27.27 0 01-.004.055.037.037 0 01-.017.022C.312.426.297.43.274.43v.018H.49V.43A.108.108 0 01.446.422a.036.036 0 01-.019-.02.216.216 0 01-.005-.06V.105c0-.028.002-.047.004-.056A.039.039 0 01.444.026.096.096 0 01.49.018V0H.274v.018C.3.018.319.023.328.033c.01.01.014.034.014.072v.11H.148v-.11C.148.077.15.058.152.049A.039.039 0 01.17.026.096.096 0 01.216.018V0H0v.018c.029 0 .048.005.056.016.008.01.012.034.012.071v.237a.252.252 0 01-.004.056.035.035 0 01-.018.022A.096.096 0 010 .43v.018h.216V.43A.108.108 0 01.172.422a.036.036 0 01-.019-.02.216.216 0 01-.005-.06V.248z"/></symbol><symbol id="t"><path d="M.298.117l.14.33h.15V.43C.566.429.551.426.544.422A.05.05 0 01.527.406.17.17 0 01.52.342V.105c0-.03.001-.051.004-.06a.036.036 0 01.019-.02.11.11 0 01.044-.007V0H.372v.018C.4.018.417.023.426.033c.009.01.013.034.013.072v.269L.281 0H.264L.103.374V.105c0-.03.002-.051.005-.06a.036.036 0 01.019-.02.106.106 0 01.044-.007V0H0v.018c.029 0 .048.005.056.016.008.01.012.034.012.071v.237a.187.187 0 01-.006.062.049.049 0 01-.016.017C.038.426.023.429 0 .429v.018h.157l.14-.33z"/></symbol><symbol id="u"><path d="M.07.292A.23.23 0 01.117.136.147.147 0 01.232.08c.03 0 .055.008.077.024a.18.18 0 01.054.083l.015-.01a.234.234 0 00-.06-.122A.16.16 0 00.196 0c-.053 0-.1.02-.138.063A.242.242 0 000 .23c0 .077.02.137.059.18.039.042.088.064.148.064.05 0 .09-.017.123-.05A.18.18 0 00.378.292H.07m0 .029h.207a.191.191 0 01-.01.06.096.096 0 01-.037.043.09.09 0 01-.05.016.101.101 0 01-.073-.032A.136.136 0 01.07.321z"/></symbol><symbol id="v"><path d="M.03.32v.14h.02A.029.029 0 01.07.454a.18.18 0 01.035.008.29.29 0 00.076.013C.224.474.26.464.29.444A.092.092 0 00.332.365c0-.05-.038-.087-.115-.11C.307.237.351.195.351.13A.12.12 0 00.308.04C.28.012.238 0 .183 0a.223.223 0 00-.095.019A.358.358 0 000 .084l.013.013A.253.253 0 01.165.035c.027 0 .05.01.067.028a.1.1 0 01.026.072c0 .065-.042.1-.125.103v.029c.04 0 .068.01.085.03a.103.103 0 01.027.069c0 .02-.008.04-.023.055a.078.078 0 01-.06.024C.104.445.066.404.047.321H.029z"/></symbol><symbol id="w"><path d="M0 0v.021C.034.033.06.05.078.073a.116.116 0 01.027.074.027.027 0 01-.004.016C.1.166.097.167.094.167a.071.071 0 01-.023-.01.04.04 0 00-.019-.004.051.051 0 00-.038.014.053.053 0 00-.014.04c0 .015.006.029.018.04a.064.064 0 00.045.017c.021 0 .04-.01.057-.028A.106.106 0 00.146.162.144.144 0 00.11.068.228.228 0 000 0z"/></symbol><symbol id="y"><path d="M.377.184a.244.244 0 00-.07-.137A.17.17 0 00.188 0a.172.172 0 00-.132.064A.251.251 0 000 .237c0 .07.02.127.063.171a.201.201 0 00.15.066C.257.474.293.462.322.44.35.416.364.392.364.367a.04.04 0 00-.012-.03A.046.046 0 00.32.324c-.02 0-.034.006-.044.019C.27.35.266.364.265.383a.063.063 0 01-.02.044.07.07 0 01-.048.014A.097.097 0 01.12.405.192.192 0 01.079.28c0-.054.013-.1.04-.142a.121.121 0 01.106-.06c.032 0 .06.01.086.032A.22.22 0 01.363.19L.377.184z"/></symbol><symbol id="z"><path d="M0 .663h.208V.645h-.01C.184.645.173.642.165.635a.03.03 0 01-.01-.023C.154.599.16.582.17.559L.28.333l.1.248a.103.103 0 01.008.04c0 .005-.001.01-.004.012a.025.025 0 01-.012.009.086.086 0 01-.03.003v.018h.146V.645A.07.07 0 01.46.637.08.08 0 01.44.615.305.305 0 01.422.578L.24.13A.23.23 0 00.17.033.135.135 0 00.09 0a.068.068 0 00-.047.017.05.05 0 00-.02.038c0 .013.005.024.014.033C.046.096.058.1.073.1.084.1.1.097.117.09A.105.105 0 01.142.081c.01 0 .02.005.031.015.012.01.024.03.035.059L.24.233.08.571a.27.27 0 01-.044.06A.11.11 0 010 .645v.018z"/></symbol><symbol id="A"><path d="M.08.571h.394V.553C.452.553.437.55.43.546A.05.05 0 01.413.53.17.17 0 01.406.466v-.22C.406.198.41.17.418.158.426.15.445.143.474.142V0H.456a.146.146 0 01-.02.07.096.096 0 01-.05.042.275.275 0 01-.094.012H.177a.299.299 0 01-.084-.01.097.097 0 01-.05-.04A.162.162 0 01.017 0H0v.142c.027.001.05.012.073.032.022.02.04.06.057.118a.639.639 0 01.025.174C.155.522.13.551.08.553V.57M.187.54V.513C.188.353.16.233.102.156h.166c.03 0 .047.002.051.007.005.005.007.024.007.056v.32H.187z"/></symbol><symbol id="B"><path d="M.116.694A.046.046 0 00.15.68.046.046 0 00.165.645.048.048 0 00.15.61.046.046 0 00.116.595.048.048 0 00.08.61a.048.048 0 00-.015.035C.066.659.07.67.08.68c.01.01.022.014.036.014M.156.46V.101c0-.028.002-.047.006-.056A.045.045 0 01.18.025.098.098 0 01.224.017V0H.007v.018C.029.018.043.02.05.024a.042.042 0 01.017.02c.005.01.007.03.007.057v.172a.61.61 0 01-.004.095C.069.378.065.385.06.389A.03.03 0 01.04.396.098.098 0 01.007.388L0 .406.135.46h.021z"/></symbol><symbol id="C"><path d="M.37.447L.39.325H.367C.355.365.342.391.33.4.317.41.29.416.25.416H.156V.105C.156.07.158.05.16.043A.053.053 0 01.178.025C.186.021.2.018.224.018V0H0v.018c.032 0 .052.006.062.015.009.01.013.033.013.072v.237a.205.205 0 01-.005.06.034.034 0 01-.02.02A.15.15 0 010 .43v.018h.37z"/></symbol><symbol id="D"><path d="M.216.474A.198.198 0 00.38.397.237.237 0 00.432.246c0-.04-.01-.081-.03-.122A.21.21 0 00.324.031.208.208 0 00.211 0a.19.19 0 00-.16.08A.25.25 0 000 .234c0 .04.01.082.03.122a.208.208 0 00.186.12M.201.441A.102.102 0 01.15.427.107.107 0 01.107.373a.26.26 0 01-.016-.1C.09.21.104.154.129.106.155.058.19.035.232.035.264.035.29.048.31.074.33.1.34.144.34.208.34.288.325.35.29.396A.106.106 0 01.2.442z"/></symbol><symbol id="E"><path d="M.071.455h.4V.437C.45.437.434.434.427.43A.05.05 0 01.41.414.17.17 0 01.403.35V.113C.403.078.405.058.41.05A.053.053 0 01.425.033C.433.028.448.026.471.026V.008H.24v.018c.025 0 .042.001.052.004.01.002.017.009.022.018.006.01.009.032.009.065v.31h-.15V.235a.786.786 0 00-.009-.15A.103.103 0 00.126.02.105.105 0 00.062 0C.021 0 0 .017 0 .052 0 .063.003.073.01.08a.034.034 0 00.026.01.045.045 0 00.032-.013C.08.065.09.059.097.059.11.06.122.071.128.096c.007.024.01.068.01.13v.098c0 .05-.003.081-.01.093C.12.427.101.434.07.437v.018z"/></symbol><symbol id="F"><path d="M.458 0H.326C.285.06.248.12.214.183a.155.155 0 01-.021.032.032.032 0 01-.026.01.27.27 0 01-.019 0v-.12C.148.073.15.052.154.043a.036.036 0 01.02-.02.146.146 0 01.05-.005V0H0v.018c.029 0 .048.005.056.016.008.01.012.034.012.071v.237a.187.187 0 01-.006.062.049.049 0 01-.016.017C.038.426.023.429 0 .429v.018h.224V.43a.126.126 0 01-.05-.006.08.08 0 01-.018-.015C.151.403.148.381.148.342V.254a.101.101 0 01.07.016c.019.011.034.035.048.072a.371.371 0 00.031.07c.009.012.02.021.035.029a.1.1 0 00.047.012A.065.065 0 00.42.44.04.04 0 00.437.407a.042.042 0 00-.012-.03.041.041 0 00-.031-.011.082.082 0 00-.027.006.103.103 0 01-.031.007C.32.379.309.366.299.34A.447.447 0 00.274.283a.204.204 0 00-.03-.034.08.08 0 00.033-.023.636.636 0 00.067-.103A.437.437 0 01.4.037.083.083 0 01.458.018V0z"/></symbol><symbol id="G"><path d="M.292.236C.373.22.414.181.414.122A.1.1 0 00.363.03.279.279 0 00.22 0H0v.018c.029 0 .047.005.055.016.007.011.011.035.011.071v.237a.19.19 0 01-.005.062.046.046 0 01-.016.017C.038.426.023.429 0 .429v.018h.206c.04 0 .072-.003.096-.009a.114.114 0 00.06-.037.097.097 0 00.025-.066C.387.285.355.251.292.236M.147.248h.026C.218.247.25.255.27.271A.08.08 0 01.3.335C.3.363.29.384.27.396a.188.188 0 01-.097.02H.147V.248m0-.208A.192.192 0 01.206.032c.038 0 .067.008.086.025A.084.084 0 01.32.123C.32.153.308.175.284.19a.185.185 0 01-.102.024H.147V.04z"/></symbol><symbol id="H"><path d="M.438.447V.43A.094.094 0 01.393.42.04.04 0 01.375.4.224.224 0 01.37.341V.105C.37.077.371.058.374.049A.039.039 0 01.393.027.093.093 0 01.438.018V0H.222v.018c.027 0 .045.005.054.015.009.01.014.034.014.072v.097H.254L.11 0H0v.018c.016 0 .028.002.034.006a.225.225 0 01.035.044l.105.147C.099.241.062.281.062.335a.1.1 0 00.04.079c.027.022.072.033.137.033h.199M.29.41a.133.133 0 01-.037.006C.221.416.196.407.18.39A.08.08 0 01.155.333C.155.304.167.281.19.262a.134.134 0 01.1-.028V.41z"/></symbol><symbol id="I"><path d="M.002.617L.14.672H.16V.568c.023.04.046.067.069.082a.13.13 0 00.074.024.142.142 0 00.112-.052A.25.25 0 00.47.454.28.28 0 00.403.262.176.176 0 00.265.2a.172.172 0 00-.062.01.146.146 0 00-.044.03V.104c0-.031.001-.05.005-.059a.043.043 0 01.02-.02.122.122 0 01.05-.007V0H0v.018h.012c.018 0 .033.003.046.01.006.004.011.01.014.018a.196.196 0 01.006.06V.53a.23.23 0 01-.004.055.033.033 0 01-.013.018.04.04 0 01-.023.006A.088.088 0 01.008.6L.002.617M.16.539V.372c0-.036.001-.06.004-.071A.092.092 0 01.196.25.104.104 0 01.264.229c.032 0 .059.013.079.039a.22.22 0 01.04.14c0 .068-.016.12-.046.157a.093.093 0 01-.12.027.272.272 0 01-.058-.053z"/></symbol><symbol id="J"><path d="M.49.142V0H.472a.123.123 0 01-.037.09C.41.114.368.125.305.125H0v.018c.029 0 .048.005.056.016.008.01.012.034.012.071v.237a.187.187 0 01-.006.062.049.049 0 01-.016.017C.038.55.023.553 0 .553V.57h.216V.553C.194.553.18.55.172.546A.05.05 0 01.155.53.17.17 0 01.148.466V.214c0-.028.003-.045.008-.05C.16.158.177.156.205.156h.079c.03 0 .047.003.051.008C.34.17.342.187.342.218v.248a.22.22 0 01-.005.06.034.034 0 01-.02.02.106.106 0 01-.043.007V.57H.49V.553C.468.553.454.55.446.546A.05.05 0 01.43.53.17.17 0 01.422.466v-.23C.422.194.426.168.434.16.44.149.46.143.49.142z"/></symbol><symbol id="K"><path d="M.184.46V.101C.184.073.186.054.19.045a.045.045 0 01.018-.02.098.098 0 01.044-.007V0H.035v.018C.057.018.072.02.08.024a.042.042 0 01.018.02c.004.01.007.03.007.057v.172a.61.61 0 01-.005.095C.097.378.093.385.09.389a.03.03 0 01-.02.007.098.098 0 01-.034-.008L.028.406.163.46h.021m.041.193A.05.05 0 00.262.637.051.051 0 00.278.6.051.051 0 00.262.562.05.05 0 00.225.547.052.052 0 00.172.6c0 .014.005.027.016.037.01.01.022.016.037.016m-.172 0A.05.05 0 00.09.637.051.051 0 00.106.6.051.051 0 00.09.562.052.052 0 00.053.547.052.052 0 000 .6a.052.052 0 00.053.053z"/></symbol><use xlink:href="#o" transform="matrix(11.8935 0 0 -11.8935 62.199 71.041)" fill="#231f20"/><use xlink:href="#p" transform="matrix(11.8935 0 0 -11.8935 70.583 68.886)" fill="#231f20"/><use xlink:href="#q" transform="matrix(11.8935 0 0 -11.8935 75.2 68.776)" fill="#231f20"/><use xlink:href="#p" transform="matrix(11.8935 0 0 -11.8935 80.895 68.886)" fill="#231f20"/><use xlink:href="#r" transform="matrix(11.8935 0 0 -11.8935 197.929 67.789)" fill="#231f20"/><use xlink:href="#s" transform="matrix(11.8935 0 0 -11.8935 206.69 67.789)" fill="#231f20"/><use xlink:href="#p" transform="matrix(11.8935 0 0 -11.8935 213.21 67.9)" fill="#231f20"/><use xlink:href="#t" transform="matrix(11.8935 0 0 -11.8935 218.334 67.789)" fill="#231f20"/><use xlink:href="#s" transform="matrix(11.8935 0 0 -11.8935 225.863 67.789)" fill="#231f20"/><use xlink:href="#u" transform="matrix(11.8935 0 0 -11.8935 232.4 67.952)" fill="#231f20"/><use xlink:href="#v" transform="matrix(11.8935 0 0 -11.8935 237.521 67.952)" fill="#231f20"/><use xlink:href="#w" transform="matrix(11.8935 0 0 -11.8935 242.719 69.77)" fill="#231f20"/><use xlink:href="#x" transform="matrix(11.8935 0 0 -11.8935 245.053 67.789)" fill="#231f20"/><use xlink:href="#y" transform="matrix(11.8935 0 0 -11.8935 248.433 67.952)" fill="#231f20"/><use xlink:href="#q" transform="matrix(11.8935 0 0 -11.8935 253.377 67.789)" fill="#231f20"/><use xlink:href="#p" transform="matrix(11.8935 0 0 -11.8935 259.071 67.9)" fill="#231f20"/><use xlink:href="#q" transform="matrix(11.8935 0 0 -11.8935 263.689 67.789)" fill="#231f20"/><use xlink:href="#z" transform="matrix(11.8935 0 0 -11.8935 268.731 70.356)" fill="#231f20"/><use xlink:href="#y" transform="matrix(11.8935 0 0 -11.8935 275.015 67.952)" fill="#231f20"/><use xlink:href="#w" transform="matrix(11.8935 0 0 -11.8935 280.528 69.77)" fill="#231f20"/><use xlink:href="#x" transform="matrix(11.8935 0 0 -11.8935 282.863 67.789)" fill="#231f20"/><use xlink:href="#A" transform="matrix(11.8935 0 0 -11.8935 285.987 69.264)" fill="#231f20"/><use xlink:href="#B" transform="matrix(11.8935 0 0 -11.8935 292.238 67.789)" fill="#231f20"/><use xlink:href="#p" transform="matrix(11.8935 0 0 -11.8935 295.62 67.9)" fill="#231f20"/><use xlink:href="#C" transform="matrix(11.8935 0 0 -11.8935 300.657 67.789)" fill="#231f20"/><use xlink:href="#s" transform="matrix(11.8935 0 0 -11.8935 305.62 67.789)" fill="#231f20"/><use xlink:href="#D" transform="matrix(11.8935 0 0 -11.8935 312.117 67.952)" fill="#231f20"/><use xlink:href="#v" transform="matrix(11.8935 0 0 -11.8935 317.802 67.952)" fill="#231f20"/><use xlink:href="#w" transform="matrix(11.8935 0 0 -11.8935 323 69.77)" fill="#231f20"/><use xlink:href="#x" transform="matrix(11.8935 0 0 -11.8935 325.334 67.789)" fill="#231f20"/><use xlink:href="#E" transform="matrix(11.8935 0 0 -11.8935 328.377 67.882)" fill="#231f20"/><use xlink:href="#B" transform="matrix(11.8935 0 0 -11.8935 334.591 67.789)" fill="#231f20"/><use xlink:href="#F" transform="matrix(11.8935 0 0 -11.8935 337.816 67.789)" fill="#231f20"/><use xlink:href="#z" transform="matrix(11.8935 0 0 -11.8935 343.232 70.356)" fill="#231f20"/><use xlink:href="#G" transform="matrix(11.8935 0 0 -11.8935 349.388 67.789)" fill="#231f20"/><use xlink:href="#p" transform="matrix(11.8935 0 0 -11.8935 354.993 67.9)" fill="#231f20"/><use xlink:href="#s" transform="matrix(11.8935 0 0 -11.8935 360.116 67.789)" fill="#231f20"/><use xlink:href="#s" transform="matrix(11.8935 0 0 -11.8935 366.48 67.789)" fill="#231f20"/><use xlink:href="#H" transform="matrix(11.8935 0 0 -11.8935 372.57 67.789)" fill="#231f20"/><use xlink:href="#w" transform="matrix(11.8935 0 0 -11.8935 378.685 69.77)" fill="#231f20"/><use xlink:href="#x" transform="matrix(11.8935 0 0 -11.8935 381.02 67.789)" fill="#231f20"/><use xlink:href="#I" transform="matrix(11.8935 0 0 -11.8935 383.952 70.333)" fill="#231f20"/><use xlink:href="#u" transform="matrix(11.8935 0 0 -11.8935 390.381 67.952)" fill="#231f20"/><use xlink:href="#F" transform="matrix(11.8935 0 0 -11.8935 395.488 67.789)" fill="#231f20"/><use xlink:href="#D" transform="matrix(11.8935 0 0 -11.8935 400.795 67.952)" fill="#231f20"/><use xlink:href="#t" transform="matrix(11.8935 0 0 -11.8935 406.382 67.789)" fill="#231f20"/><use xlink:href="#u" transform="matrix(11.8935 0 0 -11.8935 414.085 67.952)" fill="#231f20"/><use xlink:href="#s" transform="matrix(11.8935 0 0 -11.8935 419.192 67.789)" fill="#231f20"/><use xlink:href="#A" transform="matrix(11.8935 0 0 -11.8935 425.438 69.264)" fill="#231f20"/><use xlink:href="#p" transform="matrix(11.8935 0 0 -11.8935 431.765 67.9)" fill="#231f20"/><use xlink:href="#J" transform="matrix(11.8935 0 0 -11.8935 436.89 69.264)" fill="#231f20"/><use xlink:href="#B" transform="matrix(11.8935 0 0 -11.8935 443.333 67.789)" fill="#231f20"/><use xlink:href="#K" transform="matrix(11.8935 0 0 -11.8935 446.303 67.789)" fill="#231f20"/><symbol id="L"><path d="M.252.624v-.27h.014c.042 0 .072.014.09.04.02.026.032.065.037.117h.019V.164H.393a.256.256 0 01-.025.093.104.104 0 01-.043.048.163.163 0 01-.073.013V.13c0-.036.002-.058.005-.067a.042.042 0 01.017-.02.081.081 0 01.041-.007h.04C.417.037.466.05.503.08a.239.239 0 01.081.13h.018L.572 0H0v.018h.022c.02 0 .035.003.046.01a.044.044 0 01.02.024.201.201 0 01.005.061V.55c0 .03 0 .048-.002.055A.047.047 0 01.073.63a.084.084 0 01-.051.014H0v.018h.554V.466H.536a.236.236 0 01-.04.103.146.146 0 01-.073.046.393.393 0 01-.102.009H.252z"/></symbol><symbol id="M"><path d="M.393 0v.018h.021c.032 0 .052.007.06.02a.167.167 0 01.012.076v.505H.252V.114c0-.043.005-.07.016-.08.01-.01.03-.016.058-.016h.02V0H0v.018h.021c.029 0 .048.006.058.017.01.01.014.037.014.079v.435c0 .04-.005.065-.013.077C.07.638.05.644.02.644H0v.018h.739V.644H.72C.69.644.67.638.66.625.65.613.645.588.645.55V.114c0-.043.006-.07.017-.08.01-.01.031-.016.061-.016H.74V0H.393z"/></symbol><symbol id="N"><path d="M.346.018V0H0v.018h.022c.02 0 .035.003.046.01a.044.044 0 01.02.024.201.201 0 01.005.061V.55a.218.218 0 01-.005.063.048.048 0 01-.022.022.085.085 0 01-.044.01H0v.018h.346V.644H.324a.092.092 0 01-.046-.01.047.047 0 01-.02-.024A.201.201 0 01.252.55V.113C.252.08.254.058.258.05A.053.053 0 01.28.027.091.091 0 01.324.018h.022z"/></symbol><symbol id="O"><path d="M0 .662h.345V.644H.333C.301.644.28.638.268.626.258.614.252.592.252.559V.36c.046 0 .075.001.089.004a.07.07 0 01.038.027.252.252 0 01.034.086c.012.05.025.087.036.111A.148.148 0 00.5.648.136.136 0 00.578.67.105.105 0 00.653.643.086.086 0 00.68.578.062.062 0 00.662.53.067.067 0 00.615.512c-.037 0-.057.022-.06.065C.553.598.545.609.532.609.518.609.505.6.495.584A.377.377 0 01.46.494.993.993 0 00.43.4.144.144 0 00.395.347a.132.132 0 00.047-.02.132.132 0 00.031-.034C.483.28.502.246.532.191L.599.07A.111.111 0 01.636.03.104.104 0 01.69.018V0H.467L.331.254a.202.202 0 01-.035.052C.29.312.274.316.252.316V.092c0-.032.006-.052.02-.06C.284.021.308.017.344.017V0H0v.018c.038 0 .063.006.075.017.012.01.018.033.018.068v.443C.093.585.088.61.079.624c-.01.013-.031.02-.065.02H0v.018z"/></symbol><symbol id="P"><path d="M.245.3V.116C.245.08.247.058.25.048A.05.05 0 01.274.026.158.158 0 01.336.018V0H0v.018c.03 0 .051.003.062.008A.05.05 0 01.085.05C.09.058.092.08.092.116v.43a.195.195 0 01-.007.067.047.047 0 01-.023.023A.156.156 0 010 .644v.018h.289c.095 0 .163-.017.204-.05A.158.158 0 00.555.483a.162.162 0 00-.04-.11.204.204 0 00-.11-.062A.754.754 0 00.245.3m0 .324V.338L.269.337c.04 0 .07.012.092.035.021.024.032.06.032.11S.383.567.361.59C.339.613.307.624.265.624h-.02z"/></symbol><symbol id="Q"><path d="M.49.553c0 .036-.004.06-.013.072C.47.638.448.644.415.644H.393v.018h.355V.644H.725c-.03 0-.05-.006-.06-.018C.654.615.648.59.648.55V.114c0-.04.005-.067.016-.079.01-.011.03-.017.06-.017h.023V0H.393v.018h.022c.031 0 .051.006.06.018C.486.05.49.074.49.114v.36L.257.106C.257.075.26.053.269.039.276.025.298.019.332.019h.023V0H0v.018h.022c.03 0 .051.006.061.018.01.013.015.038.015.078v.435c0 .04-.004.066-.012.077C.078.638.056.644.022.644H0v.018h.355V.644H.332c-.03 0-.05-.006-.06-.02C.262.613.257.588.257.55V.187L.49.553z"/></symbol><symbol id="R"><path d="M.032.489v.203H.05C.054.67.063.657.077.657c.007 0 .018.003.034.01a.34.34 0 00.124.025c.068 0 .12-.016.157-.05A.152.152 0 00.448.526a.153.153 0 00-.061-.12A.302.302 0 00.28.363c.07-.011.12-.034.15-.068A.164.164 0 00.472.186.167.167 0 00.443.09.185.185 0 00.358.023.366.366 0 00.217 0a.315.315 0 00-.131.022A.23.23 0 000 .096l.02.02C.067.069.114.044.164.044c.041 0 .073.014.097.04a.15.15 0 01.035.104c0 .033-.007.06-.022.084A.107.107 0 01.219.32a.309.309 0 01-.094.013v.043h.028C.198.375.23.387.25.412c.019.026.028.062.028.11 0 .047-.01.08-.029.1a.093.093 0 01-.07.03A.108.108 0 01.092.61.207.207 0 01.054.49H.032z"/></symbol><use xlink:href="#L" transform="matrix(11.8935 0 0 -11.8935 118.78 284.845)" fill="#231f20"/><use xlink:href="#M" transform="matrix(11.8935 0 0 -11.8935 126.713 284.845)" fill="#231f20"/><use xlink:href="#N" transform="matrix(11.8935 0 0 -11.8935 135.966 284.845)" fill="#231f20"/><use xlink:href="#O" transform="matrix(11.8935 0 0 -11.8935 140.599 284.845)" fill="#231f20"/><use xlink:href="#P" transform="matrix(11.8935 0 0 -11.8935 149.28 284.845)" fill="#231f20"/><use xlink:href="#Q" transform="matrix(11.8935 0 0 -11.8935 156.43 284.845)" fill="#231f20"/><use xlink:href="#R" transform="matrix(11.8935 0 0 -11.8935 165.736 285.025)" fill="#231f20"/><symbol id="S"><path d="M.462.634H.257V.448C.257.261.24.14.208.083.176.028.132 0 .075 0 .051 0 .033.006.02.018A.055.055 0 000 .059C0 .071.004.082.013.09a.041.041 0 00.03.014c.01 0 .022-.005.035-.015a.07.07 0 01.04-.016c.028 0 .051.023.069.07a.878.878 0 01.027.268v.138c0 .044-.006.072-.017.083C.185.644.159.651.118.652V.67h.533V.652C.61.65.584.644.572.632.561.621.555.592.555.55V.13c0-.044.006-.072.017-.084C.584.034.61.027.651.025V.009H.366v.018c.041.001.067.008.079.02.011.011.017.039.017.082v.506z"/></symbol><symbol id="T"><path d="M.029.499v.192h.017C.05.67.063.66.082.66c.007 0 .022.005.046.013.037.014.075.02.116.02A.18.18 0 00.375.643a.157.157 0 00.05-.115.151.151 0 00-.037-.103.22.22 0 00-.1-.063.18.18 0 00.15-.176c0-.055-.02-.1-.063-.134A.241.241 0 00.217 0C.124 0 .051.044 0 .133l.017.01A.216.216 0 01.19.045c.043 0 .077.015.1.043a.16.16 0 01.037.106c0 .043-.016.08-.046.11-.03.029-.08.044-.15.044v.032c.05 0 .087.005.112.016.025.01.045.027.06.05.016.024.024.05.024.082 0 .036-.01.065-.033.088a.117.117 0 01-.088.034.144.144 0 01-.11-.042A.206.206 0 01.046.5H.029z"/></symbol><symbol id="U"><path d="M.054.108A.052.052 0 00.093.092.052.052 0 00.108.054.053.053 0 00.092.016.052.052 0 00.054 0 .053.053 0 000 .054C0 .07.005.082.016.093c.01.01.023.015.038.015z"/></symbol><use xlink:href="#S" transform="matrix(11.8935 0 0 -11.8935 40.352 374.14)" fill="#231f20"/><use xlink:href="#B" transform="matrix(11.8935 0 0 -11.8935 48.66 374.047)" fill="#231f20"/><use xlink:href="#F" transform="matrix(11.8935 0 0 -11.8935 51.884 374.047)" fill="#231f20"/><use xlink:href="#p" transform="matrix(11.8935 0 0 -11.8935 57.643 374.157)" fill="#231f20"/><use xlink:href="#I" transform="matrix(11.8935 0 0 -11.8935 62.46 376.59)" fill="#231f20"/><use xlink:href="#T" transform="matrix(11.8935 0 0 -11.8935 292.247 373.24)" fill="#231f20"/><use xlink:href="#p" transform="matrix(11.8935 0 0 -11.8935 298.38 373.17)" fill="#231f20"/><use xlink:href="#G" transform="matrix(11.8935 0 0 -11.8935 303.515 373.06)" fill="#231f20"/><use xlink:href="#U" transform="matrix(11.8935 0 0 -11.8935 309.692 373.222)" fill="#231f20"/><use xlink:href="#x" transform="matrix(11.8935 0 0 -11.8935 311.823 373.06)" fill="#231f20"/><use xlink:href="#G" transform="matrix(11.8935 0 0 -11.8935 315.075 373.06)" fill="#231f20"/><use xlink:href="#B" transform="matrix(11.8935 0 0 -11.8935 320.759 373.06)" fill="#231f20"/><use xlink:href="#A" transform="matrix(11.8935 0 0 -11.8935 323.868 374.534)" fill="#231f20"/><use xlink:href="#A" transform="matrix(11.8935 0 0 -11.8935 329.922 374.534)" fill="#231f20"/><use xlink:href="#B" transform="matrix(11.8935 0 0 -11.8935 336.173 373.06)" fill="#231f20"/><use xlink:href="#E" transform="matrix(11.8935 0 0 -11.8935 339.2 373.152)" fill="#231f20"/><use xlink:href="#u" transform="matrix(11.8935 0 0 -11.8935 345.507 373.222)" fill="#231f20"/><use xlink:href="#s" transform="matrix(11.8935 0 0 -11.8935 350.614 373.06)" fill="#231f20"/><use xlink:href="#s" transform="matrix(11.8935 0 0 -11.8935 356.977 373.06)" fill="#231f20"/><use xlink:href="#H" transform="matrix(11.8935 0 0 -11.8935 363.067 373.06)" fill="#231f20"/><use xlink:href="#t" transform="matrix(11.8935 0 0 -11.8935 368.81 373.06)" fill="#231f20"/></svg>