<svg width="143" height="107" viewBox="0 0 143 107" fill="none" xmlns="http://www.w3.org/2000/svg">
<rect x="14.6494" y="96.9746" width="96.4738" height="127.851" rx="4.5" transform="rotate(-90 14.6494 96.9746)" fill="white" stroke="#3D5C9F"/>
<rect x="136.045" y="90.625" width="113.384" height="2.74574" rx="1.37287" transform="rotate(180 136.045 90.625)" fill="#C4C4C4"/>
<rect x="136.045" y="82.3867" width="113.384" height="2.74574" rx="1.37287" transform="rotate(180 136.045 82.3867)" fill="#C4C4C4"/>
<rect x="136.045" y="74.1484" width="113.384" height="2.74574" rx="1.37287" transform="rotate(180 136.045 74.1484)" fill="#C4C4C4"/>
<rect x="136.045" y="65.9141" width="113.384" height="2.74574" rx="1.37287" transform="rotate(180 136.045 65.9141)" fill="#C4C4C4"/>
<rect x="136.045" y="57.6758" width="113.384" height="2.74574" rx="1.37287" transform="rotate(180 136.045 57.6758)" fill="#C4C4C4"/>
<rect x="136.045" y="49.4395" width="113.384" height="2.74574" rx="1.37287" transform="rotate(180 136.045 49.4395)" fill="#C4C4C4"/>
<rect x="136.045" y="41.2012" width="113.384" height="2.74574" rx="1.37287" transform="rotate(180 136.045 41.2012)" fill="#C4C4C4"/>
<rect x="136.045" y="32.9629" width="113.384" height="2.74574" rx="1.37287" transform="rotate(180 136.045 32.9629)" fill="#C4C4C4"/>
<rect x="136.045" y="24.7266" width="113.384" height="2.74574" rx="1.37287" transform="rotate(180 136.045 24.7266)" fill="#C4C4C4"/>
<rect x="136.045" y="16.4922" width="113.384" height="2.74574" rx="1.37287" transform="rotate(180 136.045 16.4922)" fill="#C4C4C4"/>
<rect x="41.7988" y="9.15039" width="23.8513" height="24.1545" rx="4.5" fill="white" stroke="#3D5C9F"/>
<path d="M56.9096 23.5095V24.9395H50.9476V17.2395H56.7666V18.6695H52.7186V20.3415H56.2936V21.7275H52.7186V23.5095H56.9096Z" fill="#3D5C9F"/>
<rect x="66.6504" y="34.3047" width="23.8513" height="24.1545" rx="4.5" fill="white" stroke="#3D5C9F"/>
<path d="M81.2422 50.0937L81.2312 45.4737L78.9652 49.2797H78.1622L75.9072 45.5727V50.0937H74.2352V42.3937H75.7092L78.5912 47.1787L81.4292 42.3937H82.8922L82.9142 50.0937H81.2422Z" fill="#3D5C9F"/>
<rect x="91.501" y="59.459" width="23.8513" height="24.1545" rx="4.5" fill="white" stroke="#3D5C9F"/>
<path d="M103.992 75.38C103.207 75.38 102.496 75.2114 101.858 74.874C101.227 74.5294 100.729 74.0564 100.362 73.455C100.003 72.8464 99.823 72.1607 99.823 71.398C99.823 70.6354 100.003 69.9534 100.362 69.352C100.729 68.7434 101.227 68.2704 101.858 67.933C102.496 67.5884 103.211 67.416 104.003 67.416C104.67 67.416 105.272 67.5334 105.807 67.768C106.35 68.0027 106.804 68.34 107.171 68.78L106.027 69.836C105.506 69.2347 104.861 68.934 104.091 68.934C103.614 68.934 103.189 69.0404 102.815 69.253C102.441 69.4584 102.148 69.748 101.935 70.122C101.73 70.496 101.627 70.9214 101.627 71.398C101.627 71.8747 101.73 72.3 101.935 72.674C102.148 73.048 102.441 73.3414 102.815 73.554C103.189 73.7594 103.614 73.862 104.091 73.862C104.861 73.862 105.506 73.5577 106.027 72.949L107.171 74.005C106.804 74.4524 106.35 74.7934 105.807 75.028C105.264 75.2627 104.659 75.38 103.992 75.38Z" fill="#3D5C9F"/>
<rect x="6.78809" y="101.691" width="96.4738" height="129.423" rx="4.5" transform="rotate(-90 6.78809 101.691)" fill="white" stroke="#3D5C9F"/>
<rect x="129.671" y="95.3418" width="114.768" height="2.74574" rx="1.37287" transform="rotate(180 129.671 95.3418)" fill="#C4C4C4"/>
<rect x="129.671" y="87.1035" width="114.768" height="2.74574" rx="1.37287" transform="rotate(180 129.671 87.1035)" fill="#C4C4C4"/>
<rect x="129.671" y="78.8652" width="114.768" height="2.74574" rx="1.37287" transform="rotate(180 129.671 78.8652)" fill="#C4C4C4"/>
<rect x="129.671" y="70.6309" width="114.768" height="2.74574" rx="1.37287" transform="rotate(180 129.671 70.6309)" fill="#C4C4C4"/>
<rect x="129.671" y="62.3926" width="114.768" height="2.74574" rx="1.37287" transform="rotate(180 129.671 62.3926)" fill="#C4C4C4"/>
<rect x="129.671" y="54.1562" width="114.768" height="2.74574" rx="1.37287" transform="rotate(180 129.671 54.1562)" fill="#C4C4C4"/>
<rect x="129.671" y="45.918" width="114.768" height="2.74574" rx="1.37287" transform="rotate(180 129.671 45.918)" fill="#C4C4C4"/>
<rect x="129.671" y="37.6797" width="114.768" height="2.74574" rx="1.37287" transform="rotate(180 129.671 37.6797)" fill="#C4C4C4"/>
<rect x="129.671" y="29.4434" width="114.768" height="2.74574" rx="1.37287" transform="rotate(180 129.671 29.4434)" fill="#C4C4C4"/>
<rect x="129.671" y="21.209" width="114.768" height="2.74574" rx="1.37287" transform="rotate(180 129.671 21.209)" fill="#C4C4C4"/>
<rect x="34.2686" y="13.8672" width="24.1545" height="24.1545" rx="4.5" fill="white" stroke="#3D5C9F"/>
<path d="M49.5303 28.2243V29.6543H43.5683V21.9543H49.3873V23.3843H45.3393V25.0563H48.9143V26.4423H45.3393V28.2243H49.5303Z" fill="#3D5C9F"/>
<rect x="59.4229" y="39.0215" width="24.1545" height="24.1545" rx="4.5" fill="white" stroke="#3D5C9F"/>
<path d="M74.1666 54.8105L74.1556 50.1905L71.8896 53.9965H71.0866L68.8316 50.2895V54.8105H67.1596V47.1105H68.6336L71.5156 51.8955L74.3536 47.1105H75.8166L75.8386 54.8105H74.1666Z" fill="#3D5C9F"/>
<rect x="84.5781" y="64.1758" width="24.1545" height="24.1545" rx="4.5" fill="white" stroke="#3D5C9F"/>
<path d="M97.2201 80.0968C96.4355 80.0968 95.7241 79.9282 95.0861 79.5908C94.4555 79.2462 93.9568 78.7732 93.5901 78.1718C93.2308 77.5632 93.0511 76.8775 93.0511 76.1148C93.0511 75.3522 93.2308 74.6702 93.5901 74.0688C93.9568 73.4602 94.4555 72.9872 95.0861 72.6498C95.7241 72.3052 96.4391 72.1328 97.2311 72.1328C97.8985 72.1328 98.4998 72.2502 99.0351 72.4848C99.5778 72.7195 100.032 73.0568 100.399 73.4968L99.2551 74.5528C98.7345 73.9515 98.0891 73.6508 97.3191 73.6508C96.8425 73.6508 96.4171 73.7572 96.0431 73.9698C95.6691 74.1752 95.3758 74.4648 95.1631 74.8388C94.9578 75.2128 94.8551 75.6382 94.8551 76.1148C94.8551 76.5915 94.9578 77.0168 95.1631 77.3908C95.3758 77.7648 95.6691 78.0582 96.0431 78.2708C96.4171 78.4762 96.8425 78.5788 97.3191 78.5788C98.0891 78.5788 98.7345 78.2745 99.2551 77.6658L100.399 78.7218C100.032 79.1692 99.5778 79.5102 99.0351 79.7448C98.4925 79.9795 97.8875 80.0968 97.2201 80.0968Z" fill="#3D5C9F"/>
<rect x="0.5" y="106.408" width="96.4738" height="129.423" rx="4.5" transform="rotate(-90 0.5 106.408)" fill="white" stroke="#3D5C9F"/>
<rect x="123.383" y="100.059" width="114.768" height="2.74574" rx="1.37287" transform="rotate(180 123.383 100.059)" fill="#C4C4C4"/>
<rect x="123.383" y="91.8203" width="114.768" height="2.74574" rx="1.37287" transform="rotate(180 123.383 91.8203)" fill="#C4C4C4"/>
<rect x="123.383" y="83.582" width="114.768" height="2.74574" rx="1.37287" transform="rotate(180 123.383 83.582)" fill="#C4C4C4"/>
<rect x="123.383" y="75.3457" width="114.768" height="2.74574" rx="1.37287" transform="rotate(180 123.383 75.3457)" fill="#C4C4C4"/>
<rect x="123.383" y="67.1074" width="114.768" height="2.74574" rx="1.37287" transform="rotate(180 123.383 67.1074)" fill="#C4C4C4"/>
<rect x="123.383" y="58.873" width="114.768" height="2.74574" rx="1.37287" transform="rotate(180 123.383 58.873)" fill="#C4C4C4"/>
<rect x="123.383" y="50.6348" width="114.768" height="2.74574" rx="1.37287" transform="rotate(180 123.383 50.6348)" fill="#C4C4C4"/>
<rect x="123.383" y="42.3965" width="114.768" height="2.74574" rx="1.37287" transform="rotate(180 123.383 42.3965)" fill="#C4C4C4"/>
<rect x="123.383" y="34.1602" width="114.768" height="2.74574" rx="1.37287" transform="rotate(180 123.383 34.1602)" fill="#C4C4C4"/>
<rect x="123.383" y="25.9238" width="114.768" height="2.74574" rx="1.37287" transform="rotate(180 123.383 25.9238)" fill="#C4C4C4"/>
<rect x="123.383" y="17.6836" width="114.768" height="2.74574" rx="1.37287" transform="rotate(180 123.383 17.6836)" fill="#C4C4C4"/>
<rect x="27.9805" y="18.582" width="24.1545" height="24.1545" rx="4.5" fill="white" stroke="#3D5C9F"/>
<path d="M44.9805 34.1611V36.3711H35.7665V24.4711H44.7595V26.6811H38.5035V29.2651H44.0285V31.4071H38.5035V34.1611H44.9805Z" fill="#3D5C9F"/>
<rect x="53.1348" y="43.7383" width="24.1545" height="24.1545" rx="4.5" fill="white" stroke="#3D5C9F"/>
<path d="M69.3343 61.5254L69.3173 54.3854L65.8153 60.2674H64.5743L61.0893 54.5384V61.5254H58.5053V49.6254H60.7833L65.2373 57.0204L69.6233 49.6254H71.8843L71.9183 61.5254H69.3343Z" fill="#3D5C9F"/>
<rect x="78.29" y="68.8926" width="24.1545" height="24.1545" rx="4.5" fill="white" stroke="#3D5C9F"/>
<path d="M91.2389 86.8837C90.0262 86.8837 88.9269 86.623 87.9409 86.1017C86.9662 85.569 86.1955 84.838 85.6289 83.9087C85.0735 82.968 84.7959 81.9084 84.7959 80.7297C84.7959 79.551 85.0735 78.497 85.6289 77.5677C86.1955 76.627 86.9662 75.896 87.9409 75.3747C88.9269 74.842 90.0319 74.5757 91.2559 74.5757C92.2872 74.5757 93.2165 74.757 94.0439 75.1197C94.8825 75.4824 95.5852 76.0037 96.1519 76.6837L94.3839 78.3157C93.5792 77.3864 92.5819 76.9217 91.3919 76.9217C90.6552 76.9217 89.9979 77.086 89.4199 77.4147C88.8419 77.732 88.3885 78.1797 88.0599 78.7577C87.7425 79.3357 87.5839 79.993 87.5839 80.7297C87.5839 81.4664 87.7425 82.1237 88.0599 82.7017C88.3885 83.2797 88.8419 83.733 89.4199 84.0617C89.9979 84.379 90.6552 84.5377 91.3919 84.5377C92.5819 84.5377 93.5792 84.0674 94.3839 83.1267L96.1519 84.7587C95.5852 85.45 94.8825 85.977 94.0439 86.3397C93.2052 86.7024 92.2702 86.8837 91.2389 86.8837Z" fill="#3D5C9F"/>
</svg>
